<?xml version="1.0" encoding="UTF-8"?>
<svg width="1914px" height="1080px" viewBox="0 0 1914 1080" version="1.1" xmlns="http://www.w3.org/2000/svg" xmlns:xlink="http://www.w3.org/1999/xlink">
    <!-- Generator: Sketch 51.3 (57544) - http://www.bohemiancoding.com/sketch -->
    <title>190101_112343</title>
    <desc>Created with Sketch.</desc>
    <defs></defs>
    <g id="Page-1" stroke="none" stroke-width="1" fill="none" fill-rule="evenodd" stroke-linecap="round">
        <g id="190101_112343" transform="translate(-37.000000, -197.000000)" stroke-width="5">
            <g id="Group">
                <polyline id="Shape" stroke="#D0021B" points="1340 2440 1320 2440 1300 2440 1280 2440 1260 2440 1240 2440 1220 2440 1200 2440 1180 2440 1160 2440 1140 2440 1120 2440 1100 2440 1080 2440 1060 2440 1040 2440 1020 2440 1000 2440 980 2440 960 2440 940 2440 920 2440 900 2440 880 2440 860 2440 840 2440 840 2420 840 2400 820 2400 800 2400 780 2400 760 2400 740 2400 740 2380 740 2360 740 2340 720 2340 700 2340 680 2340 660 2340 640 2340 620 2340 600 2340 580 2340 560 2340 540 2340 520 2340 500 2340 480 2340 460 2340 440 2340 420 2340 400 2340 380 2340 360 2340 340 2340 320 2340 300 2340 280 2340 260 2340 240 2340 220 2340 200 2340 180 2340 160 2340 140 2340 120 2340 100 2340 80 2340 60 2340 40 2340 20 2340 0 2340 0 2320 0 2300 0 2280 0 2260 0 2240 0 2220 0 2200 0 2180 0 2160 0 2140 0 2120 0 2100 0 2080 0 2060 0 2040 0 2020 0 2000 0 1980 0 1960 0 1940 0 1920 0 1900 0 1880 0 1860 0 1840 0 1820 0 1800 0 1780 0 1760 0 1740 0 1720 0 1700 0 1680 0 1660 0 1640 0 1620 0 1600 0 1580 0 1560 0 1540 0 1520 0 1500 0 1480 0 1460 0 1440 0 1420 0 1400 0 1380 0 1360 0 1340 0 1320 0 1300 0 1280 0 1260 0 1240 0 1220 0 1200 0 1180 0 1160 0 1140 0 1120 0 1100 0 1080 0 1060 0 1040 0 1020 0 1000 0 980 0 960 0 940 0 920 0 900 0 880 0 860 0 840 0 820 0 800 0 780 0 760 0 740 0 720 0 700 0 680 0 660 0 640 0 620 0 600 0 580 0 560 0 540 0 520 0 500 0 480 0 460 0 440 0 420 0 400 0 380 0 360 0 340 0 320 0 300 0 280 0 260 0 240 0 220 0 200 0 180 0 160 0 140 0 120 0 100 0 80 0 60 0 40 0 20 0 0 20 0 20 20 20 40 20 60 20 80 20 100 20 120 20 140 20 160 20 180 20 200 20 220 20 240 20 260 20 280 20 300 20 320 20 340 20 360 20 380 20 400 20 420 20 440 20 460 20 480 20 500 20 520 20 540 20 560 20 580 20 600 20 620 20 640 20 660 20 680 20 700 20 720 20 740 20 760 20 780 20 800 20 820 20 840 20 860 20 880 20 900 20 920 20 940 20 960 20 980 20 1000 20 1020 20 1040 20 1060 20 1080 20 1100 20 1120 20 1140 20 1160 20 1180 20 1200 20 1220 20 1240 20 1260 20 1280 20 1300 20 1320 20 1340 20 1360 20 1380 20 1400 20 1420 20 1440 20 1460 20 1480 20 1500 20 1520 20 1540 20 1560 20 1580 20 1600 20 1620 20 1640 20 1660 20 1680 20 1700 20 1720 20 1740 20 1760 20 1780 20 1800 20 1820 20 1840 20 1860 20 1880 20 1900 20 1920 20 1940 20 1960 20 1980 20 2000 20 2020 20 2040 20 2060 20 2080 20 2100 20 2120 20 2140 20 2160 20 2180 20 2200 20 2220 20 2240 20 2260 20 2280 20 2300 20 2320 40 2320 40 2300 40 2280 40 2260 40 2240 40 2220 40 2200 40 2180 40 2160 40 2140 40 2120 40 2100 40 2080 40 2060 40 2040 40 2020 40 2000 40 1980 40 1960 40 1940 40 1920 40 1900 40 1880 40 1860 40 1840 40 1820 40 1800 40 1780 40 1760 40 1740 40 1720 40 1700 40 1680 40 1660 40 1640 40 1620 40 1600 40 1580 40 1560 40 1540 40 1520 40 1500 40 1480 40 1460 40 1440 40 1420 40 1400 40 1380 40 1360 40 1340 40 1320 40 1300 40 1280 40 1260 40 1240 40 1220 40 1200 40 1180 40 1160 40 1140 40 1120 40 1100 40 1080 40 1060 40 1040 40 1020 40 1000 40 980 40 960 40 940 40 920 40 900 40 880 40 860 40 840 40 820 40 800 40 780 40 760 40 740 40 720 40 700 40 680 40 660 40 640 40 620 40 600 40 580 40 560 40 540 40 520 40 500 40 480 40 460 40 440 40 420 40 400 40 380 40 360 40 340 40 320 40 300 40 280 40 260 40 240 40 220 40 200 40 180 40 160 40 140 40 120 40 100 40 80 40 60 40 40 40 20 40 0 60 0 60 20 60 40 60 60 60 80 60 100 60 120 60 140 60 160 60 180 60 200 60 220 60 240 60 260 60 280 60 300 60 320 60 340 60 360 60 380 60 400 60 420 60 440 60 460 60 480 60 500 60 520 60 540 60 560 60 580 60 600 60 620 60 640 60 660 60 680 60 700 60 720 60 740 60 760 60 780 60 800 60 820 60 840 60 860 60 880 60 900 60 920 60 940 60 960 60 980 60 1000 60 1020 60 1040 60 1060 60 1080 60 1100 60 1120 60 1140 60 1160 60 1180 60 1200 60 1220 60 1240 60 1260 60 1280 60 1300 60 1320 60 1340 60 1360 60 1380 60 1400 60 1420 60 1440 60 1460 60 1480 60 1500 60 1520 60 1540 60 1560 60 1580 60 1600 60 1620 60 1640 60 1660 60 1680 60 1700 60 1720 60 1740 60 1760 60 1780 60 1800 60 1820 60 1840 60 1860 60 1880 60 1900 60 1920 60 1940 60 1960 60 1980 60 2000 60 2020 60 2040 60 2060 60 2080 60 2100 60 2120 60 2140 60 2160 60 2180 60 2200 60 2220 60 2240 60 2260 60 2280 60 2300 60 2320 80 2320 80 2300 80 2280 80 2260 80 2240 80 2220 80 2200 80 2180 80 2160 80 2140 80 2120 80 2100 80 2080 80 2060 80 2040 80 2020 80 2000 80 1980 80 1960 80 1940 80 1920 80 1900 80 1880 80 1860 80 1840 80 1820 80 1800 80 1780 80 1760 80 1740 80 1720 80 1700 80 1680 80 1660 80 1640 80 1620 80 1600 80 1580 80 1560 80 1540 80 1520 80 1500 80 1480 80 1460 80 1440 80 1420 80 1400 80 1380 80 1360 80 1340 80 1320 80 1300 80 1280 80 1260 80 1240 80 1220 80 1200 80 1180 80 1160 80 1140 80 1120 80 1100 80 1080 80 1060 80 1040 80 1020 80 1000 80 980 80 960 80 940 80 920 80 900 80 880 80 860 80 840 80 820 80 800 80 780 80 760 80 740 80 720 80 700 80 680 80 660 80 640 80 620 80 600 80 580 80 560 80 540 80 520 80 500 80 480 80 460 80 440 80 420 80 400 80 380 80 360 80 340 80 320 80 300 80 280 80 260 80 240 80 220 80 200 80 180 80 160 80 140 80 120 80 100 80 80 80 60 80 40 80 20 80 0 100 0 100 20 100 40 100 60 100 80 100 100 100 120 100 140 100 160 100 180 100 200 100 220 100 240 100 260 100 280 100 300 100 320 100 340 100 360 100 380 100 400 100 420 100 440 100 460 100 480 100 500 100 520 100 540 100 560 100 580 100 600 100 620 100 640 100 660 100 680 100 700 100 720 100 740 100 760 100 780 100 800 100 820 100 840 100 860 100 880 100 900 100 920 100 940 100 960 100 980 100 1000 100 1020 100 1040 100 1060 100 1080 100 1100 100 1120 100 1140 100 1160 100 1180 100 1200 100 1220 100 1240 100 1260 100 1280 100 1300 100 1320 100 1340 100 1360 100 1380 100 1400 100 1420 100 1440 100 1460 100 1480 100 1500 100 1520 100 1540 100 1560 100 1580 100 1600 100 1620 100 1640 100 1660 100 1680 100 1700 100 1720 100 1740 100 1760 100 1780 100 1800 100 1820 100 1840 100 1860 100 1880 100 1900 100 1920 100 1940 100 1960 100 1980 100 2000 100 2020 100 2040 100 2060 100 2080 100 2100 100 2120 100 2140 100 2160 100 2180 100 2200 100 2220 100 2240 100 2260 100 2280 100 2300 100 2320 120 2320 120 2300 120 2280 120 2260 120 2240 120 2220 120 2200 120 2180 120 2160 120 2140 120 2120 120 2100 120 2080 120 2060 120 2040 120 2020 120 2000 120 1980 120 1960 120 1940 120 1920 120 1900 120 1880 120 1860 120 1840 120 1820 120 1800 120 1780 120 1760 120 1740 120 1720 120 1700 120 1680 120 1660 120 1640 120 1620 120 1600 120 1580 120 1560 120 1540 120 1520 120 1500 120 1480 120 1460 120 1440 120 1420 120 1400 120 1380 120 1360 120 1340 120 1320 120 1300 120 1280 120 1260 120 1240 120 1220 120 1200 120 1180 120 1160 120 1140 120 1120 120 1100 120 1080 120 1060 120 1040 120 1020 120 1000 120 980 120 960 120 940 120 920 120 900 120 880 120 860 120 840 120 820 140 800 140 780 140 760 120 760 120 740 120 720 120 700 120 680 120 660 120 640 120 620 120 600 120 580 120 560 120 540 120 520 120 500 120 480 120 460 120 440 120 420 120 400 120 380 120 360 120 340 120 320 120 300 120 280 120 260 120 240 120 220 120 200 120 180 120 160 120 140 120 120 120 100 120 80 120 60 120 40 120 20 120 0 140 0 140 20 140 40 140 60 140 80 140 100 140 120 140 140 140 160 140 180 140 200 140 220 140 240 140 260 140 280 140 300 140 320 140 340 160 340 180 360 160 380 160 400 160 420 160 440 140 440 140 460 140 480 140 500 140 520 140 540 140 560 140 580 140 600 160 600 160 560"></polyline>
                <polyline id="Shape" stroke="#F300CD" points="200 600 200 620 200 640 220 640 220 620 220 600 240 600 240 620 240 640 240 660 220 660 200 680 200 700 200 720 200 740 200 760 200 780 200 800 180 800 160 800 160 820 160 840 140 840 140 860 140 880 140 900 140 920 140 940 140 960 140 980 140 1000 140 1020 140 1040 140 1060 140 1080 140 1100 140 1120 140 1140 140 1160 140 1180 140 1200 140 1220 140 1240 140 1260 140 1280 140 1300 140 1320 140 1340 140 1360 140 1380 140 1400 140 1420 140 1440 140 1460 140 1480 140 1500 140 1520 140 1540 140 1560 140 1580 140 1600 140 1620 140 1640 140 1660 140 1680 140 1700 140 1720 140 1740 140 1760 140 1780 140 1800 140 1820 140 1840 140 1860 140 1880 140 1900 140 1920 140 1940 140 1960 140 1980 140 2000 140 2020 140 2040 140 2060 140 2080 140 2100 140 2120 140 2140 140 2160 140 2180 140 2200 140 2220 140 2240 140 2260 140 2280 140 2300 140 2320 160 2320 160 2300 160 2280 160 2260 160 2240 160 2220 160 2200 160 2180 160 2160 160 2140 160 2120 160 2100 160 2080 160 2060 160 2040 160 2020 160 2000 160 1980 160 1960 160 1940 160 1920 160 1900 160 1880 160 1860 160 1840 160 1820 160 1800 160 1780 160 1760 160 1740 160 1720 160 1700 160 1680 160 1660 160 1640 160 1620 160 1600 160 1580 160 1560 160 1540 160 1520 160 1500 160 1480 160 1460 160 1440 160 1420 160 1400 160 1380 160 1360 160 1340 160 1320 160 1300 160 1280 160 1260 160 1240 160 1220 160 1200 160 1180 160 1160 160 1140 160 1120 160 1100 160 1080 160 1060 160 1040 160 1020 160 1000 160 980 160 960 160 940 160 920 160 900 160 880 180 880 180 860 200 860 200 840 200 820 180 820 220 820 220 840 220 860 240 860 240 840 240 820 240 800 240 780 220 780 220 760 220 740 220 720 220 700 240 700 240 680 240 720 240 740 240 760"></polyline>
                <polyline id="Shape" stroke="#F300CD" points="260 820 260 840 260 860 280 860 280 840 280 820 300 820 300 840 300 860 320 860 320 840 320 820 360 820"></polyline>
                <polyline id="Shape" stroke="#F300CD" points="460 840 460 860 480 860 480 880 500 900 500 920"></polyline>
                <polyline id="Shape" stroke="#F300CD" points="460 980 440 980 440 1020 420 1020 420 1060 400 1060 380 1060 360 1060 340 1060 320 1060 300 1060 280 1060 260 1060 240 1060 220 1060 200 1060 180 1060 180 1040 180 1020 180 1000 180 980 180 960 180 940 180 920 180 900 200 900 200 920 200 940 200 960 200 980 200 1000 200 1020 200 1040 220 1040 220 1020 220 1000 220 980 220 960 220 940 220 920 220 900 240 920 240 940 240 960 240 980 240 1000 240 1020 240 1040 260 1040 260 1020 260 1000 260 980 260 960 260 940 260 920 280 920 280 940 280 960 280 980 280 1000 280 1020 280 1040 300 1040 300 1020 300 1000"></polyline>
                <polyline id="Shape" stroke="#F300CD" points="320 1040 320 1080 300 1080 280 1080 260 1080 240 1080 220 1080 200 1080 180 1080 180 1100 180 1120 180 1140 180 1160 180 1180 180 1200 180 1220 180 1240 180 1260 180 1280 180 1300 180 1320 180 1340 180 1360 180 1380 180 1400 180 1420 180 1440 180 1460 180 1480 180 1500 180 1520 180 1540 180 1560 180 1580 180 1600 180 1620 180 1640 180 1660 180 1680 180 1700 180 1720 180 1740 180 1760 180 1780 180 1800 180 1820 180 1840 180 1860 180 1880 180 1900 180 1920 180 1940 180 1960 180 1980 180 2000 180 2020 180 2040 180 2060 180 2080 180 2100 180 2120 180 2140 180 2160 180 2180 180 2200 180 2220 180 2240 180 2260 180 2280 180 2300 180 2320 200 2320 200 2300 200 2280 200 2260 200 2240 200 2220 200 2200 200 2180 200 2160 200 2140 200 2120 200 2100 200 2080 200 2060 200 2040 200 2020 200 2000 200 1980 200 1960 200 1940 200 1920 200 1900 200 1880 200 1860 200 1840 200 1820 200 1800 200 1780 200 1760 200 1740 200 1720 200 1700 200 1680 200 1660 200 1640 200 1620 200 1600 200 1580 200 1560 200 1540 200 1520 200 1500 200 1480 200 1460 200 1440 200 1420 200 1400 200 1380 200 1360 200 1340 200 1320 200 1300 200 1280 200 1260 200 1240 200 1220 200 1200 200 1180 200 1160 200 1140 200 1120 200 1100 220 1100 220 1120 220 1140 220 1160 220 1180 220 1200 220 1220 220 1240 220 1260 220 1280 220 1300 220 1320 220 1340 220 1360 220 1380 220 1400 220 1420 220 1440 220 1460 220 1480 220 1500 220 1520 220 1540 220 1560 220 1580 220 1600 220 1620 220 1640 220 1660 220 1680 220 1700 220 1720 220 1740 220 1760 220 1780 220 1800 220 1820 220 1840 220 1860 220 1880 220 1900 220 1920 220 1940 220 1960 220 1980 220 2000 220 2020 220 2040 220 2060 220 2080 220 2100 220 2120 220 2140 220 2160 220 2180 220 2200 220 2220 220 2240 220 2260 220 2280 220 2300 220 2320 240 2320 240 2300 240 2280 240 2260 240 2240 240 2220 240 2200 240 2180 240 2160 240 2140 240 2120 240 2100 240 2080 240 2060 240 2040 240 2020 240 2000 240 1980 240 1960 240 1940 240 1920 240 1900 240 1880 240 1860 240 1840 240 1820 240 1800 240 1780 240 1760 240 1740 240 1720 240 1700 240 1680 240 1660 240 1640 240 1620 240 1600 240 1580 240 1560 240 1540 240 1520 240 1500 240 1480 240 1460 240 1440 240 1420 240 1400 240 1380 240 1360 240 1340 240 1320 240 1300 240 1280 240 1260 240 1240 240 1220 240 1200 240 1180 240 1160 240 1140 240 1120 240 1100 260 1100 260 1120 260 1140 260 1160 260 1180 260 1200 260 1220 260 1240 260 1260 260 1280 260 1300 260 1320 260 1340 260 1360 260 1380 260 1400 260 1420 260 1440 260 1460 260 1480 260 1500 260 1520 260 1540 260 1560 260 1580 260 1600 260 1620 260 1640 260 1660 260 1680 260 1700 260 1720 260 1740 260 1760 260 1780 260 1800 260 1820 260 1840 260 1860 260 1880 260 1900 260 1920 260 1940 260 1960 260 1980 260 2000 260 2020 260 2040 260 2060 260 2080 260 2100 260 2120 260 2140 260 2160 260 2180 260 2200 260 2220 260 2240 260 2260 260 2280 260 2300 260 2320 280 2320 280 2300 280 2280 280 2260 280 2240 280 2220 280 2200 280 2180 280 2160 280 2140 280 2120 280 2100 280 2080 280 2060 280 2040 280 2020 280 2000 280 1980 280 1960 280 1940 280 1920 280 1900 280 1880 280 1860 280 1840 280 1820 280 1800 280 1780 280 1760 280 1740 280 1720 280 1700 280 1680 280 1660 280 1640 280 1620 280 1600 280 1580 280 1560 280 1540 280 1520 280 1500 280 1480 280 1460 280 1440 280 1420 280 1400 280 1380 280 1360 280 1340 300 1340 300 1360 300 1380 300 1400 300 1420 300 1440 300 1460 300 1480 300 1500 300 1520 300 1540 300 1560 300 1580 300 1600 300 1620 300 1640 300 1660 300 1680 300 1700 300 1720 300 1740 300 1760 300 1780 300 1800 300 1820 300 1840 300 1860 300 1880 300 1900 300 1920 300 1940 300 1960 300 1980 300 2000 300 2020 300 2040 300 2060 300 2080 300 2100 300 2120 300 2140 300 2160 300 2180 300 2200 300 2220 300 2240 300 2260 300 2280 300 2300 300 2320 320 2320 320 2300 320 2280 320 2260 320 2240 320 2220 320 2200 320 2180 320 2160 320 2140 320 2120 320 2100 320 2080 320 2060 320 2040 320 2020 320 2000 320 1980 320 1960 320 1940 320 1920 320 1900 320 1880 320 1860 320 1840 320 1820 320 1800 320 1780 320 1760 320 1740 320 1720 320 1700 320 1680 320 1660 320 1640 320 1620 320 1600 320 1580 320 1560 320 1540 320 1520 320 1500 320 1480 320 1460 320 1440 320 1420 320 1400 320 1380 320 1360 320 1340 340 1360 340 1400 340 1420 340 1440 340 1460 340 1480 340 1500 340 1520 340 1540 340 1560 340 1580 340 1600 340 1620 340 1640 340 1660 340 1680 340 1700 340 1720 340 1740 340 1760 340 1780 340 1800 340 1820 340 1840 340 1860 340 1880 340 1900 340 1920 340 1940 340 1960 340 1980 340 2000 340 2020 340 2040 340 2060 340 2080 340 2100 340 2120 340 2140 340 2160 340 2180 340 2200 340 2220 340 2240 340 2260 340 2280 340 2300 340 2320 360 2320 360 2300 360 2280 360 2260 360 2240 360 2220 360 2200 360 2180 360 2160 360 2140 360 2120 360 2100 360 2080 360 2060 360 2040 360 2020 360 2000 360 1980 360 1960 360 1940 360 1920 360 1900 360 1880 360 1860 360 1840 360 1820 360 1800 360 1780 360 1760 360 1740 360 1720 360 1700 360 1680 360 1660 360 1640 360 1620 360 1600 360 1580 360 1560 360 1540 360 1520 360 1500 360 1480 360 1460 380 1460"></polyline>
                <polyline id="Shape" stroke="#F300CD" points="700 1400 700 1380 680 1380 660 1380 640 1380 640 1400 640 1420 660 1400 660 1360 660 1340 660 1320 640 1320 640 1300 640 1280 640 1260 620 1260 600 1260 600 1240 600 1220 600 1200 600 1180 580 1180 560 1180 560 1160 540 1160 520 1180 500 1180 500 1160 500 1200 500 1220 480 1220 460 1220 440 1200 440 1240 460 1260 480 1260 480 1280 500 1280 500 1260 500 1240 520 1220 540 1220 540 1200 560 1200 560 1220 560 1240 540 1240 540 1260 520 1260 520 1280 560 1280 600 1280"></polyline>
                <polyline id="Shape" stroke="#F300CD" points="620 1240 620 1220 620 1200 620 1180 640 1180 640 1160 640 1140 620 1140 620 1120 620 1100 600 1100 600 1080 620 1080 620 1060 620 1040 620 1020 640 1020 640 1040 640 1060 640 1080 660 1080 660 1060 660 1040 680 1040 680 1020 700 1040 700 1060 700 1080 700 1100 680 1100 680 1120 680 1140 680 1160 660 1160 660 1180 660 1200 640 1200 640 1220 640 1240 660 1240 660 1220 680 1220 680 1200 680 1180 700 1180 700 1200 700 1220 700 1240 680 1240 680 1260 660 1260 660 1280 660 1300 680 1300 680 1280 700 1280 700 1260 720 1260 720 1240 720 1220 720 1200 720 1180 720 1160 720 1140 720 1120 700 1120 720 1100 720 1080 720 1060 720 1040 720 1020 720 1000 720 980 700 980 680 980 680 960 660 960 680 940 700 940 700 920 700 900 700 880 700 860 680 860 660 860 640 860 640 840 640 820 620 820 620 800 600 800 600 780 600 760 620 760 620 780 640 780 640 760 640 740 660 740 660 720 680 720 680 700 680 680 660 680 640 680 620 680 600 680 580 680 560 680 540 680 540 660 560 660 580 660 580 640 580 620 580 600 560 600 560 580 540 580 520 580 500 580 500 560 480 560 500 540 500 520 480 520 480 500 460 500 440 500 420 500 400 500 380 500 360 500 360 520 340 520 340 540 360 540 360 560 400 560 420 560 440 540 440 520 420 520 420 480 420 460 400 460 400 440 380 440 380 420 360 420 340 420 320 420 300 420 280 420 260 420 240 420 220 420 220 440 200 440 200 460 180 460 160 460"></polyline>
                <polyline id="Shape" stroke="#F300CD" points="180 420 180 400 200 400"></polyline>
                <polyline id="Shape" stroke="#F300CD" points="240 440 240 460 220 460 260 460 260 440 280 440 280 460 300 460 320 440 320 400 300 400 280 400"></polyline>
                <polyline id="Shape" stroke="#F300CD" points="320 380 340 380 340 360 340 340 340 320 340 300 360 300 360 280 360 260 360 240 340 240 340 220 340 200 340 180 340 160 340 140 340 120 340 100 340 80 340 60 340 40 320 40 300 40 280 40 260 40 240 40 220 40 200 40 180 40 160 40 160 20 160 0 180 0 180 20 200 20 200 0 220 0 220 20 240 20 240 0 260 0 260 20 280 20 280 0 300 0 300 20 320 20 320 0 340 0 340 20 360 20 360 0 380 0 380 20 380 40 360 40 360 60 360 80 360 100 360 120 360 140 360 160 360 180 360 200 360 220 380 220 380 200 380 180 380 160 380 140 380 120 380 100 380 80 380 60 400 60 400 40 400 20 400 0 420 0 420 20 420 40 420 60 420 80 400 80 400 100 400 120 400 140 400 160 400 180 400 200 400 220 400 240 380 240 380 260 380 280 380 300 380 320 360 320 360 340 360 360 360 380 360 400 340 400 380 400 380 380 380 360 380 340 400 340 400 320 400 300 400 280 400 260 420 260 420 240 420 220 420 200 420 180 420 160 420 140 420 120 420 100 440 100 440 80 440 60 440 40 440 20 440 0 460 0 460 20 460 40 460 60 460 80 460 100 460 120 440 120 440 140 440 160 440 180 440 200 440 220 440 240 440 260 440 280 420 280 420 300 420 320 420 340 420 360 400 360 400 380 420 380 420 400 420 420 400 420 420 440 440 440 440 420 440 400 440 380 440 360 440 340 440 320 440 300 460 300 460 280 460 260 460 240 460 220 460 200 460 180 460 160 460 140 480 140 480 120 480 100 480 80 480 60 480 40 480 20 480 0 500 0 500 20 500 40 500 60 500 80 500 100 500 120 500 140 500 160 480 160 480 180 480 200 480 220 480 240 480 260 480 280 480 300 500 300 500 280 500 260 500 240 500 220 500 200 500 180 520 180 520 160 520 140 520 120 520 100 520 80 520 60 520 40 520 20 520 0 540 0 540 20 540 40 540 60 540 80 540 100 540 120 540 140 540 160 540 180 540 200 520 200 520 220 520 240 520 260 520 280 520 300 520 320 500 320 500 340 480 340 460 340 460 320 460 360 460 380 460 400 460 420 460 440 460 460 440 460 440 480 460 480 480 480 480 460 480 440 480 420 480 400 480 380 480 360 500 360 500 380 500 400 500 420 500 440 500 460 500 480 500 500 520 500 520 480 520 460 520 440 520 420 520 400 520 380 520 360 520 340 540 340 540 320 540 300 540 280 540 260 540 240 540 220 560 220 560 200 560 180 560 160 560 140 560 120 560 100 560 80 560 60 560 40 560 20 560 0 580 0 580 20 580 40 580 60 580 80 580 100 580 120 580 140 580 160 580 180 580 200 580 220 580 240 560 240 560 260 560 280 560 300 560 320 560 340 560 360 540 360 540 380 540 400 540 420 540 440 540 460 540 480 540 500 540 520 520 520 520 540 520 560 540 560 540 540 560 540 560 520 560 500 560 480 560 460 560 440 560 420 560 400 560 380 580 380 580 400 580 420 580 440 580 460 580 480 580 500 580 520 580 540 580 560 560 560 580 580 600 580 600 560 600 540 600 520 600 500 600 480 600 460 600 440 600 420 600 400 600 380 600 360 600 340 580 340 580 320 580 300 580 280 580 260 600 260 600 240 600 220 600 200 600 180 600 160 600 140 600 120 600 100 600 80 600 60 600 40 600 20 600 0 620 0 620 20 620 40 620 60 620 80 620 100 620 120 620 140 620 160 620 180 620 200 620 220 620 240 620 260 620 280 600 280 600 300 600 320 620 320 620 300 640 300 640 280 640 260 640 240 640 220 640 200 640 180 640 160 640 140 640 120 640 100 640 80 640 60 640 40 640 20 640 0 660 0 660 20 660 40 660 60 660 80 660 100 660 120 660 140 660 160 660 180 660 200 660 220 660 240 660 260 660 280 660 300 660 320 640 320 640 340 620 340 620 360 620 380 620 400 620 420 620 440 620 460 620 480 620 500 620 520 620 540 620 560 620 580 620 600 600 600 600 620 600 640 620 640 620 620 640 620 640 600 640 580 640 560 640 540 640 520"></polyline>
                <polyline id="Shape" stroke="#F300CD" points="660 560 660 580 660 600 660 620 660 640 640 640 640 660 620 660 620 700 600 700 580 700 580 740 560 740"></polyline>
                <polyline id="Shape" stroke="#F300CD" points="660 760 660 780 640 800 680 800 680 820 680 840 660 840 700 840 700 820 700 800 700 780 700 760 680 760 680 740 700 740 720 740 720 720 720 700 720 680 700 680 700 660 700 640 700 620 700 600 680 600 680 580 700 580 700 560 700 540 700 520 720 520 720 500 720 480 700 480 700 460 680 460 660 460 640 460 640 440 640 420 640 400 640 380 640 360 660 360 660 340 680 340 680 320 680 300 680 280 680 260 680 240 680 220 680 200 680 180 680 160 680 140 680 120 680 100 680 80 680 60 680 40 680 20 680 0 700 0 700 20 700 40 720 40 720 20 720 0 740 0 740 20 740 40 740 60 720 60 720 80 700 80 720 100 720 120 700 120 700 140 700 160 700 180 700 200 700 220 700 240 700 260 700 280 700 300 700 320 700 340 700 360 680 360 680 380 660 380 660 420 680 440 700 440 720 440 720 420 720 400 720 380 700 380 720 360 720 340 720 320 720 300 720 280 720 260 720 240 720 220 720 200 720 180 720 160 720 140 740 140 740 120 740 100 740 80 760 80 760 60 760 40 760 20 760 0 780 0 780 20 780 40 780 60 780 80 780 100 760 100 760 120 760 140 760 160 740 160 740 180 740 200 740 220 740 240 740 260 740 280 740 300 740 320 740 340 740 360 740 380 740 400 740 420 740 440 740 460 720 460 740 480 740 500 740 520 740 540 720 540 720 560 720 580 720 600 720 620 720 640 720 660 740 660 740 640 740 620 740 600 740 580 740 560 760 560 760 540 760 520 760 500 760 480 760 460 760 440 760 420 780 420 780 400 780 380 780 360 780 340 780 320 760 320 760 300 760 280 760 260 760 240 760 220 760 200 760 180 780 180 780 160 780 140 780 120 800 120 800 100 800 80 800 60 800 40 800 20 800 0 820 0 820 20 820 40 820 60 820 80 840 100 860 100 860 80"></polyline>
                <polyline id="Shape" stroke="#F300CD" points="1040 100 1040 140 1020 140 1000 140 980 140 960 140 940 140 920 140 900 140 880 140 860 140 840 140 820 140 800 140 800 160 800 180 800 200 780 200 780 220 780 240 780 260 780 280 780 300 800 300 800 280 800 260 800 240 800 220 820 220 820 200 820 180 820 160 840 160 860 160 880 160 900 160 920 160 940 160 960 160 980 160 1000 160 1020 160 1040 160 1060 160 1060 140 1080 140 1080 120 1100 140 1100 160 1080 160 1080 180 1080 200 1060 200 1060 220 1060 240 1080 240 1080 260 1080 280 1100 280 1100 300 1100 320 1080 320 1080 340 1080 360 1080 380 1080 400 1060 400 1060 420 1080 420 1080 440 1080 460 1060 460 1060 480 1080 480 1100 480 1100 460 1100 440 1100 420 1100 400 1100 380 1100 360 1100 340 1120 340 1120 320 1120 300 1120 280 1120 260 1120 240 1100 240 1120 220 1120 200 1100 200 1100 180 1120 180 1120 160 1120 140 1120 120 1120 100 1120 80 1140 80 1140 60 1160 60 1160 80 1160 100 1140 100 1140 120 1140 140 1140 160 1140 180 1160 180 1160 160 1160 140 1160 120 1180 120 1180 100 1180 80 1180 60 1180 40 1200 40 1200 60 1200 80 1220 80 1220 60 1220 40 1220 20 1200 0 1240 0 1260 0 1260 20 1260 40 1240 40 1240 60 1240 80 1240 100 1220 100 1200 120 1180 140 1180 160 1180 180 1200 180 1200 160 1220 160 1220 140 1240 140 1240 120 1260 100 1260 80 1260 60 1280 60 1280 40 1280 20 1280 0 1300 0 1300 20 1300 40 1320 40 1320 20 1340 40 1340 60 1320 60 1320 80 1320 100 1300 100 1320 120 1340 120 1340 100 1340 80 1360 80 1360 60 1380 80 1360 100 1360 120 1360 140 1340 160"></polyline>
                <polyline id="Shape" stroke="#F300CD" points="1320 200 1300 220 1320 240 1320 260 1300 260 1280 260 1280 280 1280 300 1260 300 1260 320 1240 320 1240 340 1240 360 1220 380 1180 380 1160 380 1140 380 1120 380 1120 360 1140 360 1140 340 1140 320 1140 300 1140 280 1140 260 1140 240 1140 220 1160 220 1160 200 1180 220 1180 240 1160 240 1160 260 1160 280 1160 300 1160 320 1160 340 1200 340 1200 320 1200 280 1180 280 1180 260 1200 260 1200 240 1200 220 1200 200 1220 200 1220 180"></polyline>
                <polyline id="Shape" stroke="#F300CD" points="1240 220 1240 240 1220 260"></polyline>
                <polyline id="Shape" stroke="#F300CD" points="1300 280 1300 300 1280 320 1260 340"></polyline>
                <polyline id="Shape" stroke="#F300CD" points="1300 420 1300 440 1280 460 1260 460 1260 440"></polyline>
                <polyline id="Shape" stroke="#F300CD" points="1240 480 1240 500 1240 520 1220 540 1200 540 1200 560 1180 560 1200 580 1200 600 1180 600 1140 600 1140 620 1140 640 1120 640 1140 660 1160 660 1160 640 1180 640"></polyline>
                <polyline id="Shape" stroke="#F300CD" points="1220 620 1220 600 1240 600 1240 580 1260 560 1280 560 1280 580 1280 600 1280 620 1260 620 1260 640 1260 660 1260 680 1260 700 1240 700 1260 720"></polyline>
                <path d="M1200,700 L1180,700" id="Shape" stroke="#F300CD"></path>
                <polyline id="Shape" stroke="#F300CD" points="940 700 920 700 900 700 880 700 860 700 840 700 820 700 800 700 780 700 760 700 740 700 740 680 760 680 760 660 760 640 760 620 760 600 760 580 780 580 780 560 780 540 780 520 780 500 780 480 780 460 780 440 800 440 800 420 800 400 800 380 800 360 800 340 800 320 820 320 820 300 840 300 840 320 840 340 820 340 820 360 820 380 820 400 820 420 820 440 820 460 800 460 800 480 800 500 800 520 800 540 800 560 800 580 800 600 780 600 780 620 780 640 780 660 780 680 800 680 800 660 800 640 800 620 820 620 820 600 820 580 820 560 820 540 820 520 820 500 820 480 840 480 840 460 840 440 840 420 840 400 840 380 840 360 860 360 860 340 860 320 860 300 880 320 880 340 900 340 900 320 920 320 920 340 940 340 940 320 960 320 960 340 960 360 940 360 960 380 960 400 940 400 920 400 900 400 880 400 860 400 860 380 880 380 900 380 900 360"></polyline>
                <polyline id="Shape" stroke="#F300CD" points="980 360 980 340 980 380 980 400"></polyline>
                <polyline id="Shape" stroke="#F300CD" points="1120 400 1140 400 1160 420 1180 440 1180 460 1140 460"></polyline>
                <path d="M1120,500 L1100,500" id="Shape" stroke="#F300CD"></path>
                <polyline id="Shape" stroke="#F300CD" points="1060 520 1060 540 1060 560"></polyline>
                <polyline id="Shape" stroke="#F300CD" points="980 560 960 560 980 540"></polyline>
                <polyline id="Shape" stroke="#F300CD" points="900 560 880 560 860 560 840 560 840 540 840 520 840 500 860 500 860 520"></polyline>
                <polyline id="Shape" stroke="#F300CD" points="860 460 860 440 880 440"></polyline>
                <polyline id="Shape" stroke="#F300CD" points="840 580 840 600 840 620 840 640 820 640 820 660 820 680 840 680 840 660"></polyline>
                <polyline id="Shape" stroke="#F300CD" points="840 720 820 720 800 720 780 720 760 720 740 720 740 740 740 760 720 760 720 780 720 800 720 820 720 840 720 860 720 880 720 900"></polyline>
                <polyline id="Shape" stroke="#F300CD" points="740 860 740 840 760 840"></polyline>
                <polyline id="Shape" stroke="#F300CD" points="740 800 740 780 760 780 760 760 760 740 780 740 780 760 780 780 800 760 800 740 820 740 820 760 840 760 840 740 860 740 860 720 880 720 900 720 920 720"></polyline>
                <polyline id="Shape" stroke="#F300CD" points="920 880 920 900 900 900 900 920 900 940 880 940 880 960 880 980 880 1000 860 1000 860 1020 840 1020 820 1020 800 1020 780 1020 760 1020 740 1020 740 1000 740 980 740 960 720 960 700 960"></polyline>
                <polyline id="Shape" stroke="#F300CD" points="660 920 660 900 640 880"></polyline>
                <polyline id="Shape" stroke="#F300CD" points="600 960 600 980 600 1000 580 1000"></polyline>
                <path d="M600,1160 L580,1160" id="Shape" stroke="#F300CD"></path>
                <polyline id="Shape" stroke="#F300CD" points="740 1160 740 1140 740 1120 740 1100 740 1080 740 1060 740 1040 760 1040 760 1060 760 1080 760 1100 760 1120 760 1140 780 1140 780 1120 780 1100 780 1060 780 1040 800 1040 800 1060 820 1060 820 1040 840 1040 860 1040 880 1040 880 1020 900 1020 900 1000 900 980 900 960 920 960 920 940 920 920 940 920 940 900 940 880 940 860 960 860 960 880 960 900 960 920 960 940 940 940 940 960 940 980 920 980 920 1000 920 1020 920 1040 900 1040"></polyline>
                <polyline id="Shape" stroke="#F300CD" points="940 1020 940 1000 960 1000 960 980 960 960 980 960 980 940 980 920 980 900"></polyline>
                <polyline id="Shape" stroke="#F300CD" points="980 980 980 1000 980 1020 960 1020 980 1040 1000 1020 1000 1000 1000 980 1020 1000 1020 1020"></polyline>
                <polyline id="Shape" stroke="#F300CD" points="1100 1000 1100 980 1100 960 1100 940 1100 920 1120 920 1120 940 1120 960 1140 960 1140 940 1140 980 1140 1000 1140 1020 1120 1020 1120 1040 1120 1060 1140 1040 1160 1040 1160 1020 1160 980"></polyline>
                <polyline id="Shape" stroke="#F300CD" points="1140 780 1160 780 1180 780 1200 780"></polyline>
                <path d="M1260,780 L1280,780" id="Shape" stroke="#F300CD"></path>
                <polyline id="Shape" stroke="#F300CD" points="1320 760 1340 780 1360 760 1380 760 1400 780 1420 800 1420 840"></polyline>
                <polyline id="Shape" stroke="#F300CD" points="1480 860 1480 840 1480 800 1500 800 1500 780 1540 780 1540 800 1560 800 1560 820 1560 840 1580 840 1580 820"></polyline>
                <polyline id="Shape" stroke="#F300CD" points="1520 840 1520 860 1520 880 1520 900 1480 900 1480 920"></polyline>
                <path d="M1660,740 L1700,740" id="Shape" stroke="#F300CD"></path>
                <polyline id="Shape" stroke="#F300CD" points="1560 640 1540 620 1540 600 1520 600 1520 580 1500 580 1500 560 1480 560 1480 540 1480 520 1500 520 1500 500 1500 480 1480 480 1460 480 1440 480 1420 480 1400 480 1420 460 1420 440 1420 420 1420 400 1400 400 1400 380 1400 360 1400 340 1400 320 1400 300 1420 300 1440 300 1440 280"></polyline>
                <polyline id="Shape" stroke="#F300CD" points="1460 320 1480 340 1480 360 1460 360 1440 360 1440 380 1440 400 1460 400 1460 380 1480 380 1480 400 1480 420 1460 420 1460 440 1440 440 1440 460 1460 460 1480 460 1480 440 1500 440 1500 460 1520 460 1520 440 1520 420 1520 400 1520 380 1500 380 1500 360 1500 340 1520 360 1540 360 1540 380"></polyline>
                <polyline id="Shape" stroke="#F300CD" points="1540 440 1540 460 1540 480 1520 480 1520 500 1520 520 1520 540 1500 540 1520 560 1540 560 1540 540 1540 520 1540 500 1560 520 1560 540 1560 560 1580 560 1580 540 1600 540 1640 540 1640 520 1620 500"></polyline>
                <path d="M1580,460 L1560,440" id="Shape" stroke="#F300CD"></path>
                <polyline id="Shape" stroke="#F300CD" points="1360 480 1360 460 1340 440 1340 420 1360 400 1360 380"></polyline>
                <path d="M1520,300 L1540,300" id="Shape" stroke="#F300CD"></path>
                <polyline id="Shape" stroke="#F300CD" points="1680 300 1700 300 1720 300 1740 300 1740 280 1760 260 1760 220 1760 200 1760 180 1740 180 1740 160 1740 140 1740 120 1740 100 1740 80 1740 60 1760 80 1760 100 1760 120 1760 140 1760 160 1780 140 1780 120 1780 100 1800 100 1800 80 1800 60 1780 60 1800 40 1800 20 1820 20 1820 0 1840 0 1840 20 1840 40 1820 40 1820 60 1820 80 1820 100 1820 120 1800 120 1820 140 1820 160 1800 160 1800 180 1800 200 1820 200 1820 180 1840 180 1840 160 1840 140 1840 120 1840 100 1840 80 1840 60 1860 60 1860 40 1880 40 1880 20 1880 0 1900 0 1900 20 1900 40 1900 60 1880 60 1880 80 1860 80 1860 100 1860 120 1860 140 1860 160 1860 180 1860 200 1840 200 1840 220 1820 220 1820 240 1840 240 1860 220 1880 220 1880 200 1880 180 1880 160 1880 140 1880 120 1880 100 1900 100 1900 80 1920 80 1920 60 1920 40 1920 20 1920 0 1940 0 1940 20 1940 40 1940 60 1940 80 1940 100 1920 100 1920 120 1900 120 1900 140 1900 160 1900 180 1900 200 1900 220 1900 240 1880 240 1860 260 1880 280 1900 260 1920 260 1920 240 1920 220 1920 200 1920 180 1920 160 1920 140 1940 140 1940 120 1960 120 1960 100 1960 80 1960 60 1960 40"></polyline>
                <polyline id="Shape" stroke="#F300CD" points="1980 80 1980 120 1980 140 1960 140 1960 160 1940 160 1940 180 1940 200 1940 220 1940 240 1940 260 1940 280 1920 280 1920 300 1940 300 1940 320 1960 320 1960 300 1960 280 1960 260 1960 240 1960 220 1960 200 1960 180 1980 180 1980 160 1980 200 1980 220 1980 240 1980 260 1980 300 1980 320 1980 340 1960 340 1980 360 1980 380"></polyline>
                <polyline id="Shape" stroke="#F300CD" points="1800 340 1780 340 1780 380 1740 380"></polyline>
                <polyline id="Shape" stroke="#F300CD" points="1800 300 1820 280 1800 260"></polyline>
                <polyline id="Shape" stroke="#F300CD" points="1320 500 1320 520 1300 520 1280 520 1280 500"></polyline>
                <polyline id="Shape" stroke="#F300CD" points="1300 560 1300 580 1300 600 1320 580"></polyline>
                <polyline id="Shape" stroke="#F300CD" points="1360 600 1360 640 1360 660 1360 680 1320 680"></polyline>
                <polyline id="Shape" stroke="#F300CD" points="1400 660 1420 660 1440 660 1440 620 1420 620 1460 620 1500 620 1500 640 1500 660 1500 680 1520 680 1520 660 1520 640"></polyline>
                <polyline id="Shape" stroke="#F300CD" points="1560 600 1540 580 1580 580"></polyline>
                <polyline id="Shape" stroke="#F300CD" points="1540 700 1520 700 1520 720 1540 720 1540 740"></polyline>
                <polyline id="Shape" stroke="#F300CD" points="1260 920 1260 960 1260 980 1260 1000 1260 1020 1300 1020 1300 1000 1280 980"></polyline>
                <polyline id="Shape" stroke="#F300CD" points="1280 1100 1260 1120 1240 1120 1260 1140 1280 1140 1300 1140 1320 1140 1340 1160 1360 1180 1360 1200 1360 1220 1360 1240 1340 1240 1340 1260 1340 1280"></polyline>
                <path d="M1380,1260 L1380,1240" id="Shape" stroke="#F300CD"></path>
                <path d="M1480,1160 L1460,1140" id="Shape" stroke="#F300CD"></path>
                <path d="M1520,1140 L1540,1140" id="Shape" stroke="#F300CD"></path>
                <polyline id="Shape" stroke="#F300CD" points="1280 1180 1240 1180 1200 1180 1200 1160 1200 1140 1180 1140 1160 1140 1160 1120 1180 1120"></polyline>
                <path d="M1140,1080 L1160,1060" id="Shape" stroke="#F300CD"></path>
                <polyline id="Shape" stroke="#F300CD" points="1140 1160 1120 1160 1140 1180"></polyline>
                <polyline id="Shape" stroke="#F300CD" points="1200 1280 1220 1280 1260 1280 1260 1260 1280 1240"></polyline>
                <polyline id="Shape" stroke="#F300CD" points="960 1400 960 1380 960 1360 940 1360 940 1340 940 1320 920 1300 920 1280 900 1280 900 1260 880 1260 920 1260 940 1260 940 1240 960 1220 980 1220 980 1240 980 1260 960 1260 960 1280 960 1300 980 1280 1000 1260"></polyline>
                <polyline id="Shape" stroke="#F300CD" points="760 1280 740 1280 720 1280 740 1260 740 1220 740 1200 740 1180"></polyline>
                <polyline id="Shape" stroke="#F300CD" points="800 1140 820 1140 820 1120 840 1120 840 1140 860 1120 880 1120 900 1120 900 1140 920 1120"></polyline>
                <polyline id="Shape" stroke="#F300CD" points="940 1160 960 1140 980 1140"></polyline>
                <polyline id="Shape" stroke="#F300CD" points="820 1000 800 1000 780 1000 760 1000 760 980 760 960 760 940 760 920 780 920 780 940 780 960 780 980 800 980 800 960 800 940 800 920 820 940 820 960"></polyline>
                <polyline id="Shape" stroke="#F300CD" points="460 600 440 600 420 600 420 620 440 620 440 640"></polyline>
                <polyline id="Shape" stroke="#F300CD" points="420 700 380 700 380 720"></polyline>
                <path d="M360,460 L380,480" id="Shape" stroke="#F300CD"></path>
                <polyline id="Shape" stroke="#F300CD" points="240 260 220 260 200 260 200 240 200 220 200 200 200 180 220 180 220 200 220 220 220 240 240 240 240 220 240 200 240 180 260 180 260 200 260 220 260 240"></polyline>
                <polyline id="Shape" stroke="#F300CD" points="160 240 160 220 160 200 160 180 160 160 160 140 160 120 160 100 160 80 160 60"></polyline>
                <polyline id="Shape" stroke="#F300CD" points="160 260 160 280 160 300"></polyline>
                <polyline id="Shape" stroke="#F300CD" points="160 640 140 640 140 660 140 680 140 700"></polyline>
                <polyline id="Shape" stroke="#F300CD" points="360 980 360 1000 360 1040 360 1080 340 1080 340 1100 320 1100 300 1100 280 1100 280 1120 280 1140 280 1160 280 1180 280 1200 280 1220 280 1240 280 1260 300 1240 300 1220 300 1200 300 1180 300 1160 300 1140 300 1120 320 1120 320 1140 320 1160 320 1180 320 1200 320 1220 320 1240 320 1260"></polyline>
                <polyline id="Shape" stroke="#F300CD" points="340 1220 340 1200 340 1180 340 1160 340 1140 340 1120 360 1120 360 1140 360 1160 360 1180 360 1200"></polyline>
                <path d="M380,1100 L400,1080" id="Shape" stroke="#F300CD"></path>
                <path d="M820,260 L820,240" id="Shape" stroke="#F300CD"></path>
                <polyline id="Shape" stroke="#43006D" points="1740 1560 1740 1540 1760 1540 1760 1520 1760 1500 1740 1500 1740 1480 1720 1480 1720 1460 1720 1440 1740 1440 1740 1420 1760 1420 1760 1400 1780 1400 1780 1420 1780 1440 1760 1440 1760 1460 1740 1460 1780 1460 1780 1480 1780 1500 1780 1520 1780 1540 1780 1560 1760 1560 1800 1560 1800 1540 1800 1520 1800 1500 1800 1480 1800 1460 1800 1440 1800 1420 1800 1400 1800 1380 1800 1360 1800 1340 1800 1320 1780 1320 1760 1320 1740 1320 1720 1320 1720 1300 1720 1280 1740 1280 1740 1260 1740 1240 1740 1220 1740 1200 1720 1200 1700 1200 1680 1220 1660 1240 1660 1260 1660 1280"></polyline>
                <polyline id="Shape" stroke="#43006D" points="1740 1300 1760 1300 1760 1280 1760 1260 1760 1240 1760 1220 1760 1200 1760 1180 1740 1180 1720 1180 1720 1160 1740 1160 1740 1140 1740 1120 1760 1120 1760 1100 1760 1080 1740 1080 1720 1080 1720 1060 1720 1040 1740 1040 1740 1020 1760 1020 1760 1040 1780 1040 1780 1020 1780 1000 1780 980 1760 980 1760 960 1740 960 1720 960 1720 940 1700 940 1700 920 1680 920 1660 920 1640 920 1640 900 1620 900 1600 880 1580 880 1560 880 1560 860 1540 860 1540 840 1540 820 1520 820 1500 820 1480 820"></polyline>
                <polyline id="Shape" stroke="#43006D" points="1500 920 1520 920 1520 940 1540 940 1540 960 1540 980 1560 980 1560 960 1560 940 1560 920 1560 900 1580 900 1580 860 1600 860 1600 840 1600 820 1600 800 1580 800 1580 780 1560 780 1560 760 1560 740 1560 720 1560 700 1560 680 1540 680 1540 660 1540 640 1520 620 1500 600 1480 600 1480 580 1460 580 1440 580 1420 580 1420 600 1440 600"></polyline>
                <polyline id="Shape" stroke="#43006D" points="1400 620 1380 620 1360 620 1380 640 1380 680 1380 700 1400 720 1400 740 1380 740"></polyline>
                <polyline id="Shape" stroke="#43006D" points="1420 760 1440 760 1460 760 1460 740 1460 720 1440 720 1440 700 1420 700 1440 680 1460 680"></polyline>
                <polyline id="Shape" stroke="#43006D" points="1500 700 1500 720 1500 740 1500 760 1480 760 1520 760 1520 780 1520 800"></polyline>
                <polyline id="Shape" stroke="#43006D" points="1580 760 1580 740 1580 720 1580 700 1580 680 1580 660 1560 660 1600 660"></polyline>
                <polyline id="Shape" stroke="#43006D" points="1620 700 1620 720 1600 720 1600 740 1600 760 1600 780 1620 780 1620 760 1620 740 1640 740 1640 720 1640 700 1640 680 1660 680 1660 700 1660 720 1680 720 1680 700 1680 680 1680 660 1680 640 1680 620 1680 600 1700 600 1700 580 1700 560 1680 560 1680 540 1700 540 1740 540 1740 520 1740 500 1720 500 1740 480 1740 460 1720 460 1700 460 1680 460 1680 440 1700 420 1740 420 1740 440 1760 440 1760 420 1760 400 1760 380 1760 360 1740 360 1760 340 1760 320 1740 320 1760 300 1760 280 1780 280 1780 260 1780 240 1780 220 1780 200 1780 180 1780 160 1800 140"></polyline>
                <polyline id="Shape" stroke="#43006D" points="1300 60 1280 80 1280 100 1280 120 1260 120 1260 140 1300 140 1300 120 1320 140 1320 160 1300 160 1300 180 1280 180 1300 200 1320 180 1340 180 1340 200 1340 220 1320 220 1300 240"></polyline>
                <polyline id="Shape" stroke="#43006D" points="1260 260 1260 280 1240 280 1220 280 1220 300 1200 300 1180 300 1180 320 1180 340 1180 360 1160 360 1160 400 1200 400 1200 380 1200 360 1220 360 1220 340 1220 320 1240 300"></polyline>
                <polyline id="Shape" stroke="#43006D" points="1280 340 1280 360 1260 360 1260 380 1260 400 1280 400 1280 380 1300 380 1300 360 1300 340 1300 320 1320 320 1320 300 1320 280 1340 280 1340 300 1340 320 1340 340 1320 340 1320 360 1320 380 1320 400 1320 420 1320 440 1340 460 1340 480 1320 480 1340 500 1340 540 1320 540 1360 540 1360 560 1380 540 1400 540 1400 520 1380 500"></polyline>
                <polyline id="Shape" stroke="#43006D" points="1420 540 1400 560 1380 580"></polyline>
                <polyline id="Shape" stroke="#43006D" points="1460 560 1460 540 1460 520 1440 500 1480 500"></polyline>
                <path d="M1500,420 L1500,400" id="Shape" stroke="#43006D"></path>
                <polyline id="Shape" stroke="#43006D" points="1400 440 1380 420 1380 400 1380 380 1380 360 1360 360 1340 360 1360 340 1360 320 1360 300 1360 280 1380 280 1380 260 1380 240 1360 240 1360 220 1360 200 1360 180 1360 160 1380 160 1380 140 1380 120 1380 100 1400 100 1400 80 1400 60 1380 60 1400 40 1420 40 1420 60 1420 80 1420 100 1420 120 1400 120 1400 140 1400 160 1400 180 1380 180 1380 200 1380 220 1400 220 1400 200 1420 200 1420 180 1420 160 1420 140 1440 140 1440 120 1440 100 1440 80 1440 60 1460 60 1460 80 1480 100 1480 120 1460 120 1460 140 1460 160 1440 160 1440 180 1440 200 1440 220 1420 220 1420 240 1400 240 1400 260 1400 280 1420 280 1420 260 1440 260 1440 240 1460 240 1460 220 1460 200 1460 180 1480 180 1480 200 1480 220 1480 240 1480 260 1460 260 1460 280 1460 300 1480 300 1480 280 1500 280 1500 260 1500 240 1500 220 1500 200 1500 180 1500 160 1500 140 1480 140 1500 120 1500 100 1520 120 1520 140 1520 160 1520 180 1520 200 1520 220 1520 240 1520 260 1520 280 1500 300 1500 320 1480 320 1460 340 1440 340 1440 320 1420 320 1380 320 1380 300 1380 340"></polyline>
                <path d="M1420,360 L1420,380" id="Shape" stroke="#43006D"></path>
                <polyline id="Shape" stroke="#43006D" points="1560 380 1580 400 1580 420 1580 440"></polyline>
                <polyline id="Shape" stroke="#43006D" points="1640 480 1640 500 1620 520 1620 540 1620 560 1600 560 1600 580 1600 600 1620 600 1620 580 1640 580 1660 580"></polyline>
                <polyline id="Shape" stroke="#43006D" points="1700 620 1700 640 1700 660 1700 680 1700 700 1700 720 1720 720 1720 700 1720 680 1720 660 1720 640 1720 620 1720 600 1720 580 1740 580 1740 560 1760 560 1760 540 1760 520 1760 500 1760 480 1760 460 1780 460 1780 440 1780 420 1780 400 1800 400 1800 380 1800 360 1780 360 1780 320 1780 300 1800 280 1820 260 1840 260 1840 280 1840 300 1820 300 1820 320 1800 320 1820 340 1820 360 1820 380 1820 400 1820 420 1800 420 1800 440 1800 460 1800 480 1780 480 1780 500 1780 520 1780 540 1780 560 1780 580 1760 580 1760 600 1740 600 1740 620 1740 640 1740 660 1740 680 1740 700 1740 720 1740 740 1720 740 1720 760 1700 760 1680 760 1660 760 1660 780 1640 780 1640 800 1620 800 1620 820 1640 820 1640 840 1640 860 1620 860 1660 860 1660 840 1660 820 1660 800 1680 800 1680 780 1700 780 1700 800 1700 820 1680 820 1680 840 1680 860 1680 880 1660 880 1660 900 1680 900 1700 900 1700 880 1700 860 1700 840 1720 840 1720 820 1720 800 1720 780 1740 760 1760 760 1760 740 1760 720 1760 700 1760 680 1760 660 1760 640 1760 620 1780 620 1780 600 1800 600 1800 580 1800 560 1800 540 1800 520 1800 500 1820 500 1820 480 1820 460 1820 440 1840 440 1840 420 1840 400 1840 380 1840 360 1840 340 1840 320 1860 300 1860 280 1880 260 1860 240"></polyline>
                <polyline id="Shape" stroke="#43006D" points="1880 320 1880 340 1860 360 1860 380 1860 400 1860 420 1860 440 1860 460 1840 460 1840 480 1840 500 1840 520 1820 520 1820 540 1820 560 1820 580 1820 600 1820 620 1800 620 1800 640 1780 640 1780 660 1780 680 1780 700 1780 720 1780 740 1780 760 1800 760 1800 780 1800 800 1820 800 1820 780 1820 760 1820 740 1820 720 1800 720 1800 700 1800 680 1800 660 1820 660 1820 640 1840 640 1840 620 1840 600 1840 580 1840 560 1840 540 1860 540 1860 520 1860 500 1860 480 1880 480 1880 460 1880 440 1880 420 1880 400 1900 400 1900 380 1920 380 1920 360 1920 340 1920 320 1940 340 1940 360 1940 380 1940 400 1940 420 1920 420 1920 440 1900 440 1900 460 1900 480 1900 500 1880 500 1880 520 1880 540 1880 560 1860 560 1860 580 1860 600 1860 620 1860 640 1860 660 1840 660 1840 680 1820 680 1820 700 1840 700 1840 720 1840 740 1840 760 1840 780 1860 760 1860 740 1860 720 1860 700 1860 680 1880 680 1880 660 1880 640 1880 620 1880 600 1880 580 1900 580 1900 560 1900 540 1900 520 1920 520 1920 500 1920 480 1920 460 1940 460 1940 440 1960 440 1960 420 1960 400 1960 380 1960 360"></polyline>
                <polyline id="Shape" stroke="#43006D" points="1980 400 1980 420 1980 440 1980 460 1960 460 1960 480 1940 480 1940 500 1940 520 1940 540 1920 540 1920 560 1920 580 1920 600 1900 600 1900 620 1900 640 1900 660 1900 680 1900 700 1880 700 1880 720 1880 740 1880 760"></polyline>
                <path d="M1840,820 L1820,820" id="Shape" stroke="#43006D"></path>
                <polyline id="Shape" stroke="#43006D" points="1780 840 1760 840 1740 840 1740 820 1740 800 1760 800 1760 780 1760 820 1760 860 1740 860 1720 860 1720 880 1720 900 1720 920 1740 920 1740 900 1740 880 1760 880 1760 900 1760 920 1760 940 1740 940 1780 940 1780 920 1780 900 1800 900 1800 880 1780 860"></polyline>
                <polyline id="Shape" stroke="#43006D" points="1820 900 1800 920 1800 940 1800 960 1780 960 1800 980 1800 1000 1800 1020 1800 1040 1800 1060 1780 1060 1780 1080 1780 1100 1780 1120 1800 1120 1800 1100 1800 1080 1820 1080 1820 1060 1820 1040 1820 1020 1820 1000 1820 980 1820 960 1820 940 1840 940 1840 920 1860 920 1860 940 1860 960 1840 960 1840 980 1840 1000 1840 1020 1840 1040 1840 1060 1840 1080 1840 1100 1820 1100 1820 1120 1820 1140 1800 1140 1800 1160 1800 1180 1780 1180 1760 1160 1760 1140"></polyline>
                <polyline id="Shape" stroke="#43006D" points="1720 1100 1700 1100 1700 1120 1660 1120 1660 1140"></polyline>
                <polyline id="Shape" stroke="#43006D" points="1660 1040 1640 1020 1640 1000 1640 980 1620 980 1600 980 1580 980 1580 1000 1560 1000 1520 1000 1500 1000 1500 1020 1520 1020 1520 1040 1500 1060"></polyline>
                <polyline id="Shape" stroke="#43006D" points="1440 1060 1400 1060 1380 1060 1380 1040 1360 1040 1360 1020 1380 1020 1380 1000 1400 1000 1420 1000 1440 1000 1460 1000"></polyline>
                <polyline id="Shape" stroke="#43006D" points="1580 940 1600 940 1600 960 1620 960 1620 940 1660 940 1660 960 1660 980 1680 960"></polyline>
                <polyline id="Shape" stroke="#43006D" points="1700 1000 1700 1020 1680 1020"></polyline>
                <polyline id="Shape" stroke="#43006D" points="1840 1120 1840 1140 1840 1160 1820 1160 1820 1180 1820 1200 1800 1200 1800 1220 1780 1220 1780 1240 1780 1260 1780 1280 1780 1300 1800 1300 1800 1280 1800 1260 1800 1240 1820 1240 1820 1220 1840 1220 1840 1200 1840 1180 1860 1180 1860 1160 1860 1140 1860 1120 1860 1100 1860 1080 1860 1060 1860 1040 1860 1020 1860 1000 1860 980 1880 980 1880 960 1880 940 1880 920 1900 920 1900 900 1920 900 1920 880 1940 880 1940 900 1940 920 1920 920 1920 940 1900 940 1900 960 1900 980 1900 1000 1880 1000 1880 1020 1880 1040 1880 1060 1880 1080 1880 1100 1880 1120 1880 1140 1880 1160 1880 1180 1880 1200 1860 1200 1860 1220 1860 1240 1840 1240 1840 1260 1820 1260 1820 1280 1820 1300 1820 1320 1840 1320 1840 1300 1840 1280 1860 1280 1860 1260 1880 1260 1880 1240 1880 1220 1900 1220 1900 1200 1900 1180 1900 1160 1900 1140 1900 1120 1900 1100 1900 1080 1900 1060 1900 1040 1900 1020 1920 1020 1920 1000 1920 980 1920 960 1940 960 1940 940 1960 940 1960 920 1960 900 1960 880 1960 860 1980 860 1980 840 1980 880 1980 900 1980 920 1980 940 1980 960 1960 960 1960 980 1940 980 1940 1000 1940 1020 1940 1040 1920 1040 1920 1060 1920 1080 1920 1100 1920 1120 1920 1140 1920 1160 1920 1180 1920 1200 1920 1220 1920 1240 1900 1240 1900 1260 1900 1280 1880 1280 1880 1300 1860 1300 1860 1320 1860 1340 1840 1340 1840 1360 1820 1360 1820 1380 1820 1400 1820 1420 1820 1440 1820 1460 1820 1480 1820 1500 1820 1520 1820 1540 1820 1560 1820 1580 1820 1600 1820 1620 1820 1640 1800 1640 1800 1660 1800 1680 1800 1700 1800 1720 1780 1720 1780 1740 1800 1740 1800 1760 1800 1780 1800 1800 1780 1800 1760 1800 1760 1820 1740 1820 1740 1840 1740 1860 1740 1880 1760 1880 1760 1860 1760 1840 1780 1840 1780 1820 1800 1820 1800 1840 1800 1860 1780 1860 1780 1880 1780 1900 1760 1900 1760 1920 1760 1940 1780 1940 1780 1920 1800 1920 1800 1900 1800 1880 1820 1880 1820 1860 1820 1840 1820 1820 1820 1800 1840 1800 1840 1780 1840 1760 1840 1740 1820 1740 1820 1720 1820 1700 1820 1680 1820 1660 1840 1660 1840 1640 1840 1620 1840 1600 1840 1580 1840 1560 1840 1540 1840 1520 1840 1500 1840 1480 1840 1460 1840 1440 1840 1420 1840 1400 1840 1380 1860 1380 1860 1360 1880 1360 1880 1340 1880 1320 1900 1320 1900 1300 1920 1300 1920 1280 1920 1260 1940 1260 1940 1240 1940 1220 1940 1200 1940 1180 1940 1160 1940 1140 1940 1120 1940 1100 1940 1080 1940 1060 1960 1060 1960 1040 1960 1020 1960 1000 1980 1000 1980 980 1980 1020 1980 1040 1980 1060 1980 1080 1960 1080 1960 1100 1960 1120 1960 1140 1960 1160 1960 1180 1960 1200 1960 1220 1960 1240 1960 1260 1960 1280 1940 1280 1940 1300 1940 1320 1920 1320 1920 1340 1900 1340 1900 1360 1900 1380 1880 1380 1880 1400 1860 1400 1860 1420 1860 1440 1860 1460 1860 1480 1860 1500 1860 1520 1860 1540 1860 1560 1860 1580 1860 1600 1860 1620 1860 1640 1860 1660 1860 1680 1840 1680 1840 1700 1840 1720 1860 1720 1860 1700 1880 1700 1880 1680 1880 1660 1880 1640 1880 1620 1880 1600 1880 1580 1880 1560 1880 1540 1880 1520 1880 1500 1880 1480 1880 1460 1880 1440 1880 1420 1900 1420 1900 1400 1920 1400 1920 1380 1920 1360 1940 1360 1940 1340 1960 1340 1960 1320 1960 1300 1980 1300 1980 1280 1980 1260 1980 1240 1980 1220 1980 1200 1980 1180 1980 1160 1980 1140 1980 1120 1980 1100"></polyline>
                <polyline id="Shape" stroke="#43006D" points="920 1240 900 1240 880 1240 860 1240 840 1240 820 1240 800 1240 780 1240 760 1240 760 1220 780 1220 780 1200 800 1200 800 1180 820 1180 820 1160 840 1160 840 1180 840 1200 820 1200 820 1220 800 1220 840 1220 860 1220 860 1200 860 1180 860 1160 860 1140 880 1140 880 1160 880 1180 880 1200 880 1220 900 1220 900 1200 900 1180 900 1160 920 1160 920 1140 940 1140 940 1120 940 1100 920 1100 900 1100 880 1100 860 1100 840 1100 820 1100 820 1080 800 1080 780 1080"></polyline>
                <polyline id="Shape" stroke="#43006D" points="840 1080 840 1060 860 1060 860 1080 880 1080 880 1060 900 1060 900 1080 920 1080 920 1060 940 1060 940 1040 960 1040 960 1060 960 1080 940 1080 960 1100 960 1120 980 1120 980 1100 980 1080 980 1060 1000 1060 1000 1040 1020 1040 1020 1060 1020 1080 1000 1080 1000 1100 1000 1120 1020 1120 1020 1100 1040 1100 1040 1080 1040 1060 1040 1040 1040 1020 1040 1000 1040 980 1060 980 1060 960 1060 940 1060 920 1060 900 1060 880 1060 860 1040 860 1040 840 1060 840 1060 820 1060 800 1040 800 1020 800 1000 800 980 800 960 800 940 800 920 800 900 800 900 780 920 780 920 760 940 760 940 740 940 720 960 720 960 700 980 700 980 720 980 740 960 740 960 760 960 780 940 780 940 820 920 820 900 820 880 820 880 840 860 840 840 840 820 840 800 840 780 840 780 820 760 820 740 820"></polyline>
                <polyline id="Shape" stroke="#43006D" points="760 860 760 880 740 880 740 900 740 920 720 920 720 940 740 940"></polyline>
                <polyline id="Shape" stroke="#43006D" points="760 900 780 900 780 880 780 860 800 860 800 880 800 900 820 900 820 880 820 860 840 860 840 880 840 900 840 920 820 920 840 940 860 940 860 920 860 900 860 880 860 860 880 860 880 880 880 900 880 920"></polyline>
                <polyline id="Shape" stroke="#43006D" points="900 880 900 860 900 840 920 840 920 860 940 840 960 820 980 840 1000 840 1020 820 1020 780 1000 780 980 780 980 760 1000 760 1000 740 1000 720 1020 720 1020 700 1020 680 1020 660 1040 660 1040 640 1040 620 1020 620 1060 620 1060 600 1060 580 1080 580 1080 560 1080 540 1080 520 1080 500 1060 500"></polyline>
                <polyline id="Shape" stroke="#43006D" points="1100 520 1100 540 1100 560 1100 580 1100 600 1080 600 1080 620 1080 640 1060 640 1060 660 1060 680 1040 680 1040 700 1040 720 1040 740 1020 740 1020 760 1040 780 1060 780 1060 760 1060 740 1060 720 1060 700 1080 700 1080 680 1100 680 1100 660 1100 640 1100 620 1120 620 1120 600 1120 580 1140 580 1160 580 1180 580"></polyline>
                <polyline id="Shape" stroke="#43006D" points="1160 620 1200 620 1200 640 1220 640 1240 660 1240 680 1220 680 1200 680 1180 680 1160 680 1140 680 1120 680 1120 660 1120 700 1120 720 1100 720 1080 720 1080 740 1080 760 1080 780 1080 800 1080 820 1080 840 1080 860 1080 880 1080 900 1080 920 1080 940 1080 960 1080 980 1080 1000 1060 1000 1060 1020 1060 1040 1060 1060 1060 1080 1060 1100 1060 1120 1040 1120 1040 1140 1020 1140 1020 1160 1000 1160 980 1160 960 1160 940 1180 920 1180 920 1200 920 1220 940 1220 940 1200 960 1200 980 1200 980 1180 1000 1180 1000 1200 1000 1220 1000 1240 1020 1240 1020 1220 1020 1200 1020 1180 1040 1180 1040 1160 1060 1160 1060 1140 1080 1140 1080 1120 1080 1100 1080 1080 1080 1060 1080 1040 1080 1020 1100 1020 1100 1040 1100 1060 1100 1080 1100 1100 1100 1120 1100 1140 1100 1160 1080 1160 1080 1180 1060 1180 1060 1200 1040 1200 1040 1220 1040 1240 1040 1260 1020 1260 1020 1280 1020 1300 1000 1300 980 1300 1000 1320 1000 1340 980 1340 1000 1360 1000 1380 1000 1400 1000 1420 1000 1440 980 1440 960 1440 940 1440 920 1440 920 1420 940 1420 940 1400 960 1420 960 1460 940 1460 940 1480 940 1500 940 1520 920 1520 920 1540 920 1560 920 1580 900 1580 940 1580 940 1560 940 1540 960 1540 960 1520 980 1540 980 1560 960 1560 960 1580 980 1580 1000 1580 1000 1560 1000 1540 1000 1520 1000 1500 1000 1480 980 1480 960 1480 980 1460 1000 1460 1020 1460 1020 1440 1020 1420 1020 1400 1020 1380 1020 1360 1020 1340 1020 1320 1040 1320 1040 1300 1040 1280 1060 1280 1060 1260 1060 1240 1060 1220 1080 1220 1080 1200 1100 1200 1100 1180 1120 1180 1120 1200 1120 1220 1100 1220 1100 1240 1080 1240 1080 1260 1080 1280 1080 1300 1060 1300 1060 1320 1060 1340 1040 1340 1040 1360 1040 1380 1040 1400 1040 1420 1040 1440 1040 1460 1040 1480 1020 1480 1020 1500 1020 1520 1020 1540 1020 1560 1020 1580 1020 1600 1000 1600 1000 1620 1000 1640 1000 1660 1000 1680 980 1680 980 1720 1000 1720 1000 1740 1020 1740 1020 1720 1040 1720 1060 1740 1060 1760 1040 1760 1020 1760"></polyline>
                <polyline id="Shape" stroke="#43006D" points="1160 1680 1160 1660 1180 1640 1200 1620 1200 1600 1180 1600 1160 1600 1140 1580 1120 1580 1100 1580 1080 1580 1060 1580 1040 1580 1040 1560 1040 1540 1040 1520 1040 1500 1060 1500 1060 1480 1060 1460 1060 1440 1060 1420 1060 1400 1060 1380 1060 1360 1080 1360 1080 1340 1080 1320 1100 1320 1100 1300 1100 1280 1100 1260 1120 1260 1120 1240 1140 1240 1140 1220 1140 1200 1160 1200 1160 1180 1160 1160 1180 1160 1180 1180 1180 1200 1200 1200 1200 1220 1200 1240 1180 1240 1160 1240 1160 1220 1160 1260 1160 1280 1140 1280 1120 1280 1120 1300 1120 1320 1120 1340 1100 1340 1100 1360 1100 1380 1080 1380 1080 1400 1080 1420 1080 1440 1080 1460 1080 1480 1080 1500 1080 1520 1060 1520 1060 1540 1060 1560 1080 1560 1080 1540 1100 1540 1100 1520 1100 1500 1100 1480 1100 1460 1100 1440 1100 1420 1100 1400 1120 1400 1120 1380 1120 1360 1140 1360 1140 1340 1140 1320 1140 1300 1160 1300 1160 1320 1160 1340 1160 1360 1160 1380 1140 1380 1140 1400 1140 1420 1120 1420 1120 1440 1120 1460 1120 1480 1140 1460 1140 1440 1160 1460 1160 1480 1180 1480 1180 1460 1180 1440 1200 1440 1200 1420 1200 1400 1180 1400 1160 1400 1180 1380 1200 1380 1200 1360 1200 1340 1200 1320 1180 1320 1180 1300 1180 1280 1180 1260 1200 1260 1220 1260 1220 1240 1220 1220 1220 1200 1220 1180 1220 1160 1220 1140 1220 1120 1200 1120 1200 1100 1180 1100 1160 1100 1140 1100 1120 1100 1120 1080 1140 1060 1160 1080 1180 1080 1180 1060 1180 1040 1180 1020 1180 1000 1160 1000 1180 980 1180 960 1160 960 1160 940 1160 920 1140 920 1140 900 1120 900 1100 900 1100 880 1100 860 1100 840 1100 820 1100 800 1100 780 1100 760 1100 740 1120 740 1120 760 1120 780 1120 800 1140 800 1140 820 1140 840 1120 840 1120 860 1120 880 1140 880 1140 860 1160 840 1160 800 1160 760 1140 760 1140 740 1140 720 1140 700 1160 700 1160 720 1160 740 1180 740 1180 720 1200 740 1220 720 1220 700"></polyline>
                <path d="M1260,600 L1260,580" id="Shape" stroke="#43006D"></path>
                <polyline id="Shape" stroke="#43006D" points="1220 560 1240 540 1220 520 1200 500 1180 500 1180 520"></polyline>
                <polyline id="Shape" stroke="#43006D" points="1200 480 1220 480 1240 460 1240 440 1200 440 1200 420"></polyline>
                <polyline id="Shape" stroke="#43006D" points="1140 440 1120 440 1120 420 1120 460 1120 480 1120 520"></polyline>
                <path d="M1180,200 L1140,200" id="Shape" stroke="#43006D"></path>
                <path d="M1100,220 L1080,220" id="Shape" stroke="#43006D"></path>
                <polyline id="Shape" stroke="#43006D" points="1080 300 1060 300 1060 340"></polyline>
                <polyline id="Shape" stroke="#43006D" points="980 300 980 280 1000 260"></polyline>
                <polyline id="Shape" stroke="#43006D" points="900 280 880 260 860 280"></polyline>
                <polyline id="Shape" stroke="#43006D" points="860 220 860 200 840 200 840 180"></polyline>
                <polyline id="Shape" stroke="#43006D" points="760 340 760 360 760 380 760 400"></polyline>
                <polyline id="Shape" stroke="#43006D" points="700 400 680 400 680 420 700 420"></polyline>
                <polyline id="Shape" stroke="#43006D" points="660 440 660 480 660 500 660 520 680 520 680 500 680 480 700 500"></polyline>
                <polyline id="Shape" stroke="#43006D" points="680 620 680 640 680 660"></polyline>
                <polyline id="Shape" stroke="#43006D" points="660 700 640 700 640 720 620 740 600 740 600 720 580 720 560 720 540 720 520 720 500 720 480 720 460 720 440 720 420 720 400 720 420 740 420 760 420 780 400 780 380 780 380 800 360 800 340 800"></polyline>
                <polyline id="Shape" stroke="#43006D" points="340 740 320 740 320 720 320 700 300 700 300 680 300 660 300 640 280 640 280 620 300 620 300 600 300 580 280 580 260 580 280 560 300 560 300 540 320 540 320 560 320 580 320 600 320 620 320 640 320 660 320 680 340 680 340 660 340 640 340 620 340 600 340 580 340 560 360 580 360 600 360 620 360 640 360 660 380 640 380 620 400 620 400 600 400 580 380 580 380 560 380 540 380 520 400 520 400 540 420 540 420 580 440 580"></polyline>
                <polyline id="Shape" stroke="#43006D" points="460 620 460 640 460 660 440 660 420 660 400 660 400 640 420 640 420 680 440 700 460 700 460 680 480 680 480 660 480 640 480 620 480 600 500 620 500 640 500 660 520 660 520 640 520 620 540 620 540 640 560 640 560 620"></polyline>
                <polyline id="Shape" stroke="#43006D" points="520 680 520 700 500 700 480 700 480 740 460 740 440 740 440 760 440 780 440 800 420 800 400 800"></polyline>
                <polyline id="Shape" stroke="#43006D" points="440 820 440 840 440 860 420 860 420 880 420 900 400 900 380 900 380 920 360 920 400 920 400 940 400 960 400 980 380 980 380 1000 380 1020 360 1020 340 1020 320 1020 320 1000 320 980 340 980 340 1000"></polyline>
                <polyline id="Shape" stroke="#43006D" points="380 1040 400 1040 400 1020 400 1000 420 1000 420 980 420 960 420 940 420 920 440 920 440 900 440 880 460 880 460 900 460 920 460 940 440 940 440 960 460 960 480 960 480 940 480 920 480 900 500 880 500 860 500 840 480 840 480 820 460 820 460 800 460 780 460 760 480 760 500 760 500 740 520 740 520 760 520 780 500 780 500 800 480 800 500 820 520 820 520 800 540 800 540 780 540 760 540 740 560 760 560 780 560 800 560 820 540 820 540 840 520 840 520 860 520 880 520 900 520 920 520 940 500 940 500 960 500 980 480 980 480 1000 460 1000 440 1000 460 1020 480 1020 480 1040 440 1040"></polyline>
                <polyline id="Shape" stroke="#43006D" points="440 1100 440 1120 460 1120 460 1100 480 1100 500 1080"></polyline>
                <polyline id="Shape" stroke="#43006D" points="540 1060 540 1040 540 1020 520 1020 520 1000 500 1000 520 980 520 960 540 960 540 940 540 920 540 900 540 880 540 860 560 860 560 840 580 820 580 800 580 780 580 760"></polyline>
                <path d="M560,700 L540,700" id="Shape" stroke="#43006D"></path>
                <polyline id="Shape" stroke="#43006D" points="600 840 600 860 580 860 580 880 560 880 560 900 560 920 560 940 560 960 560 980 540 980 540 1000 560 1020 560 1040 560 1060 560 1080 560 1100 560 1120 580 1120 580 1100 580 1080 600 1060 600 1040 580 1040 600 1020 620 1000 620 980 620 960 620 940 600 940 580 940 580 920 580 900 600 900 600 880 620 880 620 860 620 840"></polyline>
                <path d="M660,820 L660,800" id="Shape" stroke="#43006D"></path>
                <polyline id="Shape" stroke="#43006D" points="680 880 680 900 640 900 620 900 600 920 640 920 640 940 640 960 640 980 640 1000 660 1000 660 980 680 1000 700 1000 700 1020 660 1020"></polyline>
                <polyline id="Shape" stroke="#43006D" points="680 1060 680 1080 660 1100 660 1120 660 1140"></polyline>
                <polyline id="Shape" stroke="#43006D" points="580 1200 580 1220 580 1240 560 1260 540 1280 560 1300 560 1320 560 1340 540 1340 520 1340 520 1360 520 1380 520 1400 520 1420 500 1420 480 1420 460 1420 440 1420 420 1420 420 1400 400 1400 380 1400 380 1380 360 1380 340 1380 360 1360 360 1340 340 1340 340 1320 320 1320 300 1320 280 1320 300 1300 300 1280 280 1280 300 1260 320 1280 320 1300 340 1300 340 1280 340 1260 340 1240 360 1240 360 1260 360 1280 360 1300 360 1320 380 1320 380 1300 400 1300 400 1280 400 1260 380 1260 380 1240 400 1240 420 1240 420 1260 420 1280 420 1300 420 1320 400 1320 400 1340 380 1340 380 1360 400 1360 400 1380 420 1380 420 1360 420 1340 440 1340 440 1320 440 1300 440 1280 460 1300 460 1320 460 1340 460 1360 440 1360 440 1380 440 1400 460 1400 480 1400 480 1440 460 1440 440 1440 400 1440 400 1460 400 1500"></polyline>
                <path d="M760,1260 L780,1280" id="Shape" stroke="#43006D"></path>
                <polyline id="Shape" stroke="#43006D" points="1380 1540 1340 1540 1320 1540 1320 1520 1320 1500 1300 1500 1280 1500 1260 1500 1240 1500 1220 1500 1200 1500 1180 1500 1180 1520 1200 1520 1220 1520 1240 1520 1240 1480 1220 1480 1200 1480 1200 1460 1220 1460 1220 1440 1220 1420 1220 1400 1220 1380 1220 1360 1220 1340 1220 1320 1220 1300 1200 1300 1240 1300 1240 1280 1240 1260 1240 1240 1260 1240 1260 1220 1260 1200 1240 1200 1260 1180 1260 1160 1240 1160 1240 1140 1240 1100 1220 1100 1220 1080 1200 1080 1200 1060 1200 1040 1200 1020 1200 1000 1200 980 1200 960 1200 940 1200 920 1180 920 1180 900 1160 900 1160 880"></polyline>
                <polyline id="Shape" stroke="#43006D" points="1200 860 1220 880 1220 900 1200 900 1220 920 1220 940 1220 960 1220 980 1220 1000 1220 1020 1220 1040 1220 1060 1240 1060 1240 1040 1240 1020 1240 1000 1240 980 1240 960 1240 940 1240 920 1240 900 1240 880 1240 860 1240 840 1240 820 1220 820 1240 800"></polyline>
                <polyline id="Shape" stroke="#43006D" points="1260 860 1260 880 1280 880 1280 860 1300 860 1300 880 1300 900 1320 900 1320 880 1340 880 1340 860 1340 840 1320 840 1320 820 1300 820"></polyline>
                <polyline id="Shape" stroke="#43006D" points="1360 860 1360 880 1360 900 1380 900 1380 880 1380 860"></polyline>
                <polyline id="Shape" stroke="#43006D" points="1360 940 1340 960 1340 980 1320 980 1300 980 1300 960 1280 960 1280 940 1260 940"></polyline>
                <polyline id="Shape" stroke="#43006D" points="1320 1000 1320 1020 1320 1040 1300 1040 1280 1040 1260 1040 1260 1060 1260 1080 1240 1080 1260 1100 1280 1080 1280 1060 1300 1060 1300 1080 1300 1100 1300 1120 1280 1120 1280 1160 1300 1160 1300 1180 1300 1200 1280 1200 1280 1220 1300 1220 1300 1240 1300 1260 1280 1260 1280 1280 1280 1300 1260 1300 1260 1320 1240 1320 1240 1340 1240 1360 1240 1380 1240 1400 1240 1420 1240 1440 1240 1460 1260 1460 1260 1480 1280 1480 1280 1460 1300 1460 1300 1480 1320 1480 1320 1460 1320 1440 1320 1420 1300 1420 1280 1420 1260 1420 1260 1400 1260 1380 1260 1360 1260 1340 1280 1340 1280 1320 1300 1320 1300 1300 1300 1280 1320 1280 1320 1260 1320 1240"></polyline>
                <polyline id="Shape" stroke="#43006D" points="1320 1180 1320 1160 1340 1140 1340 1120 1320 1120 1320 1100 1320 1080 1320 1060"></polyline>
                <polyline id="Shape" stroke="#43006D" points="1340 1100 1380 1100 1380 1120 1400 1120 1420 1120 1420 1100 1440 1100 1440 1120"></polyline>
                <path d="M1400,1160 L1380,1160" id="Shape" stroke="#43006D"></path>
                <polyline id="Shape" stroke="#43006D" points="1400 1200 1420 1180 1420 1220 1420 1240 1400 1240 1400 1260"></polyline>
                <polyline id="Shape" stroke="#43006D" points="1500 1300 1480 1280 1480 1260 1500 1260 1520 1240 1520 1220"></polyline>
                <polyline id="Shape" stroke="#43006D" points="1460 1220 1440 1220 1440 1240"></polyline>
                <polyline id="Shape" stroke="#43006D" points="1560 1040 1580 1040 1600 1020 1600 1000"></polyline>
                <path d="M1620,1040 L1600,1060" id="Shape" stroke="#43006D"></path>
                <path d="M1280,1000 L1280,1020" id="Shape" stroke="#43006D"></path>
                <path d="M1120,1000 L1120,980" id="Shape" stroke="#43006D"></path>
                <polyline id="Shape" stroke="#43006D" points="1120 1120 1120 1140 1140 1140 1140 1120"></polyline>
                <polyline id="Shape" stroke="#43006D" points="860 800 840 800 820 800 800 800 780 800 800 780 820 780 840 780 860 780"></polyline>
                <polyline id="Shape" stroke="#43006D" points="840 820 820 820 800 820"></polyline>
                <polyline id="Shape" stroke="#43006D" points="900 640 920 620 920 600 920 580 940 580"></polyline>
                <path d="M920,540 L900,540" id="Shape" stroke="#43006D"></path>
                <path d="M920,500 L940,500" id="Shape" stroke="#43006D"></path>
                <polyline id="Shape" stroke="#43006D" points="900 480 880 460 900 440 900 420"></polyline>
                <polyline id="Shape" stroke="#43006D" points="360 440 340 460 320 460 320 480 300 480 300 500 320 500 340 500 340 480 360 480 380 460 400 480"></polyline>
                <path d="M340,700 L340,720" id="Shape" stroke="#43006D"></path>
                <polyline id="Shape" stroke="#43006D" points="220 680 200 660 180 660"></polyline>
                <polyline id="Shape" stroke="#43006D" points="120 780 120 800 140 820"></polyline>
                <path d="M160,860 L180,840" id="Shape" stroke="#43006D"></path>
                <path d="M280,900 L300,900" id="Shape" stroke="#43006D"></path>
                <polyline id="Shape" stroke="#43006D" points="380 1080 360 1100 400 1100"></polyline>
                <polyline id="Shape" stroke="#43006D" points="460 1160 480 1160 480 1180"></polyline>
                <path d="M580,980 L580,960" id="Shape" stroke="#43006D"></path>
                <polyline id="Shape" stroke="#43006D" points="820 980 840 1000 860 980"></polyline>
                <path d="M700,720 L700,700" id="Shape" stroke="#43006D"></path>
                <polyline id="Shape" stroke="#43006D" points="240 540 240 520 220 500 220 480 200 480 180 480 160 480 180 500 180 520 200 520 200 540"></polyline>
                <path d="M180,440 L200,420" id="Shape" stroke="#43006D"></path>
                <polyline id="Shape" stroke="#43006D" points="140 420 140 400 140 380 140 360 160 360"></polyline>
                <polyline id="Shape" stroke="#43006D" points="1560 100 1560 120 1560 140 1540 140 1540 160 1540 180 1540 200 1540 220 1540 240 1540 260 1560 260 1560 240 1560 220 1560 200 1560 180 1560 160 1580 160 1580 140 1580 120 1580 100 1600 100 1600 80 1620 80 1620 100 1620 120 1600 120 1600 140 1600 160 1600 180 1580 180 1580 200 1580 220 1580 240 1580 260 1580 280 1560 280 1560 300 1560 320 1580 320 1580 300 1600 300 1600 280 1600 260 1600 240 1600 220 1600 200 1620 200 1620 180 1620 160 1620 140 1640 140 1640 120 1640 100 1640 80 1660 80 1660 100 1660 120 1660 140 1660 160 1640 160 1640 180 1640 200 1640 220 1620 220 1620 240 1620 260 1620 280 1620 300 1620 320 1600 320 1600 340 1580 340 1600 360 1620 360 1620 340"></polyline>
                <polyline id="Shape" stroke="#43006D" points="1640 280 1640 260 1640 240 1660 240 1660 220 1660 200 1660 180 1680 160 1680 140 1680 120 1680 100 1680 80 1700 80 1700 100 1700 120 1700 140 1700 160 1700 180 1720 180 1720 160 1720 140 1720 120 1720 100 1720 80"></polyline>
                <polyline id="Shape" stroke="#43006D" points="1700 220 1680 220 1680 240 1680 260 1660 260 1660 280"></polyline>
                <path d="M1800,240 L1800,220" id="Shape" stroke="#43006D"></path>
                <polyline id="Shape" stroke="#43006D" points="1980 480 1980 500 1960 500 1960 520 1960 540 1960 560 1940 560 1940 580 1940 600 1940 620 1920 620 1920 640 1920 660 1940 660 1940 640 1960 640 1960 620 1960 600 1960 580 1980 580 1980 560 1980 540 1980 520"></polyline>
                <polyline id="Shape" stroke="#43006D" points="1980 600 1980 620 1980 640 1980 660 1960 660 1960 680 1940 680 1940 700 1960 720 1980 720 1980 700 1980 680"></polyline>
                <polyline id="Shape" stroke="#43006D" points="1320 660 1280 660 1280 680"></polyline>
                <polyline id="Shape" stroke="#F70028" points="1740 200 1740 220 1720 220 1720 240 1700 240 1700 260 1700 280 1680 280 1660 300 1640 300 1640 320 1640 340 1640 360 1640 380 1620 380 1600 380 1580 380 1580 360 1560 360 1560 340 1540 340 1520 340 1520 320 1540 320 1540 280"></polyline>
                <polyline id="Shape" stroke="#F70028" points="1540 400 1540 420 1560 420 1560 400 1600 400 1600 420 1600 440 1600 460 1600 480 1580 480 1560 480 1560 460 1560 500 1580 500 1580 520 1600 520 1600 500 1620 480 1620 460 1620 440 1620 420 1620 400 1640 400 1640 420 1640 440 1640 460 1660 460 1660 440 1660 420 1660 400 1660 380 1660 360 1660 340 1660 320 1680 320 1680 340 1680 360 1680 380 1680 400 1680 420 1700 400 1700 380 1700 360 1700 340 1700 320 1720 320 1720 340 1720 360 1720 380 1720 400 1720 420 1720 440 1700 440 1700 480 1680 480 1660 480 1660 500 1660 520 1660 540 1660 560 1660 600 1640 600 1640 620 1620 620 1600 620 1580 620 1560 620 1580 600 1560 580"></polyline>
                <polyline id="Shape" stroke="#F70028" points="1580 640 1600 640 1620 640 1640 640 1640 660 1660 660 1660 640 1660 620"></polyline>
                <path d="M1620,680 L1600,680" id="Shape" stroke="#F70028"></path>
                <path d="M1520,740 L1540,760" id="Shape" stroke="#F70028"></path>
                <polyline id="Shape" stroke="#F70028" points="1720 560 1720 540 1720 520 1700 520 1680 520 1680 500 1700 500 1720 480"></polyline>
                <polyline id="Shape" stroke="#F70028" points="1720 280 1720 260 1740 260 1760 240"></polyline>
                <polyline id="Shape" stroke="#F70028" points="1060 260 1040 260 1020 260 1020 240 1000 240 980 240 960 240 940 240 920 240 900 240 880 240 860 240 840 240 840 220 840 260 840 280 820 280"></polyline>
                <polyline id="Shape" stroke="#F70028" points="860 260 880 280 880 300 900 300 920 300 920 280 920 260 900 260 940 260 940 280 940 300 960 300 960 280 960 260 980 260 1000 280 1000 300 1000 320 980 320 1000 340 1000 360 1000 380 1000 400 1000 420 980 420 960 420 940 420 920 420 920 440 920 460 900 460 880 480 860 480 880 500 880 520 880 540 860 540 860 580 860 600 860 620 860 640 860 660 860 680 880 680 880 660 880 640 880 620 880 600 880 580 900 580 900 600 900 620 920 640 920 660 900 660 900 680 920 680 940 680 940 660 940 640 940 620 940 600 960 600 960 580 980 580 980 600 980 620 960 620 960 640 960 660 960 680 980 680 980 660 980 640 1000 640 1000 620 1000 600 1000 580 1000 560 1000 540 1000 520 980 520 960 520 940 520 920 520 900 520 900 500 920 480 940 480 940 460 940 440 960 440 960 460 960 480 960 500 980 500 980 480 980 460 980 440 1000 440 1000 460 1000 480 1000 500 1020 500 1020 480 1020 460 1020 440 1020 420 1020 400 1020 380 1040 360 1040 340 1020 340 1020 320 1020 300 1020 280 1040 280 1040 300 1040 320 1060 320 1060 280"></polyline>
                <polyline id="Shape" stroke="#F70028" points="1040 240 1040 220 1020 220 1000 220 980 220 960 220 940 220 920 220 920 200 900 200 880 200 880 180 860 180 900 180 920 180 940 180 940 200 960 200 960 180 980 180 980 200 1000 200 1000 180 1020 180 1020 200 1040 200 1040 180 1060 180"></polyline>
                <polyline id="Shape" stroke="#F70028" points="880 360 920 360 920 380 940 380"></polyline>
                <path d="M880,420 L860,420" id="Shape" stroke="#F70028"></path>
                <polyline id="Shape" stroke="#F70028" points="940 540 940 560 920 560"></polyline>
                <polyline id="Shape" stroke="#F70028" points="1020 540 1020 520 1040 520 1040 500 1040 480 1040 460 1040 440 1040 420 1040 400 1060 380 1060 360"></polyline>
                <polyline id="Shape" stroke="#F70028" points="1040 540 1040 560 1020 560 1020 580 1020 600 1040 600 1040 580"></polyline>
                <path d="M1000,660 L1000,680" id="Shape" stroke="#F70028"></path>
                <polyline id="Shape" stroke="#F70028" points="920 740 900 760 880 740 860 760 880 780 880 800"></polyline>
                <polyline id="Shape" stroke="#F70028" points="960 840 980 820 1000 820 1020 840 1020 860 1000 860 980 860 980 880 1000 900 1000 920 1000 940 1000 960 1020 960 1020 940 1020 920 1020 900 1020 880 1040 880 1040 900 1040 920 1040 940 1040 960 1020 980"></polyline>
                <path d="M580,1020 L560,1000" id="Shape" stroke="#F70028"></path>
                <polyline id="Shape" stroke="#F70028" points="520 1040 500 1040 500 1020 500 1060 480 1060 460 1060 460 1040 420 1040 420 1080 420 1100 420 1120 400 1120 380 1120 380 1140 380 1160 380 1180 380 1200 380 1220 360 1220 400 1220 400 1200 420 1200 420 1180 420 1160 400 1160 400 1140 420 1140 440 1140 440 1160 440 1180 460 1180 460 1200 480 1200 480 1240 460 1240 440 1220 420 1220"></polyline>
                <polyline id="Shape" stroke="#F70028" points="440 1260 460 1280 480 1300 480 1320 480 1340 480 1360 480 1380 460 1380 500 1380 500 1360 500 1340 500 1320 500 1300 520 1300 520 1320 540 1320 540 1300 580 1300 580 1280 580 1260"></polyline>
                <polyline id="Shape" stroke="#F70028" points="520 1240 520 1200 540 1180 520 1160 520 1140 500 1140 480 1140 460 1140 480 1120 500 1120 500 1100 520 1100 520 1080 520 1060 540 1080 540 1100 540 1120 520 1120 540 1140 560 1140 580 1140 600 1140 600 1120"></polyline>
                <polyline id="Shape" stroke="#F70028" points="480 1080 460 1080 440 1080"></polyline>
                <polyline id="Shape" stroke="#F70028" points="300 980 300 960 300 940 300 920 320 920 340 920 340 900 340 880 320 880 300 880 280 880 260 880 240 880 220 880 200 880"></polyline>
                <path d="M240,900 L260,900" id="Shape" stroke="#F70028"></path>
                <polyline id="Shape" stroke="#F70028" points="320 960 340 960 340 940 360 940 360 960 380 960"></polyline>
                <polyline id="Shape" stroke="#F70028" points="360 900 360 880 360 860 340 860 340 840 340 820 320 800 300 800 280 800 260 800 260 780 260 760 260 740 260 720 260 700 260 680 260 660 260 640 260 620 260 600 280 600"></polyline>
                <polyline id="Shape" stroke="#F70028" points="240 580 220 580 200 580 180 580 160 580 180 560 180 540 160 540 160 520 160 500 200 500 220 520 220 540 220 560 200 560 240 560 260 560 260 540 260 520 260 500 240 500 260 480 280 480 280 500 280 520 280 540"></polyline>
                <path d="M300,440 L340,440" id="Shape" stroke="#F70028"></path>
                <polyline id="Shape" stroke="#F70028" points="300 380 280 380 260 380 240 380 220 380 200 380 180 380 200 360 200 340 180 340 180 320 160 320 180 300 180 280 180 260 180 240 180 220 180 200 180 180 180 160 180 140 180 120 180 100 180 80 180 60 200 60 200 80 200 100 200 120 200 140 200 160 220 160 220 140 220 120 220 100 220 80 220 60 240 60 240 80 240 100 240 120 240 140 240 160 260 160 260 140 260 120 260 100 260 80 260 60 280 60 280 80 280 100 280 120 280 140 280 160 280 180 280 200 280 220 280 240 280 260 260 260 260 280 240 280 220 280 200 280 200 300 200 320 220 320 220 300 240 300 240 320 240 340 220 340 220 360 240 360 260 360 260 340 260 320 260 300 280 300 280 280 300 280 300 260 300 240 300 220 300 200 300 180 300 160 300 140 300 120 300 100 300 80 300 60 320 60 320 80 320 100 320 120 320 140 320 160 320 180 320 200 320 220 320 240 320 260 320 280 320 300 300 300 300 320 280 320 280 340 280 360 300 360 300 340 320 340 320 320 320 360"></polyline>
                <path d="M340,280 L340,260" id="Shape" stroke="#F70028"></path>
                <path d="M240,400 L220,400" id="Shape" stroke="#F70028"></path>
                <polyline id="Shape" stroke="#F70028" points="180 600 180 620 160 620 140 620"></polyline>
                <polyline id="Shape" stroke="#F70028" points="180 640 180 680 160 680 160 700 160 720 140 720 160 740 160 760 160 780 180 780 180 760 180 740 180 720 180 700"></polyline>
                <polyline id="Shape" stroke="#F70028" points="280 700 280 680 280 660"></polyline>
                <polyline id="Shape" stroke="#F70028" points="280 720 280 740 280 760 280 780 300 780 300 760 300 740 320 760 320 780 340 780 340 760 360 760 360 740 360 720 360 700 360 680 380 680 380 660 400 680 400 700 400 740 380 740 380 760 360 780"></polyline>
                <polyline id="Shape" stroke="#F70028" points="380 820 380 840 360 840 380 860 380 880 400 880 400 860 400 840 400 820 420 840"></polyline>
                <polyline id="Shape" stroke="#F70028" points="800 1160 780 1160 760 1160 760 1180 760 1200 780 1180"></polyline>
                <path d="M700,1160 L700,1140" id="Shape" stroke="#F70028"></path>
                <polyline id="Shape" stroke="#0600F3" points="1960 820 1940 820 1920 820 1900 820 1880 820 1860 820 1860 800 1840 800 1860 780 1880 780 1880 800 1900 800 1900 780 1900 760 1900 740 1900 720 1920 720 1920 700 1920 680"></polyline>
                <polyline id="Shape" stroke="#0600F3" points="1940 720 1940 740 1920 740 1920 760 1920 780 1920 800 1940 800 1940 780 1940 760 1960 760 1960 740 1960 700"></polyline>
                <polyline id="Shape" stroke="#0600F3" points="1960 840 1940 840 1920 840 1900 840 1880 840 1860 840 1840 840 1820 840 1800 840 1800 820 1780 820 1780 800 1780 780 1740 780"></polyline>
                <polyline id="Shape" stroke="#0600F3" points="1800 860 1820 860 1820 880 1840 880 1840 860 1860 860 1860 880 1860 900 1840 900 1820 920"></polyline>
                <polyline id="Shape" stroke="#0600F3" points="1880 880 1880 860 1900 860 1900 880 1880 900"></polyline>
                <path d="M1920,860 L1940,860" id="Shape" stroke="#0600F3"></path>
                <polyline id="Shape" stroke="#0600F3" points="1760 1000 1740 1000 1740 980 1720 980 1700 980 1680 980 1680 1000 1660 1000 1660 1020 1640 1040 1640 1060 1620 1060 1620 1080 1600 1080 1580 1080 1560 1080 1540 1080 1520 1080 1500 1080 1480 1080 1460 1080 1440 1080 1420 1080 1420 1060 1420 1040 1400 1040 1400 1020 1420 1020 1440 1020 1440 1040 1460 1040 1460 1020 1480 1020 1480 1000 1480 980 1460 980 1440 980 1420 980 1400 980 1380 980 1360 980 1360 960 1340 940 1340 920 1320 920 1300 920 1280 920 1280 900 1260 900"></polyline>
                <polyline id="Shape" stroke="#0600F3" points="1220 860 1220 840 1200 840 1180 840 1180 820 1160 820 1180 800 1200 800 1200 820 1220 800 1220 780 1220 760 1200 760 1180 760"></polyline>
                <polyline id="Shape" stroke="#0600F3" points="1200 720 1240 720 1240 740 1240 760 1240 780 1260 760 1260 740 1280 740 1280 720 1280 700 1300 700 1300 680 1300 660 1300 640 1300 620 1320 620 1320 600 1340 600 1340 580 1340 560 1320 560 1300 540 1280 540 1260 540 1260 520 1260 500 1280 480 1300 480 1300 460 1320 460"></polyline>
                <polyline id="Shape" stroke="#0600F3" points="1340 520 1360 520 1360 500 1380 480 1380 460 1380 440 1360 440 1360 420 1340 400 1340 380"></polyline>
                <polyline id="Shape" stroke="#0600F3" points="1300 400 1280 420 1260 420 1240 420 1220 420 1220 400 1240 400 1240 380"></polyline>
                <polyline id="Shape" stroke="#0600F3" points="1180 400 1180 420 1160 440 1160 460 1160 480 1140 480 1140 500 1140 520 1140 540 1120 540 1120 560 1140 560 1160 560 1160 540 1160 520 1160 500 1180 480 1200 460 1220 460 1220 440"></polyline>
                <polyline id="Shape" stroke="#0600F3" points="1220 500 1200 520 1180 540"></polyline>
                <path d="M1220,580 L1240,560" id="Shape" stroke="#0600F3"></path>
                <polyline id="Shape" stroke="#0600F3" points="1240 620 1240 640 1220 660 1200 660"></polyline>
                <path d="M1180,620 L1160,600" id="Shape" stroke="#0600F3"></path>
                <polyline id="Shape" stroke="#0600F3" points="1320 640 1340 640 1340 620 1340 660 1340 680 1340 700 1320 700 1320 720 1320 740 1300 740 1300 760 1280 760 1300 780 1300 800 1280 800 1260 800 1260 820 1260 840 1280 840 1280 820 1300 840 1320 860"></polyline>
                <polyline id="Shape" stroke="#0600F3" points="1340 820 1360 820 1360 800 1360 780 1380 780 1380 800 1380 820 1380 840 1360 840 1400 840 1400 820 1400 800 1420 780 1440 780 1440 800 1440 820 1420 820 1440 840 1440 860 1420 860 1400 860 1420 880 1420 900 1400 900 1400 920 1380 920 1360 920 1340 900"></polyline>
                <polyline id="Shape" stroke="#0600F3" points="1380 940 1400 940 1400 960 1420 960 1420 940 1420 920 1440 920 1440 900 1440 880 1460 880 1460 900 1460 920 1460 940 1440 940 1440 960 1460 960 1480 960 1480 940 1500 940 1520 960 1520 980 1500 980"></polyline>
                <polyline id="Shape" stroke="#0600F3" points="1540 1000 1540 1020 1540 1040 1540 1060 1520 1060 1500 1040 1480 1040 1480 1060 1460 1060 1460 1100 1460 1120 1480 1120 1480 1100 1500 1100 1500 1120 1500 1140 1480 1140 1460 1160 1440 1160 1420 1160 1420 1140 1400 1140 1380 1140 1360 1140 1360 1120 1360 1100 1360 1080 1340 1080 1340 1060 1340 1040 1340 1020 1360 1000"></polyline>
                <polyline id="Shape" stroke="#0600F3" points="1360 1060 1380 1080 1400 1100"></polyline>
                <polyline id="Shape" stroke="#0600F3" points="1440 1140 1440 1180 1440 1200 1420 1200 1400 1180 1380 1180 1380 1200 1380 1220 1400 1220"></polyline>
                <polyline id="Shape" stroke="#0600F3" points="1420 1260 1420 1280 1400 1280 1380 1280 1360 1280 1360 1260 1360 1300 1340 1300 1340 1320 1340 1340 1340 1360 1360 1340 1360 1320 1380 1320 1400 1340 1400 1360 1400 1380 1400 1400 1420 1400 1420 1380 1440 1380 1440 1360 1440 1340 1420 1340 1420 1320 1420 1300 1440 1300 1440 1280 1440 1260 1460 1260 1460 1240 1480 1240 1480 1220 1480 1200 1460 1200 1460 1180 1480 1180 1500 1180 1500 1160 1520 1160 1520 1180 1520 1200 1500 1200 1500 1220 1500 1240 1520 1260 1520 1280 1500 1280 1480 1300 1460 1300 1460 1280 1460 1320 1440 1320 1460 1340 1480 1340 1480 1320 1500 1320 1500 1340 1500 1360 1480 1360 1480 1380 1480 1400 1460 1400 1440 1400 1440 1420 1420 1420 1400 1440 1380 1440 1360 1440 1360 1460 1380 1460 1400 1460 1400 1480 1400 1500 1400 1520 1380 1520 1360 1520 1360 1540 1380 1560 1400 1560 1400 1540 1420 1540 1420 1520 1420 1500 1420 1480 1420 1460 1440 1440 1460 1440 1460 1420 1480 1420 1480 1440 1500 1440 1500 1420 1500 1400 1520 1380 1520 1360 1520 1340 1540 1340 1540 1320 1560 1320 1560 1300 1560 1280 1540 1280 1540 1260 1540 1240 1540 1220 1540 1200 1540 1180 1540 1160 1560 1160 1560 1140 1560 1120 1540 1120 1520 1120 1520 1100 1540 1100 1560 1100 1580 1100 1580 1120 1580 1140 1580 1160 1580 1180 1560 1180 1560 1200 1560 1220 1560 1240 1560 1260 1580 1260 1580 1240 1580 1220 1580 1200 1600 1200 1600 1180 1600 1160 1600 1140 1600 1120 1600 1100 1620 1100 1620 1120 1620 1140 1620 1160 1620 1180 1620 1200 1620 1220 1600 1220 1600 1240 1600 1260 1600 1280 1580 1280 1580 1300 1580 1320 1580 1340 1560 1340 1560 1360 1540 1360 1560 1380 1560 1400 1540 1400 1540 1420 1520 1420 1520 1440 1520 1460 1500 1460 1500 1480 1480 1480 1480 1500 1460 1500 1460 1520 1460 1540 1440 1540 1440 1560 1420 1560 1420 1580 1400 1580 1400 1600 1400 1620 1380 1620 1360 1620 1360 1600 1340 1580"></polyline>
                <polyline id="Shape" stroke="#0600F3" points="1380 1640 1380 1660 1360 1660 1360 1680 1380 1680 1380 1700 1400 1700 1400 1680 1400 1660 1420 1640 1420 1620 1420 1600 1440 1620 1460 1620 1460 1600 1460 1580 1460 1560 1480 1540 1480 1520 1500 1520 1500 1500 1520 1500 1520 1480 1540 1480 1540 1460 1540 1440 1560 1420 1580 1400 1580 1380 1580 1360 1600 1360 1600 1340 1600 1320 1600 1300 1620 1300 1620 1280 1620 1260 1620 1240 1640 1240 1640 1220 1640 1200 1640 1180 1640 1160 1640 1140 1640 1120 1640 1100 1640 1080 1660 1080 1660 1060 1680 1060 1680 1040 1700 1040 1700 1060 1700 1080 1680 1100 1660 1100 1680 1120 1680 1140 1680 1160 1660 1160 1660 1180 1660 1200 1660 1220 1680 1200 1680 1180 1700 1180 1700 1160 1700 1140 1720 1140 1720 1120 1740 1100"></polyline>
                <polyline id="Shape" stroke="#0600F3" points="1700 960 1680 940 1640 940 1640 960"></polyline>
                <polyline id="Shape" stroke="#0600F3" points="1620 920 1600 920 1580 920 1600 900 1620 880 1620 840"></polyline>
                <polyline id="Shape" stroke="#0600F3" points="1540 880 1540 900 1540 920"></polyline>
                <polyline id="Shape" stroke="#0600F3" points="1500 900 1500 880 1480 880 1500 860 1500 840 1460 840 1460 820 1460 800 1460 780 1480 780 1480 740 1480 720 1480 700 1460 700 1480 680 1480 660 1460 660 1460 640 1440 640 1400 640 1380 660 1400 680 1400 700 1420 680 1420 720 1420 740 1440 740"></polyline>
                <polyline id="Shape" stroke="#0600F3" points="1360 740 1340 740 1340 720 1360 720 1360 700"></polyline>
                <polyline id="Shape" stroke="#0600F3" points="1340 760 1320 780 1320 800"></polyline>
                <polyline id="Shape" stroke="#0600F3" points="1200 880 1180 880 1180 860"></polyline>
                <polyline id="Shape" stroke="#0600F3" points="1380 600 1400 600 1400 580 1380 560 1360 580"></polyline>
                <polyline id="Shape" stroke="#0600F3" points="1380 520 1400 500 1420 500 1420 520 1440 520 1440 540 1440 560 1420 560"></polyline>
                <path d="M1400,460 L1400,420" id="Shape" stroke="#0600F3"></path>
                <polyline id="Shape" stroke="#0600F3" points="1360 260 1340 260 1340 240"></polyline>
                <polyline id="Shape" stroke="#0600F3" points="1280 240 1260 240 1260 220 1260 200 1240 200 1240 180 1240 160 1260 160 1260 180 1280 160 1280 140"></polyline>
                <path d="M1280,200 L1280,220" id="Shape" stroke="#0600F3"></path>
                <path d="M1680,200 L1700,200" id="Shape" stroke="#0600F3"></path>
                <polyline id="Shape" stroke="#0600F3" points="1860 320 1880 300 1900 300 1900 320 1900 340 1900 360 1880 360 1880 380"></polyline>
                <polyline id="Shape" stroke="#0600F3" points="1620 1000 1620 1020 1600 1040 1580 1020 1560 1020 1560 1060 1580 1060"></polyline>
                <polyline id="Shape" stroke="#0600F3" points="1700 1220 1700 1240 1680 1240 1680 1260 1680 1280 1680 1300 1660 1300 1640 1300 1640 1280 1640 1260"></polyline>
                <polyline id="Shape" stroke="#0600F3" points="1640 1320 1620 1320 1620 1340 1620 1360 1620 1380 1600 1380 1600 1400 1600 1420 1600 1440 1600 1460 1580 1460 1560 1460 1560 1480 1560 1500 1540 1500 1540 1520 1520 1520 1520 1540 1500 1540 1540 1540 1560 1540 1560 1520 1580 1520 1580 1500 1600 1500 1600 1480 1620 1480 1620 1460 1620 1440 1620 1420 1620 1400 1640 1400 1640 1380 1640 1360 1640 1340 1660 1340 1660 1320 1680 1340 1680 1360 1660 1360 1660 1380 1660 1400 1680 1400 1680 1380 1700 1380 1700 1360 1700 1340 1700 1320 1700 1300 1700 1280 1700 1260 1720 1260 1720 1240 1720 1220"></polyline>
                <polyline id="Shape" stroke="#0600F3" points="1780 1200 1780 1160 1780 1140"></polyline>
                <polyline id="Shape" stroke="#0600F3" points="1340 1220 1320 1220 1340 1200 1340 1180 1360 1160"></polyline>
                <polyline id="Shape" stroke="#0600F3" points="840 1280 840 1260 820 1260 800 1260 780 1260"></polyline>
                <path d="M860,1260 L860,1280" id="Shape" stroke="#0600F3"></path>
                <polyline id="Shape" stroke="#0600F3" points="840 980 840 960 860 960"></polyline>
                <polyline id="Shape" stroke="#0600F3" points="500 600 520 600 540 600"></polyline>
                <polyline id="Shape" stroke="#0600F3" points="480 580 460 580 460 560 440 560 460 540 480 540"></polyline>
                <path d="M640,500 L640,480" id="Shape" stroke="#0600F3"></path>
                <polyline id="Shape" stroke="#0600F3" points="660 540 680 540 680 560"></polyline>
            </g>
        </g>
    </g>
</svg>