<?xml version="1.0" encoding="UTF-8"?>
<svg width="1920px" height="1080px" viewBox="0 0 1920 1080" version="1.1" xmlns="http://www.w3.org/2000/svg" xmlns:xlink="http://www.w3.org/1999/xlink">
    <!-- Generator: Sketch 51.3 (57544) - http://www.bohemiancoding.com/sketch -->
    <title>artwork3</title>
    <desc>Created with Sketch.</desc>
    <defs>
        <rect id="path-1" x="0" y="0" width="1920" height="1080"></rect>
    </defs>
    <g id="Page-1" stroke="none" stroke-width="1" fill="none" fill-rule="evenodd">
        <g id="artwork3">
            <g id="Shape-Clipped">
                <mask id="mask-2" fill="white">
                    <use xlink:href="#path-1"></use>
                </mask>
                <g id="path-1"></g>
                <g id="Shape" mask="url(#mask-2)">
                    <g transform="translate(-1223.000000, -861.000000)" id="Group">
                        <g transform="translate(1914.000000, 1317.000000) rotate(-90.000000) translate(-1914.000000, -1317.000000) translate(597.000000, -597.000000)">
                            <polyline id="Shape" stroke="#D5D3D8" stroke-width="20" points="2180.07895 1357 2239 1298.125 2239 1239.25 2180.07895 1239.25 2121.15789 1239.25 2062.23684 1239.25 2062.23684 1180.375 2003.31579 1180.375 2003.31579 1121.5 1944.39474 1121.5 1944.39474 1062.625 1885.47368 1062.625 1826.55263 1062.625 1767.63158 1062.625 1708.71053 1062.625 1649.78947 1062.625 1590.86842 1062.625 1531.94737 1062.625 1473.02632 1062.625 1414.10526 1062.625 1355.18421 1062.625 1296.26316 1062.625 1296.26316 1003.75 1296.26316 944.875 1237.34211 944.875 1237.34211 886 1178.42105 886 1178.42105 827.125 1119.5 827.125 1060.57895 827.125 1060.57895 768.25 1119.5 768.25 1119.5 709.375 1178.42105 650.5 1178.42105 591.625 1119.5 591.625 1060.57895 591.625 942.73684 591.625 883.81579 591.625 765.97368 591.625 765.97368 650.5 707.05263 650.5 648.13158 650.5 589.21053 650.5 530.28947 650.5 471.368421 650.5 412.447368 650.5 353.526316 650.5 294.605263 650.5 235.684211 650.5 176.763158 650.5 176.763158 591.625 235.684211 591.625 294.605263 591.625 294.605263 532.75 294.605263 473.875 235.684211 473.875 176.763158 473.875 117.842105 473.875 58.921053 473.875 0 415"></polyline>
                            <polyline id="Shape" stroke="#D5D3D8" stroke-width="20" points="233.8 765.9 233.8 824.8 292.6 824.8 351.4 765.9 410.2 765.9 410.2 824.8 410.2 942.6 351.4 942.6 292.6 942.6 233.8 942.6 175 942.6 175 883.7 175 1001.5 175 1060.4 233.8 1060.4 233.8 1001.5 233.8 1119.3 292.6 1119.3 292.6 1178.2 351.4 1178.2 410.2 1178.2 410.2 1119.3 410.2 1060.4 351.4 1060.4 410.2 1001.5 469 942.6 527.8 942.6 586.6 942.6 586.6 883.7 586.6 824.8 586.6 765.9 527.8 765.9 527.8 707 586.6 707 645.4 707 645.4 765.9 704.2 707 763 765.9 704.2 824.8 704.2 883.7 704.2 942.6 763 1001.5 763 1060.4 763 1119.3 763 1178.2 704.2 1178.2 645.4 1178.2 704.2 1237.1 704.2 1296 645.4 1296 586.6 1296 645.4 1354.9 645.4 1413.8 586.6 1413.8 586.6 1472.7 527.8 1472.7 527.8 1590.5 469 1590.5 410.2 1649.4 351.4 1708.3 351.4 1767.2 410.2 1767.2 410.2 1826.1 410.2 1885 351.4 1885 292.6 1826.1 233.8 1885"></polyline>
                            <polyline id="Shape" stroke="#D5D3D8" stroke-width="20" points="297 3001 297 2942.10714 355.928571 3001 414.857143 2942.10714 414.857143 2883.21429 414.857143 2824.32143 414.857143 2765.42857 414.857143 2706.53571 414.857143 2647.64286 414.857143 2588.75 414.857143 2529.85714 414.857143 2470.96429 532.71429 2470.96429 591.64286 2470.96429 591.64286 2412.07143 591.64286 2353.17857 532.71429 2353.17857 591.64286 2294.28571 591.64286 2235.39286 591.64286 2176.5 650.57143 2176.5 650.57143 2117.60714 650.57143 2058.71429 591.64286 2058.71429 532.71429 1999.82143 473.785714 1999.82143 473.785714 1940.92857 473.785714 1882.03571 473.785714 1823.14286 532.71429 1882.03571 591.64286 1823.14286 591.64286 1764.25 650.57143 1764.25 650.57143 1823.14286 650.57143 1882.03571 650.57143 1940.92857 650.57143 1999.82143 709.5 2058.71429 709.5 2117.60714 709.5 2176.5 768.42857 2176.5 768.42857 2117.60714 827.35714 2058.71429 886.28571 2058.71429 945.21429 2058.71429 1004.14286 2058.71429 1004.14286 1999.82143 1063.07143 1999.82143 1063.07143 1940.92857 1122 1940.92857 1122 1882.03571 1122 1823.14286 1063.07143 1823.14286 1122 1764.25 1122 1705.35714 1063.07143 1705.35714 1122 1646.46429 1122 1587.57143 1063.07143 1587.57143 1004.14286 1587.57143 945.21429 1587.57143 1004.14286 1528.67857 1004.14286 1469.78571 1004.14286 1410.89286 945.21429 1410.89286 827.35714 1410.89286 827.35714 1352 768.42857 1352 709.5 1410.89286 709.5 1469.78571 650.57143 1469.78571 650.57143 1528.67857 650.57143 1587.57143 591.64286 1587.57143 591.64286 1646.46429 650.57143 1646.46429 709.5 1646.46429 709.5 1587.57143 768.42857 1587.57143 768.42857 1528.67857 768.42857 1469.78571 827.35714 1469.78571 827.35714 1587.57143 768.42857 1646.46429 709.5 1705.35714 768.42857 1764.25 768.42857 1823.14286 827.35714 1823.14286 827.35714 1764.25 827.35714 1705.35714 886.28571 1705.35714 886.28571 1764.25 945.21429 1764.25 945.21429 1705.35714 945.21429 1823.14286 945.21429 1940.92857 886.28571 1940.92857"></polyline>
                            <polyline id="Shape" stroke="#D5D3D8" stroke-width="20" points="885 2181 826 2181 826 2239.66667 767 2239.66667 767 2298.33333 767 2357 708 2357 649 2357"></polyline>
                            <polyline id="Shape" stroke="#D5D3D8" stroke-width="20" points="708.6 2474 768 2474 768 2533.4 768 2592.8 768 2652.2 708.6 2652.2 649.2 2652.2 589.8 2652.2 530.4 2652.2 471 2652.2 471 2711.6 530.4 2711.6 530.4 2771 589.8 2771 589.8 2711.6 589.8 2592.8 589.8 2533.4 649.2 2592.8"></polyline>
                            <polyline id="Shape" stroke="#D5D3D8" stroke-width="20" points="707 2710 707 2769.5 707 2829 765 2829 765 2769.5 765 2710"></polyline>
                            <polyline id="Shape" stroke="#D5D3D8" stroke-width="20" points="824 2596 824 2477.42857 882.66667 2477.42857 941.33333 2477.42857 941.33333 2418.14286 941.33333 2358.85714 882.66667 2358.85714 824 2299.57143 882.66667 2240.28571 941.33333 2240.28571 941.33333 2181 1000 2181 1000 2240.28571 941.33333 2299.57143"></polyline>
                            <polyline id="Shape" stroke="#D5D3D8" stroke-width="20" points="1060.375 2181 1119.25 2122.05405 1178.125 2122.05405 1178.125 2063.10811 1178.125 2004.16216 1178.125 1945.21622 1237 1886.27027 1295.875 1827.32432 1237 1768.37838 1178.125 1768.37838 1237 1709.43243 1178.125 1650.48649 1237 1591.54054 1178.125 1532.59459 1119.25 1532.59459 1060.375 1473.64865 1178.125 1473.64865 1178.125 1414.7027 1178.125 1355.75676 1178.125 1296.81081 1119.25 1296.81081 1060.375 1296.81081 1001.5 1296.81081 942.625 1296.81081 883.75 1296.81081 824.875 1296.81081 766 1237.86486 824.875 1178.91892 824.875 1119.97297 824.875 1061.02703 883.75 1061.02703 883.75 1119.97297 883.75 1178.91892 883.75 1237.86486 942.625 1237.86486 942.625 1178.91892 942.625 1119.97297 942.625 1061.02703 942.625 1002.08108 942.625 943.135135 1001.5 943.135135 1060.375 884.189189 1119.25 943.135135 1119.25 1002.08108 1060.375 1002.08108 1060.375 1061.02703 1060.375 1119.97297 1001.5 1119.97297 1060.375 1178.91892 1060.375 1237.86486 1001.5 1237.86486 1119.25 1237.86486 1119.25 1178.91892 1119.25 1119.97297 1119.25 1061.02703 1178.125 1061.02703 1178.125 1002.08108 1178.125 1119.97297 1178.125 1178.91892 1178.125 1237.86486 1237 1178.91892 1295.875 1119.97297 1354.75 1119.97297 1354.75 1002.08108 1354.75 943.135135 1354.75 884.189189 1295.875 825.243243 1237 825.243243 1295.875 766.297297 1295.875 707.351351 1237 707.351351 1237 648.405405 1237 589.459459 1237 530.513514 1295.875 530.513514 1295.875 471.567568 1354.75 471.567568 1413.625 471.567568 1413.625 412.621622 1413.625 353.675676 1354.75 353.675676 1295.875 353.675676 1237 294.72973 1237 176.837838 1295.875 176.837838 1295.875 58.9459459 1354.75 58.9459459 1413.625 58.9459459 1413.625 0 1472.5 0 1472.5 117.891892 1472.5 176.837838 1413.625 176.837838 1413.625 235.783784 1413.625 294.72973 1472.5 294.72973 1472.5 235.783784 1531.375 235.783784 1531.375 294.72973 1590.25 294.72973 1590.25 235.783784 1590.25 176.837838 1590.25 117.891892 1590.25 58.9459459 1590.25 0 1649.125 0 1708 0 1708 58.9459459 1708 117.891892 1649.125 117.891892 1649.125 176.837838 1649.125 235.783784 1649.125 294.72973 1649.125 353.675676 1590.25 353.675676 1590.25 412.621622 1531.375 412.621622 1472.5 412.621622 1472.5 353.675676"></polyline>
                            <polyline id="Shape" stroke="#D5D3D8" stroke-width="20" points="1469.14286 1122 1469.14286 1180.66667 1469.14286 1239.33333 1410 1239.33333 1469.14286 1298 1528.28571 1298 1528.28571 1239.33333 1528.28571 1180.66667 1587.42857 1180.66667 1587.42857 1122 1646.57143 1122 1646.57143 1180.66667 1646.57143 1239.33333 1646.57143 1298 1705.71429 1298 1705.71429 1239.33333 1705.71429 1180.66667 1764.85714 1180.66667 1764.85714 1122 1824 1122 1824 1180.66667 1824 1239.33333"></polyline>
                            <polyline id="Shape" stroke="#D5D3D8" stroke-width="20" points="1824 1411.28571 1705.71429 1411.28571 1646.57143 1411.28571 1587.42857 1411.28571 1528.28571 1411.28571 1469.14286 1411.28571 1528.28571 1352 1528.28571 1470.57143 1528.28571 1529.85714 1469.14286 1529.85714 1469.14286 1589.14286 1410 1589.14286 1469.14286 1648.42857 1528.28571 1648.42857 1528.28571 1589.14286 1587.42857 1529.85714 1646.57143 1529.85714 1646.57143 1470.57143 1646.57143 1589.14286 1646.57143 1648.42857 1705.71429 1707.71429 1646.57143 1767"></polyline>
                            <polyline id="Shape" stroke="#D5D3D8" stroke-width="20" points="1529 1710 1471 1769.5 1471 1829"></polyline>
                            <path d="M1353,1886 L1295,1943" id="Shape" stroke="#D5D3D8" stroke-width="20"></path>
                            <polyline id="Shape" stroke="#D5D3D8" stroke-width="20" points="1410 2001 1528.28571 2001 1528.28571 1942.33333 1646.57143 1942.33333 1705.71429 1883.66667 1764.85714 1883.66667 1824 1825 1824 1942.33333 1824 2001"></polyline>
                            <polyline id="Shape" stroke="#D5D3D8" stroke-width="20" points="1707 2062 1649 2062 1649 2121.75 1649 2181.5 1649 2241.25 1649 2301 1707 2301 1707 2241.25 1707 2181.5"></polyline>
                            <polyline id="Shape" stroke="#D5D3D8" stroke-width="20" points="1824.25 2239 1824.25 2297.86667 1942 2297.86667 1942 2356.73333 1942 2415.6 1883.125 2415.6 1883.125 2474.46667 1824.25 2474.46667 1824.25 2533.33333 1824.25 2592.2 1765.375 2592.2 1765.375 2651.06667 1824.25 2651.06667 1824.25 2709.93333 1824.25 2768.8 1765.375 2768.8 1706.5 2768.8 1647.625 2768.8 1647.625 2709.93333 1647.625 2827.66667 1588.75 2827.66667 1647.625 2886.53333 1647.625 2945.4 1588.75 2945.4 1529.875 3004.26667 1471 3004.26667 1471 2945.4 1471 3063.13333 1471 3122"></polyline>
                            <polyline id="Shape" stroke="#D5D3D8" stroke-width="20" points="1588.33333 3060.88889 1647 3060.88889 1647 3002.11111 1647 3119.66667 1647 3178.44444 1588.33333 3237.22222 1588.33333 3296 1529.66667 3296 1471 3296 1412.33333 3296 1353.66667 3296 1353.66667 3237.22222 1295 3237.22222 1295 3178.44444 1295 3119.66667 1295 3060.88889 1295 3002.11111 1295 2943.33333 1295 2825.77778 1353.66667 2767 1412.33333 2767 1471 2767"></polyline>
                            <polyline id="Shape" stroke="#D5D3D8" stroke-width="20" points="1293.4 2710 1293.4 2651.125 1234 2651.125 1293.4 2592.25 1293.4 2533.375 1293.4 2474.5 1293.4 2356.75 1412.2 2356.75 1412.2 2297.875 1471.6 2297.875 1471.6 2356.75 1531 2297.875 1531 2239"></polyline>
                            <polyline id="Shape" stroke="#D5D3D8" stroke-width="20" points="1176 2181 1176 2240.28571 1117.33333 2240.28571 1117.33333 2299.57143 1117.33333 2418.14286 1117.33333 2477.42857 1117.33333 2536.71429 1000 2536.71429 1000 2596"></polyline>
                            <polyline id="Shape" stroke="#D5D3D8" stroke-width="20" points="1119 2710 1119 2769.4 1059.5 2828.8 1000 2888.2 1000 2947.6 1119 2947.6 1119 2888.2 1119 3007"></polyline>
                            <polyline id="Shape" stroke="#D5D3D8" stroke-width="20" points="885 3185 766 3185 766 3066.2 766 3006.8 766 2888"></polyline>
                            <polyline id="Shape" stroke="#D5D3D8" stroke-width="20" points="881 2824 881 2767 939 2824"></polyline>
                            <polyline id="Shape" stroke="#D5D3D8" stroke-width="20" points="1826 3066 1826 3006.25 1826 2946.5 1826 2886.75 1826 2827 1766.5 2827 1707 2827 1707 2886.75"></polyline>
                            <polyline id="Shape" stroke="#D5D3D8" stroke-width="20" points="1353 1354.75 1293.5 1354.75 1293.5 1295 1293.5 1414.5 1234 1414.5 1234 1474.25 1293.5 1474.25 1293.5 1534 1353 1474.25 1353 1414.5"></polyline>
                            <polyline id="Shape" stroke="#131114" stroke-width="20" points="1239 3591 1179.92308 3532.1 1179.92308 3473.2 1179.92308 3355.4 1120.84615 3355.4 1120.84615 3296.5 1120.84615 3237.6 1179.92308 3237.6 1179.92308 3178.7 1179.92308 3119.8 1179.92308 3060.9 1179.92308 3002 1179.92308 2943.1 1179.92308 2884.2 1179.92308 2825.3 1120.84615 2825.3 1061.76923 2766.4 1002.69231 2766.4 943.61538 2766.4 884.53846 2707.5 825.46154 2707.5 825.46154 2648.6 884.53846 2648.6 884.53846 2589.7 825.46154 2530.8 707.30769 2530.8 648.23077 2530.8 530.07692 2530.8 471 2530.8 471 2471.9 530.07692 2413"></polyline>
                            <polyline id="Shape" stroke="#131114" stroke-width="20" points="709 2888 649.6 2947.28571 649.6 3006.57143 649.6 3065.85714 649.6 3125.14286 649.6 3184.42857 649.6 3243.71429 590.2 3243.71429 590.2 3303 530.8 3303 471.4 3303 412 3303 471.4 3243.71429"></polyline>
                            <polyline id="Shape" stroke="#FF4B46" stroke-width="10" points="354 3474.8 354 3533.66667 471.75 3533.66667 471.75 3474.8 471.75 3415.93333 530.625 3474.8 530.625 3533.66667 530.625 3592.53333 471.75 3592.53333 471.75 3651.4 471.75 3710.26667 471.75 3769.13333 471.75 3828 530.625 3828 530.625 3769.13333 530.625 3710.26667 589.5 3710.26667 648.375 3651.4 648.375 3592.53333 648.375 3533.66667 648.375 3474.8 648.375 3415.93333 648.375 3357.06667 589.5 3357.06667 648.375 3298.2 707.25 3239.33333 766.125 3239.33333 766.125 3298.2 766.125 3357.06667 825 3357.06667 825 3298.2 825 3239.33333 825 3180.46667 825 3121.6 825 3062.73333 825 3003.86667 825 2945 766.125 2945 707.25 3003.86667 707.25 3121.6"></polyline>
                            <polyline id="Shape" stroke="#131114" stroke-width="20" points="885.2 3123.83333 885.2 3064.91667 885.2 3006 1004 3006 1004 3064.91667 1004 3123.83333 1004 3182.75 1004 3241.66667 944.6 3241.66667 944.6 3300.58333 944.6 3359.5 944.6 3418.41667 885.2 3418.41667 825.8 3418.41667 825.8 3477.33333 825.8 3536.25 825.8 3595.16667 885.2 3595.16667 885.2 3536.25 885.2 3477.33333 944.6 3536.25 944.6 3595.16667 885.2 3654.08333 825.8 3713 766.4 3713 707 3654.08333 707 3536.25 707 3477.33333"></polyline>
                            <polyline id="Shape" stroke="#131114" stroke-width="20" points="1057 3184 1057 3124.25 1057 3064.5 1057 3004.75 1057 2945"></polyline>
                            <polyline id="Shape" stroke="#131114" stroke-width="20" points="1000 2825 1000 2707.44444 1000 2648.66667 1058 2648.66667 1058 2589.88889 1058 2531.11111 1058 2472.33333 1000 2472.33333 1000 2413.55556 1058 2413.55556 1058 2354.77778 1058 2296 1000 2296"></polyline>
                            <polyline id="Shape" stroke="#131114" stroke-width="20" points="1174.33333 2296 1174.33333 2354.86667 1174.33333 2413.73333 1174.33333 2472.6 1174.33333 2531.46667 1174.33333 2590.33333 1174.33333 2649.2 1115.66667 2649.2 1057 2708.06667 1174.33333 2708.06667 1174.33333 2766.93333 1233 2825.8 1233 2884.66667 1233 2943.53333 1233 3002.4 1233 3061.26667 1233 3120.13333 1233 3179"></polyline>
                            <polyline id="Shape" stroke="#131114" stroke-width="20" points="1528 3476.84615 1528 3535.92308 1528 3595 1586.66667 3595 1586.66667 3535.92308 1586.66667 3476.84615 1586.66667 3417.76923 1645.33333 3358.69231 1704 3358.69231 1704 3299.61538 1704 3240.53846 1645.33333 3240.53846 1528 3240.53846 1469.33333 3240.53846 1469.33333 3181.46154 1410.66667 3181.46154 1410.66667 3122.38462 1352 3122.38462 1352 3063.30769 1352 3004.23077 1352 2945.15385 1352 2886.07692 1352 2827 1410.66667 2827 1410.66667 2886.07692 1410.66667 2945.15385 1410.66667 3063.30769 1528 3063.30769 1586.66667 3004.23077 1528 2945.15385 1586.66667 2886.07692 1528 2827"></polyline>
                            <polyline id="Shape" stroke="#FF4B46" stroke-width="10" points="1468.66667 2710 1410 2710 1351.33333 2710 1351.33333 2651.125 1351.33333 2592.25 1351.33333 2533.375 1351.33333 2474.5 1351.33333 2415.625 1292.66667 2415.625 1234 2415.625 1234 2356.75 1234 2297.875 1234 2239 1292.66667 2239 1292.66667 2180.125 1351.33333 2121.25 1410 2121.25 1410 2062.375 1410 1944.625 1410 1885.75 1468.66667 1885.75 1468.66667 1944.625 1527.33333 1885.75 1527.33333 1826.875 1527.33333 1768 1586 1768 1586 1826.875 1586 1885.75 1586 1944.625 1586 2003.5 1586 2062.375 1586 2121.25 1527.33333 2121.25"></polyline>
                            <polyline id="Shape" stroke="#FF4B46" stroke-width="50" transform="translate(914.000000, 3090.500000) rotate(90.000000) translate(-914.000000, -3090.500000) " points="972.66667 3561.5 914 3561.5 855.33333 3561.5 855.33333 3502.625 855.33333 3443.75 855.33333 3384.875 855.33333 3326 855.33333 3267.125 796.66667 3267.125 738 3267.125 738 3208.25 738 3149.375 738 3090.5 796.66667 3090.5 796.66667 3031.625 855.33333 2972.75 914 2972.75 914 2913.875 914 2796.125 914 2737.25 972.66667 2737.25 972.66667 2796.125 1031.33333 2737.25 1031.33333 2678.375 1031.33333 2619.5 1090 2619.5 1090 2678.375 1090 2737.25 1090 2796.125 1090 2855 1090 2913.875 1090 2972.75 1031.33333 2972.75"></polyline>
                            <polyline id="Shape" stroke="#131114" stroke-width="20" points="1586 2239 1586 2298 1586 2357 1527.33333 2357 1527.33333 2416 1527.33333 2475 1527.33333 2534 1468.66667 2593 1410 2593 1410 2534 1410 2475"></polyline>
                            <polyline id="Shape" stroke="#131114" stroke-width="20" points="1352 2358 1352 2239 1410 2239"></polyline>
                            <polyline id="Shape" stroke="#131114" stroke-width="20" points="1236 2062 1236 2003.33333 1236 1944.66667 1178 1886"></polyline>
                            <polyline id="Shape" stroke="#131114" stroke-width="20" points="1117 2003 1058 2062.5 1058 2122 940 2122 881 2122"></polyline>
                            <path d="M766,1999 L766,1942" id="Shape" stroke="#131114" stroke-width="20"></path>
                            <polyline id="Shape" stroke="#131114" stroke-width="20" points="586 2007 527 1947.6 527 1828.8 527 1769.4 586 1710 645 1710 763 1710"></polyline>
                            <polyline id="Shape" stroke="#131114" stroke-width="20" points="883 1649 883 1589.6 883 1530.2 824 1530.2 883 1470.8 883 1411.4 883 1352 942 1352 1060 1352 1060 1411.4"></polyline>
                            <path d="M1057,1649 L1057,1768" id="Shape" stroke="#131114" stroke-width="20"></path>
                            <path d="M1000,1886 L1000,1943" id="Shape" stroke="#131114" stroke-width="20"></path>
                            <polyline id="Shape" stroke="#FF4B46" stroke-width="50" points="1295 1649 1295 1590 1354.4 1590 1354.4 1531 1413.8 1472 1413.8 1413 1413.8 1354 1473.2 1354 1592 1354 1592 1295"></polyline>
                            <polyline id="Shape" stroke="#131114" stroke-width="20" points="1707 1590.38462 1707 1649.46154 1765.875 1649.46154 1765.875 1590.38462 1765.875 1531.30769 1765.875 1472.23077 1824.75 1472.23077 1824.75 1531.30769 1883.625 1472.23077 1942.5 1413.15385 1942.5 1354.07692 2001.375 1354.07692 2119.125 1354.07692 2119.125 1295 2178 1295 2178 1413.15385 2119.125 1413.15385 2119.125 1472.23077 2060.25 1472.23077 2119.125 1531.30769 2060.25 1590.38462 2060.25 1649.46154 2060.25 1708.53846 2001.375 1708.53846 1942.5 1708.53846 1883.625 1708.53846 1883.625 1767.61538 1883.625 1826.69231 1883.625 1944.84615 1942.5 1944.84615 1942.5 2003.92308 1942.5 2063 1883.625 2063 1824.75 2063 1765.875 2063 1765.875 2003.92308 1765.875 1944.84615"></polyline>
                            <polyline id="Shape" stroke="#131114" stroke-width="20" points="1709.33333 2120 1768 2120 1768 2179 1768 2238 1768 2297 1768 2356 1709.33333 2356 1709.33333 2415 1709.33333 2474 1650.66667 2474 1592 2474 1592 2415"></polyline>
                            <polyline id="Shape" stroke="#131114" stroke-width="20" points="1707 2535 1707 2593.66667 1707 2652.33333 1707 2711 1765 2711"></polyline>
                            <polyline id="Shape" stroke="#131114" stroke-width="20" points="1887 2296 1827.5 2354.66667 1827.5 2413.33333 1768 2413.33333 1768 2472"></polyline>
                            <polyline id="Shape" stroke="#131114" stroke-width="20" points="1586 2593 1586 2650 1527.33333 2650 1468.66667 2650 1410 2650"></polyline>
                            <polyline id="Shape" stroke="#131114" stroke-width="20" points="1234 2593 1234 2533.5 1234 2474"></polyline>
                            <polyline id="Shape" stroke="#131114" stroke-width="20" points="824 2767 824 2826.5 824 2886"></polyline>
                            <polyline id="Shape" stroke="#FF4B46" stroke-width="10" points="1592 3654 1709.74778 3654 1709.74778 3595.05556 1709.74778 3536.11111 1650.87389 3536.11111 1709.74778 3477.16667 1768.62168 3477.16667 1768.62168 3418.22222 1768.62168 3359.27778 1827.49557 3300.33333 1827.49557 3241.38889 1886.36946 3241.38889 1886.36946 3182.44444 1886.36946 3123.5 1886.36946 3064.55556 1886.36946 3005.61111 1945.24335 3005.61111 1945.24335 2946.66667 1945.24335 2887.72222 2004.11725 2887.72222 2062.99114 2887.72222 2062.99114 2946.66667 2121.86503 2946.66667 2121.86503 2887.72222 2180.73892 2946.66667 2121.86503 3005.61111 2121.86503 3064.55556 2121.86503 3123.5 2121.86503 3241.38889 2180.73892 3241.38889 2180.73892 3300.33333 2180.73892 3359.27778 2239.61282 3359.27778 2239.61282 3300.33333 2239.61282 3241.38889 2239.61282 3182.44444 2239.61282 3123.5 2298.48671 3123.5 2298.48671 3064.55556 2298.48671 3005.61111 2298.48671 2946.66667 2298.48671 2887.72222 2298.48671 2828.77778 2298.48671 2710.88889 2298.48671 2651.94444 2357.3606 2651.94444 2357.3606 2593 2357.3606 2710.88889 2416.23449 2769.83333 2475.10839 2769.83333 2475.10839 2828.77778 2475.10839 2887.72222 2475.10839 2946.66667 2475.10839 3005.61111 2475.10839 3064.55556 2357.3606 3064.55556 2357.3606 3005.61111 2357.3606 3123.5 2357.3606 3182.44444 2298.48671 3182.44444 2357.3606 3241.38889 2357.3606 3300.33333 2416.23449 3300.33333 2416.23449 3241.38889 2634 3456.39088"></polyline>
                            <polyline id="Shape" stroke="#131114" stroke-width="20" points="1765 1768 1707 1768 1707 1825"></polyline>
                            <polyline id="Shape" stroke="#131114" stroke-width="20" points="1471 1706 1411.5 1649 1352 1649 1352 1706"></polyline>
                            <polyline id="Shape" stroke="#131114" stroke-width="20" points="1768 1295 1768 1352 1826 1352"></polyline>
                            <path d="M765,1409 L707,1352" id="Shape" stroke="#131114" stroke-width="20"></path>
                            <polyline id="Shape" stroke="#646464" stroke-width="20" points="881 3361 881 3242.2 939 3182.8 939 3064"></polyline>
                            <polyline id="Shape" stroke="#646464" stroke-width="20" points="760 3123.5 701.33333 3183 584 3183 584 3123.5 584 3064"></polyline>
                            <path d="M824,2357 L882,2414" id="Shape" stroke="#646464" stroke-width="20"></path>
                            <path d="M1000,2357 L1119,2357" id="Shape" stroke="#646464" stroke-width="20"></path>
                            <polyline id="Shape" stroke="#646464" stroke-width="20" points="1471 2120.33333 1471 2061.66667 1471 2003 1530.5 2061.66667 1530.5 2179 1590 2179"></polyline>
                            <polyline id="Shape" stroke="#646464" stroke-width="20" points="1707 2005 1707 1945.5 1649 1886"></polyline>
                            <polyline id="Shape" stroke="#646464" stroke-width="20" points="1766.33333 1829 1825 1769.5 1766.33333 1710 1649 1710"></polyline>
                            <path d="M1468,1471 L1410,1528" id="Shape" stroke="#646464" stroke-width="20"></path>
                            <polyline id="Shape" stroke="#646464" stroke-width="20" points="1237 1528 1237 1646.8 1178 1706.2 1178 1825 1237 1825 1355 1825 1414 1825 1414 1765.6"></polyline>
                            <path d="M765,1886 L707,1886" id="Shape" stroke="#646464" stroke-width="20"></path>
                            <polyline id="Shape" stroke="#646464" stroke-width="20" points="1057 1528 1115.66667 1469.33333 1115.66667 1352 1233 1352"></polyline>
                            <path d="M1768,1239 L1826,1296" id="Shape" stroke="#646464" stroke-width="20"></path>
                            <path d="M1707,3178 L1707,3121" id="Shape" stroke="#646464" stroke-width="20"></path>
                            <polyline id="Shape" stroke="#646464" stroke-width="20" points="1765 3002 1765 2945 1707 2945"></polyline>
                            <polyline id="Shape" stroke="#646464" stroke-width="20" points="2065 2654 2005.6 2654 1946.2 2594.5 1886.8 2594.5 1886.8 2535 1768 2535"></polyline>
                            <path d="M1649,2593 L1649,2650" id="Shape" stroke="#646464" stroke-width="20"></path>
                            <polyline id="Shape" stroke="#646464" stroke-width="20" points="1468 2470 1468 2413 1410 2413"></polyline>
                            <path d="M1471,2884 L1471,2827" id="Shape" stroke="#646464" stroke-width="20"></path>
                            <polyline id="Shape" stroke="#9A9B9F" stroke-width="20" points="1826 3183 1826 3123.5 1766.5 3123.5 1766.5 3064 1707 3064"></polyline>
                            <polyline id="Shape" stroke="#9A9B9F" stroke-width="20" points="1587 3121 1529 3121 1587 3178"></polyline>
                            <path d="M1121,3121 L1121,3064" id="Shape" stroke="#9A9B9F" stroke-width="20"></path>
                            <polyline id="Shape" stroke="#9A9B9F" stroke-width="20" points="939 2711 939 2652.33333 939 2593.66667 939 2535 881 2535"></polyline>
                            <polyline id="Shape" stroke="#9A9B9F" stroke-width="20" points="703 1999 703 1942 584 1942"></polyline>
                            <path d="M707,1768 L707,1825" id="Shape" stroke="#9A9B9F" stroke-width="20"></path>
                            <polyline id="Shape" stroke="#9A9B9F" stroke-width="20" points="824 1889.25 824 1949 882.66667 1889.25 941.33333 1889.25 1000 1829.5 1000 1710"></polyline>
                            <polyline id="Shape" stroke="#9A9B9F" stroke-width="20" points="1234 1297 1234 1237.5 1292.66667 1237.5 1351.33333 1178 1410 1178"></polyline>
                            <path d="M1649,2357 L1649,2414" id="Shape" stroke="#9A9B9F" stroke-width="20"></path>
                            <path d="M1471,2238 L1471,2181" id="Shape" stroke="#9A9B9F" stroke-width="20"></path>
                            <polyline id="Shape" stroke="#9A9B9F" stroke-width="20" points="1295 2125 1295 2065.25 1295 2005.5 1353 1945.75 1295 1886"></polyline>
                            <polyline id="Shape" stroke="#9A9B9F" stroke-width="20" points="1121 2062 1121 2181 1240 2181"></polyline>
                            <path d="M939,2945 L881,2888" id="Shape" stroke="#B83152" stroke-width="20"></path>
                            <path d="M1352,1296 L1352,1239" id="Shape" stroke="#B83152" stroke-width="20"></path>
                            <path d="M1000,1649 L942,1649" id="Shape" stroke="#2A68B1" stroke-width="20"></path>
                            <path d="M765,2413 L707,2413" id="Shape" stroke="#C7DF6F" stroke-width="20"></path>
                            <path d="M881,2945 L939,3002" id="Shape" stroke="#7C070F" stroke-width="20"></path>
                            <path d="M1529,2710 L1529,2767" id="Shape" stroke="#00267B" stroke-width="20"></path>
                        </g>
                    </g>
                </g>
            </g>
        </g>
    </g>
</svg>