<?xml version="1.0" encoding="UTF-8"?>
<svg width="1920px" height="1080px" viewBox="0 0 1920 1080" version="1.1" xmlns="http://www.w3.org/2000/svg" xmlns:xlink="http://www.w3.org/1999/xlink">
    <!-- Generator: Sketch 51.3 (57544) - http://www.bohemiancoding.com/sketch -->
    <title>Group</title>
    <desc>Created with Sketch.</desc>
    <defs>
        <rect id="path-1" x="0" y="0" width="1920" height="1080"></rect>
    </defs>
    <g id="Page-1" stroke="none" stroke-width="1" fill="none" fill-rule="evenodd">
        <g id="Group">
            <mask id="mask-2" fill="white">
                <use xlink:href="#path-1"></use>
            </mask>
            <use id="Mask" fill="#FFFFFF" xlink:href="#path-1"></use>
            <g mask="url(#mask-2)" id="Shape" stroke-linecap="round">
                <g transform="translate(-1134.000000, -1247.000000)">
                    <polyline stroke="#D5D3D8" stroke-width="20" points="3756 1136 3696.47059 1136 3636.94118 1136 3636.94118 1195.66667 3577.41176 1195.66667 3517.88235 1195.66667 3458.35294 1195.66667 3398.82353 1195.66667 3398.82353 1136 3339.29412 1136 3279.76471 1136 3279.76471 1195.66667 3220.23529 1195.66667 3160.70588 1195.66667 3101.17647 1195.66667 3041.64706 1195.66667 3041.64706 1255.33333 3101.17647 1315 3101.17647 1374.66667 3101.17647 1434.33333 3101.17647 1494 3041.64706 1494 2982.11765 1553.66667 2982.11765 1613.33333 2982.11765 1673 3041.64706 1673 3041.64706 1613.33333 3101.17647 1613.33333 3101.17647 1673 3101.17647 1732.66667 3041.64706 1732.66667 3041.64706 1792.33333 2982.11765 1792.33333 2982.11765 1852 2922.58824 1852 2863.05882 1852 2803.52941 1852 2803.52941 1792.33333 2863.05882 1792.33333 2863.05882 1732.66667 2863.05882 1673 2803.52941 1673 2803.52941 1613.33333 2863.05882 1613.33333 2863.05882 1494 2744 1494"></polyline>
                    <polyline stroke="#D5D3D8" stroke-width="20" points="2686.31579 1374 2746 1314.375 2746 1254.75 2686.31579 1254.75 2626.63158 1254.75 2566.94737 1254.75 2566.94737 1195.125 2507.26316 1195.125 2507.26316 1135.5 2447.57895 1135.5 2447.57895 1075.875 2387.89474 1075.875 2328.21053 1075.875 2268.52632 1075.875 2208.84211 1075.875 2149.15789 1075.875 2089.47368 1075.875 2029.78947 1075.875 1970.10526 1075.875 1910.42105 1075.875 1850.73684 1075.875 1791.05263 1075.875 1791.05263 1016.25 1791.05263 956.625 1731.36842 956.625 1731.36842 897 1671.68421 897 1671.68421 837.375 1612 837.375 1552.31579 837.375 1552.31579 777.75 1612 777.75 1612 718.125 1671.68421 658.5 1671.68421 598.875 1612 598.875 1552.31579 598.875 1432.94737 598.875 1373.26316 598.875 1253.89474 598.875 1253.89474 658.5 1194.21053 658.5 1134.52632 658.5 1074.84211 658.5 1015.15789 658.5 955.473684 658.5 895.789474 658.5 836.105263 658.5 776.421053 658.5 716.736842 658.5 657.052632 658.5 657.052632 598.875 716.736842 598.875 776.421053 598.875 776.421053 539.25 776.421053 479.625 716.736842 479.625 657.052632 479.625 597.368421 479.625 537.684211 479.625 478 420"></polyline>
                    <polyline stroke="#D5D3D8" stroke-width="20" points="1136 358 1136 417.6 1076.21053 477.2 1076.21053 596.4 1016.42105 596.4 956.631579 596.4 896.842105 596.4 896.842105 715.6 837.052632 715.6 777.263158 715.6 717.473684 715.6 657.684211 715.6 657.684211 775.2 597.894737 775.2 538.105263 775.2 478.315789 775.2 418.526316 775.2 358.736842 775.2 358.736842 834.8 298.947368 834.8 298.947368 894.4 298.947368 954 358.736842 954 358.736842 894.4 418.526316 894.4 418.526316 954 358.736842 1013.6 358.736842 1132.8 358.736842 1192.4 298.947368 1192.4 298.947368 1252 239.157895 1252 179.368421 1252 119.578947 1252 59.7894737 1252 0 1252 0 1192.4 0 1132.8 59.7894737 1192.4 119.578947 1192.4 179.368421 1192.4 179.368421 1132.8 179.368421 1073.2 179.368421 1013.6 179.368421 954 179.368421 834.8 119.578947 775.2 119.578947 715.6 59.7894737 715.6 0 715.6 0 656 0 596.4 59.7894737 656"></polyline>
                    <polyline stroke="#D5D3D8" stroke-width="20" points="713.6 775.7 713.6 835.4 773.2 835.4 832.8 775.7 892.4 775.7 892.4 835.4 892.4 954.8 832.8 954.8 773.2 954.8 713.6 954.8 654 954.8 654 895.1 654 1014.5 654 1074.2 713.6 1074.2 713.6 1014.5 713.6 1133.9 773.2 1133.9 773.2 1193.6 832.8 1193.6 892.4 1193.6 892.4 1133.9 892.4 1074.2 832.8 1074.2 892.4 1014.5 952 954.8 1011.6 954.8 1071.2 954.8 1071.2 895.1 1071.2 835.4 1071.2 775.7 1011.6 775.7 1011.6 716 1071.2 716 1130.8 716 1130.8 775.7 1190.4 716 1250 775.7 1190.4 835.4 1190.4 895.1 1190.4 954.8 1250 1014.5 1250 1074.2 1250 1133.9 1250 1193.6 1190.4 1193.6 1130.8 1193.6 1190.4 1253.3 1190.4 1313 1130.8 1313 1071.2 1313 1130.8 1372.7 1130.8 1432.4 1071.2 1432.4 1071.2 1492.1 1011.6 1492.1 1011.6 1611.5 952 1611.5 892.4 1671.2 832.8 1730.9 832.8 1790.6 892.4 1790.6 892.4 1850.3 892.4 1910 832.8 1910 773.2 1850.3 713.6 1910"></polyline>
                    <polyline stroke="#D5D3D8" stroke-width="20" points="778 3040 778 2980.35714 837.714286 3040 897.428571 2980.35714 897.428571 2920.71429 897.428571 2861.07143 897.428571 2801.42857 897.428571 2741.78571 897.428571 2682.14286 897.428571 2622.5 897.428571 2562.85714 897.428571 2503.21429 1016.85714 2503.21429 1076.57143 2503.21429 1076.57143 2443.57143 1076.57143 2383.92857 1016.85714 2383.92857 1076.57143 2324.28571 1076.57143 2264.64286 1076.57143 2205 1136.28571 2205 1136.28571 2145.35714 1136.28571 2085.71429 1076.57143 2085.71429 1016.85714 2026.07143 957.142857 2026.07143 957.142857 1966.42857 957.142857 1906.78571 957.142857 1847.14286 1016.85714 1906.78571 1076.57143 1847.14286 1076.57143 1787.5 1136.28571 1787.5 1136.28571 1847.14286 1136.28571 1906.78571 1136.28571 1966.42857 1136.28571 2026.07143 1196 2085.71429 1196 2145.35714 1196 2205 1255.71429 2205 1255.71429 2145.35714 1315.42857 2085.71429 1375.14286 2085.71429 1434.85714 2085.71429 1494.57143 2085.71429 1494.57143 2026.07143 1554.28571 2026.07143 1554.28571 1966.42857 1614 1966.42857 1614 1906.78571 1614 1847.14286 1554.28571 1847.14286 1614 1787.5 1614 1727.85714 1554.28571 1727.85714 1614 1668.21429 1614 1608.57143 1554.28571 1608.57143 1494.57143 1608.57143 1434.85714 1608.57143 1494.57143 1548.92857 1494.57143 1489.28571 1494.57143 1429.64286 1434.85714 1429.64286 1315.42857 1429.64286 1315.42857 1370 1255.71429 1370 1196 1429.64286 1196 1489.28571 1136.28571 1489.28571 1136.28571 1548.92857 1136.28571 1608.57143 1076.57143 1608.57143 1076.57143 1668.21429 1136.28571 1668.21429 1196 1668.21429 1196 1608.57143 1255.71429 1608.57143 1255.71429 1548.92857 1255.71429 1489.28571 1315.42857 1489.28571 1315.42857 1608.57143 1255.71429 1668.21429 1196 1727.85714 1255.71429 1787.5 1255.71429 1847.14286 1315.42857 1847.14286 1315.42857 1787.5 1315.42857 1727.85714 1375.14286 1727.85714 1375.14286 1787.5 1434.85714 1787.5 1434.85714 1727.85714 1434.85714 1847.14286 1434.85714 1966.42857 1375.14286 1966.42857"></polyline>
                    <polyline stroke="#D5D3D8" stroke-width="20" points="1374 2210 1314.5 2210 1314.5 2269.33333 1255 2269.33333 1255 2328.66667 1255 2388 1195.5 2388 1136 2388"></polyline>
                    <polyline stroke="#D5D3D8" stroke-width="20" points="1312 2630 1312 2510 1371.33333 2510 1430.66667 2510 1430.66667 2450 1430.66667 2390 1371.33333 2390 1312 2330 1371.33333 2270 1430.66667 2270 1430.66667 2210 1490 2210 1490 2270 1430.66667 2330"></polyline>
                    <polyline stroke="#D5D3D8" stroke-width="20" points="1552.125 2210 1611.75 2150.27027 1671.375 2150.27027 1671.375 2090.54054 1671.375 2030.81081 1671.375 1971.08108 1731 1911.35135 1790.625 1851.62162 1731 1791.89189 1671.375 1791.89189 1731 1732.16216 1671.375 1672.43243 1731 1612.7027 1671.375 1552.97297 1611.75 1552.97297 1552.125 1493.24324 1671.375 1493.24324 1671.375 1433.51351 1671.375 1373.78378 1671.375 1314.05405 1611.75 1314.05405 1552.125 1314.05405 1492.5 1314.05405 1432.875 1314.05405 1373.25 1314.05405 1313.625 1314.05405 1254 1254.32432 1313.625 1194.59459 1313.625 1134.86486 1313.625 1075.13514 1373.25 1075.13514 1373.25 1134.86486 1373.25 1194.59459 1373.25 1254.32432 1432.875 1254.32432 1432.875 1194.59459 1432.875 1134.86486 1432.875 1075.13514 1432.875 1015.40541 1432.875 955.675676 1492.5 955.675676 1552.125 895.945946 1611.75 955.675676 1611.75 1015.40541 1552.125 1015.40541 1552.125 1075.13514 1552.125 1134.86486 1492.5 1134.86486 1552.125 1194.59459 1552.125 1254.32432 1492.5 1254.32432 1611.75 1254.32432 1611.75 1194.59459 1611.75 1134.86486 1611.75 1075.13514 1671.375 1075.13514 1671.375 1015.40541 1671.375 1134.86486 1671.375 1194.59459 1671.375 1254.32432 1731 1194.59459 1790.625 1134.86486 1850.25 1134.86486 1850.25 1015.40541 1850.25 955.675676 1850.25 895.945946 1790.625 836.216216 1731 836.216216 1790.625 776.486486 1790.625 716.756757 1731 716.756757 1731 657.027027 1731 597.297297 1731 537.567568 1790.625 537.567568 1790.625 477.837838 1850.25 477.837838 1909.875 477.837838 1909.875 418.108108 1909.875 358.378378 1850.25 358.378378 1790.625 358.378378 1731 298.648649 1731 179.189189 1790.625 179.189189 1790.625 59.7297297 1850.25 59.7297297 1909.875 59.7297297 1909.875 0 1969.5 0 1969.5 119.459459 1969.5 179.189189 1909.875 179.189189 1909.875 238.918919 1909.875 298.648649 1969.5 298.648649 1969.5 238.918919 2029.125 238.918919 2029.125 298.648649 2088.75 298.648649 2088.75 238.918919 2088.75 179.189189 2088.75 119.459459 2088.75 59.7297297 2088.75 0 2148.375 0 2208 0 2208 59.7297297 2208 119.459459 2148.375 119.459459 2148.375 179.189189 2148.375 238.918919 2148.375 298.648649 2148.375 358.378378 2088.75 358.378378 2088.75 418.108108 2029.125 418.108108 1969.5 418.108108 1969.5 358.378378"></polyline>
                    <polyline stroke="#D5D3D8" stroke-width="20" points="1966 1136 1966 1195.33333 1966 1254.66667 1906 1254.66667 1966 1314 2026 1314 2026 1254.66667 2026 1195.33333 2086 1195.33333 2086 1136 2146 1136 2146 1195.33333 2146 1254.66667 2146 1314 2206 1314 2206 1254.66667 2206 1195.33333 2266 1195.33333 2266 1136 2326 1136 2326 1195.33333 2326 1254.66667"></polyline>
                    <polyline stroke="#D5D3D8" stroke-width="20" points="2444 1312 2504 1312 2564 1312 2564 1432 2504 1432"></polyline>
                    <polyline stroke="#D5D3D8" stroke-width="20" points="2326 1430 2206 1430 2146 1430 2086 1430 2026 1430 1966 1430 2026 1370 2026 1490 2026 1550 1966 1550 1966 1610 1906 1610 1966 1670 2026 1670 2026 1610 2086 1550 2146 1550 2146 1490 2146 1610 2146 1670 2206 1730 2146 1790"></polyline>
                    <polyline stroke="#D5D3D8" stroke-width="20" points="2026 1732 1968 1792 1968 1852"></polyline>
                    <path d="M1848,1910 L1790,1968" stroke="#D5D3D8" stroke-width="20"></path>
                    <polyline stroke="#D5D3D8" stroke-width="20" points="1906 2026 2026 2026 2026 1966.66667 2146 1966.66667 2206 1907.33333 2266 1907.33333 2326 1848 2326 1966.66667 2326 2026"></polyline>
                    <polyline stroke="#D5D3D8" stroke-width="20" points="2206 2090 2148 2090 2148 2150.5 2148 2211 2148 2271.5 2148 2332 2206 2332 2206 2271.5 2206 2211"></polyline>
                    <polyline stroke="#D5D3D8" stroke-width="20" points="2326.5 2268 2326.5 2327.6 2446 2327.6 2446 2387.2 2446 2446.8 2386.25 2446.8 2386.25 2506.4 2326.5 2506.4 2326.5 2566 2326.5 2625.6 2266.75 2625.6 2266.75 2685.2 2326.5 2685.2 2326.5 2744.8 2326.5 2804.4 2266.75 2804.4 2207 2804.4 2147.25 2804.4 2147.25 2744.8 2147.25 2864 2087.5 2864 2147.25 2923.6 2147.25 2983.2 2087.5 2983.2 2027.75 3042.8 1968 3042.8 1968 2983.2 1968 3102.4 1968 3162"></polyline>
                    <polyline stroke="#D5D3D8" stroke-width="20" points="1788 2746 1788 2686.25 1728 2686.25 1788 2626.5 1788 2566.75 1788 2507 1788 2387.5 1908 2387.5 1908 2327.75 1968 2327.75 1968 2387.5 2028 2327.75 2028 2268"></polyline>
                    <polyline stroke="#D5D3D8" stroke-width="20" points="1668 2210 1668 2270 1608.66667 2270 1608.66667 2330 1608.66667 2450 1608.66667 2510 1608.66667 2570 1490 2570 1490 2630"></polyline>
                    <polyline stroke="#D5D3D8" stroke-width="20" points="2622.8 2626 2622.8 2566.33333 2563.2 2566.33333 2503.6 2566.33333 2444 2566.33333 2444 2506.66667 2503.6 2506.66667 2503.6 2447 2503.6 2387.33333 2563.2 2387.33333 2563.2 2447 2682.4 2447 2682.4 2387.33333 2682.4 2327.66667 2622.8 2327.66667 2622.8 2268 2622.8 2208.33333 2563.2 2208.33333 2563.2 2148.66667 2563.2 2089 2503.6 2089 2622.8 2089 2622.8 2148.66667 2682.4 2148.66667 2682.4 2089 2682.4 2029.33333 2682.4 1969.66667 2682.4 1910 2742 1969.66667 2742 2029.33333 2801.6 1969.66667 2861.2 1969.66667 2861.2 1910 2920.8 1969.66667 2861.2 2029.33333 2861.2 2089 2801.6 2089 2801.6 2148.66667 2742 2148.66667 2682.4 2208.33333 2682.4 2268 2742 2268 2801.6 2268 2801.6 2208.33333 2861.2 2208.33333 2861.2 2148.66667 2920.8 2148.66667 2920.8 2089 2920.8 2208.33333 2920.8 2268 2861.2 2268 2801.6 2327.66667 2861.2 2387.33333 2920.8 2327.66667 2980.4 2327.66667 3040 2387.33333 3040 2447 2920.8 2447 2861.2 2506.66667 2920.8 2566.33333"></polyline>
                    <polyline stroke="#D5D3D8" stroke-width="20" points="3042 2626.25 3042 2685.875 3042 2805.125 3042 2864.75 3042 2924.375 3102 2864.75 3222 2864.75 3222 2924.375 3222 2984 3162 2984 3282 2984 3282 2924.375 3282 2864.75 3342 2864.75 3342 2805.125 3402 2805.125 3402 2745.5 3402 2685.875 3402 2626.25 3462 2626.25 3462 2566.625 3462 2507 3402 2447.375 3402 2387.75 3402 2328.125 3402 2208.875 3342 2208.875 3402 2149.25 3402 2089.625 3462 2030"></polyline>
                    <polyline stroke="#D5D3D8" stroke-width="20" points="2860 1012 2860 1071.66667 2860 1191 2860 1250.66667 2860 1310.33333 2802 1310.33333 2860 1370"></polyline>
                    <path d="M2922,1252 L2922,1194" stroke="#D5D3D8" stroke-width="20"></path>
                    <polyline stroke="#D5D3D8" stroke-width="20" points="3220.5 2448 3220.5 2388.33333 3220.5 2328.66667 3161 2328.66667 3101.5 2328.66667 3101.5 2209.33333 3042 2149.66667 3042 2090 3042 2030.33333 3042 1970.66667 3042 1911 3042 1851.33333 3161 1851.33333 3161 1791.66667 3220.5 1791.66667 3220.5 1732 3220.5 1851.33333 3220.5 1911 3220.5 1970.66667 3280 1970.66667"></polyline>
                    <polyline stroke="#D5D3D8" stroke-width="20" points="2502 1910 2444 1910 2444 1850 2444 1790 2502 1850"></polyline>
                    <polyline stroke="#D5D3D8" stroke-width="20" points="2626 1790 2686 1790 2686 1732 2746 1732"></polyline>
                    <polyline stroke="#D5D3D8" stroke-width="20" points="2622 1614 2503.33333 1614 2444 1614 2444 1672 2503.33333 1672"></polyline>
                    <path d="M2326,1672 L2326,1614" stroke="#D5D3D8" stroke-width="20"></path>
                    <polyline stroke="#D5D3D8" stroke-width="20" points="1848 1372.5 1788 1372.5 1788 1312 1788 1433 1728 1433 1728 1493.5 1788 1493.5 1788 1554 1848 1493.5 1848 1433"></polyline>
                    <polyline stroke="#131114" stroke-width="20" points="1490 2862 1490 2742.88889 1490 2683.33333 1548 2683.33333 1548 2623.77778 1548 2564.22222 1548 2504.66667 1490 2504.66667 1490 2445.11111 1548 2445.11111 1548 2385.55556 1548 2326 1490 2326"></polyline>
                    <polyline stroke="#131114" stroke-width="20" points="1666.66667 2326 1666.66667 2385.6 1666.66667 2445.2 1666.66667 2504.8 1666.66667 2564.4 1666.66667 2624 1666.66667 2683.6 1607.33333 2683.6 1548 2743.2 1666.66667 2743.2 1666.66667 2802.8 1726 2862.4 1726 2922 1726 2981.6 1726 3041.2 1726 3100.8 1726 3160.4 1726 3220"></polyline>
                    <polyline stroke="#FF4B46" stroke-width="50" points="1966.66667 2744 1907 2744 1847.33333 2744 1847.33333 2684.375 1847.33333 2624.75 1847.33333 2565.125 1847.33333 2505.5 1847.33333 2445.875 1787.66667 2445.875 1728 2445.875 1728 2386.25 1728 2326.625 1728 2267 1787.66667 2267 1787.66667 2207.375 1847.33333 2147.75 1907 2147.75 1907 2088.125 1907 1968.875 1907 1909.25 1966.66667 1909.25 1966.66667 1968.875 2026.33333 1909.25 2026.33333 1849.625 2026.33333 1790 2086 1790 2086 1849.625 2086 1909.25 2086 1968.875 2086 2028.5 2086 2088.125 2086 2147.75 2026.33333 2147.75"></polyline>
                    <polyline stroke="#131114" stroke-width="20" points="2084 2268 2084 2327.66667 2084 2387.33333 2024.66667 2387.33333 2024.66667 2447 2024.66667 2506.66667 2024.66667 2566.33333 1965.33333 2626 1906 2626 1906 2566.33333 1906 2506.66667"></polyline>
                    <polyline stroke="#131114" stroke-width="20" points="1848 2388 1848 2268 1906 2268"></polyline>
                    <polyline stroke="#131114" stroke-width="20" points="1728 2088 1728 2028.66667 1728 1969.33333 1670 1910"></polyline>
                    <polyline stroke="#131114" stroke-width="20" points="1608 2030 1548.5 2090 1548.5 2150 1429.5 2150 1370 2150"></polyline>
                    <path d="M1254,2026 L1254,1968" stroke="#131114" stroke-width="20"></path>
                    <polyline stroke="#131114" stroke-width="20" points="1071.5 2032 1012 1972 1012 1852 1012 1792 1071.5 1732 1131 1732 1250 1732"></polyline>
                    <polyline stroke="#131114" stroke-width="20" points="1371.5 1670 1371.5 1610 1371.5 1550 1312 1550 1371.5 1490 1371.5 1430 1371.5 1370 1431 1370 1550 1370 1550 1430"></polyline>
                    <path d="M1548,1670 L1548,1790" stroke="#131114" stroke-width="20"></path>
                    <path d="M1490,1910 L1490,1968" stroke="#131114" stroke-width="20"></path>
                    <polyline stroke="#FF4B46" stroke-width="50" points="1790 1670 1790 1610.33333 1850 1610.33333 1850 1550.66667 1910 1491 1910 1431.33333 1910 1371.66667 1970 1371.66667 2090 1371.66667 2090 1312"></polyline>
                    <polyline stroke="#131114" stroke-width="20" points="2206 1611.23077 2206 1671.07692 2265.75 1671.07692 2265.75 1611.23077 2265.75 1551.38462 2265.75 1491.53846 2325.5 1491.53846 2325.5 1551.38462 2385.25 1491.53846 2445 1431.69231 2445 1371.84615 2504.75 1371.84615 2624.25 1371.84615 2624.25 1312 2684 1312 2684 1431.69231 2624.25 1431.69231 2624.25 1491.53846 2564.5 1491.53846 2624.25 1551.38462 2564.5 1611.23077 2564.5 1671.07692 2564.5 1730.92308 2504.75 1730.92308 2445 1730.92308 2385.25 1730.92308 2385.25 1790.76923 2385.25 1850.61538 2385.25 1970.30769 2445 1970.30769 2445 2030.15385 2445 2090 2385.25 2090 2325.5 2090 2265.75 2090 2265.75 2030.15385 2265.75 1970.30769"></polyline>
                    <polyline stroke="#131114" stroke-width="20" points="2208.66667 2148 2268 2148 2268 2207.66667 2268 2267.33333 2268 2327 2268 2386.66667 2208.66667 2386.66667 2208.66667 2446.33333 2208.66667 2506 2149.33333 2506 2090 2506 2090 2446.33333"></polyline>
                    <polyline stroke="#131114" stroke-width="20" points="2384 2806 2443.625 2746.33333 2503.25 2806 2562.875 2806 2622.5 2746.33333 2622.5 2686.66667 2682.125 2627 2801.375 2627 2801.375 2567.33333 2801.375 2507.66667 2801.375 2448 2801.375 2388.33333 2861 2448 2980.25 2448 2980.25 2388.33333 2980.25 2269 2980.25 2149.66667 3099.5 2149.66667 3159.125 2149.66667 3159.125 2090 3278.375 2090 3278.375 2030.33333 3338 2030.33333 3338 1970.66667 3338 1911 3278.375 1911 3278.375 1851.33333 3278.375 1791.66667 3338 1732"></polyline>
                    <polyline stroke="#131114" stroke-width="20" points="2564 954 2623.5 1013.84615 2623.5 1073.69231 2564 1073.69231 2564 1133.53846 2623.5 1133.53846 2623.5 1193.38462 2683 1133.53846 2742.5 1133.53846 2742.5 1073.69231 2742.5 1013.84615 2742.5 954 2802 954 2802 1013.84615 2802 1073.69231 2802 1133.53846 2742.5 1193.38462 2802 1253.23077 2802 1372.92308 2802 1432.76923 2742.5 1432.76923 2802 1492.61538 2802 1552.46154 2742.5 1552.46154 2742.5 1612.30769 2742.5 1672.15385 2802 1732"></polyline>
                    <polyline stroke="#131114" stroke-width="20" points="2744 1848 2684.5 1848 2625 1848 2625 1907.33333 2625 1966.66667 2565.5 2026 2506 2026"></polyline>
                    <path d="M2444,2148 L2444,2206" stroke="#131114" stroke-width="20"></path>
                    <polyline stroke="#131114" stroke-width="20" points="2388 2326 2328 2385.33333 2328 2444.66667 2268 2444.66667 2268 2504"></polyline>
                    <polyline stroke="#131114" stroke-width="20" points="3038 1550 2978.66667 1490.4 2978.66667 1430.8 2978.66667 1371.2 2919.33333 1371.2 2978.66667 1311.6 2978.66667 1252 2978.66667 1192.4 2978.66667 1132.8 2919.33333 1132.8 2919.33333 1073.2 2978.66667 1073.2 2978.66667 1013.6 2919.33333 954 2860 954"></polyline>
                    <polyline stroke="#131114" stroke-width="20" points="2922 1614 2922 1673.33333 2980 1732.66667 2922 1792"></polyline>
                    <path d="M2802,1910 L2802,2030" stroke="#131114" stroke-width="20"></path>
                    <path d="M2622,1732 L2564,1790" stroke="#131114" stroke-width="20"></path>
                    <polyline stroke="#131114" stroke-width="20" points="2264 1790 2206 1790 2206 1848"></polyline>
                    <polyline stroke="#131114" stroke-width="20" points="1968 1728 1908 1670 1848 1670 1848 1728"></polyline>
                    <polyline stroke="#131114" stroke-width="20" points="2268 1312 2268 1370 2326 1370"></polyline>
                    <path d="M1136,1136 L1136,1256" stroke="#131114" stroke-width="20"></path>
                    <path d="M1252,1428 L1194,1370" stroke="#131114" stroke-width="20"></path>
                    <polyline stroke="#646464" stroke-width="20" points="1968 2148.66667 1968 2089.33333 1968 2030 2028 2089.33333 2028 2208 2088 2208"></polyline>
                    <polyline stroke="#646464" stroke-width="20" points="2206 2030 2206 1970 2148 1910"></polyline>
                    <polyline stroke="#646464" stroke-width="20" points="2266.66667 1852 2326 1792 2266.66667 1732 2148 1732"></polyline>
                    <path d="M1964,1490 L1906,1548" stroke="#646464" stroke-width="20"></path>
                    <polyline stroke="#646464" stroke-width="20" points="1729.5 1548 1729.5 1668 1670 1728 1670 1848 1729.5 1848 1848.5 1848 1908 1848 1908 1788"></polyline>
                    <path d="M1252,1910 L1194,1910" stroke="#646464" stroke-width="20"></path>
                    <polyline stroke="#646464" stroke-width="20" points="1548 1548 1607.33333 1488.66667 1607.33333 1370 1726 1370"></polyline>
                    <path d="M2268,1256 L2326,1314" stroke="#646464" stroke-width="20"></path>
                    <path d="M2980,2088 L2922,2030" stroke="#646464" stroke-width="20"></path>
                    <polyline stroke="#646464" stroke-width="20" points="2684 1668 2684 1549.33333 2684 1490"></polyline>
                    <path d="M2502,1256 L2444,1256" stroke="#646464" stroke-width="20"></path>
                    <polyline stroke="#646464" stroke-width="20" points="2384 2390 2384 2269 2326 2208.5 2384 2148"></polyline>
                    <polyline stroke="#9A9B9F" stroke-width="20" points="1190 2026 1190 1968 1070 1968"></polyline>
                    <path d="M1194,1790 L1194,1848" stroke="#9A9B9F" stroke-width="20"></path>
                    <polyline stroke="#9A9B9F" stroke-width="20" points="1312 1913.5 1312 1974 1371.33333 1913.5 1430.66667 1913.5 1490 1853 1490 1732"></polyline>
                    <polyline stroke="#9A9B9F" stroke-width="20" points="1728 1314 1728 1254 1787.33333 1254 1846.66667 1194 1906 1194"></polyline>
                    <polyline stroke="#9A9B9F" stroke-width="20" points="2744 2388 2744 2328.66667 2744 2210"></polyline>
                    <path d="M2626,1672 L2684,1614" stroke="#9A9B9F" stroke-width="20"></path>
                    <path d="M2564,1548 L2506,1490" stroke="#9A9B9F" stroke-width="20"></path>
                    <path d="M2860,1432 L2860,1552" stroke="#9A9B9F" stroke-width="20"></path>
                    <polyline stroke="#9A9B9F" stroke-width="20" points="2980 2030 2980 1910 2922 1910"></polyline>
                    <path d="M3042,2210 L3042,2330" stroke="#9A9B9F" stroke-width="20"></path>
                    <polyline stroke="#9A9B9F" stroke-width="20" points="2446 2268 2386 2208 2326 2148"></polyline>
                    <path d="M2506,2148 L2506,2206" stroke="#9A9B9F" stroke-width="20"></path>
                    <path d="M1968,2268 L1968,2210" stroke="#9A9B9F" stroke-width="20"></path>
                    <polyline stroke="#9A9B9F" stroke-width="20" points="1790 2152 1790 2091.5 1790 2031 1848 1970.5 1790 1910"></polyline>
                    <polyline stroke="#9A9B9F" stroke-width="20" points="1612 2090 1612 2210 1732 2210"></polyline>
                    <path d="M1848,1314 L1848,1256" stroke="#B83152" stroke-width="20"></path>
                    <polyline stroke="#B83152" stroke-width="20" points="2922 1312 2922 1433 2922 1493.5 2922 1554"></polyline>
                    <path d="M2384,1548 L2384,1668" stroke="#B83152" stroke-width="20"></path>
                    <path d="M2506,2326 L2564,2268" stroke="#B83152" stroke-width="20"></path>
                    <path d="M1490,1670 L1432,1670" stroke="#2A68B1" stroke-width="20"></path>
                    <path d="M2564,1906 L2564,1848" stroke="#2A68B1" stroke-width="20"></path>
                    <path d="M1136,2326 L1136,2268" stroke="#C7DF6F" stroke-width="20"></path>
                    <path d="M2444,1490 L2444,1548" stroke="#7C070F" stroke-width="20"></path>
                    <path d="M2384,1910 L2384,2030" stroke="#7C070F" stroke-width="20"></path>
                </g>
            </g>
        </g>
    </g>
</svg>