<?xml version="1.0" encoding="utf-8"?>
<!-- Generator: Adobe Illustrator 16.0.0, SVG Export Plug-In . SVG Version: 6.00 Build 0)  -->
<!DOCTYPE svg PUBLIC "-//W3C//DTD SVG 1.1//EN" "http://www.w3.org/Graphics/SVG/1.1/DTD/svg11.dtd">
<svg version="1.1" id="Layer_1" xmlns="http://www.w3.org/2000/svg" xmlns:xlink="http://www.w3.org/1999/xlink" x="0px" y="0px"
	 width="841.89px" height="595.276px" viewBox="0 0 841.89 595.276" enable-background="new 0 0 841.89 595.276"
	 xml:space="preserve">
<g>
	<defs>
		<rect id="SVGID_1_" width="841.89" height="595.276"/>
	</defs>
	<clipPath id="SVGID_2_">
		<use xlink:href="#SVGID_1_"  overflow="visible"/>
	</clipPath>
	<path clip-path="url(#SVGID_2_)" fill="#E4EEC1" d="M573.943,261.11c-14.963,13.203-18.815,29.357-18.851,29.521
		c-3.27,14.02,0.083,23.497,4.093,29.388c7.056-6.276,15.261-16.158,19.018-30.191C578.249,289.661,582.48,273.476,573.943,261.11"
		/>
	<path clip-path="url(#SVGID_2_)" fill="none" stroke="#FFFFFF" stroke-width="0.433" stroke-miterlimit="10" d="M573.937,261.127
		c-14.949,13.195-18.799,29.341-18.834,29.504c-3.267,14.012,0.082,23.485,4.089,29.371c7.051-6.272,15.248-16.148,19.002-30.173
		C578.24,289.661,582.467,273.485,573.937,261.127z"/>
	<path clip-path="url(#SVGID_2_)" fill="#FDD1B0" d="M592.694,281.64c-10.35,9.29-13.018,20.504-13.05,20.619
		c-2.21,9.474-0.188,16.094,2.762,20.54c6.558-5.896,10.973-12.979,13.146-21.093C595.584,301.591,598.518,290.346,592.694,281.64"
		/>
	<path clip-path="url(#SVGID_2_)" fill="#ABE1FA" d="M544.747,283.431c-10.29,9.238-12.948,20.389-12.974,20.502
		c-2.196,9.417-0.188,16.002,2.747,20.419c6.514-5.859,10.906-12.903,13.063-20.967
		C547.619,303.267,550.534,292.088,544.747,283.431"/>
	<polygon clip-path="url(#SVGID_2_)" fill="#B3D235" points="579.626,273.304 574.41,262.701 558.65,317.258 573.451,300.094 
		578.818,283.728 	"/>
	<polygon clip-path="url(#SVGID_2_)" fill="#F47920" points="591.574,282.425 582.678,318.735 588.06,315.011 590.544,312.582 
		594.695,305.212 596.348,292.911 594.775,286.476 	"/>
	<path clip-path="url(#SVGID_2_)" fill="#00AEEF" d="M542.467,286.738c0.152-0.005,1.519,1.767,1.811,5.92
		c0.037,0.52,1.214,0.046,1.435,1.358c0.207,1.217-1.404,1.568-1.454,2.256c-0.426,5.797-2.762,14.519-9.845,26.915l1.588,0.118
		l4.224-5.075l5.752-9.088l2.273-7.998c0,0-0.315-9.053-0.15-9.322c0.167-0.27-2.891-7.202-2.891-7.202L542.467,286.738z"/>
	<path clip-path="url(#SVGID_2_)" fill="#ABE1FA" d="M542.646,295.069c0.003,0.089,0.019,1.134,0.177,1.217
		c0.159,0.084,1.457-0.318,1.546-0.343s0.854-1.054,0.917-1.122c0.064-0.069,0.365-1.014,0.337-1.17
		c-0.026-0.154-0.593-1.07-0.663-1.155c-0.069-0.087-0.797,0.117-0.883,0.185c-0.088,0.072-0.94,1.124-1.004,1.193
		C543.007,293.943,542.646,295.069,542.646,295.069"/>
	<path clip-path="url(#SVGID_2_)" fill="#005BAA" d="M543.226,294.34c0.136-0.547,0.955-1.407,1.488-1.426
		c0.137-0.005,0.396,0.493,0.517,0.641c0.104,0.131,0.082,0.508,0.024,0.731c-0.134,0.534-0.681,1.177-1.202,1.195
		c-0.14,0.005-0.986,0.426-1.107,0.277C542.84,295.627,543.171,294.561,543.226,294.34 M542.271,294.811
		c-0.127,0.507-0.104,1.265,0.186,1.624c0.283,0.35,0.811,0.245,1.308,0.228c0.943-0.033,1.895-0.762,2.185-2.144
		c0.107-0.514,0.034-1.008-0.255-1.367c-0.28-0.345-0.559-1.058-1.046-1.041C543.704,292.144,542.509,293.864,542.271,294.811
		 M582.859,309.843l0.395-3.405l-0.9,0.031l-0.647,3.492L582.859,309.843z M584.09,315.663l0.746-3.413l-0.898,0.032l-0.634,3.432
		L584.09,315.663z M587.768,306.923l-0.647,3.492l1.154-0.118l0.394-3.405L587.768,306.923z M582.787,318.248
		c-0.146-0.324-0.782-1.858-0.921-2.191c-0.67-1.283-1.226-2.687-1.756-5.564c-1.468-7.951,4.315-18.523,4.349-18.656
		c0.273-1.134,7.015-10.446,7.359-7.831c0.669,1.151,1.031,2.042,1.292,3.322c0.271,1.328,0.459,2.775,0.458,4.136
		c0.004,1.385,0.027,3.171-0.154,4.548c-0.748,5.51-2.444,11.489-5.227,16.318C587.202,314.023,584.368,317.318,582.787,318.248
		 M587.674,315.621c0.124-0.192,0.253-0.395,0.387-0.609l-0.012-0.094c1.236-1.941,2.343-3.954,3.29-5.972
		c1.494-3.163,2.59-6.332,3.281-9.187c0.322-1.314,0.556-2.558,0.729-3.704c-0.06,3.3-0.671,5.658-0.683,5.708
		C593.304,306.846,590.961,311.482,587.674,315.621 M560.753,314.771c-0.528,0.663-1.065,1.288-1.604,1.888l4.299-14.438
		l8.163-3.364C568.322,305.054,564.015,310.726,560.753,314.771 M566.088,311.942c0.348-0.462,0.698-0.923,1.046-1.395
		c2.09-2.864,4.144-5.927,6.11-9.286c0.144-0.236,0.289-0.491,0.434-0.741C571.456,304.916,568.819,308.716,566.088,311.942
		 M574.222,293.215c-0.646,1.665-1.409,3.316-2.24,4.934l-7.974,2.196l3.125-10.496l9.471-4.048
		C576.001,288.353,575.188,290.837,574.222,293.215 M576.7,285.397l-8.977,2.471l3.149-10.577l6.695-2.752
		c0.143,1.83,0.145,3.655,0.018,5.431c0.001-0.009,0.003-0.017,0.004-0.025c-0.017,0.153-0.029,0.309-0.047,0.463
		c-0.188,1.502-0.395,2.977-0.708,4.42C576.795,285.019,576.742,285.207,576.7,285.397 M577.524,274.051l-6.193,1.704l3.404-11.425
		c0.394,0.67,0.763,1.346,1.086,2.032c0.381,1.014,0.702,2.053,0.958,3.11C577.141,270.982,577.38,272.516,577.524,274.051
		 M572.703,265.019l-3.132,10.899l-4.237-2.407c1.047-1.203,2.08-2.281,2.79-3.084c1.17-1.32,2.425-2.68,3.639-4.186
		c0.304-0.377,0.604-0.766,0.898-1.164C572.675,265.058,572.689,265.037,572.703,265.019 M564.864,274.056l4.266,3.394
		l-3.108,10.818l-7.062-4.013c0.894-2.108,1.792-4.001,2.577-5.603c0.553-0.817,1.138-1.645,1.718-2.459l0.871-1.193
		c0.146-0.199,0.283-0.388,0.415-0.548L564.864,274.056z M565.432,290.32l-3.006,10.461l-0.228,0.062l-6.811-3.871
		c0.1-0.775,0.216-1.545,0.354-2.305c0.288-1.603,0.664-3.19,1.084-4.683c0.196-0.688,0.469-1.416,0.722-2.14
		c0.261-0.718,0.529-1.418,0.798-2.099c0.121-0.303,0.243-0.586,0.364-0.879L565.432,290.32z M555.333,297.458l6.525,5.301
		l-3.555,12.363c-0.302-0.561-0.598-1.149-0.898-1.8c-1.187-2.588-1.97-5.646-2.225-8.866
		C554.993,302.162,555.066,299.792,555.333,297.458 M541.075,327.588c-0.347-0.007-0.679-0.056-0.988-0.146
		c-0.097-0.029-0.188-0.07-0.28-0.108c-0.011-0.006-0.017-0.01-0.024-0.018c0.116,0.049,0.233,0.095,0.358,0.133
		C540.429,327.531,540.744,327.58,541.075,327.588 M535.172,322.424c-1.424,0.731-3.918-8.265-3.12-14.909
		c0.191-0.996,0.425-1.994,0.697-2.968c0.746-2.692,1.728-5.224,2.581-7.323c1.665-3.259,4.266-7.276,8.195-11.031
		c0.346-0.331,0.649-0.685,0.949-0.605c0.427,0.112,0.477,0.405,0.635,0.741c3.77,8.014,1.929,16.997,1.898,17.098
		C545.056,310.733,536.881,322.915,535.172,322.424 M547.232,286.288c-0.476-0.962-1.088-1.775-1.711-2.824
		c-0.627-1.05-1.229,0.042-1.229,0.042c-0.145,0.123-0.281,0.248-0.424,0.372c0.46-0.55,0.953-1.126,1.536-1.791l0.98-1.109
		l0.123-0.141l0.08-0.1c-0.051,0.02-0.106,0.052-0.17,0.096l-0.024,0.016l-0.011,0.009l-0.058,0.058l-0.241,0.254l-0.475,0.515
		c-0.627,0.692-1.228,1.404-1.798,2.119c-0.102,0.128-0.196,0.256-0.296,0.383c-0.354,0.315-0.697,0.632-1.03,0.952
		c0.192-0.239,0.383-0.481,0.582-0.717l0.794-1.216c0.376-0.456,0.577-0.665,0.688-0.758c0.019,0.004,0.053-0.013,0.12-0.064
		c0.019,0.006,0.021,0.029,0.02,0.048l0.163-0.201c0.076-0.068,0.166-0.15,0.28-0.256l0.065-0.167l0.338-0.412l0.693-0.817
		c0.005-0.022,0.004-0.037-0.002-0.044c0.048-0.026,0.099-0.056,0.142-0.076c0.153-0.066,0.279-0.099,0.386-0.119
		c0.04,0.009,0.074-0.046,0.112,0.017c0.036,0.068,0.058,0.143,0.072,0.216c0.028,0.146,0.036,0.282,0.045,0.409
		c0.005,0.003,0.009,0.004,0.015,0.006c-0.001,0.022-0.004,0.048-0.007,0.067l-0.002,0.041c-0.001,0.017-0.004,0.011,0.004,0.081
		l0.031,0.318l0.052,0.655l0.079,1.377C547.198,284.393,547.22,285.315,547.232,286.288 M545.835,280.852
		c-0.132,0.136-0.284,0.299-0.447,0.478l0.023-0.057c0.056-0.057,0.11-0.117,0.167-0.173l0.213-0.207L545.835,280.852z
		 M544.941,281.757c-0.055,0.088-0.113,0.179-0.17,0.267c-0.237,0.274-0.485,0.563-0.741,0.874
		c-0.773,0.929-1.569,1.991-2.236,2.916c-0.53,0.53-1.037,1.062-1.519,1.596c1.037-1.453,2.051-2.722,3.037-3.867
		C543.859,282.91,544.4,282.325,544.941,281.757 M600.014,322.547c-0.389-1.296-1.306-2.289-2.085-2.262
		c-0.174,0.006-0.343,0.062-0.505,0.169c-0.342,0.224-0.654,0.766-1.017,1.393c-0.725,1.253-1.516,3.163-3.453,3.768
		c-0.146,0.047-0.282,0.087-0.413,0.125l0.013-0.05c-0.36,0.116-6.504,0.766-7.104-4.339c-0.029-0.248-0.324-0.742,0.145-1.193
		c4.297-4.162,8.602-10.304,10.776-18.423c0.125-0.465,3.235-9.366-2.651-18.599l-1.494-3.25l-0.637-1.054
		c-0.582-0.684-0.948,0.003-0.948,0.003c-0.532,0.798-0.789,1.209-1.361,1.975l-0.436,0.552l-0.441,0.501l-0.789,0.84
		c-1.189,1.224-2.22,2.712-3.255,4.386c-1.039,1.715-1.858,3.4-2.553,4.994c-0.087,0.2-0.175,0.396-0.267,0.589
		c-0.092,0.208-0.179,0.333-0.313,0.634l-0.496,1.238l-0.944,2.379c-0.606,1.548-1.133,3.019-1.546,4.351
		c-0.368,1.212-0.651,2.429-0.832,3.642c-0.088,0.606-0.226,2.413-0.229,2.713c-0.012,0.299,0.001,0.638,0.026,0.938
		c0.105,1.106,1.111,7.978,2.89,10.85c0.146,0.236,0.325,0.853,0.002,1.263c-0.9,1.145-3.333,3.679-8.779,6.388
		c-3.419,1.7-7.036-3.342-9.841-6.355c-1.066-1.146-0.098-1.983-0.098-1.983c6.975-6.182,14.378-15.047,18.082-28.889
		c0.124-0.455,2.055-7.829,0.586-16.338c-0.053-0.358-0.097-0.717-0.16-1.073c-0.243-1.755-0.686-4.005-1.308-5.918
		c-0.621-1.946-1.298-3.372-1.827-4.25c-0.543-0.946-1.136-1.794-1.744-2.584c-0.308-0.4-0.609-0.796-0.933-1.194l-0.238-0.299
		c-0.048-0.077-0.062-0.033-0.085-0.021l-0.066,0.048c-0.099,0.053-0.207,0.094-0.348,0.103c-0.366,1.083-0.771,2.193-1.183,3.097
		c-0.216,0.441-0.456,0.833-0.705,1.213l-0.326,0.472l-0.006,0.013c-2.563,2.423-4.755,4.908-6.632,7.348
		c-0.56,0.601-1.111,1.211-1.637,1.847c-0.864,1.053-1.542,2.118-2.247,3.182c-0.69,1.067-1.339,2.14-1.94,3.214
		c-1.2,2.156-2.237,4.314-3.093,6.449c-0.495,1.213-0.949,2.418-1.376,3.674c-0.379,1.279-0.695,2.522-0.97,3.799
		c-0.539,2.543-0.88,5.124-0.959,7.707c-0.172,5.154,0.75,10.377,3.071,14.9c0.289,0.563,0.595,1.117,0.922,1.656
		c0.337,0.534,1.403,1.347,0.69,1.988c-1.45,1.377-7.596,7.633-15.05,8.684c-0.6,0.083-1.141,0.015-1.579-0.108
		c-0.222-0.059-0.421-0.139-0.597-0.23l-0.256-0.147c-0.713-0.565-1.472-1.253-2.225-2.053c-0.938-1.452,1.286-3.712,1.286-3.712
		l-0.201,0.124c4.097-4.223,8.281-10.157,10.388-18.029c0.103-0.377,2.039-7.756-0.591-15.036c0.004-0.161,0.009-0.319,0.016-0.482
		c0.007-0.264,0.006-0.536,0.012-0.803c0.005,0.232,0.017,0.463,0.019,0.696l0.015-0.425c-0.012-0.158-0.023-0.289-0.032-0.412
		c0.016-1.015,0.019-2.044-0.012-3.026c-0.018-0.643-0.047-1.263-0.084-1.843c-0.033-0.555-0.103-1.208-0.104-1.383
		c0.05-0.633,0.069-1.159-0.195-2.105c-0.128-0.375-0.166-0.501-0.059-0.47c0.1,0.03,0.291,0.255,0.454,0.605
		c0.166,0.347,0.313,0.808,0.422,1.246c0.113,0.451,0.186,0.815,0.247,1.143c-0.016-0.382-0.023-0.667-0.062-1.056
		c-0.037-0.372-0.095-0.786-0.189-1.227c-0.096-0.442-0.228-0.919-0.461-1.386c-0.12-0.23-0.266-0.463-0.477-0.638
		c-0.026-0.009-0.054-0.068-0.078-0.039l-0.069,0.06l-0.146,0.118l-0.296,0.248c-0.755,0.649-1.576,1.442-2.43,2.352
		c-0.85,0.901-1.701,1.887-2.551,2.946c-1.695,2.115-3.363,4.517-4.913,7.096c-3.093,5.153-5.707,11.055-6.973,16.761
		c-0.466,2.23-0.398,3.761-0.486,6.015c-0.091,1.062-0.113,2.129-0.062,3.2c0.112,1.138,0.392,2.566,0.794,3.803
		c0.389,1.239,0.899,2.273,1.13,2.762c0.295,0.648,0.198,2.037-0.015,2.267c0,0-11.854,14.822-17.69,4.776
		c0,0-0.227-0.793-0.501-0.582c-0.271,0.208,2.001,7.38,9.816,4.497c6.119-2.259,6.6-3.35,9.149-6.042c0,0,1.376-1.95,2.215-0.797
		c3.902,5.836,7.633,4.784,7.717,4.818l0.155,0.053c0,0,2.135-0.453,0.78-0.195c1.438-0.598,7.778-3.404,14.985-9.201
		c0.229-0.182,0.585-0.642,0.973-0.125c0.057,0.073-0.369,0.78,0.17,0.249c1.309,1.956,2.974,3.634,4.722,5.258
		c2.752,2.553,3.159,2.539,4.448,2.991c1.432,0.633,2.585,0.022,2.585,0.022l0.164-0.065c0.1-0.037,1.307-0.515,3.158-1.513
		c1.001-0.424,1.83-0.932,2.498-1.45c0.501-0.31,1.025-0.653,1.566-1.019c0.057-0.026,0.161-0.09,0.407-0.261
		c0.032-0.027,0.065-0.058,0.099-0.084c0.892-0.62,1.957-1.167,2.78-2.077c0.23-0.255,0.47-0.353,0.71-0.025
		c3.895,5.313,6.874,5.468,8.366,5.248c3.551-0.118,5.727-1.625,8.405-3.265C600.559,324.773,600.167,323.055,600.014,322.547"/>
	<path clip-path="url(#SVGID_2_)" fill="#005BAA" d="M275.456,286.277c-2.376,1.849-4.655,5.446-5.542,8.785
		c-0.133,0.504-0.201,1.036-0.253,1.554c-0.096,0.943-0.091,1.914,0.133,2.841c0.248,1.021,0.783,2.04,1.453,2.849
		c0.274,0.33,0.661,0.531,1,0.791c0.774,0.595,1.382,0.983,2.377,1.099c0.976,0.114,1.919-0.168,2.872-0.318
		c0.729-0.115,0.846-0.16,1.412-0.587c0.412-0.31,0.976-0.516,1.414-0.771c0.722-0.422,1.424-0.979,2.075-1.504
		c-0.601,1.201-1.311,2.575-1.165,3.962c0.064,0.618,0.44,1.618,1.19,1.604c0.585-0.01,0.619-0.716,0.699-1.177
		c0.154-0.88,0.669-1.623,1.084-2.396c0.474-0.882,1.015-1.7,1.577-2.529c0.319-0.471,0.601-0.981,1-1.391
		c0.208-0.214,0.323-0.229,0.606-0.248c0.383-0.023,0.743-0.206,1.132-0.178c0.428-0.003-0.45-0.033,0,0
		c0.425-0.003,0.596-0.675,0.475-0.996c-0.233-0.612-1.08-1.148-1.69-1.281c-0.643-0.141-1.358-0.235-1.996-0.09
		c-0.703,0.161-1.435,0.08-2.143,0.209c-0.412,0.074-0.82,0.163-1.225,0.265c-0.339,0.084-0.795,0.314-1.146,0.286
		c-0.395-0.03-0.921-0.688-1.074,0.065c-0.115,0.569,0.067,1.211,0.394,1.684c0.38,0.551,0.618,0.81,1.336,0.831
		c-0.566,0.3-1.158,0.548-1.769,0.742c-0.5,0.159-1.119,0.409-1.652,0.393c-1.259-0.041-2.619,0.034-3.794-0.517
		c-1.058-0.496-1.247-1.56-0.941-2.619c0.388-1.339,1.082-2.543,1.717-3.772c0.15-0.449,0.602-0.741,0.675-1.226
		c0.079-0.484,0.485-0.902,0.805-1.247c0.848-0.913,1.64-1.881,2.527-2.758c0.82-0.812,1.81-1.568,2.942-1.887
		c0.434-0.121,0.989-0.415,1.01,0.202c0.009,0.267-0.004,0.839,0.185,1.042c0.073,0.272,0.215,0.425,0.213,0.715
		c-0.003,0.353,0.41,0.415,0.666,0.523c0.629,0.263,1.427,0.274,1.587-0.585c0.122-0.647,0.279-1.324,0.11-1.975
		c-0.209-0.805-0.659-1.474-1.288-1.992c-0.685-0.565-0.924-0.456-2.165-0.77C281.039,283.59,277.832,284.428,275.456,286.277"/>
	<path clip-path="url(#SVGID_2_)" fill="#005BAA" d="M268.012,287.242C267.983,286.578,268.109,289.687,268.012,287.242
		c-0.026-0.6-0.159-1.214-0.02-1.809c0.091-0.396,0.195-0.704-0.213-0.959c-0.293-0.183-0.663-0.254-1.004-0.274
		c-0.45-0.053-1.027,0.04-1.429,0.26c-0.325,0.179-0.586,0.661-0.999,0.643c0.027,0.001-0.345,2.204-0.383,2.418
		c-0.122,0.673-0.152,1.356-0.187,2.038c-0.011,0.204,0.032,0.499-0.036,0.696c-0.056,0.162-0.203,0.156-0.26,0.348
		c-0.097,1.979-0.287,3.909-0.517,5.875c-0.219,1.863-1.027,3.7-0.96,5.582c0.182,0.387,0.045,0.778-0.089,1.153
		c-0.145,0.405-0.149,0.799-0.213,1.216c-0.105,0.677,0.455,1.295,1.12,0.935c1.684-0.915,2.403-2.653,3.033-4.363
		c0.809-2.192,1.51-4.439,1.884-6.75C268.114,291.934,268.104,289.581,268.012,287.242"/>
	<path clip-path="url(#SVGID_2_)" fill="#005BAA" d="M253.734,291.404c-0.831,0.808-1.883,1.428-2.881,1.999
		c-0.41,0.235-0.912,0.178-1.363,0.242c-0.723,0.104-1.429,0.296-2.141,0.453c0.242-0.646,0.593-1.247,0.795-1.909
		c0.224-0.735,0.418-1.479,0.629-2.218c0.135-0.473,0.151-1.473,0.778-1.486c0.71-0.014,1.431-0.057,2.128-0.198
		c0.802,0.275,3.344-0.431,3.351,1.059c0.005,0.955-0.876,1.462-1.372,2.136c0.073-0.1,0.235-0.152,0.303-0.264
		C253.925,291.277,253.781,291.364,253.734,291.404C253.336,291.79,254.39,290.847,253.734,291.404 M251.414,307.226
		c0.501-0.202,2.861-1.149,3.32-1.45c0.776-0.508,1.416-1.253,2.189-1.797c0.886-0.623,1.764-1.292,2.436-2.149
		c0.987-1.26,1.1-2.728,0.934-4.269c0.008,0.08,0.033,0.18,0.065,0.254c-0.025-0.057-0.05-0.209-0.061-0.252
		c-0.427-0.988,0.155,0.611,0,0c-0.427-0.988-0.811-1.886-1.827-2.416c-0.197-0.447-1.011-0.691-1.419-0.905
		c-0.848-0.443-1.822-0.537-2.746-0.724c0.204-0.193,0.469-0.461,0.741-0.555c0.277-0.095,0.387-0.294,0.617-0.454
		c0.292-0.045,0.821-0.932,0.948-1.194c0.552-1.141,0.945-2.202-0.017-3.351c-0.482-0.576-0.331-0.606-1.205-0.981
		c-1.216-0.522-2.044-1.223-3.569-1.18c-0.444,0.053-0.884-0.079-1.328-0.067c-0.471,0.015-0.957,0.182-1.427,0.073
		c-0.449-0.019-0.815,0.14-1.252,0.167c-0.57,0.035-1.077,0.146-1.634,0.268c-1.043,0.229-2.062,0.559-3.03,1.01
		c-0.326,0.151-0.559,0.448-0.892,0.567c-0.372,0.131-0.504,0.272-0.185,0.611c0.363,0.385,0.822,0.738,1.334,0.898
		c0.559,0.176,0.979-0.087,1.502-0.232c0.428,0.077,0.898-0.17,1.306-0.265c-1.296,2.065-2.398,4.409-3.065,6.754
		c-0.25-0.001-0.622,0.274-0.803,0.433c-0.391,0.342-0.371,0.663-0.118,1.066c0.232,0.37,0.393,0.608,0.325,1.047
		c-0.085,0.554-0.109,1.115-0.118,1.675c-0.018,1.102-0.198,3.411,1.178,3.851c1.054,0.336,1.699-1.194,0.76-1.336
		c0.137-0.884,0.12-1.774,0.4-2.647c0.574-1.785,1.434-1.867,3.051-2.477c1.047-0.394,2.317-1.199,3.437-1.262
		c1.848-0.103,3.941-0.435,5.515,0.797c0.781,0.614,0.601,1.622,0.239,2.42c-0.652,1.438-1.889,1.969-2.984,2.988
		c-0.658,0.613-1.435,1-2.277,1.351c-1.624,0.678-3.086,1.673-4.8,2.141c-0.587,0.158-3.785,1.078-3.806-0.194
		c-0.452-1.115-0.993-0.723-1.379,0.473c-0.413,1.278,1.199,2.091,2.343,2.114c0.65,0.013,1.246-0.226,1.915-0.17
		c0.761,0.064,1.334,0.212,2.101,0.039L251.414,307.226z"/>
	<path clip-path="url(#SVGID_2_)" fill="#005BAA" d="M295.42,296.952c-0.022,0.023-0.043,0.045-0.064,0.067
		c0.86-0.879,1.819-1.706,2.469-2.76c0.586-0.949,0.961-1.762,1.813-2.34c0.178-0.121,0.695-0.958,0.916-1.214
		c0.349-0.404,0.541-0.798,0.976-1.102c0.822-0.573,1.707-1.062,2.246-1.938c-0.022,0.754-0.477,2.346-0.823,3.209
		c-0.374,0.932-0.517,1.504-0.831,2.542c-0.3,0.995-0.28,1.256-0.654,2.234c-0.509,1.331-1.303,1.538-2.621,1.829
		c-1.271,0.28-2.986,1.134-4.275,0.795c0.172-0.443,0.559-1.011,0.898-1.374C295.453,296.917,295.436,296.935,295.42,296.952
		 M307.866,296.31c-0.378-0.143-0.904-0.195-1.276-0.188c-0.446,0.008-0.905,0.121-1.326-0.089c0.184-0.414,0.348-0.662,0.292-1.118
		c0.48-0.857,0.571-1.373,0.608-1.528c0.127-0.529,0.278-1.058,0.444-1.576c0.122-0.382,0.334-1.192,0.416-1.609
		c0.095-0.481,0.096-0.171,0.179-0.3c0.114-0.176,0.059-0.363,0.125-0.556c0.194-0.572,0.5-1.119,0.747-1.67
		c0.262-0.584,0.512-1.174,0.707-1.784c0.212-0.666,0.007-0.862-0.413-1.362c-0.236-0.279-0.724-0.439-1.029-0.67
		c-0.289-0.22-0.884-0.264-1.241-0.251c-0.536,0.018-1.08-0.215-1.61-0.074c-0.487,0.129-0.796,0.574-1.113,0.929
		c-0.86,0.966-1.72,1.928-2.563,2.908c-0.4,0.465-0.851,0.875-1.3,1.293c-0.4,0.375-1.1,0.804-1.328,1.312
		c-0.014,0.332-0.402,0.642-0.621,0.851c-0.31,0.296-0.588,0.62-0.88,0.934c-0.761,0.816-1.478,1.675-2.245,2.485
		c-0.67,0.708-1.789,1.437-2.15,2.368c-0.132,0.338-0.472,0.708-0.66,1.031c-0.335,0.582-0.679,1.159-1.011,1.743
		c-0.727,0.416-1.615,0.943-1.794,1.817c-0.13,0.634-0.014,1.604,0.648,1.928c0.318,0.156,0.476-0.027,0.762,0.008
		c0.265,0.032,0.418,0.175,0.672,0.264c0.845,0.296,1.437-0.259,2.17-0.605c0.838-0.396,1.804-0.884,2.716-1.073
		c0.492-0.103,0.995-0.184,1.481-0.312c0.592-0.157,1.137-0.485,1.688-0.746c0.412-0.131,0.831-0.262,1.259-0.391
		c0.03,0.446,0.096,0.922-0.15,1.32c-0.386,0.49-0.423,1.556-0.35,2.142c-0.191,0.716-0.15,1.383-0.14,2.11
		c0.011,0.766-0.027,1.429,0.245,2.162c0.183,0.494,0.427,1.136,0.87,1.461c0.478,0.351,1.141,0.146,1.633,0.471
		c0-0.324,0.199-0.304,0.454-0.214c-0.037-0.604-0.117-1.209-0.105-1.816c0-0.536-0.055-0.812-0.223-1.306
		c-0.282-0.825,0.087-1.79,0.276-2.597c0.247-1.065,0.516-2.149,1.033-3.122c0.312-0.585,0.356-1.332,0.855-1.818
		c0.567-0.136,1.116-0.259,1.65-0.369c0.433-0.09,0.91-0.178,1.361-0.26c0.503-0.092,1.245-0.672,1.665-0.615
		c-0.441-0.514-0.764-1.182-1.409-1.478c0.114,0.048,0.237,0.086,0.348,0.14c-0.097-0.058-0.232-0.097-0.339-0.137
		c0-0.003,0.093,0.01,0.105,0.016C307.957,296.347,307.913,296.327,307.866,296.31"/>
	<path clip-path="url(#SVGID_2_)" fill="#005BAA" d="M328.412,337.138c-1.244,0.011-2.443-0.072-3.565-0.246
		c-1.792-0.278-3.285-0.812-4.434-1.584c-1.19-0.796-2.505-2.171-3.914-4.082c-1.362-1.851-2.206-4.062-2.506-6.572
		c-0.311-2.583-0.124-5.255,0.553-7.938c0.684-2.712,1.703-5.175,3.03-7.316c1.384-2.236,3.181-4.873,5.342-7.836
		c2.113-2.896,5.206-5.996,9.192-9.211c4.056-3.274,7.146-5.695,9.18-7.194c2.014-1.485,4.119-2.901,6.256-4.207
		c1.486-0.892,2.78-1.349,3.845-1.359c0.281-0.002,0.548,0.028,0.796,0.088c1.246,0.305,2.183,0.85,2.785,1.618
		c0.509,0.655,0.603,1.329,0.307,2.186c-0.299,0.865-0.759,1.358-1.45,1.549c-1.152,0.323-2.572,0.776-4.222,1.347
		c-1.73,0.603-3.636,1.602-5.666,2.974c-1.983,1.341-4.522,3.309-7.546,5.854c-3.034,2.551-6.11,5.487-9.14,8.727
		c-3.121,3.337-5.309,6.757-6.503,10.162c-1.188,3.385-1.818,5.736-1.925,7.192c-0.111,1.473,0.072,3.072,0.547,4.753
		c0.499,1.79,1.361,3.229,2.559,4.274c1.163,1.013,2.593,1.735,4.252,2.144c1.177,0.296,2.418,0.438,3.681,0.428
		c0.446-0.004,0.903-0.027,1.359-0.069c1.604-0.146,3.648-0.338,6.132-0.582c2.549-0.246,3.087-0.383,7.21-1.554
		c3.779-1.072,5.552-3.964,6.977-6.285c0.614-0.998,1.188-1.934,1.671-2.235c0.188-0.116,0.376-0.176,0.559-0.177
		c0.955-0.009,2.379,1.461,2.977,3.661c0.218,0.801,0.771,3.503-1.261,4.676c-5.219,3.007-14.852,5-16.73,5.369
		c-2.836,0.556-5.561,1.076-7.741,1.296C330.13,337.082,329.254,337.131,328.412,337.138"/>
	<path clip-path="url(#SVGID_2_)" fill="#005BAA" d="M355.467,303.906c0.752-0.203,1.579-0.24,2.483-0.12
		c0.902,0.125,1.626,0.396,2.171,0.817c0.547,0.423,1.069,1.254,1.572,2.495c0.503,1.242,0.288,2.082-0.643,2.516
		c-0.93,0.436-1.776,0.294-2.536-0.42c-0.762-0.715-1.55-0.856-2.366-0.422c-0.816,0.434-1.625,0.873-2.423,1.324
		c-0.801,0.449-1.786,1.156-2.958,2.116c-1.173,0.961-2.376,2.184-3.609,3.671c-1.234,1.487-1.914,2.438-2.041,2.848
		c-0.129,0.412,0.191,0.353,0.957-0.181c0.766-0.531,1.94-1.336,3.522-2.417c1.581-1.079,3.572-2.185,5.972-3.322
		c2.402-1.137,3.922-1.585,4.564-1.345c0.641,0.239,1.196,0.688,1.66,1.337c0.465,0.654,0.732,1.217,0.802,1.693
		c0.069,0.475,0,0.852-0.212,1.132c-0.211,0.283-0.451,0.916-0.721,1.902c-0.271,0.985-0.238,1.937,0.099,2.851
		c0.336,0.916,0.758,1.544,1.27,1.884c0.512,0.34,1.21,0.434,2.095,0.276c0.883-0.155,2.327-0.169,3.842-4.055
		c0.641-1.644-0.22,0.898,0.679,2.964c0.79,1.819-2.246,2.892-3.637,3.432c-0.883,0.344-2.565,0.545-3.025,0.532
		c-0.46-0.012-1.058-0.156-1.8-0.429c-0.74-0.271-1.441-0.699-2.101-1.282c-0.661-0.586-1.184-1.303-1.568-2.151
		c-0.386-0.851-0.645-1.479-0.78-1.889c-0.135-0.41-0.443-0.857-0.921-1.344c-0.482-0.488-1.063-0.591-1.75-0.305
		c-0.686,0.284-1.885,1.057-3.596,2.319c-1.712,1.262-3.31,2.299-4.795,3.116c-1.484,0.816-2.816,1.384-3.994,1.705
		c-1.178,0.324-1.939,0.436-2.285,0.341c-0.345-0.096-0.726-0.461-1.141-1.096c-0.414-0.638-0.658-1.33-0.73-2.087
		c-0.073-0.752,0.027-1.515,0.299-2.288c0.271-0.772,1.309-2.324,3.108-4.651c1.8-2.329,3.537-4.239,5.214-5.729
		c1.676-1.49,3.46-2.76,5.354-3.81C353.391,304.786,354.714,304.143,355.467,303.906"/>
	<path clip-path="url(#SVGID_2_)" fill="#005BAA" d="M380.726,293.826c0.872,0.384,1.345,0.89,1.415,1.511
		c0.071,0.622-3.476,6.637-5.744,12.343c-1.664,5.24-0.673,1.387-1.924,6.366c-1.254,4.981-1.68,7.781-1.281,8.4
		c0.399,0.621,0.862,1.607,1.876,1.337c1.014-0.271,3.873,0.105,9.503-7.969c2.802-4.016,5.162-1.489,6.107-2.302
		c0.943-0.812-0.356-0.211-1.804,1.837c-1.709,2.415-3.766,3.559-4.856,4.567c-1.09,1.01-2.171,2.101-3.243,3.274
		c-1.072,1.175-2.384,2.194-3.933,3.06c-1.551,0.869-2.908,1.348-4.071,1.438c-1.165,0.094-2.34-0.356-2.887-0.977
		c-0.546-0.615-1.705-1.813-1.716-3.15c-0.009-1.015-0.088-1.425,0.303-3.806c0.389-2.381,1.266-6.041,3.089-11.438
		c0.734-2.038,0.516-1.91,1.051-3.147c1.498-3.55,0.86-2.227,3.929-7.611C378.413,294.423,379.854,293.439,380.726,293.826"/>
	<path clip-path="url(#SVGID_2_)" fill="#005BAA" d="M392.892,313.567c-0.73-0.879-1.629-0.625-2.699,0.762
		c-1.071,1.387-1.706,2.852-1.905,4.395c-0.201,1.545-0.108,2.626,0.274,3.246c0.383,0.619,0.779,0.979,1.191,1.071
		c0.409,0.094,0.989-0.181,1.74-0.828c0.747-0.646,1.351-2.035,1.807-4.171C393.755,315.904,393.62,314.415,392.892,313.567
		 M390.364,305.865c0.618-0.597,1.379-0.978,2.279-1.15c0.899-0.172,1.646-0.129,2.24,0.126c0.592,0.26,1.083,0.49,1.498,1.158
		c0.415,0.669,1.825,1.848,3.465,1.799c1.639-0.044,3.313-0.69,5.757-0.663c2.444,0.028,1.873,0.711-1.603,0.84
		c-3.474,0.129-4.841,1.872-5.606,2.863c-0.311,0.404-0.775,1.448-0.685,2.432c0.09,0.985,0.026,0.207,0.084,1.306
		c0.059,1.098,0.065,0.458,0.043,1.803c-0.02,1.346-0.111,2.347-0.268,3.003c-0.159,0.658-0.399,1.349-0.72,2.073
		c-0.322,0.725-0.798,1.491-1.432,2.3c-0.632,0.809-1.413,1.563-2.341,2.26c-0.928,0.697-1.786,1.221-2.569,1.573
		c-0.786,0.35-1.638,0.375-2.558,0.07c-0.922-0.304-1.673-0.789-2.251-1.457c-0.581-0.666-1.045-1.36-1.396-2.078
		s-0.511-1.98-0.475-3.785c0.033-1.802,0.216-3.256,0.551-4.357c0.336-1.103,0.857-2.253,1.569-3.459
		c0.71-1.202,1.108-2.675,2.082-3.928C389.001,307.338,389.779,306.426,390.364,305.865"/>
	<path clip-path="url(#SVGID_2_)" fill="#005BAA" d="M421.176,307.368c0.686-0.368,1.283-0.503,1.792-0.408
		c0.51,0.093,0.865,0.329,1.065,0.702c0.199,0.376,0.015,1.803-0.553,4.285c-0.57,2.481-0.944,4.594-1.126,6.331
		c-0.183,1.741-0.008,2.961,0.524,3.661c0.53,0.701,1.009,0.947,2.297,0.703c2.319-0.443,1.819-5.865,3.314-7.421
		c1.494-1.553,2.975,3.182,1.822,4.587c-1.15,1.404-2.223,2.668-3.213,3.791c-0.991,1.126-1.861,1.838-2.614,2.14
		c-0.754,0.303-1.629,0.375-2.631,0.221c-1.002-0.156-1.815-0.543-2.444-1.161c-0.63-0.617-1.129-1.359-1.496-2.226
		c-0.369-0.866-0.411-1.93-0.126-3.196c0.283-1.264,0.462-2.357,0.536-3.276c0.074-0.918-0.295-0.866-1.106,0.156
		c-0.811,1.023-1.809,2.141-2.995,3.349c-1.187,1.207-2.449,2.276-3.785,3.206c-1.337,0.93-2.39,1.53-3.158,1.799
		c-0.77,0.271-1.538,0.464-2.307,0.585c-0.77,0.123-1.485-0.012-2.144-0.399c-0.66-0.388-1.076-0.997-1.247-1.833
		c-0.171-0.836-0.018-2.082,0.46-3.743c0.479-1.659,1.287-3.924,2.425-6.788c1.14-2.863,0.79-4.383-1.046-4.563
		c-1.84-0.183-6.006,3.377-6.93,2.776c-0.923-0.599-2.446-6.276-0.746-4.922c3.757,2.995,8.653,0.985,9.434,0.06
		c0.778-0.926,1.638-1.188,2.311-1.359c0.669-0.168,1.364,0.041,1.972,0.268c0.609,0.224,0.817,1.043,1.004,1.613
		c0.184,0.575,0.158,1.254-0.081,2.044c-0.239,0.789-1.057,2.863-2.455,6.219c-1.397,3.358-1.425,4.835-0.084,4.43
		c1.341-0.404,3.734-2.36,7.181-5.866C418.472,309.623,420.522,307.702,421.176,307.368"/>
	<path clip-path="url(#SVGID_2_)" fill="#005BAA" d="M433.102,303.967c0.688-0.333,1.564-0.276,2.635,0.174
		c1.068,0.451,1.306,1.301,0.709,2.551c-0.596,1.252-1.567,3.318-2.921,6.201c-1.352,2.882-1.485,3.671-0.398,2.365
		c1.088-1.306,2.405-2.637,3.952-3.995c1.544-1.358,2.66-2.237,3.346-2.636c0.686-0.402,1.428-0.703,2.23-0.908
		c0.803-0.201,1.712-0.16,2.732,0.124c1.02,0.288,1.896,1.109,2.629,2.463c0.731,1.354,1.139,3.599,1.215,6.729
		c0.077,3.131,0.861,4.658,2.354,4.581c1.49-0.079,2.792-0.426,4.641-6.286c0.526-1.665,2.14,2.495,2.817,1.423
		c0.681-1.073,0.974-1.359,0.88-0.869c-0.094,0.494-0.466,1.22-1.114,2.175c-0.647,0.957-2.028,2.445-4.143,4.465
		s-3.951,3.052-5.507,3.097c-1.559,0.048-2.696-0.565-3.41-1.838c-0.719-1.273-1.194-3.312-1.433-6.114
		c-0.237-2.801-0.618-4.226-1.144-4.269c-0.525-0.046-1.668,0.488-3.43,1.604c-1.763,1.114-3.371,2.565-4.834,4.347
		c-1.459,1.783-2.651,3.295-3.576,4.532c-0.923,1.239-1.76,1.991-2.515,2.261c-0.751,0.271-1.368,0.078-1.849-0.574
		c-0.482-0.65-0.653-1.453-0.513-2.405c0.139-0.952,0.413-2.415,0.823-4.386c0.407-1.972,0.996-4.05,1.765-6.239
		c0.769-2.188,1.387-5.598,1.694-6.09c0.307-0.495,0.606-0.95,0.898-1.362C431.928,304.674,432.417,304.3,433.102,303.967"/>
	<path clip-path="url(#SVGID_2_)" fill="#005BAA" d="M466.993,308.789c-0.687,0.301-1.697,1.114-3.03,2.436
		c-1.333,1.324-2.24,2.557-2.722,3.689c-0.482,1.136-0.605,2.039-0.369,2.71c0.234,0.67,1.221,0.095,2.96-1.723
		c1.739-1.82,2.874-3.313,3.405-4.482c0.531-1.17,0.801-1.975,0.814-2.419C468.064,308.556,467.71,308.486,466.993,308.789
		 M469.994,275.011c0.39-0.561,0.928-0.82,1.617-0.777s1.33,0.333,1.926,0.87c0.595,0.535,1.232,1.309,1.914,2.319
		c0.681,1.011,1.288,3.048,1.826,6.11c0.533,3.062,0.641,5.996,0.32,8.804c-0.319,2.806-0.583,4.586-0.787,5.345
		c-0.208,0.756,0.117,1.557,0.979,2.4c0.86,0.846,1.27,1.63,1.225,2.351c-0.043,0.724-0.374,1.318-0.99,1.781
		c-0.621,0.465-1.227,0.618-1.817,0.458c-0.592-0.158-1.265,0.749-2.019,2.724c-0.753,1.976-1.681,3.91-2.779,5.806
		s-2.101,3.485-3.008,4.773c-0.907,1.287-2.149,2.637-3.729,4.042c-1.58,1.409-2.81,2.215-3.693,2.419
		c-0.884,0.205-1.655,0.202-2.312-0.005c-0.658-0.208-1.27-0.751-1.834-1.632c-0.567-0.88-0.884-2.535-0.954-4.96
		c-0.068-2.428,0.622-4.828,2.078-7.201c1.454-2.376,4.093-4.473,7.914-6.293c3.822-1.819,4.691-2.771,5.553-3.665
		c0.86-0.893,1.472-2.349,1.832-4.37c0.359-2.019,0.547-3.9,0.564-5.639c0.018-1.737-0.11-3.484-0.387-5.237
		c-0.279-1.75-1.075-3.515-2.388-5.291c-1.31-1.776-1.901-2.944-1.774-3.502C469.396,276.083,469.638,275.54,469.994,275.011"/>
	<path clip-path="url(#SVGID_2_)" fill="#005BAA" d="M479.457,308.833c1.142-4.568,2.263-6.81,3.361-6.72
		c1.1,0.089,1.932,0.572,2.498,1.454c0.564,0.88,0.517,1.97-0.145,3.273c-0.661,1.3-0.721,1.906-0.183,1.82
		c0.544-0.085,1.253-0.42,2.134-1.002c0.881-0.58,1.72-1.049,2.521-1.399c0.801-0.353,1.446-0.579,1.938-0.682
		c0.49-0.102,1.435,0.054,2.834,0.467c1.396,0.416,2.722,1.003,3.974,1.762c1.253,0.761,2.9,0.812,4.946,0.154
		c2.044-0.659,1.822-0.442-0.658,0.645c-2.485,1.089-5.029,1.611-7.636,1.567c-2.61-0.042-4.623,0.287-6.042,0.987
		c-1.423,0.701-2.621,1.476-3.597,2.32c-0.978,0.844-1.876,2.23-2.693,4.156c-0.821,1.926-1.447,3.547-1.878,4.86
		c-0.434,1.317-0.815,2.394-1.153,3.234c-0.337,0.84-1.04,1.288-2.103,1.345c-1.067,0.061-1.774-0.318-2.128-1.137
		c-0.351-0.817-0.438-1.348-0.259-1.596c0.181-0.247,0.658-1.753,1.438-4.515C477.405,317.066,478.349,313.401,479.457,308.833"/>
	<path clip-path="url(#SVGID_2_)" fill="#005BAA" d="M510.239,303.751c0.752-0.202,1.578-0.239,2.484-0.12
		c0.902,0.125,1.626,0.397,2.171,0.817c0.545,0.423,1.068,1.255,1.574,2.496c0.5,1.243,0.286,2.081-0.643,2.514
		c-0.934,0.438-1.78,0.295-2.539-0.419c-0.763-0.714-1.549-0.855-2.365-0.421c-0.816,0.434-1.626,0.873-2.423,1.324
		c-0.802,0.449-1.788,1.156-2.958,2.116c-1.172,0.961-2.376,2.185-3.609,3.671c-1.234,1.486-1.914,2.437-2.043,2.848
		c-0.126,0.412,0.193,0.353,0.96-0.181c0.765-0.53,1.938-1.336,3.521-2.417c1.581-1.078,3.572-2.187,5.973-3.322
		c2.402-1.137,3.922-1.585,4.562-1.345c0.644,0.241,1.196,0.687,1.661,1.337c0.464,0.654,0.732,1.217,0.803,1.691
		c0.068,0.477-0.002,0.854-0.214,1.134c-0.209,0.28-0.451,0.916-0.721,1.9c-0.269,0.987-0.235,1.938,0.102,2.853
		c0.334,0.916,0.757,1.543,1.269,1.884c0.51,0.34,1.209,0.433,2.095,0.276c0.884-0.155,1.97-0.836,3.253-2.046
		c1.284-1.207,1.229-0.928-0.165,0.839c-1.396,1.767-2.502,2.892-3.316,3.374c-0.815,0.482-1.452,0.718-1.911,0.706
		c-0.46-0.013-1.06-0.155-1.799-0.429c-0.742-0.271-1.443-0.7-2.103-1.283c-0.662-0.587-1.185-1.304-1.569-2.151
		c-0.386-0.851-0.646-1.479-0.778-1.888c-0.137-0.409-0.443-0.857-0.923-1.345c-0.479-0.487-1.063-0.59-1.75-0.305
		c-0.686,0.283-1.885,1.057-3.595,2.318c-1.713,1.264-3.308,2.302-4.795,3.117c-1.485,0.816-2.815,1.388-3.993,1.706
		c-1.18,0.324-1.941,0.437-2.288,0.34c-0.344-0.096-0.724-0.461-1.141-1.095c-0.415-0.638-0.657-1.332-0.729-2.087
		c-0.074-0.752,0.028-1.515,0.3-2.289c0.271-0.772,1.307-2.324,3.107-4.65c1.8-2.329,3.538-4.239,5.214-5.729
		c1.676-1.491,3.46-2.76,5.355-3.81C508.163,304.631,509.486,303.99,510.239,303.751"/>
</g>
</svg>
