<svg id="Layer_1" data-name="Layer 1" xmlns="http://www.w3.org/2000/svg" viewBox="0 0 359.24 182.2"><defs><style>.cls-1{fill:none;}.cls-2{fill:#e4eec1;}.cls-3{fill:#fdd1b0;}.cls-4{fill:#abe1fa;}.cls-5{fill:#b2d235;}.cls-6{fill:#f47920;}.cls-7{fill:#00aeef;}.cls-8{fill:#fff;}</style></defs><title>logo_white</title><path class="cls-1" d="M62.3,55a22,22,0,0,0,3.47-3.95c.5-1.15,1.56-2.21,1.21-3.59-.56-2.2-4.06-.22-5.35-.33a18.36,18.36,0,0,1-3.08,1.08c-.92.25-.58,1.73-.6,2.48,0,1.17-.05,2.34-.11,3.51s-.35,2.07-.47,3.12c1-.49,2-1,3-1.46A5.61,5.61,0,0,0,62.3,55Z" transform="translate(-5.53 -5.52)"/><path class="cls-1" d="M261.19,131q4.05-5.06,5.15-8.17a13.65,13.65,0,0,0,1-4.26c0-.76-.66-.83-1.84-.2a21.29,21.29,0,0,0-4.82,4.62,21,21,0,0,0-4.1,6.72q-1,3-.23,4.69T261.19,131Z" transform="translate(-5.53 -5.52)"/><path class="cls-1" d="M176.55,39l-.31.31-.25.25,0,.08.66-.7Z" transform="translate(-5.53 -5.52)"/><path class="cls-1" d="M168.15,107.56a5.6,5.6,0,0,0,1.46.22,5.64,5.64,0,0,1-1.37-.21,5.52,5.52,0,0,1-.53-.2l0,0A4,4,0,0,0,168.15,107.56Z" transform="translate(-5.53 -5.52)"/><path class="cls-1" d="M174.93,41.29s0-.06,0-.07-.15.1-.18.1a9.35,9.35,0,0,0-1,1.11l-1.17,1.79c-.29.35-.57.7-.86,1.06q.73-.71,1.52-1.4l.44-.56c.84-1.05,1.72-2.1,2.64-3.12l.7-.76.35-.37.09-.09h0l0,0a1.3,1.3,0,0,1,.25-.14l-.12.15-.18.21L176,40.78c-.86,1-1.58,1.83-2.26,2.64l.63-.55s.89-1.61,1.81-.06S178,45.55,178.67,47c0-1.43,0-2.79-.11-4.06l-.12-2-.08-1,0-.47a.42.42,0,0,1,0-.12v-.06s0-.07,0-.1h0a4.39,4.39,0,0,0-.07-.6,1.15,1.15,0,0,0-.11-.32c-.06-.09-.1,0-.16,0a2.55,2.55,0,0,0-.57.17l-.21.11s0,0,0,.07l-1,1.2-.5.61-.1.25-.41.38Z" transform="translate(-5.53 -5.52)"/><path class="cls-1" d="M138.08,45.65c2-.51,3.19-.87,3.9-2.93.52-1.51.47-1.91.88-3.44A40.38,40.38,0,0,1,144,35.37a19.5,19.5,0,0,0,1.08-4.93,10.93,10.93,0,0,1-3.32,3.07,8.47,8.47,0,0,0-1.43,1.73c-.32.4-1.07,1.7-1.33,1.9-1.27.93-1.8,2.18-2.64,3.66a24.07,24.07,0,0,1-3.49,4.2,7.45,7.45,0,0,0-1.26,2.09C133.59,47.54,136.15,46.15,138.08,45.65Z" transform="translate(-5.53 -5.52)"/><path class="cls-1" d="M174,42c.38-.46.74-.88,1.09-1.29l.25-.39c-.8.84-1.59,1.7-2.4,2.63-1.45,1.69-2.94,3.56-4.47,5.69q1.07-1.18,2.24-2.35C171.65,44.91,172.82,43.34,174,42Z" transform="translate(-5.53 -5.52)"/><path class="cls-1" d="M135.59,154.24q1.07.15,2.85-1.68t2.47-7.4q.69-5.58-1.37-7.59t-4.5,1.71a15.49,15.49,0,0,0-2.6,7.8c-.11,2.67.21,4.51,1,5.51A3.63,3.63,0,0,0,135.59,154.24Z" transform="translate(-5.53 -5.52)"/><path class="cls-2" d="M195,89.42l5.23-18.2-9.61-7.81a53,53,0,0,0-.22,10.31,39,39,0,0,0,3.27,13.05C194.09,87.73,194.53,88.59,195,89.42Z" transform="translate(-5.53 -5.52)"/><path class="cls-2" d="M210.91,34l-6.28-5-.48.58c-.19.24-.4.51-.61.81l-1.28,1.76c-.85,1.2-1.71,2.42-2.53,3.62-1.16,2.36-2.48,5.14-3.79,8.25l10.4,5.91Z" transform="translate(-5.53 -5.52)"/><path class="cls-2" d="M216.17,15.65l-.06.08q-.65.88-1.32,1.71c-1.79,2.22-3.63,4.22-5.36,6.16-1,1.18-2.57,2.77-4.11,4.54l6.24,3.54Z" transform="translate(-5.53 -5.52)"/><path class="cls-2" d="M201,68.3l4.43-15.4-9.9-8c-.18.43-.36.85-.54,1.29q-.6,1.5-1.18,3.09c-.37,1.07-.77,2.14-1.06,3.15-.62,2.2-1.17,4.53-1.6,6.89-.2,1.12-.37,2.25-.52,3.39l10,5.7Z" transform="translate(-5.53 -5.52)"/><path class="cls-2" d="M208,82.68c-.51.69-1,1.37-1.54,2.05a86.32,86.32,0,0,0,11.17-16.82c-.21.37-.43.74-.64,1.09A161.11,161.11,0,0,1,208,82.68Z" transform="translate(-5.53 -5.52)"/><path class="cls-3" d="M238.78,89.26l-.57.9c.34-.43.66-.87,1-1.3l-.41.4Z" transform="translate(-5.53 -5.52)"/><path class="cls-3" d="M231,94h0l.92-3.75-.91.06.93-5.05,1.21,0L243.54,43c-2.44.55-9.72,10.75-10.06,12.18,0,.2-8.56,15.76-6.4,27.47a26.49,26.49,0,0,0,2.59,8.19C229.87,91.29,230.81,93.54,231,94Zm-1.37-17.32,1.33,0-.58,5-1.7.17Z" transform="translate(-5.53 -5.52)"/><path class="cls-4" d="M160.42,100.17c9.75-17.34,13.13-29.7,13.83-38a2.89,2.89,0,0,1-.68.12c-.73,0-1.51.18-1.93-.34a3.17,3.17,0,0,1-.27-2.39,7,7,0,0,1,2.9-3.81c-.4-4.36-1.61-6.8-2.24-7.68a61.06,61.06,0,0,0-10.88,15.05,99,99,0,0,0-3.8,10.78c-.4,1.43-.75,2.9-1,4.37C155.23,87.28,158.3,99.29,160.42,100.17Z" transform="translate(-5.53 -5.52)"/><path class="cls-5" d="M203.37,67.66l11.74-3.23a76.3,76.3,0,0,0,3.3-7.27,74.39,74.39,0,0,0,3.51-10.92l-13.94,6Z" transform="translate(-5.53 -5.52)"/><path class="cls-5" d="M223.27,28.95a48.06,48.06,0,0,0-1.1-6.74,39.65,39.65,0,0,0-1.41-4.58c-.48-1-1-2-1.6-3l-5,16.82Z" transform="translate(-5.53 -5.52)"/><path class="cls-5" d="M208.84,49.29l13.22-3.64c.06-.28.14-.56.2-.84.46-2.12.76-4.3,1-6.51,0-.23,0-.46.07-.68v0a53.64,53.64,0,0,0,0-8l-9.86,4.05Z" transform="translate(-5.53 -5.52)"/><path class="cls-5" d="M202.54,70.42l-6.33,21.26c.8-.88,1.59-1.8,2.36-2.78a152.41,152.41,0,0,0,16-23.43Z" transform="translate(-5.53 -5.52)"/><path class="cls-6" d="M238.77,89.12l0,.14h0l.41-.4a55.61,55.61,0,0,0,9.31-19.1,39.4,39.4,0,0,0,1-8.4c-.25,1.69-.6,3.52-1.07,5.45a71.61,71.61,0,0,1-4.83,13.53A79,79,0,0,1,238.77,89.12Z" transform="translate(-5.53 -5.52)"/><path class="cls-6" d="M233.3,85.22l-1.1,5-.25,0L231,94c2.33-1.38,6.49-6.22,7.93-8.7,4.1-7.11,6.59-15.91,7.7-24a54.71,54.71,0,0,0,.23-6.7,31.16,31.16,0,0,0-.67-6.09,14.68,14.68,0,0,0-1.9-4.89c-.07-.56-.35-.74-.77-.65L233.19,85.22Zm4.32-7.84,1.33,0-.58,5-1.7.18Z" transform="translate(-5.53 -5.52)"/><path class="cls-7" d="M174.87,55.54c.72,0,1.13,1,1.54,1.53a2.38,2.38,0,0,1,.38,2,3.77,3.77,0,0,1-2.53,3c-.7,8.35-4.08,20.71-13.83,38a.56.56,0,0,0,.49,0c2.52.72,14.55-17.21,17.43-28,0-.15,2.75-13.37-2.8-25.17-.23-.49-.31-.92-.93-1.09-.44-.12-.89.4-1.4.89s-.79.79-1.19,1.19c.63.88,1.83,3.32,2.24,7.68A1.59,1.59,0,0,1,174.87,55.54Z" transform="translate(-5.53 -5.52)"/><path class="cls-4" d="M175.72,57.67c-.18-.22-.56-1-.76-.94-.78,0-2,1.3-2.19,2.1-.08.33-.57,1.9-.41,2.09s1.43-.4,1.63-.41c.77,0,1.57-1,1.77-1.76A1.63,1.63,0,0,0,175.72,57.67Z" transform="translate(-5.53 -5.52)"/><path class="cls-8" d="M152.84,85.34a35.41,35.41,0,0,0-.09,4.71,28.19,28.19,0,0,0,1.17,5.6,30.63,30.63,0,0,0,1.66,4.07,5,5,0,0,1,0,3.33s-17.45,21.83-26,7c0,0-.33-1.17-.74-.86s2.95,10.87,14.45,6.62c9-3.33,9.72-4.93,13.47-8.89,0,0,2-2.87,3.26-1.17,5.75,8.59,11.24,7,11.36,7.09l.23.08s3.14-.67,1.15-.29a96.64,96.64,0,0,0,22.06-13.55c.34-.27.86-.95,1.43-.18.08.11-.54,1.15.25.37a44.87,44.87,0,0,0,7,7.74c4.05,3.76,4.65,3.74,6.55,4.41a4.62,4.62,0,0,0,3.81,0l.24-.09a45.66,45.66,0,0,0,4.65-2.23,16.47,16.47,0,0,0,3.68-2.14c.74-.46,1.51-1,2.31-1.5a4.8,4.8,0,0,0,.6-.38l.14-.12a21.78,21.78,0,0,0,4.09-3.06c.34-.38.69-.52,1,0,5.73,7.82,10.12,8,12.32,7.72,5.23-.17,8.43-2.39,12.37-4.81,2-1.21,1.4-3.74,1.18-4.49-.57-1.91-1.92-3.37-3.07-3.33a1.42,1.42,0,0,0-.74.25,6.52,6.52,0,0,0-1.5,2c-1.07,1.84-2.23,4.66-5.08,5.55l-.61.18,0-.07c-.53.17-9.58,1.13-10.46-6.39,0-.36-.48-1.09.21-1.76A59,59,0,0,0,251,69.71a33.15,33.15,0,0,0-3.9-27.38l-2.2-4.78L244,36c-.86-1-1.4,0-1.4,0-.78,1.18-1.16,1.78-2,2.91l-.64.81-.65.74-1.16,1.24a37.5,37.5,0,0,0-4.79,6.46,61.27,61.27,0,0,0-3.76,7.35q-.19.44-.39.87c-.14.31-.26.49-.46.93L228,59.12l-1.39,3.5c-.89,2.28-1.67,4.45-2.28,6.41a37.43,37.43,0,0,0-1.22,5.36c-.13.89-.33,3.55-.34,4a11.63,11.63,0,0,0,0,1.38c.15,1.63,1.64,11.75,4.25,16a1.78,1.78,0,0,1,0,1.86c-1.33,1.69-4.91,5.42-12.93,9.41-5,2.5-10.36-4.92-14.49-9.36-1.57-1.69-.15-2.92-.15-2.92,10.27-9.1,21.17-22.15,26.62-42.53A61,61,0,0,0,227,28.14c-.08-.53-.14-1.05-.24-1.58a53.75,53.75,0,0,0-1.93-8.71,30.42,30.42,0,0,0-2.69-6.26,33.51,33.51,0,0,0-2.57-3.8c-.45-.59-.9-1.17-1.37-1.76l-.35-.44c-.07-.11-.09,0-.13,0l-.1.07a1.2,1.2,0,0,1-.51.15c-.54,1.6-1.14,3.23-1.74,4.56a15.6,15.6,0,0,1-1,1.79l-.48.7v0a92.5,92.5,0,0,0-9.76,10.82c-.82.89-1.64,1.78-2.41,2.72a54.72,54.72,0,0,0-3.31,4.69q-1.52,2.36-2.86,4.73a83.35,83.35,0,0,0-4.55,9.49c-.73,1.79-1.4,3.56-2,5.41s-1,3.71-1.43,5.59a64.17,64.17,0,0,0-1.41,11.35,44.9,44.9,0,0,0,4.52,21.94q.64,1.25,1.36,2.44c.5.79,2.07,2,1,2.93-2.13,2-11.18,11.24-22.16,12.78a5.74,5.74,0,0,1-2.32-.16,4.27,4.27,0,0,1-.88-.34l-.38-.22a31,31,0,0,1-3.28-3c-1.38-2.14,1.89-5.47,1.89-5.47l-.3.18a60.54,60.54,0,0,0,15.29-26.54c.15-.56,3-11.42-.87-22.14,0-.24,0-.47,0-.71s0-.79,0-1.18c0,.34,0,.68,0,1l0-.63c0-.23,0-.42,0-.61,0-1.5,0-3,0-4.45,0-.95-.07-1.86-.12-2.71s-.15-1.78-.16-2a7.66,7.66,0,0,0-.29-3.1c-.19-.55-.24-.74-.09-.69a1.85,1.85,0,0,1,.67.89,10.09,10.09,0,0,1,.62,1.83c.17.66.27,1.2.36,1.68,0-.56,0-1-.09-1.56a16.36,16.36,0,0,0-.28-1.81,8.47,8.47,0,0,0-.68-2,3,3,0,0,0-.7-.94s-.08-.1-.11-.06L179,33l-.21.17-.43.37A47.19,47.19,0,0,0,174.81,37c-1.25,1.33-2.5,2.78-3.75,4.34a95.39,95.39,0,0,0-7.23,10.45,85.66,85.66,0,0,0-10.27,24.68A47.21,47.21,0,0,0,152.84,85.34Zm95.6-18.54c.48-1.94.82-3.76,1.07-5.45a39.4,39.4,0,0,1-1,8.4,55.61,55.61,0,0,1-9.31,19.1c-.33.43-.64.87-1,1.3l.57-.9h0l0-.14a79,79,0,0,0,4.84-8.79A71.61,71.61,0,0,0,248.44,66.8ZM227.08,82.6c-2.16-11.71,6.36-27.27,6.4-27.47.34-1.43,7.63-11.62,10.06-12.18.42-.09.7.08.77.65a14.68,14.68,0,0,1,1.9,4.89,31.16,31.16,0,0,1,.67,6.09,54.71,54.71,0,0,1-.23,6.7c-1.1,8.11-3.6,16.92-7.7,24-1.45,2.49-5.6,7.32-7.93,8.7h0c-.21-.48-1.15-2.74-1.36-3.23A26.49,26.49,0,0,1,227.08,82.6Zm-28.5,6.3c-.78,1-1.57,1.9-2.36,2.78l6.33-21.26,12-5A152.41,152.41,0,0,1,198.58,88.9Zm7.86-4.17c.51-.68,1-1.36,1.54-2.05A161.11,161.11,0,0,0,217,69c.21-.35.42-.72.64-1.09A86.32,86.32,0,0,1,206.43,84.74Zm12-27.57a76.3,76.3,0,0,1-3.3,7.27l-11.74,3.23L208,52.21l13.94-6A74.39,74.39,0,0,1,218.41,57.16Zm5-19.5v0c0,.23,0,.46-.07.68-.28,2.21-.58,4.38-1,6.51-.06.28-.14.56-.2.84l-13.22,3.64,4.64-15.57,9.86-4.05A53.64,53.64,0,0,1,223.36,37.66Zm-4.2-23c.58,1,1.12,2,1.6,3a39.65,39.65,0,0,1,1.41,4.58,48.06,48.06,0,0,1,1.1,6.74l-9.12,2.51Zm-9.73,9c1.72-1.94,3.57-3.94,5.36-6.16q.67-.83,1.32-1.71l.06-.08-4.61,16-6.24-3.54C206.86,26.38,208.38,24.8,209.43,23.61Zm-9.7,12.11c.82-1.2,1.68-2.42,2.53-3.62l1.28-1.76c.21-.29.42-.57.61-.81l.48-.58,6.28,5-4.58,15.93L195.94,44C197.25,40.87,198.58,38.08,199.73,35.72ZM191.2,59.3c.42-2.36,1-4.7,1.6-6.89.29-1,.69-2.09,1.06-3.15s.78-2.09,1.18-3.09c.18-.45.36-.86.54-1.29l9.9,8L201,68.3l-.33.09-10-5.7C190.82,61.56,191,60.42,191.2,59.3Zm-.82,14.41a53,53,0,0,1,.22-10.31l9.61,7.81L195,89.42c-.45-.83-.88-1.69-1.32-2.65A39,39,0,0,1,190.38,73.72Zm-22.14,33.85a5.64,5.64,0,0,0,1.37.21,5.6,5.6,0,0,1-1.46-.22,4,4,0,0,1-.41-.16l0,0A5.52,5.52,0,0,0,168.23,107.57Zm7.76-68,.25-.25.31-.31.06-.06-.66.7Zm-.31.79.5-.61,1-1.2s0-.06,0-.07l.21-.11a2.55,2.55,0,0,1,.57-.17c.06,0,.11-.07.16,0a1.15,1.15,0,0,1,.11.32,4.39,4.39,0,0,1,.07.6h0s0,.07,0,.1v.06a.42.42,0,0,0,0,.12l0,.47.08,1,.12,2c.06,1.27.09,2.63.11,4.06-.7-1.42-1.6-2.61-2.52-4.16s-1.81.06-1.81.06l-.62.55c.68-.81,1.4-1.66,2.26-2.64l1.44-1.63.18-.21.12-.15a1.3,1.3,0,0,0-.25.14l0,0h0l-.09.09-.35.37-.7.76c-.92,1-1.81,2.07-2.64,3.12l-.44.56q-.78.69-1.52,1.4c.29-.35.56-.71.86-1.06l1.17-1.79a9.35,9.35,0,0,1,1-1.11s.08,0,.18-.1,0,0,0,.07l.24-.3.41-.38Zm-2.78,2.55c.8-.93,1.6-1.79,2.4-2.63l-.25.39c-.35.4-.71.83-1.09,1.29-1.14,1.37-2.31,2.93-3.29,4.29q-1.17,1.17-2.24,2.35C170,46.48,171.45,44.61,172.9,42.92ZM156.32,78.22c.28-1.47.63-2.93,1-4.37a99,99,0,0,1,3.8-10.78A61.06,61.06,0,0,1,172,48c.39-.4.77-.8,1.19-1.19s1-1,1.4-.89c.63.17.7.6.93,1.09,5.55,11.8,2.84,25,2.8,25.17-2.87,10.76-14.91,28.69-17.43,28a.56.56,0,0,1-.49,0C158.3,99.29,155.23,87.28,156.32,78.22Z" transform="translate(-5.53 -5.52)"/><polygon class="cls-8" points="225.44 71.14 224.12 71.19 223.16 76.33 224.86 76.15 225.44 71.14"/><polygon class="cls-8" points="233.41 71.81 232.09 71.86 231.13 77 232.83 76.82 233.41 71.81"/><polygon class="cls-8" points="227.77 79.7 227.66 79.7 226.45 79.74 225.52 84.8 226.43 84.74 226.67 84.72 227.77 79.7"/><path class="cls-8" d="M176.78,59.08a2.38,2.38,0,0,0-.37-2c-.41-.51-.82-1.56-1.54-1.53a1.59,1.59,0,0,0-.6.16,7,7,0,0,0-2.9,3.81,3.17,3.17,0,0,0,.27,2.39c.42.52,1.19.36,1.93.34a2.89,2.89,0,0,0,.68-.12A3.77,3.77,0,0,0,176.78,59.08ZM174,60.5c-.21,0-1.45.63-1.63.41s.33-1.76.41-2.09c.2-.8,1.41-2.07,2.19-2.1.2,0,.58.73.76.94a1.63,1.63,0,0,1,0,1.08C175.56,59.53,174.76,60.47,174,60.5Z" transform="translate(-5.53 -5.52)"/><path class="cls-8" d="M92.55,57a11.15,11.15,0,0,0,3.2,3.68,8.69,8.69,0,0,0,1.77.8,6.76,6.76,0,0,0,3.92.75,16.18,16.18,0,0,0,4.13-1.53,3.49,3.49,0,0,0,1.87-1.39,21.75,21.75,0,0,1,1.81-1.66,26.36,26.36,0,0,0,2.52-3c-.45,2-1,4.29-.26,6.29.32.89,1.25,2.23,2.35,1.94.86-.23.65-1.29.6-2a12.51,12.51,0,0,1,.72-3.94,43.86,43.86,0,0,1,1.4-4.32,14.86,14.86,0,0,1,1-2.42,1.1,1.1,0,0,1,.8-.59,12.47,12.47,0,0,1,1.61-.68c.26-.07.19-.06.07,0,.55-.23.55-1.2.26-1.61a3.91,3.91,0,0,0-3-1.27,7.18,7.18,0,0,0-3,.6c-1,.5-2.1.65-3.09,1.1q-.87.39-1.71.84a6.39,6.39,0,0,1-1.59.85c-.6.1-1.62-.68-1.57.49a3.49,3.49,0,0,0,1.2,2.35,2.19,2.19,0,0,0,2.28.74,16.45,16.45,0,0,1-2.34,1.75,8.19,8.19,0,0,1-2.3,1.19c-1.88.4-3.86,1-5.8.64C97.67,56.21,97,54.71,97.06,53a32.26,32.26,0,0,1,1.15-6.21c.06-.72.62-1.32.55-2.06a4.11,4.11,0,0,1,.73-2.14c.92-1.66,1.73-3.39,2.72-5a10.82,10.82,0,0,1,3.66-3.88c.6-.34,1.31-1,1.57-.08.11.39.3,1.24.66,1.47s.48.55.58,1,.76.46,1.18.53c1,.16,2.21-.12,2.13-1.45a6.93,6.93,0,0,0-.57-3,5.77,5.77,0,0,0-2.64-2.47c-1.22-.58-1.54-.33-3.49-.34s-6.38,2.42-9.22,6-4.88,9.77-5,15a15.32,15.32,0,0,0,.2,2.39A12.93,12.93,0,0,0,92.55,57Z" transform="translate(-5.53 -5.52)"/><path class="cls-8" d="M80,44.59a4.31,4.31,0,0,1,.2,1c0,.26-.24.31-.26.61.59,3,1,5.89,1.4,8.88.36,2.84-.15,5.85.64,8.61a2.25,2.25,0,0,1,.29,1.74,9.63,9.63,0,0,0,.13,1.88c.09,1,1.15,1.75,2,1,2.15-2,2.58-4.81,2.88-7.57a55.48,55.48,0,0,0,.3-10.68A53.14,53.14,0,0,0,85.44,39.7c.21.71.76,2.58,0-.1-.06-.19,0-.16,0,0a9.93,9.93,0,0,1-.69-2.64c0-.62,0-1.11-.67-1.34a3.28,3.28,0,0,0-1.59,0,4,4,0,0,0-2,.91c-.41.38-.62,1.19-1.24,1.32,0,0,.3,3.39.33,3.72A24.54,24.54,0,0,0,80,44.59Z" transform="translate(-5.53 -5.52)"/><path class="cls-8" d="M47.48,50.93a5,5,0,0,0,2.31.84c.89.05,1.42-.49,2.14-.9A5.28,5.28,0,0,0,53.75,50a40.8,40.8,0,0,0-2,11.12,2.49,2.49,0,0,0-1,.94,1.09,1.09,0,0,0,.22,1.62,2.08,2.08,0,0,1,.87,1.43,18.93,18.93,0,0,0,.44,2.52c.38,1.64,1,5.12,3.16,5.26,1.68.11,2.07-2.39.63-2.26a25.47,25.47,0,0,1-.38-4.06c.19-2.85,1.43-3.29,3.6-4.79,1.4-1,3-2.63,4.62-3.13,2.7-.83,5.67-2.1,8.45-.86,1.38.62,1.49,2.18,1.25,3.49-.43,2.37-2.07,3.61-3.31,5.52a11.25,11.25,0,0,1-2.87,2.84c-2.15,1.6-3.95,3.61-6.31,4.94-.81.45-5.2,3-5.7,1.12-1.08-1.48-1.74-.7-1.87,1.21s2.54,2.65,4.25,2.26c1-.22,1.76-.8,2.77-1a9.55,9.55,0,0,0,3.12-.72l4.61-2.2c.67-.48,3.81-2.75,4.38-3.37,1-1,1.63-2.38,2.58-3.47A17,17,0,0,0,78,64.38a8.39,8.39,0,0,0-.13-6.48l0,0,.1.15a1.22,1.22,0,0,1-.1-.18,1.34,1.34,0,0,0-.08-.17c-1-1.3-1.9-2.49-3.6-2.9-.46-.59-1.75-.65-2.43-.82a15.47,15.47,0,0,0-4.33-.06,3.67,3.67,0,0,1,.89-1.09c.37-.24.46-.58.74-.9s.87-1.68,1-2.12c.4-1.89.59-3.61-1.26-5-.92-.67-.71-.77-2.14-1-2-.32-3.48-1.06-5.71-.43-.64.24-1.34.21-2,.39a8.44,8.44,0,0,1-2.08.63,17.26,17.26,0,0,0-1.79.71,15.9,15.9,0,0,0-2.32,1,22.23,22.23,0,0,0-4.11,2.61c-.43.34-.66.87-1.11,1.17S46.88,50.55,47.48,50.93Zm10.37,3.32c.06-1.17.07-2.34.11-3.51,0-.75-.32-2.23.6-2.48a18.36,18.36,0,0,0,3.08-1.08c1.29.11,4.79-1.87,5.35.33.35,1.38-.71,2.44-1.21,3.59A22,22,0,0,1,62.3,55a5.61,5.61,0,0,1-1.93.86c-1,.42-2,1-3,1.46C57.49,56.32,57.79,55.3,57.85,54.25Z" transform="translate(-5.53 -5.52)"/><path class="cls-8" d="M151.8,43.46c.17.06.35.12.52.19A3.16,3.16,0,0,0,151.8,43.46Z" transform="translate(-5.53 -5.52)"/><polygon class="cls-8" points="146.27 37.94 146.27 37.94 146.27 37.94 146.27 37.94"/><path class="cls-8" d="M124.09,54.77c.49.22.72-.07,1.16,0a4.67,4.67,0,0,1,1,.37c1.3.4,2.17-.47,3.27-1a19.83,19.83,0,0,1,4.08-1.78c.75-.18,1.51-.33,2.24-.56a15.46,15.46,0,0,0,2.53-1.23l1.9-.66a3.29,3.29,0,0,1-.16,2,5.25,5.25,0,0,0-.42,3.28,11.3,11.3,0,0,0-.1,3.22,9.22,9.22,0,0,0,.49,3.28,4.83,4.83,0,0,0,1.4,2.18c.75.51,1.75.16,2.51.63,0-.5.29-.47.68-.35-.09-.92-.24-1.84-.26-2.76a5.22,5.22,0,0,0-.41-2c-.47-1.24,0-2.73.28-4a19.39,19.39,0,0,1,1.41-4.81c.44-.91.47-2,1.21-2.81q1.29-.36,2.49-.65c.66-.16,1.38-.32,2.06-.47s1.86-1.09,2.5-1c-.7-.76-1.23-1.76-2.22-2.18h0l.16,0-.21-.08a5.78,5.78,0,0,0-2-.22,4.13,4.13,0,0,1-2-.07,2.87,2.87,0,0,0,.39-1.72A7.9,7.9,0,0,0,149,39c.17-.81.37-1.63.59-2.42.17-.59.44-1.83.55-2.47s.14-.27.26-.47.07-.56.16-.85c.27-.88.7-1.73,1-2.58a26.18,26.18,0,0,0,1-2.76c.29-1,0-1.31-.7-2.05a9.81,9.81,0,0,0-1.6-1,3.43,3.43,0,0,0-1.91-.32,10.79,10.79,0,0,0-2.46,0,3.86,3.86,0,0,0-1.65,1.48c-1.26,1.52-2.52,3-3.75,4.57a25.45,25.45,0,0,1-1.91,2c-.59.59-1.63,1.28-2,2.07,0,.5-.58,1-.9,1.33s-.86,1-1.29,1.47c-1.12,1.28-2.16,2.63-3.29,3.91-1,1.11-2.65,2.28-3.15,3.72a13.76,13.76,0,0,1-1,1.61c-.48.9-1,1.8-1.45,2.71-1.08.67-2.41,1.52-2.64,2.86C122.84,52.84,123.07,54.31,124.09,54.77ZM132.86,45a24.07,24.07,0,0,0,3.49-4.2c.84-1.48,1.37-2.74,2.64-3.66.26-.19,1-1.5,1.33-1.9a8.47,8.47,0,0,1,1.43-1.73,10.93,10.93,0,0,0,3.32-3.07A19.5,19.5,0,0,1,144,35.37a40.38,40.38,0,0,0-1.13,3.92c-.41,1.53-.36,1.93-.88,3.44-.7,2.05-1.91,2.41-3.9,2.93s-4.49,1.89-6.47,1.44A7.45,7.45,0,0,1,132.86,45Z" transform="translate(-5.53 -5.52)"/><path class="cls-8" d="M348.55,160.09c-10.93-1.26-13.36-1.79-31.71-.38-7.94.61-29.59,3.08-51.86,3.86-7.77.27-15.64.24-33.5,1.9-6.79.63-26.73,1-50.13,3.39s-77,9.58-80.16,10.39c-26,6.66,11.87,1.91,32.62-.33s64.82-5,80.12-6.63a523,523,0,0,1,65.16-2.9c11.64.13,81.28-3.91,84.59-3.56S360.93,161.51,348.55,160.09Z" transform="translate(-5.53 -5.52)"/><path class="cls-8" d="M73.91,157.83a1.85,1.85,0,0,0-.93.39c-.78.59-1.62,2.27-2.52,4.07-2.09,4.18-4.69,9.39-11,11.79-6.88,2.62-7.77,2.93-12.1,3.73s-7.68,1.42-10.4,1.91c-.77.14-1.55.25-2.31.32a25.09,25.09,0,0,1-6.36-.18,17.22,17.22,0,0,1-7.59-3,14.76,14.76,0,0,1-5-6.92,23.64,23.64,0,0,1-1.65-8c0-2.5.69-6.62,2.21-12.59s4.76-12.18,9.6-18.35a182.2,182.2,0,0,1,14.32-16.29c4.79-4.8,8.84-8.55,12-11.14a43.12,43.12,0,0,1,9.25-5.93c2.73-1.22,5.1-2.21,7-2.94a4.31,4.31,0,0,0,1.4-6.56,8.4,8.4,0,0,0-5-2.35,5.66,5.66,0,0,0-1.37,0,13.75,13.75,0,0,0-6.37,2.9c-3.46,2.55-6.85,5.29-10.07,8.13s-8.17,7.47-14.62,13.68-11.16,11.86-14.34,17.13-5.93,10.17-8,14.2a44.5,44.5,0,0,0-4.09,13,37.36,37.36,0,0,0,.24,13.66,23.43,23.43,0,0,0,5.27,10.86,29.57,29.57,0,0,0,7.3,6.39,18.72,18.72,0,0,0,7.82,2,37.87,37.87,0,0,0,6.13-.11c1.44-.14,2.93-.35,4.44-.64,3.69-.7,8.28-2,13-3.37,3.16-.91,19.33-5.76,27.8-11.68,3.3-2.31,1.95-6.85,1.46-8.19C78.2,160,75.54,157.67,73.91,157.83Z" transform="translate(-5.53 -5.52)"/><path class="cls-8" d="M98.87,159a4.19,4.19,0,0,1-.12-.59,26.71,26.71,0,0,1-.05-6.55c0-.12,0-.24,0-.36-1.87,5-4,5.26-5.33,5.62a4.83,4.83,0,0,1-3.62-.16,6.35,6.35,0,0,1-2.45-3,7.83,7.83,0,0,1-.6-4.86,11.5,11.5,0,0,1,.95-3.36,2.51,2.51,0,0,0,.19-2,7.1,7.1,0,0,0-1.62-2.77,6.15,6.15,0,0,0-3-2q-1.7-.47-7.6,3a76.47,76.47,0,0,0-9.72,6.58q-3.81,3.13-5.66,4.66t-1.61.45q.23-1.08,3.06-5.17a46.51,46.51,0,0,1,5.62-6.82A37.44,37.44,0,0,1,72,137.5Q74,136.17,76,134.87a3.26,3.26,0,0,1,4.11.37,3.62,3.62,0,0,0,4.4.34q2.29-1.32.72-4.39a10.37,10.37,0,0,0-3.06-4,7.76,7.76,0,0,0-3.84-1.07,10.83,10.83,0,0,0-4.23.58,45.51,45.51,0,0,0-6.5,3.89A50.92,50.92,0,0,0,59,137.86,72.21,72.21,0,0,0,51,148.44q-4.09,6.37-4.62,8.42a9.11,9.11,0,0,0-.17,4,7.84,7.84,0,0,0,1.56,3.46,4.14,4.14,0,0,0,2.11,1.7,9.68,9.68,0,0,0,3.86-.92,32.19,32.19,0,0,0,6.57-3.51,74.89,74.89,0,0,0,7.73-6,37,37,0,0,1,5.8-4.5,2.52,2.52,0,0,1,3,.26,6.36,6.36,0,0,1,1.78,2.16c.29.68.83,1.72,1.62,3.11a10.85,10.85,0,0,0,3,3.44A11.33,11.33,0,0,0,87,161.84a10.29,10.29,0,0,0,3.14.46,19.27,19.27,0,0,0,5.09-1.36A29.27,29.27,0,0,0,98.87,159Z" transform="translate(-5.53 -5.52)"/><path class="cls-8" d="M98.76,158.37a4.19,4.19,0,0,0,.12.59c.49,2,2.35,3.65,3.29,4.54a6.31,6.31,0,0,0,5.08,1.24,17.66,17.66,0,0,0,6.75-3.07,26.68,26.68,0,0,0,6.27-5.82c1.56-2,3.16-4,4.77-5.76a28.3,28.3,0,0,1,.26-6.82c-8.2,14-13,13.84-14.71,14.44s-2.63-1-3.41-2-.47-5.85.93-14.56,1.89-6,4-15.25c3-10.1,8.19-20.91,8-22s-1.1-1.85-2.65-2.37-3.87,1.37-6.6,7c-4.44,9.67-3.55,7.31-5.58,13.6-.73,2.19-2,6-2.94,9.62a131.13,131.13,0,0,0-3.54,19.66c0,.12,0,.24,0,.36A26.71,26.71,0,0,0,98.76,158.37Z" transform="translate(-5.53 -5.52)"/><path class="cls-8" d="M153,127.77a13.61,13.61,0,0,1,4.67-1.4,4.63,4.63,0,0,0-.94-.11A8.14,8.14,0,0,0,153,127.77Z" transform="translate(-5.53 -5.52)"/><path class="cls-8" d="M125,150.09c0,.14,0,.27,0,.42q.31,4.64,1.38,6.4a16.42,16.42,0,0,0,2.7,3.35,8.5,8.5,0,0,0,4.07,2.15,5.9,5.9,0,0,0,4.36-.5,23.71,23.71,0,0,0,4.16-3.07,21.14,21.14,0,0,0,3.66-4.21,19.07,19.07,0,0,0,2.11-4.15,20.86,20.86,0,0,0,.92-3.65,25.58,25.58,0,0,0,0-5.17,21.18,21.18,0,0,0-.34-3.08c-.26-1.87,0-.55-.34-2.22a6.79,6.79,0,0,1,.81-4.26,12.64,12.64,0,0,1,2.71-3.2c-2.56,1.75-5.05,3.65-6,3.15-1.67-.89-5.12-10.37-2-8.31a12.32,12.32,0,0,0,1.59.88,4.32,4.32,0,0,1-.46-.5,4.88,4.88,0,0,0-2.73-1.75,6.59,6.59,0,0,0-3.85.12,7.55,7.55,0,0,0-3.73,2.31,46.39,46.39,0,0,0-3.59,5c-1.48,2.29-1.94,4.86-3,7a27.44,27.44,0,0,0-2.17,6.15c0,.09,0,.2,0,.29A28.3,28.3,0,0,0,125,150.09Zm7.41-3a15.49,15.49,0,0,1,2.6-7.8q2.43-3.8,4.5-1.71t1.37,7.59q-.69,5.58-2.47,7.4t-2.85,1.68a3.63,3.63,0,0,1-2.2-1.65C132.65,151.59,132.33,149.75,132.44,147.08Z" transform="translate(-5.53 -5.52)"/><path class="cls-8" d="M145.26,132c.94.5,3.43-1.4,6-3.15.57-.39,1.15-.78,1.71-1.12a8.14,8.14,0,0,1,3.73-1.51,4.63,4.63,0,0,1,.94.11q3.56.77,1.53,7.54-2.28,7.6-3.13,12c-.57,2.91-.64,5.07-.23,6.47a4.49,4.49,0,0,0,2.41,2.95,5.38,5.38,0,0,0,3.73.36,22.44,22.44,0,0,0,3.86-1.35,25.09,25.09,0,0,0,5.13-3.55,45.89,45.89,0,0,0,6-6,73.08,73.08,0,0,0,4.62-6.17q1.85-2.8,1.87-.43a41.6,41.6,0,0,1-.43,5.68,8.92,8.92,0,0,0,.69,5.45,11.65,11.65,0,0,0,2.89,3.58,7.43,7.43,0,0,0,4.35,1.62,8.5,8.5,0,0,0,4.47-.77,10.85,10.85,0,0,0,3.15-2.78,6.51,6.51,0,0,1-.17-1.92q.14-2.47.75-7.62c.16-1.37.38-2.79.64-4.23-1,3.84-.44,10.25-3.65,11.16-2.17.61-3,.26-4-.86s-1.5-3.18-1.44-6.18a92.66,92.66,0,0,1,1-11q.9-6.5.3-7.41a2.42,2.42,0,0,0-1.93-1,4.78,4.78,0,0,0-3,1q-1.6,1-9.65,10.77t-11.4,11.11q-3.35,1.34-.52-7.59t3.27-11a5.88,5.88,0,0,0-.17-3.51c-.4-.95-.88-2.32-2-2.61a5.81,5.81,0,0,0-3.41-.16,7,7,0,0,0-3.75,2.67c-1.1,1.57-8.08,5.23-14.55,2.19a12.32,12.32,0,0,1-1.59-.88C140.14,121.67,143.59,131.15,145.26,132Z" transform="translate(-5.53 -5.52)"/><path class="cls-8" d="M198.37,149a6.51,6.51,0,0,0,.17,1.92A4.84,4.84,0,0,0,199.6,153a2.54,2.54,0,0,0,3.25.71q1.87-.86,4-4.24t5.44-8.28a34.84,34.84,0,0,1,7.62-8.16q4.27-3.25,5.63-3.26t2.59,7.13q1.24,7.13,3.36,10.24a6,6,0,0,0,6.11,2.63q4-.47,9-6.12c.88-1,1.68-1.93,2.4-2.8a32.43,32.43,0,0,1-1-5.4,19.91,19.91,0,0,1-.12-2.92c-2.16,8.94-4.25,9.68-6.66,10s-4.11-2.14-4.71-7.48-1.63-9.12-3.08-11.33-3.08-3.48-4.86-3.82a9.1,9.1,0,0,0-4.69.2,14.77,14.77,0,0,0-3.68,1.89,44.1,44.1,0,0,0-5.33,5,62.19,62.19,0,0,0-6.16,7.42q-2.5,3.59.33-4.11t4.07-11q1.25-3.34-1.59-4.25t-4.53.1a6.47,6.47,0,0,0-2.34,2.13c-.44.75-.88,1.57-1.33,2.46s-1,6.81-2,10.67c-.59,2.31-1.06,4.54-1.45,6.7-.26,1.44-.48,2.86-.64,4.23Q198.51,146.49,198.37,149Z" transform="translate(-5.53 -5.52)"/><path class="cls-8" d="M248.91,140.85a9.12,9.12,0,0,0,1.35,2.94,6.2,6.2,0,0,0,3.38,2.51,7.51,7.51,0,0,0,4-.34q2.22-.72,6-4.69a41.86,41.86,0,0,0,5.77-7.47q2-3.51,4.43-8.61a68.24,68.24,0,0,0,3.88-10.34q1.49-5.23,3-5a3.53,3.53,0,0,0,3-1.06,4,4,0,0,0,1.43-3.19q0-1.86-2.45-3.84t-2-4a83.13,83.13,0,0,0,.55-9.26,52.83,52.83,0,0,0-1.87-15q-2.07-7.73-4-10.17a21.89,21.89,0,0,0-3.62-3.68,5.37,5.37,0,0,0-3.42-1.2,3,3,0,0,0-2.65,1.57,8.21,8.21,0,0,0-1,2.9q-.2,1.46,3.56,5.72a20.9,20.9,0,0,1,4.87,8.69,53.82,53.82,0,0,1,1.45,8.9,58.58,58.58,0,0,1-.12,9.73q-.47,5.26-2.48,7.75c-1.34,1.66-2.68,3.42-8.95,7.1s-10.46,7.66-12.59,11.95a23.24,23.24,0,0,0-2.59,9.7,19.91,19.91,0,0,0,.12,2.92A32.43,32.43,0,0,0,248.91,140.85Zm7.71-11.2a21,21,0,0,1,4.1-6.72,21.29,21.29,0,0,1,4.82-4.62c1.18-.63,1.8-.56,1.84.2a13.65,13.65,0,0,1-1,4.26q-1.1,3.12-5.15,8.17t-4.8,3.39Q255.63,132.67,256.62,129.65Z" transform="translate(-5.53 -5.52)"/><path class="cls-8" d="M281.88,143.69q-.4.68.68,2.69c.73,1.35,2,1.89,3.81,1.63a3.72,3.72,0,0,0,3.39-2.62c.45-1.49.94-3.39,1.49-5.7s1.37-5.18,2.48-8.59a19.36,19.36,0,0,1,4-7.51,28.89,28.89,0,0,1,5.8-4.51q3.48-2.12,10.19-2.59a30.66,30.66,0,0,0,10.64-2.74c.59-.6,1.19-1.19,1.8-1.76-2.78.92-5.13.9-7.06-.05a29.23,29.23,0,0,0-7.06-2.42q-3.68-.75-4.92-.37a17.81,17.81,0,0,0-3.21,1.45,29.47,29.47,0,0,0-4.1,2.77,10.21,10.21,0,0,1-3.5,2q-1.36.34,0-3.14t-.24-5.62a5.32,5.32,0,0,0-4.49-2.11q-2.84,0-4.74,12t-3.19,19.23Q282.28,143,281.88,143.69Z" transform="translate(-5.53 -5.52)"/><path class="cls-8" d="M323.65,114.45A72.55,72.55,0,0,0,315.59,125q-4.1,6.37-4.62,8.42a9,9,0,0,0-.17,4,7.84,7.84,0,0,0,1.56,3.46,4.17,4.17,0,0,0,2.11,1.7,9.7,9.7,0,0,0,3.86-.92,32,32,0,0,0,6.57-3.52,73.82,73.82,0,0,0,7.73-6,37,37,0,0,1,5.8-4.5,2.52,2.52,0,0,1,3,.26,6.36,6.36,0,0,1,1.78,2.16q.44,1,1.61,3.11a10.88,10.88,0,0,0,3,3.44,11.34,11.34,0,0,0,3.79,1.88,10.18,10.18,0,0,0,3.14.46A6.84,6.84,0,0,0,358,137.4q2-1.42,5.16-6.27t.16-1.46q-3,3.39-5.26,4a4.84,4.84,0,0,1-3.62-.16,6.37,6.37,0,0,1-2.45-3,7.85,7.85,0,0,1-.6-4.86,11.55,11.55,0,0,1,.95-3.36,2.52,2.52,0,0,0,.2-2,7.18,7.18,0,0,0-1.62-2.78,6.16,6.16,0,0,0-3-2q-1.7-.47-7.6,3a76.65,76.65,0,0,0-9.72,6.58q-3.82,3.13-5.66,4.66c-1.23,1-1.77,1.18-1.62.45s1.18-2.45,3.07-5.18a46.59,46.59,0,0,1,5.62-6.82,37,37,0,0,1,4.74-4.06q1.94-1.33,3.95-2.63a3.25,3.25,0,0,1,4.11.37,3.63,3.63,0,0,0,4.4.34q2.29-1.32.72-4.39a10.46,10.46,0,0,0-3.06-4,7.75,7.75,0,0,0-3.84-1.07,10.85,10.85,0,0,0-4.23.58,45.36,45.36,0,0,0-6.49,3.89,50.21,50.21,0,0,0-6.1,4.86c-.61.57-1.21,1.15-1.8,1.76C324.11,114,323.88,114.21,323.65,114.45Z" transform="translate(-5.53 -5.52)"/></svg>