<svg xmlns="http://www.w3.org/2000/svg" xmlns:xlink="http://www.w3.org/1999/xlink" viewBox="0 0 916.02 637.91"><defs><style>.a{fill:#f1f1f3;}.b{fill:url(#a);}.c{fill:#005baa;}.d{fill:#fff;fill-rule:evenodd;}.e{fill:#005aa9;}</style><linearGradient id="a" x1="721.9" y1="258.1" x2="721.9" y2="492.8" gradientTransform="translate(-65.92 -29.85) rotate(-10)" gradientUnits="userSpaceOnUse"><stop offset="0.14" stop-color="#b2d235"/><stop offset="0.63" stop-color="#39b54a"/></linearGradient></defs><title>logoBig4</title><path class="a" d="M954,497a37.65,37.65,0,0,1-30.54,43.61L158.15,675.58A37.65,37.65,0,0,1,114.54,645L39.13,217.39a37.65,37.65,0,0,1,30.54-43.61L835,38.83a37.65,37.65,0,0,1,43.62,30.54Z" transform="translate(-38.55 -38.25)"/><polygon class="b" points="694.81 98.52 612.59 253.63 621.76 305.6 731.03 286.33 738.51 328.75 800.24 317.86 792.76 275.45 824.42 269.87 815.26 217.9 783.6 223.48 759.49 86.73 694.81 98.52"/><rect class="c" x="345.23" y="201.13" width="63.62" height="234.62" transform="translate(-88.12 32.07) rotate(-10)"/><path class="c" d="M567.67,256.81l-30.24,55.12,51.06-9,5.39,30.55C584.32,342.83,573,348.57,559.2,351c-17.65,3.11-33.08-.17-47.18-10s-22.49-23.36-25.63-41.21c-3.09-17.54,0-33,9.58-47.27,9.42-14.11,22.34-22.44,39.49-25.47,14.78-2.61,27.92-.27,41.37,7.37l2.47,1.4,29.25-53.66-2.46-1.33c-24.17-13.08-51.28-17.09-80.57-11.93C490.08,175.1,462.47,192,443.44,219s-25.67,57.94-19.71,91.78,22.82,60.61,50.08,79.49,59.09,25.25,94.73,19c20.4-3.6,38.58-11,54-22s27.61-24.55,35.92-40.07l1.8-3.35L642.63,243.6Z" transform="translate(-38.55 -38.25)"/><path class="c" d="M320.16,336a60.13,60.13,0,0,0-19.34-10l-1.61-.48A61.38,61.38,0,0,0,308.84,313c6.27-10.89,8.19-23.53,5.71-37.58-2.34-13.28-7-23.79-14-31.24a57.39,57.39,0,0,0-24.44-15.61,85.09,85.09,0,0,0-29.31-3.86,211.29,211.29,0,0,0-29.29,3L130,243.15l40.8,231.41,95.29-16.8a146.78,146.78,0,0,0,29.52-8.52,91.15,91.15,0,0,0,26.3-16,66.52,66.52,0,0,0,17.55-24.73c4.06-9.87,5-21.39,2.69-34.25a66.14,66.14,0,0,0-7.71-21.54A57,57,0,0,0,320.16,336m-58,66.26L224.38,409l-7-39.69,37.74-6.66a20.15,20.15,0,0,1,7,39.69m-7.84-107.78A17.72,17.72,0,0,1,239.92,315l-31,5.47-6.15-34.86,31-5.47a17.72,17.72,0,0,1,20.51,14.35" transform="translate(-38.55 -38.25)"/><path class="d" d="M786.2,284.77c1.08,2.26-.81,3.65.32,5.63-.7,1.32-2.83.77-3.18,2.58-3.81,1.49-2.63-3.31-5.59-3.87,0-1.62-2.37-3.5-.23-4.58,2.29.71,3.87-.38,5.6-1.1,1-1.24,3.08-.12,3.07,1.35m-23.65-77.29c.14,2.19,1.86,3.48,2.35,5.43,1.28-1.05,2.93-.13,4.18.73.64,1.24-.4,3.17.79,4.49a3.51,3.51,0,0,1,3,2.42l-.7,2.82c6.62.7,8.4,8,13.33,11.28,1.15,1.27,2.59,1.7,3.29,3.36,1.44.55,3.38,1.43,4.25,2.72-.83,2.89.67,5.34,1.06,8.2.42,2.38-1.21,4.71.12,6.88-.76,4.06-4.89,6.53-4.34,10.63a5.38,5.38,0,0,0-1.23,3.73,25.69,25.69,0,0,1-7.2,7.46,2.15,2.15,0,0,1-.9,2.46c-1.49.66-1.84.09-2.79-.59L776.5,278c-1.4,1.2-3.56,2.79-5.62,1.8-1,.58-2.53.28-3.66-.16-3.45-1.15-1.94-4.8-4.06-6.85-.56.64-1.65.57-2.27.94-.23-.65.57-1.32-.31-1.74-.65.68-1.93,1.44-1.82,2.65a2.47,2.47,0,0,1-2.06-2.6c1.13-1.16,1-2.75,1.68-4.1a1.21,1.21,0,0,0-1.56.28c-.8,1.47-2.05,2.92-1.09,4.51-.93,1-2.55.86-3.74.4.89-2.7-4.35-2.61-2.47-5.78-3.93.69-8-2.25-11.37.61-1.55,5.84-11.55,2-9.84,9.6-.94,1.38-2.67,1.55-4,2.34-1-1.47-3,.1-4.21.74-1.37,1.46-1.4,3.6-3.35,4.63-2.82.87-5.91-.44-8.59.43-.16-.91-1.5-1.61-.74-2.7,2.13-1.06.28-3,.43-4.54-1.55-2.71-5.1-3.67-6.34-6.71-2.79-1.39-3.91-4.6-6.48-6.17-.78-1.34,1-1.12,1.3-1.71-3.55-1.12-.93-6-4.12-8-.45-.88-.08-2,1-1.93,2.67,1.42,1.41-2.59,3.18-3.42,4.31-2.26,7.58-5.93,11.94-8.16.93-2.34,2-4.42.5-7,.79-1.62,2.46-3,2.7-4.65,3.17-.3,2.9-4.31,4.1-6.54,1-1.11,2.61-1.28,3.95-2,2.1.27,4.25,4.12,6.31,1.18a2.26,2.26,0,0,1-.11-2.85c3-1.59-1.39-3.22,1.44-4.84.86-1.35,2.83-.09,3.68-1.46-.35-1-1.34-1.39-1-2.53,4.3.61,9-.87,13.56-1.31.92.78,2.44.25,2.85,1.66-.94,2.34-3.38,4.8-3.3,7.47,3.8.17,7,3.1,11,2.68.13.75.16,1.72,1.16,2.08,2.14.56.76-1.92,2.4-1.79.33-2.75,2.23-5.8.08-8.66-.23-1.31,1.47-3.23-.58-4.1.7-1.45-.2-3.49,1.5-4.58,2.07-1.17,2.69,1.54,3.88,2.39" transform="translate(-38.55 -38.25)"/><polygon class="c" points="142.52 493.97 148.94 492.84 153.39 518.1 186.21 512.31 181.75 487.05 188.17 485.92 198.19 542.78 191.78 543.91 187.27 518.33 154.45 524.12 158.96 549.7 152.55 550.83 142.52 493.97"/><path class="c" d="M245.33,550.37l0-.16c-2.76-15.68,6.59-31.48,23.9-34.54s31.3,8.46,34.07,24.15l0,.16c2.76,15.68-6.59,31.48-23.89,34.53s-31.31-8.46-34.07-24.14m51.33-9.05,0-.16c-2.28-12.92-13.56-21.8-26.55-19.51S249.66,536,251.94,548.87l0,.16c2.28,12.93,13.56,21.81,26.56,19.52s20.42-14.32,18.14-27.24" transform="translate(-38.55 -38.25)"/><polygon class="c" points="273.3 470.91 279.71 469.78 288.69 520.7 320.69 515.06 321.74 520.99 283.33 527.77 273.3 470.91"/><rect class="c" x="367.66" y="499.19" width="6.51" height="57.73" transform="translate(-124.61 34.18) rotate(-10)"/><path class="c" d="M385.77,496.13l19.74-3.48c17.87-3.15,32.37,6.94,35.2,22.94l0,.16c2.82,16-7.33,30.61-25.2,33.76L395.79,553Zm28.72,47.44c14.37-2.53,21.83-13.89,19.61-26.48l0-.17c-2.22-12.59-13.14-20.87-27.52-18.34l-13.33,2.35,7.93,45Z" transform="translate(-38.55 -38.25)"/><path class="c" d="M466.51,481.47l6-1.06,36,52.68-6.9,1.22-9.31-13.84-30.95,5.46-4.09,16.2-6.58,1.16Zm22.27,33.68-18-26.72-7.88,31.29Z" transform="translate(-38.55 -38.25)"/><polygon class="c" points="486.06 468.82 456.36 438.63 464.16 437.26 488.35 462.3 502.67 430.47 510.14 429.15 492.55 467.6 496.53 490.17 490.03 491.32 486.06 468.82"/><path class="c" d="M583.3,461.29l21.27-3.75c12.84-2.26,22.49,3.07,24.47,14.28l0,.17c2.16,12.26-7,20.39-19.07,22.53L596.2,497,599.73,517l-6.41,1.13Zm25.93,27.34c9.42-1.66,14.7-7.79,13.39-15.27l0-.16c-1.43-8.12-8.27-11.26-17.45-9.65l-14.38,2.54,4.41,25Z" transform="translate(-38.55 -38.25)"/><path class="c" d="M652.83,448.62l6-1.06,36,52.69-6.91,1.22-9.3-13.84-30.95,5.46-4.1,16.2L637,510.44ZM675.1,482.3l-18-26.72-7.89,31.29Z" transform="translate(-38.55 -38.25)"/><path class="c" d="M696,441.42l24.44-4.31c7-1.23,13-.1,17.17,2.84A15.91,15.91,0,0,1,744,450.37l0,.17c1.66,9.42-3.87,16.1-12.51,19.29L753.09,490l-7.87,1.39-20.4-19.18L708.58,475l3.9,22.09-6.41,1.13Zm29,24.79c8.52-1.5,13.84-7,12.55-14.28l0-.16c-1.23-7-7.34-10.26-16.51-8.65l-17.54,3.09,4.07,23.07Z" transform="translate(-38.55 -38.25)"/><polygon class="c" points="716.21 392.81 722.62 391.68 728.61 425.64 755.27 385.92 763.56 384.46 743.58 413.61 774.64 441.13 766.61 442.55 739.89 418.87 729.96 433.27 732.65 448.54 726.23 449.67 716.21 392.81"/><path class="c" d="M817.19,470.14l3.13-5.41c6.89,4.31,13,6,20.92,4.6,7.64-1.35,12-6.29,11-11.91l0-.15c-.93-5.28-4.31-7.79-16.69-8.19-13.58-.55-20.33-3.72-22-13l0-.17c-1.57-8.92,5.14-16.89,15.95-18.8a30.12,30.12,0,0,1,21.21,3.46l-2.86,5.61c-6-3.37-11.65-4.3-17.5-3.27-7.4,1.3-11.39,6.19-10.49,11.3l0,.17c.95,5.37,4.4,7.85,17.38,8.33,13.16.52,19.82,4.12,21.36,12.82l0,.15c1.72,9.75-5.29,17.52-16.59,19.51-9,1.59-16.93-.12-24.82-5" transform="translate(-38.55 -38.25)"/><path class="e" d="M812.65,125l1.66,9.75-1.86.32-1.66-9.75-3.52.6-.26-1.5,8.9-1.52.25,1.5Zm18,7-1.6-9.39H829l-2.08,10-1.18.2-5.29-8.76h-.06l1.6,9.39-1.86.32-1.92-11.24,2.87-.49,4.81,8,1.84-9.11,2.84-.48,1.92,11.24Z" transform="translate(-38.55 -38.25)"/></svg>