<svg id="Layer_1" data-name="Layer 1" xmlns="http://www.w3.org/2000/svg" viewBox="0 0 367.91 403.12"><defs><style>.cls-1{fill:#fff;}.cls-2{fill:#e4eec1;}.cls-3{fill:none;stroke:#fff;stroke-miterlimit:10;stroke-width:0.99px;}.cls-4{fill:#fdd1b0;}.cls-5{fill:#abe1fa;}.cls-6{fill:#b3d235;}.cls-7{fill:#f47920;}.cls-8{fill:#00aeef;}.cls-9{fill:#005baa;}</style></defs><title>logo_alt</title><path class="cls-1" d="M177.92,291.82A145.91,145.91,0,1,0,32,145.91,145.91,145.91,0,0,0,177.92,291.82"/><path class="cls-2" d="M205.86,31.67C171.56,61.93,162.73,99,162.65,99.33c-7.49,32.13.19,53.86,9.38,67.36,16.17-14.38,35-37,43.59-69.2.11-.38,9.8-37.48-9.76-65.82"/><path class="cls-3" d="M205.84,31.71C171.58,62,162.75,99,162.67,99.33c-7.49,32.11.19,53.83,9.37,67.32,16.16-14.38,35-37,43.56-69.16C215.71,97.11,225.4,60,205.84,31.71Z"/><path class="cls-4" d="M248.84,78.72C225.12,100,219,125.72,218.93,126c-5.07,21.72-.43,36.89,6.33,47.08,15-13.51,25.15-29.75,30.13-48.35.07-.26,6.8-26-6.55-46"/><path class="cls-5" d="M138.94,82.83c-23.58,21.17-29.68,46.73-29.74,47-5,21.58-.43,36.68,6.29,46.8,14.93-13.43,25-29.57,29.94-48.06.08-.27,6.76-25.89-6.5-45.74"/><polygon class="cls-6" points="218.88 59.62 206.93 35.31 170.81 160.36 204.73 121.02 217.03 83.51 218.88 59.62"/><polygon class="cls-7" points="246.27 80.52 225.88 163.75 238.22 155.21 243.91 149.64 253.42 132.75 257.21 104.56 253.61 89.81 246.27 80.52"/><path class="cls-8" d="M133.71,90.41c.35,0,3.48,4,4.15,13.57.08,1.19,2.78.1,3.29,3.11.47,2.79-3.22,3.6-3.33,5.17-1,13.29-6.33,33.28-22.56,61.69l3.64.27,9.68-11.63,13.18-20.83L147,123.42s-.72-20.75-.34-21.37S140,85.55,140,85.55Z"/><path class="cls-5" d="M134.12,109.5c0,.2,0,2.6.4,2.79s3.34-.73,3.54-.79,2-2.41,2.1-2.57a10.1,10.1,0,0,0,.77-2.68,18.81,18.81,0,0,0-1.52-2.65c-.16-.2-1.83.27-2,.43s-2.15,2.58-2.3,2.73-1,2.74-1,2.74"/><path class="cls-9" d="M135.45,107.83c.31-1.25,2.19-3.23,3.41-3.27.31,0,.9,1.13,1.18,1.47a2.55,2.55,0,0,1,.06,1.68c-.31,1.22-1.56,2.7-2.76,2.74-.32,0-2.26,1-2.54.64s.52-2.74.64-3.25m-2.19,1.08a4.93,4.93,0,0,0,.43,3.72c.65.8,1.86.56,3,.52,2.16-.08,4.34-1.75,5-4.91a3.7,3.7,0,0,0-.58-3.13c-.64-.79-1.28-2.43-2.4-2.39-2.16.07-4.9,4-5.45,6.19m93,34.45.91-7.81-2.06.07-1.48,8Zm2.82,13.34,1.71-7.82-2.06.07-1.45,7.87Zm8.43-20-1.49,8,2.65-.27.9-7.81Zm-11.42,26c-.33-.75-1.79-4.26-2.11-5-1.54-2.94-2.81-6.16-4-12.75-3.36-18.22,9.89-42.46,10-42.76.63-2.6,16.08-23.94,16.87-18a22.91,22.91,0,0,1,3,7.62,48.32,48.32,0,0,1,1,9.48,85.17,85.17,0,0,1-.36,10.42c-1.71,12.63-5.6,26.33-12,37.4-2.26,3.88-8.75,11.44-12.38,13.57m11.2-6,.89-1.4,0-.21a123.34,123.34,0,0,0,7.54-13.69,111.51,111.51,0,0,0,7.52-21.06c.74-3,1.27-5.86,1.67-8.49a61.23,61.23,0,0,1-1.57,13.08,86.76,86.76,0,0,1-16,31.76m-61.71-1.95c-1.21,1.52-2.44,3-3.68,4.33l9.85-33.09,18.71-7.71c-7.54,14.2-17.41,27.2-24.89,36.47m12.23-6.48c.8-1.06,1.6-2.12,2.4-3.2a250.9,250.9,0,0,0,14-21.28c.33-.54.66-1.12,1-1.7a134.34,134.34,0,0,1-17.4,26.18m18.64-42.93a119.18,119.18,0,0,1-5.14,11.31l-18.28,5,7.16-24.06L212,88.26a115.9,115.9,0,0,1-5.46,17m5.68-17.92L191.6,93l7.22-24.24,15.34-6.31a83.49,83.49,0,0,1,0,12.45v-.06c0,.35-.07.71-.11,1.06-.43,3.44-.9,6.82-1.62,10.13-.09.44-.21.87-.31,1.31m1.89-26-14.2,3.91L207.67,39c.91,1.54,1.75,3.09,2.49,4.66a61.47,61.47,0,0,1,2.19,7.13,74.9,74.9,0,0,1,1.71,10.49M203,40.63l-7.18,25-9.71-5.52c2.4-2.76,4.77-5.23,6.39-7.07,2.68-3,5.56-6.14,8.34-9.59q1-1.3,2.06-2.67l.09-.13M185,61.34l9.78,7.78L187.7,93.91l-16.19-9.2c2-4.83,4.11-9.17,5.91-12.84,1.27-1.87,2.61-3.77,3.94-5.64l2-2.73c.33-.45.65-.89,1-1.25Zm1.3,37.28-6.89,24-.52.14-15.61-8.87c.23-1.78.49-3.54.81-5.28.66-3.67,1.52-7.31,2.48-10.73.45-1.58,1.07-3.25,1.65-4.9s1.21-3.25,1.83-4.81c.27-.69.56-1.34.83-2ZM163.2,115l15,12.15L170,155.47c-.69-1.29-1.37-2.63-2.06-4.12a60.85,60.85,0,0,1-5.1-20.32,82.58,82.58,0,0,1,.35-16M130.52,184a8.71,8.71,0,0,1-2.27-.34,6.27,6.27,0,0,1-.64-.25l-.06,0c.27.11.54.22.82.3a8.68,8.68,0,0,0,2.14.32M117,172.2c-3.26,1.68-9-18.94-7.15-34.17.44-2.29,1-4.57,1.6-6.8a154.14,154.14,0,0,1,5.92-16.78,94.6,94.6,0,0,1,18.78-25.28c.79-.76,1.49-1.57,2.18-1.39,1,.26,1.09.93,1.45,1.7,8.64,18.37,4.42,39,4.35,39.19-4.47,16.75-23.21,44.67-27.13,43.54m27.64-82.83c-1.09-2.2-2.49-4.07-3.92-6.47s-2.81.1-2.81.1c-.33.28-.64.57-1,.85,1.05-1.26,2.18-2.58,3.52-4.1l2.25-2.54.28-.32.18-.23a2,2,0,0,0-.39.22l-.06,0,0,0-.13.13-.55.58-1.09,1.18c-1.44,1.59-2.81,3.22-4.12,4.86l-.68.88q-1.22,1.08-2.36,2.18c.44-.55.88-1.1,1.33-1.64l1.82-2.79a15,15,0,0,1,1.58-1.74s.12,0,.27-.15,0,.07,0,.11l.37-.46.64-.59.15-.38.77-.94,1.59-1.87a.13.13,0,0,0,0-.1l.32-.17a4,4,0,0,1,.89-.27c.09,0,.17-.11.26,0a1.8,1.8,0,0,1,.17.5,6.57,6.57,0,0,1,.1.94h0c0,.05,0,.11,0,.16v.09a.63.63,0,0,0,0,.19l.07.73.12,1.5.18,3.16c.09,2,.14,4.1.17,6.33m-3.2-12.46-1,1.1.05-.13.38-.4.49-.48Zm-2,2.08-.39.61c-.54.63-1.11,1.29-1.7,2-1.77,2.13-3.6,4.56-5.12,6.68q-1.82,1.82-3.48,3.66c2.38-3.33,4.7-6.24,7-8.86,1.25-1.45,2.49-2.79,3.73-4.09m126.23,93.49c-.89-3-3-5.25-4.78-5.18a2.2,2.2,0,0,0-1.16.39,10.14,10.14,0,0,0-2.33,3.19c-1.66,2.87-3.47,7.25-7.91,8.64l-.95.29,0-.11c-.83.27-14.91,1.76-16.29-9.95-.07-.57-.74-1.7.33-2.73a91.91,91.91,0,0,0,24.7-42.23,51.61,51.61,0,0,0-6.07-42.63l-3.42-7.45-1.46-2.42c-1.33-1.57-2.17,0-2.17,0-1.22,1.83-1.81,2.77-3.12,4.53l-1,1.27-1,1.15-1.81,1.93a58.48,58.48,0,0,0-7.46,10.05,95.25,95.25,0,0,0-5.85,11.45c-.2.46-.4.91-.61,1.35s-.41.76-.72,1.45l-1.14,2.84-2.17,5.45c-1.39,3.55-2.6,6.92-3.54,10a58.36,58.36,0,0,0-1.91,8.35c-.2,1.39-.52,5.53-.53,6.22a18.59,18.59,0,0,0,.06,2.15c.24,2.54,2.55,18.29,6.62,24.87a2.77,2.77,0,0,1,0,2.89c-2.07,2.63-7.64,8.44-20.12,14.64-7.84,3.9-16.13-7.66-22.55-14.57-2.45-2.63-.23-4.55-.23-4.55,16-14.17,33-34.49,41.45-66.21a95,95,0,0,0,1.34-37.45c-.12-.82-.22-1.64-.37-2.46a83.77,83.77,0,0,0-3-13.57,47.36,47.36,0,0,0-4.19-9.74,52.63,52.63,0,0,0-4-5.92c-.71-.92-1.4-1.82-2.14-2.74l-.55-.69c-.11-.18-.14-.08-.2,0l-.15.11a1.88,1.88,0,0,1-.8.23c-.84,2.48-1.77,5-2.71,7.1a24.47,24.47,0,0,1-1.62,2.78l-.75,1.08v0a143.9,143.9,0,0,0-15.2,16.84c-1.28,1.38-2.55,2.78-3.75,4.23a84.72,84.72,0,0,0-5.15,7.29q-2.37,3.67-4.45,7.37a129.6,129.6,0,0,0-7.09,14.78c-1.14,2.78-2.18,5.54-3.15,8.42s-1.59,5.78-2.22,8.71a99.74,99.74,0,0,0-2.2,17.67c-.4,11.81,1.72,23.78,7,34.15q1,1.94,2.11,3.79c.77,1.23,3.22,3.09,1.58,4.56-3.32,3.16-17.41,17.5-34.5,19.9a8.91,8.91,0,0,1-3.62-.25,6.58,6.58,0,0,1-1.37-.53l-.59-.34a48.15,48.15,0,0,1-5.1-4.71c-2.15-3.33,2.95-8.51,2.95-8.51l-.46.28A94.25,94.25,0,0,0,148,128.6c.23-.87,4.67-17.78-1.36-34.46,0-.37,0-.73,0-1.11,0-.6,0-1.23,0-1.84,0,.53,0,1.06,0,1.6l0-1c0-.36-.06-.66-.08-.95,0-2.33,0-4.68,0-6.93,0-1.48-.11-2.9-.19-4.23s-.24-2.77-.24-3.17a12,12,0,0,0-.45-4.83c-.29-.86-.38-1.15-.14-1.08a2.9,2.9,0,0,1,1,1.39,15.62,15.62,0,0,1,1,2.85c.26,1,.43,1.87.57,2.62,0-.87-.05-1.53-.14-2.42a25.41,25.41,0,0,0-.43-2.81,13.17,13.17,0,0,0-1.06-3.18,4.64,4.64,0,0,0-1.09-1.46c-.06,0-.12-.16-.18-.09l-.16.14-.34.27-.68.57a73.62,73.62,0,0,0-5.57,5.39c-1.95,2.07-3.9,4.33-5.84,6.75a148.34,148.34,0,0,0-11.26,16.27c-7.09,11.81-13.08,25.34-16,38.42-1.07,5.11-.91,8.62-1.12,13.79a55.32,55.32,0,0,0-.14,7.33,43.8,43.8,0,0,0,1.82,8.72,47.62,47.62,0,0,0,2.59,6.33c.68,1.48.45,4.67,0,5.19,0,0-27.17,34-40.55,11,0,0-.52-1.82-1.15-1.33s4.59,16.92,22.5,10.31c14-5.18,15.13-7.68,21-13.85,0,0,3.15-4.47,5.07-1.83,8.95,13.38,17.5,11,17.69,11l.36.12s4.89-1,1.79-.45a150.39,150.39,0,0,0,34.35-21.09c.53-.42,1.34-1.47,2.23-.28.13.17-.85,1.79.39.57a69.83,69.83,0,0,0,10.82,12c6.31,5.85,7.24,5.82,10.2,6.86a7.18,7.18,0,0,0,5.93,0l.38-.15a71.28,71.28,0,0,0,7.24-3.47,25.71,25.71,0,0,0,5.73-3.32c1.15-.71,2.35-1.5,3.59-2.34a7.67,7.67,0,0,0,.94-.6l.22-.19c2-1.42,4.49-2.68,6.37-4.76.53-.58,1.08-.81,1.63-.06,8.93,12.18,15.76,12.53,19.18,12,8.14-.27,13.12-3.72,19.26-7.48,3.08-1.89,2.18-5.82,1.83-7"/><path class="cls-9" d="M176.55,213.61c-4,3.08-7.75,9.07-9.23,14.63a16.57,16.57,0,0,0-.42,2.59,14.08,14.08,0,0,0,.22,4.73,12.19,12.19,0,0,0,2.42,4.74,9.5,9.5,0,0,0,1.67,1.32,7.39,7.39,0,0,0,4,1.83,17.62,17.62,0,0,0,4.78-.53,3.81,3.81,0,0,0,2.35-1,23.72,23.72,0,0,1,2.35-1.29,28.67,28.67,0,0,0,3.46-2.5c-1,2-2.18,4.29-1.94,6.6.11,1,.73,2.69,2,2.67,1,0,1-1.19,1.16-2a13.68,13.68,0,0,1,1.81-4,47.77,47.77,0,0,1,2.62-4.21,16.15,16.15,0,0,1,1.67-2.31,1.2,1.2,0,0,1,1-.41,13.88,13.88,0,0,1,1.88-.3c.71,0-.75-.05,0,0s1-1.12.79-1.66a4.27,4.27,0,0,0-2.81-2.13,7.84,7.84,0,0,0-3.32-.15c-1.17.27-2.39.13-3.57.35-.68.12-1.37.27-2,.44a6.92,6.92,0,0,1-1.91.48c-.66-.05-1.53-1.15-1.79.11a3.81,3.81,0,0,0,.66,2.8,2.39,2.39,0,0,0,2.23,1.38,17.86,17.86,0,0,1-2.95,1.23,8.92,8.92,0,0,1-2.75.65c-2.1-.07-4.36.06-6.32-.86-1.76-.83-2.08-2.6-1.57-4.36a35.27,35.27,0,0,1,2.86-6.28c.25-.75,1-1.23,1.12-2a4.49,4.49,0,0,1,1.34-2.08c1.41-1.52,2.73-3.13,4.21-4.59a11.82,11.82,0,0,1,4.9-3.14c.72-.2,1.65-.69,1.68.33,0,.45,0,1.4.31,1.73a4,4,0,0,1,.35,1.19c0,.59.68.69,1.11.87,1,.44,2.38.46,2.64-1a7.57,7.57,0,0,0,.18-3.29,6.32,6.32,0,0,0-2.15-3.32c-1.14-.94-1.54-.76-3.6-1.28s-7.41.87-11.36,4"/><path class="cls-9" d="M164.15,215.22c0-1.11.16,4.07,0,0a11.14,11.14,0,0,1,0-3c.15-.66.32-1.17-.35-1.6a3.6,3.6,0,0,0-1.67-.46,4.33,4.33,0,0,0-2.38.43c-.54.3-1,1.1-1.66,1.07,0,0-.57,3.67-.64,4a26.77,26.77,0,0,0-.31,3.39,4.69,4.69,0,0,1-.06,1.16c-.09.27-.34.26-.43.58-.16,3.29-.48,6.51-.86,9.78-.36,3.1-1.71,6.16-1.6,9.29a2.45,2.45,0,0,1-.15,1.92,10.44,10.44,0,0,0-.35,2c-.17,1.13.76,2.16,1.86,1.56,2.8-1.52,4-4.42,5.05-7.26a60.73,60.73,0,0,0,3.14-11.24,58.33,58.33,0,0,0,.45-11.67"/><path class="cls-9" d="M140.38,222.14a23.66,23.66,0,0,1-4.8,3.33,6.1,6.1,0,0,1-2.27.4c-1.2.17-2.38.49-3.56.75.4-1.08,1-2.08,1.32-3.18s.7-2.46,1-3.69c.22-.79.25-2.45,1.29-2.47A20.05,20.05,0,0,0,137,217c1.34.46,5.57-.72,5.58,1.76,0,1.59-1.46,2.43-2.28,3.56.12-.17.39-.25.5-.44a2.08,2.08,0,0,1-.38.31c-.66.64,1.09-.93,0,0m-3.86,26.35c.83-.34,4.76-1.91,5.53-2.41,1.29-.85,2.36-2.09,3.65-3a18.5,18.5,0,0,0,4.06-3.58c1.64-2.1,1.83-4.54,1.56-7.11a1.58,1.58,0,0,0,.11.42,3.45,3.45,0,0,1-.1-.42c-.71-1.64.26,1,0,0-.71-1.64-1.35-3.14-3-4-.33-.74-1.68-1.15-2.36-1.51a16.84,16.84,0,0,0-4.57-1.21,4,4,0,0,1,1.23-.92c.46-.16.64-.49,1-.76.49-.07,1.37-1.55,1.58-2,.92-1.9,1.57-3.67,0-5.58-.8-1-.55-1-2-1.63-2-.87-3.4-2-5.94-2-.74.09-1.47-.13-2.21-.11a9.26,9.26,0,0,1-2.38.12,18.63,18.63,0,0,0-2.08.28,17.48,17.48,0,0,0-2.72.45,24.27,24.27,0,0,0-5,1.68c-.54.25-.93.75-1.49.94s-.84.45-.31,1a5.42,5.42,0,0,0,2.22,1.5c.93.29,1.63-.15,2.5-.39a5.77,5.77,0,0,0,2.17-.44,44.56,44.56,0,0,0-5.1,11.25,2.73,2.73,0,0,0-1.34.72,1.19,1.19,0,0,0-.2,1.78,2.28,2.28,0,0,1,.54,1.74,20.57,20.57,0,0,0-.2,2.79c0,1.83-.33,5.68,2,6.41,1.75.56,2.83-2,1.27-2.22a27.82,27.82,0,0,1,.66-4.41c1-3,2.39-3.11,5.08-4.12,1.74-.66,3.86-2,5.72-2.1,3.08-.17,6.56-.73,9.18,1.33,1.3,1,1,2.7.4,4-1.09,2.39-3.15,3.28-5,5a12.3,12.3,0,0,1-3.79,2.25c-2.71,1.13-5.14,2.79-8,3.56-1,.27-6.3,1.79-6.34-.32-.75-1.86-1.65-1.2-2.3.79s2,3.48,3.9,3.52c1.08,0,2.08-.38,3.19-.28a10.4,10.4,0,0,0,3.5.07Z"/><path class="cls-9" d="M209.79,231.39l-.11.11a27.9,27.9,0,0,0,4.11-4.59c1-1.58,1.6-2.93,3-3.9.29-.2,1.16-1.59,1.52-2a9.17,9.17,0,0,1,1.63-1.83c1.37-1,2.84-1.77,3.74-3.23a21.27,21.27,0,0,1-1.37,5.34,44.08,44.08,0,0,0-1.38,4.23c-.5,1.66-.47,2.09-1.09,3.72-.85,2.22-2.17,2.56-4.36,3s-5,1.89-7.12,1.32a8.21,8.21,0,0,1,1.49-2.29l-.08.09m20.72-1.07a6.29,6.29,0,0,0-2.12-.31,4.54,4.54,0,0,1-2.21-.15,3.14,3.14,0,0,0,.49-1.86,8.63,8.63,0,0,0,1-2.54c.21-.88.46-1.76.74-2.62.2-.63.56-2,.69-2.68s.16-.28.3-.5.1-.61.21-.93c.32-1,.83-1.86,1.24-2.78a28.46,28.46,0,0,0,1.18-3c.35-1.11,0-1.43-.69-2.27a10.7,10.7,0,0,0-1.71-1.12,3.78,3.78,0,0,0-2.07-.42c-.89,0-1.8-.36-2.68-.12a4.23,4.23,0,0,0-1.85,1.55c-1.43,1.61-2.86,3.21-4.27,4.84a27.61,27.61,0,0,1-2.16,2.15c-.67.62-1.83,1.34-2.21,2.19,0,.55-.67,1.07-1,1.42-.52.49-1,1-1.47,1.56-1.27,1.36-2.46,2.79-3.74,4.14-1.12,1.18-3,2.39-3.58,3.94a15,15,0,0,1-1.1,1.72c-.56,1-1.13,1.93-1.68,2.9-1.21.69-2.69,1.57-3,3-.22,1.05,0,2.67,1.08,3.21.53.26.79,0,1.27,0a5.1,5.1,0,0,1,1.12.44c1.41.49,2.39-.43,3.61-1a21.71,21.71,0,0,1,4.52-1.79c.82-.17,1.66-.31,2.46-.52a17,17,0,0,0,2.81-1.24l2.1-.65a3.58,3.58,0,0,1-.25,2.2,5.74,5.74,0,0,0-.58,3.57,12.38,12.38,0,0,0-.23,3.51,10,10,0,0,0,.41,3.6,5.26,5.26,0,0,0,1.45,2.43c.8.58,1.9.25,2.72.79,0-.54.33-.51.75-.36-.06-1-.19-2-.17-3a5.71,5.71,0,0,0-.37-2.18c-.47-1.37.15-3,.46-4.32a21.23,21.23,0,0,1,1.72-5.2c.52-1,.59-2.22,1.42-3q1.42-.34,2.75-.62c.72-.15,1.52-.29,2.27-.43s2.07-1.12,2.77-1c-.74-.86-1.27-2-2.35-2.46.19.08.39.15.58.23a3.51,3.51,0,0,0-.56-.23l.17,0-.22-.1"/><path class="cls-1" d="M25.49,403.12a38.7,38.7,0,0,1-6.24-.43,19.09,19.09,0,0,1-7.76-2.77,30.1,30.1,0,0,1-6.85-7.14,23.89,23.89,0,0,1-4.38-11.5,38.08,38.08,0,0,1,1-13.89,45.35,45.35,0,0,1,5.3-12.8c2.42-3.91,5.57-8.53,9.35-13.71S25,330.37,32,324.75s12.51-10,16.07-12.59,7.21-5.08,10.95-7.36a14,14,0,0,1,6.73-2.38,5.71,5.71,0,0,1,1.39.15A8.57,8.57,0,0,1,72,305.4a4.39,4.39,0,0,1-2,6.54c-2,.56-4.5,1.36-7.39,2.36a44.08,44.08,0,0,0-9.92,5.21c-3.47,2.35-7.91,5.79-13.21,10.25a185.63,185.63,0,0,0-16,15.27c-5.46,5.84-9.29,11.82-11.38,17.78s-3.18,10-3.37,12.59a24.13,24.13,0,0,0,1,8.32,15,15,0,0,0,4.48,7.48,17.56,17.56,0,0,0,7.44,3.75,25.66,25.66,0,0,0,6.44.75c.78,0,1.58,0,2.38-.12q4.21-.39,10.73-1c4.46-.43,5.4-.67,12.62-2.72,6.61-1.88,9.71-6.94,12.21-11,1.07-1.75,2.08-3.38,2.93-3.91a1.88,1.88,0,0,1,1-.31c1.67,0,4.16,2.56,5.21,6.41.38,1.4,1.35,6.13-2.21,8.18-9.13,5.26-26,8.75-29.28,9.4-5,1-9.73,1.88-13.55,2.27-1.56.16-3.09.25-4.56.26"/><path class="cls-1" d="M72.84,345a11,11,0,0,1,4.35-.21,7.9,7.9,0,0,1,3.8,1.43,10.58,10.58,0,0,1,2.75,4.37q1.32,3.26-1.13,4.4a3.7,3.7,0,0,1-4.44-.73,3.32,3.32,0,0,0-4.14-.74q-2.14,1.14-4.24,2.32a38.16,38.16,0,0,0-5.18,3.7,47.48,47.48,0,0,0-6.32,6.42q-3.24,3.9-3.57,5t1.67-.32l6.16-4.23A77.87,77.87,0,0,1,73,360.55q6.3-3,8-2.35a6.28,6.28,0,0,1,2.9,2.34,7.26,7.26,0,0,1,1.4,3,2.57,2.57,0,0,1-.37,2,11.66,11.66,0,0,0-1.26,3.33,8,8,0,0,0,.17,5,6.47,6.47,0,0,0,2.22,3.3,4.93,4.93,0,0,0,3.67.48c1.55-.27,4.07-.3,6.73-7.1,1.12-2.87-.38,1.57,1.19,5.19,1.38,3.19-3.93,5.06-6.36,6a19.55,19.55,0,0,1-5.3.93,10.43,10.43,0,0,1-3.15-.75,11.53,11.53,0,0,1-3.68-2.24,11,11,0,0,1-2.74-3.77q-1-2.23-1.36-3.3a6.5,6.5,0,0,0-1.61-2.35,2.57,2.57,0,0,0-3.06-.53,37.63,37.63,0,0,0-6.29,4.06,76.38,76.38,0,0,1-8.39,5.45,32.84,32.84,0,0,1-7,3,9.88,9.88,0,0,1-4,.6,4.23,4.23,0,0,1-2-1.92,8,8,0,0,1-1.28-3.65,9.28,9.28,0,0,1,.52-4q.71-2,5.44-8.14a73.63,73.63,0,0,1,9.13-10,52,52,0,0,1,9.37-6.67A46.41,46.41,0,0,1,72.84,345"/><path class="cls-1" d="M119,323.32c1.53.67,2.35,1.56,2.48,2.64s-6.08,11.62-10.05,21.6c-2.91,9.17-3.18,6.43-5.37,15.14s-2.94,13.62-2.24,14.7,1.51,2.81,3.28,2.34,6.78.19,16.63-13.95c4.9-7,9-2.61,10.69-4s-.62-.37-3.16,3.21c-3,4.23-6.59,6.23-8.5,8s-3.8,3.67-5.67,5.73a27.19,27.19,0,0,1-6.88,5.35,18,18,0,0,1-7.12,2.52,6.44,6.44,0,0,1-5.05-1.71c-1-1.08-3-3.17-3-5.51a27.25,27.25,0,0,1,.53-6.66,131,131,0,0,1,5.41-20c1.29-3.57,2.9-7.34,3.84-9.51,2.62-6.21,1.51-3.9,6.88-13.32,3.28-5.49,5.8-7.21,7.32-6.54"/><path class="cls-1" d="M138.33,361.87q-1.91-2.3-4.72,1.33a15.78,15.78,0,0,0-3.33,7.69q-.53,4.06.48,5.68a3.7,3.7,0,0,0,2.08,1.87q1.08.25,3-1.45t3.16-7.3q1.19-5.61-.72-7.83m-4.42-13.48a7.7,7.7,0,0,1,4-2,6.71,6.71,0,0,1,3.92.22,5,5,0,0,1,2.62,2,7.65,7.65,0,0,0,6.06,3.15c2.87-.08,5.8-1.21,10.07-1.16s3.28,1.24-2.8,1.47-8.47,3.28-9.81,5a6.93,6.93,0,0,0-1.2,4.26c.16,1.72,0,.36.15,2.28a21.75,21.75,0,0,1,.08,3.16,26.13,26.13,0,0,1-.47,5.25,21.28,21.28,0,0,1-1.26,3.63,19.49,19.49,0,0,1-2.51,4,21.61,21.61,0,0,1-4.1,4,24.27,24.27,0,0,1-4.5,2.75,6,6,0,0,1-4.48.12,8.65,8.65,0,0,1-3.94-2.55,16.71,16.71,0,0,1-2.44-3.64q-.92-1.89-.83-6.62a28.87,28.87,0,0,1,1-7.63,28.05,28.05,0,0,1,2.75-6.05c1.24-2.11,1.94-4.68,3.64-6.87a47.45,47.45,0,0,1,4.09-4.77"/><path class="cls-1" d="M187.83,351a4.87,4.87,0,0,1,3.14-.71,2.47,2.47,0,0,1,1.86,1.23q.52,1-1,7.5a94.8,94.8,0,0,0-2,11.08q-.48,4.57.92,6.41c.93,1.23,1.77,1.66,4,1.23,4.06-.78,3.18-10.26,5.8-13s5.21,5.57,3.19,8-3.89,4.67-5.62,6.63a13.55,13.55,0,0,1-4.57,3.74,8.67,8.67,0,0,1-4.61.38,7.57,7.57,0,0,1-4.28-2,11.84,11.84,0,0,1-2.62-3.89,9.07,9.07,0,0,1-.22-5.59,42.65,42.65,0,0,0,.94-5.73q.19-2.41-1.93.27a74.63,74.63,0,0,1-5.24,5.86A46.58,46.58,0,0,1,169,378a25.51,25.51,0,0,1-5.53,3.15,23,23,0,0,1-4,1,5.49,5.49,0,0,1-3.75-.7,4.57,4.57,0,0,1-2.18-3.21q-.45-2.19.8-6.55t4.25-11.88q3-7.52-1.83-8c-3.22-.32-10.51,5.91-12.13,4.86s-4.28-11-1.31-8.61c6.58,5.24,15.14,1.72,16.51.1a7.11,7.11,0,0,1,4-2.38,5.94,5.94,0,0,1,3.45.47c1.06.39,1.43,1.83,1.76,2.83a6,6,0,0,1-.14,3.58q-.63,2.07-4.3,10.88t-.15,7.75q3.52-1.06,12.57-10.27T187.83,351"/><path class="cls-1" d="M208.7,345.07q1.8-.87,4.61.3t1.24,4.46q-1.56,3.29-5.11,10.85t-.7,4.14a63.48,63.48,0,0,1,6.92-7,45,45,0,0,1,5.86-4.61,15,15,0,0,1,3.9-1.59,9.27,9.27,0,0,1,4.78.22q2.67.76,4.6,4.31t2.13,11.78q.2,8.22,4.12,8c2.61-.14,4.89-.75,8.12-11,.92-2.91,3.74,4.37,4.93,2.49s1.7-2.38,1.54-1.52a11.93,11.93,0,0,1-1.95,3.8,58.5,58.5,0,0,1-7.25,7.81q-5.55,5.3-9.64,5.42a6.11,6.11,0,0,1-6-3.22q-1.88-3.34-2.5-10.7t-2-7.47q-1.38-.12-6,2.81a35.57,35.57,0,0,0-8.46,7.61q-3.83,4.68-6.26,7.93t-4.4,4a2.59,2.59,0,0,1-3.24-1,5.49,5.49,0,0,1-.9-4.21q.37-2.5,1.44-7.67a85.41,85.41,0,0,1,3.09-10.92c1.35-3.83,2.43-9.8,3-10.66s1.06-1.66,1.57-2.38a6.58,6.58,0,0,1,2.56-2"/><path class="cls-1" d="M268,353.51a21.68,21.68,0,0,0-5.3,4.26,21.39,21.39,0,0,0-4.76,6.46q-1.27,3-.65,4.74t5.18-3q4.56-4.78,6-7.84a13.93,13.93,0,0,0,1.43-4.23q0-1.16-1.86-.37m5.25-59.11a3,3,0,0,1,2.83-1.36,5.48,5.48,0,0,1,3.37,1.52,22.22,22.22,0,0,1,3.35,4.06q1.79,2.65,3.2,10.69a53.9,53.9,0,0,1,.56,15.41,85.24,85.24,0,0,1-1.38,9.36q-.54,2,1.71,4.2t2.14,4.11a4.06,4.06,0,0,1-1.73,3.12,3.6,3.6,0,0,1-3.18.8q-1.55-.41-3.53,4.77a69.64,69.64,0,0,1-4.86,10.16q-2.89,5-5.27,8.35a42.57,42.57,0,0,1-6.52,7.07q-4.15,3.7-6.46,4.23a7.67,7.67,0,0,1-4,0,6.32,6.32,0,0,1-3.21-2.86q-1.49-2.31-1.67-8.68a22.59,22.59,0,0,1,3.64-12.6q3.82-6.24,13.85-11c6.69-3.18,8.21-4.85,9.72-6.41s2.57-4.11,3.21-7.65a60,60,0,0,0,1-9.87,55.06,55.06,0,0,0-.68-9.17,21.32,21.32,0,0,0-4.18-9.26q-3.44-4.66-3.1-6.13a8.37,8.37,0,0,1,1.26-2.85"/><path class="cls-1" d="M289.82,353.59q3-12,5.88-11.76a5.43,5.43,0,0,1,4.37,2.54q1.48,2.31-.25,5.73t-.32,3.19a10.42,10.42,0,0,0,3.73-1.75,30,30,0,0,1,4.41-2.45,18.13,18.13,0,0,1,3.39-1.19q1.29-.27,5,.82a29.79,29.79,0,0,1,7,3.08q3.29,2,8.66.27t-1.15,1.13a31.65,31.65,0,0,1-13.36,2.74q-6.85-.11-10.58,1.73a29.5,29.5,0,0,0-6.29,4.06,19.74,19.74,0,0,0-4.71,7.27q-2.15,5.06-3.29,8.51c-.76,2.3-1.42,4.19-2,5.66a3.8,3.8,0,0,1-3.68,2.35c-1.87.1-3.11-.56-3.72-2s-.76-2.36-.45-2.79,1.15-3.07,2.51-7.9,3-11.25,5-19.25"/><path class="cls-1" d="M343.69,344.69a11,11,0,0,1,4.35-.21,7.88,7.88,0,0,1,3.8,1.43,10.65,10.65,0,0,1,2.75,4.37q1.31,3.26-1.12,4.4a3.7,3.7,0,0,1-4.44-.73,3.32,3.32,0,0,0-4.14-.74c-1.43.76-2.85,1.53-4.24,2.32a37.63,37.63,0,0,0-5.18,3.7,47.59,47.59,0,0,0-6.32,6.42q-3.24,3.9-3.58,5c-.22.72.34.62,1.68-.32l6.16-4.23a78.41,78.41,0,0,1,10.45-5.81q6.31-3,8-2.35a6.28,6.28,0,0,1,2.91,2.34,7.3,7.3,0,0,1,1.4,3,2.57,2.57,0,0,1-.37,2,11.77,11.77,0,0,0-1.26,3.33,8,8,0,0,0,.18,5,6.49,6.49,0,0,0,2.22,3.3,4.93,4.93,0,0,0,3.67.48q2.32-.41,5.69-3.58T366,375.2q-3.66,4.64-5.8,5.91a7,7,0,0,1-3.35,1.23,10.36,10.36,0,0,1-3.15-.75,11.52,11.52,0,0,1-3.68-2.25,11.07,11.07,0,0,1-2.75-3.76c-.67-1.49-1.13-2.59-1.36-3.3a6.51,6.51,0,0,0-1.62-2.35,2.57,2.57,0,0,0-3.06-.53,37.76,37.76,0,0,0-6.29,4.06,75.55,75.55,0,0,1-8.39,5.46,32.68,32.68,0,0,1-7,3q-3.09.85-4,.59a4.24,4.24,0,0,1-2-1.92,8,8,0,0,1-1.28-3.65,9.21,9.21,0,0,1,.52-4q.71-2,5.44-8.14a74,74,0,0,1,9.13-10,52,52,0,0,1,9.37-6.67,46.21,46.21,0,0,1,6.94-3.38"/></svg>