<svg id="Layer_1" data-name="Layer 1" xmlns="http://www.w3.org/2000/svg" viewBox="0 0 358.48 79"><defs><style>.cls-1{fill:#e4eec1;}.cls-2{fill:none;stroke:#fff;stroke-miterlimit:10;stroke-width:0.43px;}.cls-3{fill:#fdd1b0;}.cls-4{fill:#abe1fa;}.cls-5{fill:#b3d235;}.cls-6{fill:#f47920;}.cls-7{fill:#00aeef;}.cls-8{fill:#005baa;}</style></defs><title>logo_hor</title><path class="cls-1" d="M332.24,3a62.75,62.75,0,0,0-18.85,29.52c-3.27,14,.08,23.5,4.09,29.39a62,62,0,0,0,19-30.19c0-.17,4.28-16.35-4.26-28.72"/><path class="cls-2" d="M332.23,3a62.73,62.73,0,0,0-18.83,29.5c-3.27,14,.08,23.48,4.09,29.37a61.94,61.94,0,0,0,19-30.17C336.54,31.52,340.76,15.35,332.23,3Z"/><path class="cls-3" d="M351,23.5a44.41,44.41,0,0,0-13,20.62c-2.21,9.47-.19,16.09,2.76,20.54a43,43,0,0,0,13.15-21.09c0-.12,3-11.36-2.86-20.07"/><path class="cls-4" d="M303,25.29a44.09,44.09,0,0,0-13,20.5c-2.2,9.42-.19,16,2.75,20.42a42.73,42.73,0,0,0,13.06-21c0-.12,3-11.3-2.84-20"/><polygon class="cls-5" points="337.92 15.17 332.71 4.56 316.95 59.12 331.75 41.96 337.12 25.59 337.92 15.17"/><polygon class="cls-6" points="349.87 24.29 340.98 60.6 346.36 56.87 348.84 54.44 352.99 47.08 354.64 34.77 353.07 28.34 349.87 24.29"/><path class="cls-7" d="M300.76,28.6c.15,0,1.52,1.77,1.81,5.92,0,.52,1.21,0,1.43,1.36s-1.4,1.57-1.45,2.26c-.43,5.8-2.76,14.52-9.84,26.91l1.59.12,4.22-5.08L304.27,51l2.27-8s-.32-9.05-.15-9.32-2.89-7.2-2.89-7.2Z"/><path class="cls-4" d="M300.94,36.93c0,.09,0,1.13.18,1.22a6.9,6.9,0,0,0,1.55-.34c.09,0,.85-1.05.92-1.12a4.38,4.38,0,0,0,.34-1.17,8.16,8.16,0,0,0-.66-1.16c-.07-.09-.8.12-.88.19s-.94,1.12-1,1.19-.43,1.19-.43,1.19"/><path class="cls-8" d="M301.52,36.2c.14-.55,1-1.41,1.49-1.43.14,0,.4.49.52.64a1.11,1.11,0,0,1,0,.73c-.13.53-.68,1.18-1.2,1.2-.14,0-1,.43-1.11.28s.23-1.2.28-1.42m-1,.47a2.15,2.15,0,0,0,.19,1.62c.28.35.81.24,1.31.23a2.44,2.44,0,0,0,2.18-2.14A1.62,1.62,0,0,0,304,35c-.28-.34-.56-1.06-1-1-.94,0-2.14,1.75-2.38,2.7m40.59,15,.39-3.41-.9,0L340,51.82Zm1.23,5.82.75-3.41-.9,0-.63,3.43Zm3.68-8.74-.65,3.49,1.15-.12.39-3.41Zm-5,11.32c-.15-.32-.78-1.86-.92-2.19a18,18,0,0,1-1.76-5.56c-1.47-8,4.32-18.52,4.35-18.66.27-1.13,7-10.45,7.36-7.83a10,10,0,0,1,1.29,3.32,21.17,21.17,0,0,1,.46,4.14,37.21,37.21,0,0,1-.15,4.55,46,46,0,0,1-5.23,16.32,22.57,22.57,0,0,1-5.4,5.92M346,57.48l.39-.61v-.09a53.49,53.49,0,0,0,3.29-6,48.67,48.67,0,0,0,3.28-9.19c.32-1.31.56-2.56.73-3.7a26.84,26.84,0,0,1-.68,5.71,37.86,37.86,0,0,1-7,13.86M319,56.63c-.53.66-1.07,1.29-1.6,1.89l4.3-14.44,8.16-3.36A103.58,103.58,0,0,1,319,56.63m5.33-2.83,1-1.39a109.89,109.89,0,0,0,6.11-9.29l.43-.74a58.59,58.59,0,0,1-7.59,11.42m8.13-18.73A52,52,0,0,1,330.28,40l-8,2.2,3.12-10.5,9.47-4a50.71,50.71,0,0,1-2.38,7.41M335,27.26l-9,2.47,3.15-10.58,6.7-2.75a36.55,36.55,0,0,1,0,5.43v0c0,.15,0,.31,0,.46-.19,1.5-.39,3-.71,4.42,0,.19-.09.38-.13.57m.82-11.35-6.19,1.7L333,6.19c.39.67.76,1.35,1.09,2a26.8,26.8,0,0,1,1,3.11,33,33,0,0,1,.75,4.58m-4.82-9-3.13,10.9-4.24-2.41c1-1.2,2.08-2.28,2.79-3.08,1.17-1.32,2.42-2.68,3.64-4.19q.46-.57.9-1.16l0-.06m-7.84,9,4.27,3.39-3.11,10.82-7.06-4c.89-2.11,1.79-4,2.58-5.6.55-.82,1.14-1.64,1.72-2.46l.87-1.19c.15-.2.28-.39.42-.55Zm.57,16.26-3,10.46-.23.06-6.81-3.87c.1-.77.22-1.54.35-2.3.29-1.6.66-3.19,1.08-4.68.2-.69.47-1.42.72-2.14s.53-1.42.8-2.1c.12-.3.24-.59.36-.88Zm-10.1,7.14,6.53,5.3L316.6,57c-.3-.56-.6-1.15-.9-1.8a26.51,26.51,0,0,1-2.22-8.87,36.13,36.13,0,0,1,.15-7M299.37,69.45a3.77,3.77,0,0,1-1-.15l-.28-.11,0,0,.36.13a3.79,3.79,0,0,0,.93.14m-5.9-5.16C292,65,289.55,56,290.35,49.38c.19-1,.42-2,.7-3a67.25,67.25,0,0,1,2.58-7.32,41.27,41.27,0,0,1,8.2-11c.35-.33.65-.69.95-.61s.48.4.63.74c3.77,8,1.93,17,1.9,17.1-2,7.31-10.13,19.49-11.84,19m12.06-36.14c-.48-1-1.09-1.78-1.71-2.82s-1.23,0-1.23,0l-.42.37c.46-.55,1-1.13,1.54-1.79l1-1.11.12-.14.08-.1-.17.1,0,0h0l-.06.06-.24.25-.47.52c-.63.69-1.23,1.4-1.8,2.12l-.3.38q-.53.47-1,1l.58-.72.79-1.22a6.52,6.52,0,0,1,.69-.76s.05,0,.12-.06,0,0,0,0l.16-.2.28-.26.07-.17.34-.41.69-.82a.06.06,0,0,0,0,0l.14-.08a1.79,1.79,0,0,1,.39-.12s.07,0,.11,0a.79.79,0,0,1,.07.22,3.24,3.24,0,0,1,0,.41h0s0,0,0,.07v0a.27.27,0,0,0,0,.08l0,.32.05.66.08,1.38c0,.87.06,1.79.08,2.76m-1.4-5.44-.45.48,0-.06.17-.17.21-.21Zm-.89.9-.17.27-.74.87c-.77.93-1.57,2-2.24,2.92q-.8.79-1.52,1.6c1-1.45,2.05-2.72,3-3.87.55-.63,1.09-1.22,1.63-1.79m55.07,40.79c-.39-1.3-1.31-2.29-2.08-2.26a1,1,0,0,0-.5.17,4.42,4.42,0,0,0-1,1.39c-.72,1.25-1.52,3.16-3.45,3.77l-.41.13v0c-.36.12-6.5.77-7.1-4.34,0-.25-.32-.74.14-1.19A40.11,40.11,0,0,0,354.67,43.6,22.52,22.52,0,0,0,352,25l-1.49-3.25-.64-1.05c-.58-.68-.95,0-.95,0-.53.8-.79,1.21-1.36,2l-.44.55-.44.5-.79.84A25.42,25.42,0,0,0,342.65,29a41.6,41.6,0,0,0-2.55,5l-.27.59c-.09.21-.18.33-.31.63l-.5,1.24-.94,2.38c-.61,1.55-1.13,3-1.55,4.35a25.44,25.44,0,0,0-.83,3.64c-.09.61-.23,2.41-.23,2.71a7.9,7.9,0,0,0,0,.94c.11,1.11,1.11,8,2.89,10.85a1.21,1.21,0,0,1,0,1.26c-.9,1.14-3.33,3.68-8.78,6.39-3.42,1.7-7-3.34-9.84-6.36a1.31,1.31,0,0,1-.1-2A57.32,57.32,0,0,0,337.76,31.7a41.47,41.47,0,0,0,.59-16.34c-.05-.36-.1-.72-.16-1.07a36.49,36.49,0,0,0-1.31-5.92A20.63,20.63,0,0,0,335,4.12a22.94,22.94,0,0,0-1.74-2.58c-.31-.4-.61-.8-.93-1.19l-.24-.3c0-.08-.06,0-.08,0l-.07,0a.82.82,0,0,1-.35.1c-.37,1.08-.77,2.19-1.18,3.1a11.05,11.05,0,0,1-.71,1.21l-.33.47h0a62.69,62.69,0,0,0-6.63,7.35c-.56.6-1.11,1.21-1.64,1.85a37.14,37.14,0,0,0-2.25,3.18q-1,1.6-1.94,3.21A56.55,56.55,0,0,0,313.86,27c-.5,1.21-.95,2.42-1.38,3.67s-.7,2.52-1,3.8a43.67,43.67,0,0,0-1,7.71,30.51,30.51,0,0,0,3.07,14.9c.29.56.59,1.12.92,1.66s1.4,1.35.69,2c-1.45,1.38-7.6,7.63-15,8.68a3.88,3.88,0,0,1-1.58-.11,2.88,2.88,0,0,1-.6-.23l-.26-.15a21.06,21.06,0,0,1-2.22-2.05c-.94-1.45,1.29-3.71,1.29-3.71l-.2.12a41.12,41.12,0,0,0,10.39-18,27.54,27.54,0,0,0-.59-15c0-.16,0-.32,0-.48s0-.54,0-.8c0,.23,0,.46,0,.7v-.42c0-.16,0-.29,0-.41,0-1,0-2,0-3,0-.64,0-1.26-.08-1.84s-.1-1.21-.1-1.38a5.22,5.22,0,0,0-.2-2.1c-.13-.37-.17-.5-.06-.47a1.27,1.27,0,0,1,.45.61,6.9,6.9,0,0,1,.42,1.25c.11.45.19.81.25,1.14,0-.38,0-.67-.06-1.06a11.05,11.05,0,0,0-.19-1.23,5.81,5.81,0,0,0-.46-1.39,2,2,0,0,0-.48-.64s-.05-.07-.08,0l-.07.06-.15.12-.3.25a32,32,0,0,0-2.43,2.35c-.85.9-1.7,1.89-2.55,2.95a64.73,64.73,0,0,0-4.91,7.1,58.19,58.19,0,0,0-7,16.76,32.13,32.13,0,0,0-.49,6,24,24,0,0,0-.06,3.2,19.11,19.11,0,0,0,.79,3.8A20.77,20.77,0,0,0,289.85,64a3.39,3.39,0,0,1,0,2.27S278,81.07,272.14,71c0,0-.23-.79-.5-.58s2,7.38,9.82,4.5c6.12-2.26,6.6-3.35,9.15-6,0,0,1.38-2,2.21-.8,3.9,5.84,7.63,4.78,7.72,4.82l.16.05s2.13-.45.78-.2a65.57,65.57,0,0,0,15-9.2c.23-.18.59-.64,1-.12.06.07-.37.78.17.25A30.43,30.43,0,0,0,322.32,69c2.75,2.55,3.16,2.54,4.45,3a3.13,3.13,0,0,0,2.58,0l.16-.07a30.43,30.43,0,0,0,3.16-1.51,11.17,11.17,0,0,0,2.5-1.45c.5-.31,1-.65,1.57-1a3.46,3.46,0,0,0,.41-.26l.1-.08A14.73,14.73,0,0,0,340,65.5c.23-.25.47-.35.71,0,3.89,5.31,6.87,5.47,8.37,5.25,3.55-.12,5.73-1.62,8.41-3.26,1.34-.82,1-2.54.8-3"/><path class="cls-8" d="M33.75,28.14a17.87,17.87,0,0,0-5.54,8.78A10.14,10.14,0,0,0,28,38.48a8.47,8.47,0,0,0,.13,2.84,7.3,7.3,0,0,0,1.45,2.85,5.69,5.69,0,0,0,1,.79,4.43,4.43,0,0,0,2.38,1.1,10.53,10.53,0,0,0,2.87-.32,2.29,2.29,0,0,0,1.41-.59,14.51,14.51,0,0,1,1.41-.77,17.45,17.45,0,0,0,2.07-1.5,7.54,7.54,0,0,0-1.17,4c.06.62.44,1.62,1.19,1.6.58,0,.62-.72.7-1.18a8.25,8.25,0,0,1,1.08-2.4,28.92,28.92,0,0,1,1.58-2.53,9.72,9.72,0,0,1,1-1.39.72.72,0,0,1,.61-.25,8.41,8.41,0,0,1,1.13-.18c.43,0-.45,0,0,0s.6-.67.48-1a2.57,2.57,0,0,0-1.69-1.28,4.72,4.72,0,0,0-2-.09c-.7.16-1.44.08-2.14.21q-.62.11-1.22.26a4.2,4.2,0,0,1-1.15.29c-.39,0-.92-.69-1.07.06a2.29,2.29,0,0,0,.39,1.68,1.43,1.43,0,0,0,1.34.83,10.73,10.73,0,0,1-1.77.74,5.41,5.41,0,0,1-1.65.39,9.56,9.56,0,0,1-3.79-.52,2,2,0,0,1-.94-2.62,21.22,21.22,0,0,1,1.72-3.77c.15-.45.6-.74.67-1.23a2.7,2.7,0,0,1,.81-1.25c.85-.91,1.64-1.88,2.53-2.76a7.09,7.09,0,0,1,2.94-1.89c.43-.12,1-.42,1,.2,0,.27,0,.84.19,1a2.43,2.43,0,0,1,.21.71c0,.35.41.41.67.52.63.26,1.43.27,1.59-.58a4.53,4.53,0,0,0,.11-2,3.78,3.78,0,0,0-1.29-2c-.68-.56-.92-.46-2.16-.77s-4.45.52-6.82,2.37"/><path class="cls-8" d="M26.31,29.1c0-.66.1,2.45,0,0a6.63,6.63,0,0,1,0-1.81c.09-.4.19-.7-.21-1a2.16,2.16,0,0,0-1-.27,2.59,2.59,0,0,0-1.43.26c-.33.18-.59.66-1,.64,0,0-.35,2.2-.38,2.42a16.07,16.07,0,0,0-.19,2,2.83,2.83,0,0,1,0,.7c-.06.16-.2.16-.26.35-.1,2-.29,3.91-.52,5.87s-1,3.7-1,5.58a1.47,1.47,0,0,1-.09,1.15A6.21,6.21,0,0,0,20,46.29c-.11.68.45,1.29,1.12.93,1.68-.91,2.4-2.65,3-4.36A36.4,36.4,0,0,0,26,36.11a35.1,35.1,0,0,0,.27-7"/><path class="cls-8" d="M12,33.27a14.18,14.18,0,0,1-2.88,2,3.66,3.66,0,0,1-1.36.24c-.72.1-1.43.3-2.14.45.24-.65.59-1.25.79-1.91s.42-1.48.63-2.22c.14-.47.15-1.47.78-1.49a11.92,11.92,0,0,0,2.13-.2c.8.27,3.34-.43,3.35,1.06,0,1-.88,1.46-1.37,2.14.07-.1.23-.15.3-.26a1.31,1.31,0,0,1-.23.19c-.4.39.66-.56,0,0M9.71,49.09c.5-.2,2.86-1.15,3.32-1.45.78-.51,1.42-1.25,2.19-1.8a11.14,11.14,0,0,0,2.44-2.15,5.59,5.59,0,0,0,.93-4.27.94.94,0,0,0,.06.25,2.24,2.24,0,0,1-.06-.25c-.43-1,.16.61,0,0A4.24,4.24,0,0,0,16.77,37c-.2-.45-1-.69-1.42-.9a10.1,10.1,0,0,0-2.75-.72,2.4,2.4,0,0,1,.74-.56c.28-.09.39-.29.62-.45s.82-.93.95-1.19c.55-1.14.95-2.2,0-3.35-.48-.58-.33-.61-1.2-1-1.22-.52-2-1.22-3.57-1.18-.44.05-.88-.08-1.33-.07a5.52,5.52,0,0,1-1.43.07,11.22,11.22,0,0,0-1.25.17,10.41,10.41,0,0,0-1.63.27,14.58,14.58,0,0,0-3,1c-.33.15-.56.45-.89.57s-.5.27-.18.61a3.25,3.25,0,0,0,1.33.9c.56.18,1-.09,1.5-.23a3.47,3.47,0,0,0,1.31-.27,26.77,26.77,0,0,0-3.06,6.75,1.63,1.63,0,0,0-.8.43.71.71,0,0,0-.12,1.07,1.36,1.36,0,0,1,.33,1,12.23,12.23,0,0,0-.12,1.68c0,1.1-.2,3.41,1.18,3.85,1.05.34,1.7-1.19.76-1.34a16.75,16.75,0,0,1,.4-2.65c.57-1.79,1.43-1.87,3.05-2.48A13.38,13.38,0,0,1,9.56,37.8c1.85-.1,3.94-.43,5.51.8A1.92,1.92,0,0,1,15.31,41c-.65,1.44-1.89,2-3,3a7.37,7.37,0,0,1-2.28,1.35,40.37,40.37,0,0,1-4.8,2.14c-.59.16-3.79,1.08-3.81-.19-.45-1.12-1-.72-1.38.47s1.2,2.09,2.34,2.11c.65,0,1.25-.23,1.92-.17a6.25,6.25,0,0,0,2.1,0Z"/><path class="cls-8" d="M53.72,38.81l-.06.07a16.77,16.77,0,0,0,2.47-2.76,6.74,6.74,0,0,1,1.81-2.34c.18-.12.69-1,.92-1.21a5.56,5.56,0,0,1,1-1.1,7.16,7.16,0,0,0,2.25-1.94,12.77,12.77,0,0,1-.82,3.21,26.53,26.53,0,0,0-.83,2.54c-.3,1-.28,1.26-.65,2.23-.51,1.33-1.3,1.54-2.62,1.83s-3,1.13-4.27.79a4.93,4.93,0,0,1,.9-1.37l0,.05m12.45-.64A3.79,3.79,0,0,0,64.89,38a2.72,2.72,0,0,1-1.33-.09,1.88,1.88,0,0,0,.29-1.12,5.14,5.14,0,0,0,.61-1.53c.13-.53.28-1.06.44-1.58s.33-1.19.42-1.61.1-.17.18-.3.06-.36.13-.56c.19-.57.5-1.12.75-1.67a17,17,0,0,0,.71-1.78c.21-.67,0-.86-.41-1.36a6.45,6.45,0,0,0-1-.67,2.25,2.25,0,0,0-1.24-.25,7.06,7.06,0,0,0-1.61-.07,2.54,2.54,0,0,0-1.11.93c-.86,1-1.72,1.93-2.56,2.91a16.42,16.42,0,0,1-1.3,1.29c-.4.37-1.1.8-1.33,1.31,0,.33-.4.64-.62.85s-.59.62-.88.93c-.76.82-1.48,1.67-2.25,2.48s-1.79,1.44-2.15,2.37a9,9,0,0,1-.66,1c-.33.58-.68,1.16-1,1.74-.73.42-1.61.94-1.79,1.82A1.78,1.78,0,0,0,47.77,45c.32.16.48,0,.76,0a3.07,3.07,0,0,1,.67.26c.84.3,1.44-.26,2.17-.61a13,13,0,0,1,2.72-1.07c.49-.1,1-.18,1.48-.31a10.24,10.24,0,0,0,1.69-.75l1.26-.39a2.16,2.16,0,0,1-.15,1.32A3.44,3.44,0,0,0,58,45.6a7.45,7.45,0,0,0-.14,2.11,6.06,6.06,0,0,0,.25,2.16A3.17,3.17,0,0,0,59,51.34c.48.35,1.14.15,1.63.47,0-.32.2-.3.45-.21,0-.6-.12-1.21-.1-1.82a3.42,3.42,0,0,0-.22-1.31,4.92,4.92,0,0,1,.28-2.6,12.68,12.68,0,0,1,1-3.12c.31-.58.36-1.33.85-1.82l1.65-.37,1.36-.26c.5-.09,1.24-.67,1.66-.61-.44-.51-.76-1.18-1.41-1.48l.35.14a2.19,2.19,0,0,0-.34-.14l.1,0-.13-.06"/><path class="cls-8" d="M86.71,79a22.14,22.14,0,0,1-3.56-.25,10.92,10.92,0,0,1-4.43-1.58,17.21,17.21,0,0,1-3.91-4.08,13.66,13.66,0,0,1-2.51-6.57,21.73,21.73,0,0,1,.55-7.94,25.85,25.85,0,0,1,3-7.32c1.38-2.24,3.18-4.87,5.34-7.84a51.07,51.07,0,0,1,9.19-9.21c4.06-3.27,7.15-5.7,9.18-7.19s4.12-2.9,6.26-4.21a8,8,0,0,1,3.84-1.36,3.3,3.3,0,0,1,.8.09,4.89,4.89,0,0,1,2.79,1.62,2.12,2.12,0,0,1,.31,2.19,2.14,2.14,0,0,1-1.45,1.55c-1.15.32-2.57.78-4.22,1.35a25.16,25.16,0,0,0-5.67,3c-2,1.34-4.52,3.31-7.55,5.85a106.18,106.18,0,0,0-9.14,8.73A29.44,29.44,0,0,0,79,56a32.43,32.43,0,0,0-1.92,7.19,13.76,13.76,0,0,0,.55,4.75,8.6,8.6,0,0,0,2.56,4.27,10,10,0,0,0,4.25,2.14,14.61,14.61,0,0,0,3.68.43c.45,0,.9,0,1.36-.07l6.13-.58a30.81,30.81,0,0,0,7.21-1.55c3.78-1.07,5.55-4,7-6.29A8.13,8.13,0,0,1,111.51,64a1.08,1.08,0,0,1,.56-.18c1,0,2.38,1.46,3,3.66.22.8.77,3.5-1.26,4.68-5.22,3-14.85,5-16.73,5.37-2.84.56-5.56,1.08-7.74,1.3-.89.09-1.76.14-2.61.15"/><path class="cls-8" d="M113.76,45.77a6.29,6.29,0,0,1,2.48-.12,4.51,4.51,0,0,1,2.17.82A6,6,0,0,1,120,49q.75,1.86-.64,2.52a2.11,2.11,0,0,1-2.54-.42,1.9,1.9,0,0,0-2.37-.42q-1.22.65-2.42,1.32a21.78,21.78,0,0,0-3,2.12,27,27,0,0,0-3.61,3.67,13.52,13.52,0,0,0-2,2.85q-.19.62,1-.18L107.89,58a44.65,44.65,0,0,1,6-3.32q3.6-1.71,4.56-1.34a3.59,3.59,0,0,1,1.66,1.34,4.15,4.15,0,0,1,.8,1.69,1.46,1.46,0,0,1-.21,1.13,6.7,6.7,0,0,0-.72,1.9,4.56,4.56,0,0,0,.1,2.85,3.71,3.71,0,0,0,1.27,1.88,2.82,2.82,0,0,0,2.1.28c.88-.16,2.33-.17,3.84-4.05.64-1.64-.22.9.68,3,.79,1.82-2.25,2.89-3.64,3.43a11.22,11.22,0,0,1-3,.53,6,6,0,0,1-1.8-.43,6.59,6.59,0,0,1-2.1-1.28,6.31,6.31,0,0,1-1.57-2.15c-.39-.85-.64-1.48-.78-1.89a3.68,3.68,0,0,0-.92-1.34,1.47,1.47,0,0,0-1.75-.3,21.56,21.56,0,0,0-3.6,2.32A43.72,43.72,0,0,1,104,65.31,18.69,18.69,0,0,1,100,67a5.66,5.66,0,0,1-2.28.34,2.42,2.42,0,0,1-1.14-1.1,4.56,4.56,0,0,1-.73-2.09,5.29,5.29,0,0,1,.3-2.29,23.63,23.63,0,0,1,3.11-4.65,42.14,42.14,0,0,1,5.21-5.73,29.74,29.74,0,0,1,5.35-3.81,26.47,26.47,0,0,1,4-1.93"/><path class="cls-8" d="M139,35.69c.87.38,1.35.89,1.41,1.51s-3.48,6.64-5.74,12.34c-1.66,5.24-.67,1.39-1.92,6.37s-1.68,7.78-1.28,8.4.86,1.61,1.88,1.34,3.87.11,9.5-8c2.8-4,5.16-1.49,6.11-2.3s-.36-.21-1.8,1.84c-1.71,2.42-3.77,3.56-4.86,4.57s-2.17,2.1-3.24,3.27a15.49,15.49,0,0,1-3.93,3.06,10.28,10.28,0,0,1-4.07,1.44,3.68,3.68,0,0,1-2.89-1c-.55-.62-1.71-1.81-1.72-3.15a15.55,15.55,0,0,1,.3-3.81,75,75,0,0,1,3.09-11.44c.73-2,.52-1.91,1.05-3.15,1.5-3.55.86-2.23,3.93-7.61,1.87-3.14,3.31-4.12,4.19-3.74"/><path class="cls-8" d="M151.19,55.43q-1.09-1.32-2.7.76a9,9,0,0,0-1.91,4.39,5.29,5.29,0,0,0,.27,3.25,2.11,2.11,0,0,0,1.19,1.07c.41.09,1-.18,1.74-.83s1.35-2,1.81-4.17.32-3.63-.41-4.47m-2.53-7.7a4.39,4.39,0,0,1,2.28-1.15,3.84,3.84,0,0,1,2.24.13,2.85,2.85,0,0,1,1.5,1.16,4.37,4.37,0,0,0,3.46,1.8c1.64,0,3.31-.69,5.76-.66s1.87.71-1.6.84a6.64,6.64,0,0,0-5.61,2.86,4,4,0,0,0-.69,2.43c.09,1,0,.21.08,1.31a12.37,12.37,0,0,1,0,1.8,15,15,0,0,1-.27,3,12.23,12.23,0,0,1-.72,2.07,11.08,11.08,0,0,1-1.43,2.3,12.37,12.37,0,0,1-2.34,2.26,13.81,13.81,0,0,1-2.57,1.57,3.44,3.44,0,0,1-2.56.07A5,5,0,0,1,144,68.06,9.54,9.54,0,0,1,142.6,66a9.07,9.07,0,0,1-.48-3.79,16.47,16.47,0,0,1,.55-4.36,16.07,16.07,0,0,1,1.57-3.46,31.45,31.45,0,0,1,2.08-3.93,26.93,26.93,0,0,1,2.34-2.73"/><path class="cls-8" d="M179.47,49.23a2.78,2.78,0,0,1,1.79-.41,1.41,1.41,0,0,1,1.07.7q.3.56-.55,4.29a54.18,54.18,0,0,0-1.13,6.33q-.27,2.61.52,3.66c.53.7,1,.95,2.3.7,2.32-.44,1.82-5.87,3.31-7.42s3,3.18,1.82,4.59-2.22,2.67-3.21,3.79a7.72,7.72,0,0,1-2.61,2.14,5,5,0,0,1-2.63.22,4.33,4.33,0,0,1-2.44-1.16,6.77,6.77,0,0,1-1.5-2.23,5.19,5.19,0,0,1-.13-3.2,24.17,24.17,0,0,0,.54-3.28q.11-1.38-1.11.16a42.86,42.86,0,0,1-3,3.35,26.7,26.7,0,0,1-3.78,3.21,14.68,14.68,0,0,1-3.16,1.8,13.08,13.08,0,0,1-2.31.58,3.13,3.13,0,0,1-2.14-.4,2.62,2.62,0,0,1-1.25-1.83,8.54,8.54,0,0,1,.46-3.74q.72-2.49,2.42-6.79t-1-4.56c-1.84-.18-6,3.38-6.93,2.78s-2.45-6.28-.75-4.92c3.76,3,8.65,1,9.43.06a4.06,4.06,0,0,1,2.31-1.36,3.38,3.38,0,0,1,2,.27c.61.22.82,1,1,1.61a3.42,3.42,0,0,1-.08,2q-.36,1.18-2.45,6.22t-.08,4.43q2-.61,7.18-5.87t6.15-5.76"/><path class="cls-8" d="M191.4,45.83A3.17,3.17,0,0,1,194,46q1.6.68.71,2.55t-2.92,6.2q-2,4.32-.4,2.37a36.38,36.38,0,0,1,4-4,25.83,25.83,0,0,1,3.35-2.64,8.56,8.56,0,0,1,2.23-.91,5.32,5.32,0,0,1,2.73.12,4.58,4.58,0,0,1,2.63,2.46q1.1,2,1.21,6.73t2.35,4.58c1.49-.08,2.79-.43,4.64-6.29.53-1.67,2.14,2.5,2.82,1.42s1-1.36.88-.87a6.79,6.79,0,0,1-1.11,2.17A33.46,33.46,0,0,1,213,64.39q-3.17,3-5.51,3.1A3.49,3.49,0,0,1,204,65.65a15.83,15.83,0,0,1-1.43-6.11q-.36-4.2-1.14-4.27T198,56.87a20.35,20.35,0,0,0-4.83,4.35q-2.19,2.67-3.58,4.53A6.2,6.2,0,0,1,187.11,68a1.48,1.48,0,0,1-1.85-.57,3.12,3.12,0,0,1-.51-2.41q.21-1.43.82-4.39a48.58,48.58,0,0,1,1.76-6.24c.77-2.19,1.39-5.6,1.69-6.09s.61-1,.9-1.36a3.77,3.77,0,0,1,1.46-1.12"/><path class="cls-8" d="M225.29,50.65a12.36,12.36,0,0,0-3,2.44,12.23,12.23,0,0,0-2.72,3.69,3.88,3.88,0,0,0-.37,2.71q.35,1,3-1.72a18.2,18.2,0,0,0,3.41-4.48,7.91,7.91,0,0,0,.81-2.42c0-.44-.34-.51-1.06-.21m3-33.78a1.72,1.72,0,0,1,1.62-.78,3.13,3.13,0,0,1,1.93.87,12.71,12.71,0,0,1,1.91,2.32q1,1.52,1.83,6.11a30.81,30.81,0,0,1,.32,8.8,48.59,48.59,0,0,1-.79,5.34,2.48,2.48,0,0,0,1,2.4,3.22,3.22,0,0,1,1.22,2.35,2.32,2.32,0,0,1-1,1.78,2.06,2.06,0,0,1-1.82.46q-.89-.24-2,2.72a39.94,39.94,0,0,1-2.78,5.81q-1.65,2.84-3,4.77a24.31,24.31,0,0,1-3.73,4,10,10,0,0,1-3.69,2.42,4.38,4.38,0,0,1-2.31,0,3.62,3.62,0,0,1-1.83-1.63q-.85-1.32-1-5a12.91,12.91,0,0,1,2.08-7.2q2.18-3.56,7.91-6.29c3.82-1.82,4.69-2.77,5.55-3.66a8.36,8.36,0,0,0,1.83-4.37,34.31,34.31,0,0,0,.56-5.64,31.53,31.53,0,0,0-.39-5.24A12.2,12.2,0,0,0,229.34,22q-2-2.66-1.77-3.5a4.78,4.78,0,0,1,.72-1.63"/><path class="cls-8" d="M237.75,50.69q1.71-6.85,3.36-6.72a3.1,3.1,0,0,1,2.5,1.45,3.16,3.16,0,0,1-.14,3.27q-1,1.95-.18,1.82a5.94,5.94,0,0,0,2.13-1,17.12,17.12,0,0,1,2.52-1.4,10.37,10.37,0,0,1,1.94-.68,7.21,7.21,0,0,1,2.83.47,17,17,0,0,1,4,1.76q1.88,1.14,4.95.15t-.66.64A18.07,18.07,0,0,1,253.34,52a13.46,13.46,0,0,0-6,1,16.84,16.84,0,0,0-3.6,2.32A11.28,11.28,0,0,0,241,59.5q-1.23,2.89-1.88,4.86c-.43,1.32-.82,2.39-1.15,3.23a2.17,2.17,0,0,1-2.1,1.34,2,2,0,0,1-2.13-1.14c-.35-.82-.44-1.35-.26-1.6a32.46,32.46,0,0,0,1.44-4.51q1.17-4.14,2.83-11"/><path class="cls-8" d="M268.54,45.61a6.33,6.33,0,0,1,2.48-.12,4.51,4.51,0,0,1,2.17.82,6.09,6.09,0,0,1,1.57,2.5q.75,1.86-.64,2.51a2.11,2.11,0,0,1-2.54-.42,1.9,1.9,0,0,0-2.37-.42q-1.22.65-2.42,1.32a21.62,21.62,0,0,0-3,2.12,27.18,27.18,0,0,0-3.61,3.67,13.55,13.55,0,0,0-2,2.85q-.19.62,1-.18l3.52-2.42a44.53,44.53,0,0,1,6-3.32q3.6-1.71,4.56-1.34a3.59,3.59,0,0,1,1.66,1.34,4.18,4.18,0,0,1,.8,1.69,1.47,1.47,0,0,1-.21,1.13,6.72,6.72,0,0,0-.72,1.9,4.58,4.58,0,0,0,.1,2.85A3.7,3.7,0,0,0,276.1,64a2.82,2.82,0,0,0,2.09.28,7.15,7.15,0,0,0,3.25-2q1.93-1.81-.17.84A14.78,14.78,0,0,1,278,66.42a4,4,0,0,1-1.91.71,6,6,0,0,1-1.8-.43,6.58,6.58,0,0,1-2.1-1.28,6.33,6.33,0,0,1-1.57-2.15q-.58-1.28-.78-1.89a3.71,3.71,0,0,0-.92-1.34,1.47,1.47,0,0,0-1.75-.3A21.53,21.53,0,0,0,263.54,62a43,43,0,0,1-4.79,3.12,18.58,18.58,0,0,1-4,1.71,5.63,5.63,0,0,1-2.29.34,2.44,2.44,0,0,1-1.14-1.09,4.57,4.57,0,0,1-.73-2.09,5.29,5.29,0,0,1,.3-2.29A23.52,23.52,0,0,1,254,57.08a42.2,42.2,0,0,1,5.21-5.73,29.66,29.66,0,0,1,5.36-3.81,26.4,26.4,0,0,1,4-1.93"/></svg>