<?xml version="1.0" encoding="UTF-8"?>
<svg width="1920px" height="1080px" viewBox="0 0 1920 1080" version="1.1" xmlns="http://www.w3.org/2000/svg" xmlns:xlink="http://www.w3.org/1999/xlink">
    <!-- Generator: Sketch 51.3 (57544) - http://www.bohemiancoding.com/sketch -->
    <title>artwork0</title>
    <desc>Created with Sketch.</desc>
    <defs></defs>
    <g id="Page-1" stroke="none" stroke-width="1" fill="none" fill-rule="evenodd">
        <g id="artwork0" transform="translate(1159.619708, 99.053335) rotate(31.000000) translate(-1159.619708, -99.053335) translate(-327.880292, -1533.446665)">
            <polyline id="Shape" stroke="#FF001F" stroke-width="22.5" points="2107.00667 82.6548789 2065.69281 82.6548789 2065.69281 123.982318 2024.37896 123.982318 1983.06509 123.982318 1941.75123 123.982318 1941.75123 82.6548789 1941.75123 41.3274394 1900.43738 41.3274394 1859.12352 41.3274394 1817.80966 41.3274394 1776.49581 41.3274394 1735.18196 41.3274394 1693.8681 41.3274394 1693.8681 82.6548789 1652.55425 82.6548789 1611.24039 82.6548789 1569.92654 82.6548789 1528.61268 82.6548789 1487.29882 82.6548789 1445.98496 82.6548789 1445.98496 41.3274394 1445.98496 0 1487.29882 0 1528.61268 0 1528.61268 41.3274394 1569.92654 41.3274394 1569.92654 0 1611.24039 0 1611.24039 41.3274394 1611.24039 123.982318 1569.92654 123.982318 1528.61268 123.982318 1487.29882 123.982318 1445.98496 123.982318 1445.98496 165.309757 1404.67111 165.309757 1363.35725 165.309757 1322.04339 165.309757 1322.04339 123.982318 1363.35725 123.982318 1363.35725 82.6548789 1322.04339 41.3274394 1322.04339 0 1363.35725 0 1239.41568 41.3274394 1198.10183 0 1115.47411 0 1074.16026 0 1032.8464 0 991.532546 0 950.218691 0 991.532546 41.3274394 991.532546 82.6548789 991.532546 123.982318 950.218691 123.982318 950.218691 165.309757 908.904834 165.309757 867.590978 165.309757 826.277121 165.309757 784.963266 165.309757 743.64941 165.309757 702.335553 165.309757 661.021698 165.309757 619.707841 165.309757 578.393985 165.309757 578.393985 206.637198 537.080129 206.637198 495.766274 206.637198 454.452417 206.637198 454.452417 165.309757 495.766274 165.309757 495.766274 123.982318 537.080129 123.982318 578.393985 82.6548789 578.393985 41.3274394 578.393985 0 619.707841 0 619.707841 41.3274394 619.707841 82.6548789 619.707841 123.982318 661.021698 123.982318 661.021698 82.6548789 702.335553 82.6548789 702.335553 41.3274394 702.335553 0 661.021698 0 743.64941 0 743.64941 41.3274394 743.64941 82.6548789 743.64941 123.982318 702.335553 123.982318 702.335553 206.637198 661.021698 206.637198 619.707841 206.637198 619.707841 247.964637 619.707841 289.292075 578.393985 289.292075 578.393985 330.619516 537.080129 330.619516 495.766274 330.619516 454.452417 330.619516 413.138561 330.619516 371.824704 330.619516 330.510849 289.292075 247.883136 330.619516 247.883136 371.946955 247.883136 413.274394 206.569281 413.274394 206.569281 454.601834 123.941568 454.601834 123.941568 413.274394 123.941568 330.619516 82.6277121 330.619516 82.6277121 289.292075 82.6277121 247.964637 0 247.964637 0 206.637198 0 165.309757 0 123.982318 0 82.6548789 0 0 82.6277121 0 82.6277121 41.3274394 123.941568 41.3274394 123.941568 82.6548789 123.941568 123.982318 82.6277121 123.982318 82.6277121 165.309757 41.3138561 165.309757 123.941568 165.309757 165.255425 165.309757 206.569281 165.309757 206.569281 206.637198 247.883136 206.637198 247.883136 165.309757 247.883136 123.982318 247.883136 82.6548789 247.883136 41.3274394 206.569281 41.3274394 247.883136 0 289.196992 41.3274394 330.510849 41.3274394 330.510849 0 371.824704 0 371.824704 41.3274394 413.138561 82.6548789 454.452417 41.3274394 454.452417 0 495.766274 0 495.766274 41.3274394 371.824704 165.309757 330.510849 165.309757 330.510849 123.982318 454.452417 247.964637 454.452417 289.292075 495.766274 289.292075 495.766274 247.964637 537.080129 247.964637 619.707841 330.619516 661.021698 330.619516 702.335553 330.619516 702.335553 289.292075 743.64941 289.292075 743.64941 247.964637 743.64941 206.637198 784.963266 247.964637 784.963266 289.292075 743.64941 330.619516 743.64941 413.274394 702.335553 413.274394 661.021698 413.274394 619.707841 413.274394 619.707841 454.601834 578.393985 454.601834 578.393985 495.929273 537.080129 495.929273 495.766274 495.929273 454.452417 495.929273 454.452417 454.601834 454.452417 413.274394 495.766274 413.274394 495.766274 454.601834 537.080129 413.274394 537.080129 371.946955 413.138561 371.946955 371.824704 413.274394 330.510849 413.274394 330.510849 454.601834 289.196992 454.601834 330.510849 495.929273 330.510849 537.256712 289.196992 537.256712 247.883136 537.256712 247.883136 578.584152 206.569281 578.584152 206.569281 619.911591 206.569281 661.239032 247.883136 661.239032 247.883136 619.911591 289.196992 619.911591 289.196992 661.239032 247.883136 702.566471 247.883136 785.22135 206.569281 785.22135 165.255425 785.22135 123.941568 785.22135 123.941568 743.89391 123.941568 702.566471 123.941568 661.239032 123.941568 578.584152 82.6277121 537.256712 82.6277121 495.929273 41.3138561 495.929273 0 495.929273 0 454.601834 0 413.274394 41.3138561 454.601834 0 537.256712 0 578.584152 0 619.911591 0 661.239032 0 702.566471 0 785.22135 0 826.548789 0 867.876228 0 909.203668 41.3138561 867.876228 41.3138561 826.548789 82.6277121 826.548789 82.6277121 867.876228 82.6277121 909.203668 82.6277121 950.531107 41.3138561 950.531107 41.3138561 991.858546 41.3138561 1033.18599 0 1033.18599 41.3138561 1074.51343 41.3138561 1115.84086 41.3138561 1157.1683 41.3138561 1198.49574 0 1198.49574 0 1239.82318 41.3138561 1239.82318 41.3138561 1281.15062 41.3138561 1322.47806 41.3138561 1363.8055 0 1363.8055 41.3138561 1405.13294 41.3138561 1446.46038 41.3138561 1487.78782 41.3138561 1529.11526 0 1570.4427 0 1611.77014 0 1653.09757 41.3138561 1653.09757 82.6277121 1611.77014 82.6277121 1570.4427 123.941568 1570.4427 123.941568 1529.11526 82.6277121 1487.78782 82.6277121 1446.46038 82.6277121 1405.13294 123.941568 1405.13294 123.941568 1363.8055 123.941568 1322.47806 82.6277121 1322.47806 82.6277121 1281.15062 82.6277121 1239.82318 82.6277121 1198.49574 123.941568 1157.1683 123.941568 1115.84086 123.941568 1074.51343 82.6277121 1033.18599 82.6277121 991.858546 123.941568 950.531107 165.255425 991.858546 165.255425 1033.18599 206.569281 1033.18599 206.569281 991.858546 247.883136 991.858546 289.196992 991.858546 289.196992 950.531107 289.196992 909.203668 247.883136 909.203668 247.883136 867.876228 206.569281 867.876228 165.255425 867.876228 123.941568 867.876228 123.941568 826.548789 206.569281 826.548789 247.883136 826.548789 289.196992 826.548789 289.196992 867.876228 330.510849 909.203668 371.824704 909.203668 371.824704 867.876228 371.824704 826.548789 371.824704 785.22135 330.510849 785.22135 330.510849 743.89391 330.510849 702.566471 371.824704 702.566471 371.824704 661.239032 413.138561 661.239032 413.138561 619.911591 413.138561 578.584152 371.824704 578.584152 371.824704 537.256712 371.824704 495.929273 413.138561 537.256712 454.452417 537.256712 495.766274 537.256712 495.766274 578.584152 537.080129 578.584152 578.393985 537.256712 619.707841 537.256712 619.707841 495.929273 661.021698 454.601834 702.335553 454.601834 702.335553 495.929273 702.335553 537.256712 743.64941 537.256712 743.64941 495.929273 743.64941 454.601834 784.963266 454.601834 784.963266 413.274394 826.277121 454.601834 826.277121 495.929273 784.963266 495.929273 784.963266 537.256712 743.64941 578.584152 743.64941 619.911591 743.64941 661.239032 702.335553 661.239032 661.021698 661.239032 619.707841 661.239032 578.393985 661.239032 537.080129 661.239032 495.766274 661.239032 454.452417 661.239032 454.452417 619.911591 454.452417 702.566471 454.452417 743.89391 495.766274 743.89391 495.766274 702.566471 495.766274 785.22135 537.080129 785.22135 537.080129 826.548789 537.080129 867.876228 495.766274 867.876228 454.452417 867.876228 413.138561 867.876228 413.138561 826.548789 413.138561 909.203668 413.138561 950.531107 371.824704 950.531107 413.138561 991.858546 413.138561 1033.18599 371.824704 1033.18599 371.824704 1074.51343 371.824704 1115.84086 330.510849 1115.84086 289.196992 1115.84086 247.883136 1115.84086 206.569281 1115.84086 165.255425 1115.84086 165.255425 1157.1683 165.255425 1198.49574 165.255425 1239.82318 165.255425 1281.15062 165.255425 1322.47806 165.255425 1363.8055 165.255425 1405.13294 165.255425 1446.46038 206.569281 1363.8055 206.569281 1322.47806 247.883136 1281.15062 247.883136 1239.82318 247.883136 1198.49574 247.883136 1157.1683 289.196992 1157.1683 289.196992 1198.49574 289.196992 1239.82318 330.510849 1198.49574 413.138561 1198.49574 413.138561 1157.1683 454.452417 1198.49574 413.138561 1239.82318 371.824704 1281.15062 289.196992 1363.8055 289.196992 1405.13294 289.196992 1446.46038 289.196992 1529.11526 330.510849 1529.11526 371.824704 1529.11526 371.824704 1570.4427 371.824704 1611.77014 330.510849 1611.77014 289.196992 1611.77014 247.883136 1611.77014 247.883136 1570.4427 206.569281 1529.11526 247.883136 1653.09757 247.883136 1694.42501 247.883136 1735.75246 247.883136 1777.0799 206.569281 1777.0799 165.255425 1735.75246 123.941568 1735.75246 123.941568 1694.42501 123.941568 1653.09757 123.941568 1777.0799 123.941568 1818.40734 123.941568 1859.73478 82.6277121 1859.73478 82.6277121 1901.06221 82.6277121 1942.38965 41.3138561 1942.38965 0 1983.71709 0 2025.04453 0 2066.37198 0 2107.69942 0 2149.02684 0 2190.35429 41.3138561 2149.02684 41.3138561 2107.69942 41.3138561 2066.37198 41.3138561 2025.04453 82.6277121 2025.04453 82.6277121 1983.71709 123.941568 1983.71709 123.941568 1942.38965 123.941568 1901.06221 165.255425 1901.06221 165.255425 1942.38965 165.255425 1983.71709 206.569281 1983.71709 206.569281 1942.38965 247.883136 1942.38965 247.883136 1901.06221 247.883136 1859.73478 206.569281 1859.73478 247.883136 1818.40734 289.196992 1818.40734 289.196992 1777.0799 289.196992 1735.75246 330.510849 1694.42501 330.510849 1653.09757 371.824704 1653.09757 371.824704 1694.42501 371.824704 1735.75246 371.824704 1777.0799 371.824704 1818.40734 371.824704 1859.73478 371.824704 1901.06221 371.824704 1942.38965 330.510849 1942.38965 330.510849 1983.71709 330.510849 2025.04453 289.196992 2025.04453 247.883136 2025.04453 247.883136 1983.71709 247.883136 2066.37198 247.883136 2107.69942 206.569281 2107.69942 247.883136 2149.02684 247.883136 2190.35429 206.569281 2190.35429 247.883136 2231.68173 206.569281 2273.00917 247.883136 2314.33661 247.883136 2355.66405 247.883136 2396.99148 247.883136 2438.31892 206.569281 2438.31892 165.255425 2438.31892 123.941568 2438.31892 82.6277121 2438.31892 82.6277121 2479.64637 123.941568 2479.64637 123.941568 2520.97381 123.941568 2562.30125 82.6277121 2562.30125 41.3138561 2562.30125 0 2562.30125 0 2520.97381 0 2479.64637 0 2438.31892 41.3138561 2355.66405 41.3138561 2314.33661 41.3138561 2273.00917 0 2273.00917 41.3138561 2231.68173 82.6277121 2231.68173 82.6277121 2190.35429 82.6277121 2149.02684 82.6277121 2107.69942 82.6277121 2066.37198 123.941568 2066.37198 123.941568 2025.04453 123.941568 2107.69942 123.941568 2149.02684 123.941568 2190.35429 123.941568 2231.68173 123.941568 2273.00917 123.941568 2314.33661 82.6277121 2314.33661 206.569281 2479.64637 206.569281 2520.97381 206.569281 2562.30125 206.569281 2603.62869 206.569281 2644.95612 165.255425 2644.95612 123.941568 2644.95612 123.941568 2603.62869 82.6277121 2603.62869 41.3138561 2603.62869 0 2603.62869 0 2644.95612 0 2686.28356 0 2727.611 0 2768.93844 0 2810.26589 41.3138561 2768.93844 82.6277121 2727.611 41.3138561 2686.28356 41.3138561 2644.95612 123.941568 2686.28356 165.255425 2727.611 165.255425 2768.93844 123.941568 2768.93844 123.941568 2810.26589 123.941568 2892.92075 123.941568 2934.2482 82.6277121 2934.2482 41.3138561 2934.2482 0 2934.2482 0 2892.92075 41.3138561 2892.92075 0 2975.57564 0 3016.90308 0 3058.23052 0 3099.55796 0 3182.21283 0 3264.86772 165.255425 3140.88539 123.941568 3058.23052 123.941568 3016.90308 82.6277121 2975.57564 41.3138561 3016.90308 165.255425 2892.92075 206.569281 2892.92075 206.569281 2851.59333 206.569281 2810.26589 247.883136 2810.26589 247.883136 2768.93844 247.883136 2727.611 206.569281 2727.611 206.569281 2686.28356 247.883136 2686.28356 247.883136 2644.95612 247.883136 2603.62869 247.883136 2562.30125 247.883136 2520.97381 247.883136 2479.64637 289.196992 2396.99148 289.196992 2355.66405 289.196992 2314.33661 371.824704 2314.33661 371.824704 2273.00917 371.824704 2231.68173 330.510849 2231.68173 330.510849 2190.35429 289.196992 2190.35429 289.196992 2149.02684 289.196992 2107.69942 330.510849 2107.69942 330.510849 2066.37198 371.824704 2066.37198 371.824704 2025.04453 371.824704 1983.71709 413.138561 1983.71709 413.138561 2025.04453 454.452417 1983.71709 495.766274 1983.71709 495.766274 1942.38965 495.766274 1901.06221 495.766274 1859.73478 413.138561 1859.73478 413.138561 1818.40734 413.138561 1777.0799 454.452417 1735.75246 454.452417 1694.42501 495.766274 1694.42501 495.766274 1735.75246 495.766274 1777.0799 578.393985 1694.42501 619.707841 1694.42501 619.707841 1735.75246 619.707841 1777.0799 619.707841 1818.40734 619.707841 1859.73478 619.707841 1901.06221 619.707841 1942.38965 578.393985 1942.38965 578.393985 1983.71709 537.080129 1983.71709 495.766274 2025.04453 495.766274 2066.37198 454.452417 2066.37198 454.452417 2107.69942 495.766274 2107.69942 495.766274 2149.02684 495.766274 2190.35429 495.766274 2231.68173 454.452417 2231.68173 413.138561 2273.00917 413.138561 2314.33661 413.138561 2355.66405 371.824704 2355.66405 371.824704 2396.99148 371.824704 2438.31892 371.824704 2479.64637 371.824704 2520.97381 371.824704 2562.30125 330.510849 2562.30125 289.196992 2562.30125 330.510849 2603.62869 330.510849 2644.95612 371.824704 2644.95612 371.824704 2603.62869 413.138561 2562.30125 454.452417 2603.62869 495.766274 2562.30125 495.766274 2520.97381 495.766274 2479.64637 495.766274 2438.31892 495.766274 2396.99148 495.766274 2355.66405 454.452417 2355.66405 413.138561 2438.31892 413.138561 2479.64637 537.080129 2562.30125 495.766274 2644.95612 495.766274 2686.28356 371.824704 2686.28356 289.196992 2686.28356 289.196992 2727.611 289.196992 2892.92075 330.510849 2892.92075 371.824704 2892.92075 413.138561 2892.92075 413.138561 2975.57564 454.452417 2975.57564 454.452417 3016.90308 495.766274 3016.90308 495.766274 2975.57564 495.766274 2934.2482 537.080129 2892.92075 578.393985 2892.92075 619.707841 2892.92075 619.707841 2851.59333 619.707841 2810.26589 619.707841 2768.93844 661.021698 2727.611 702.335553 2727.611 743.64941 2727.611 784.963266 2768.93844 784.963266 2810.26589 826.277121 2810.26589 826.277121 2851.59333 826.277121 2892.92075 867.590978 2892.92075 867.590978 2851.59333 867.590978 2810.26589 867.590978 2768.93844 867.590978 2727.611 867.590978 2686.28356 867.590978 2644.95612 867.590978 2562.30125 867.590978 2520.97381 867.590978 2479.64637 867.590978 2438.31892 867.590978 2396.99148 826.277121 2355.66405 826.277121 2314.33661 867.590978 2231.68173 867.590978 2149.02684 867.590978 2107.69942 867.590978 2025.04453 867.590978 1983.71709 826.277121 1983.71709 826.277121 1942.38965 826.277121 1901.06221 826.277121 1859.73478 784.963266 1859.73478 743.64941 1859.73478 702.335553 1859.73478 661.021698 1859.73478 661.021698 1901.06221 702.335553 1901.06221 702.335553 1942.38965 743.64941 1942.38965 743.64941 1901.06221 743.64941 1818.40734 743.64941 1777.0799 743.64941 1735.75246 702.335553 1735.75246 661.021698 1694.42501 661.021698 1653.09757 702.335553 1653.09757 743.64941 1653.09757 743.64941 1611.77014 743.64941 1570.4427 743.64941 1529.11526 784.963266 1529.11526 784.963266 1487.78782 784.963266 1446.46038 743.64941 1446.46038 702.335553 1405.13294 661.021698 1405.13294 661.021698 1363.8055 661.021698 1322.47806 619.707841 1322.47806 578.393985 1322.47806 537.080129 1281.15062 495.766274 1322.47806 454.452417 1405.13294 413.138561 1405.13294 413.138561 1446.46038 413.138561 1487.78782 413.138561 1529.11526 413.138561 1570.4427 413.138561 1611.77014 454.452417 1611.77014 454.452417 1570.4427 454.452417 1529.11526 495.766274 1529.11526 495.766274 1570.4427 495.766274 1611.77014 537.080129 1570.4427 537.080129 1529.11526 537.080129 1487.78782 537.080129 1446.46038 495.766274 1446.46038 537.080129 1405.13294 578.393985 1405.13294 578.393985 1487.78782 619.707841 1529.11526 578.393985 1570.4427 619.707841 1611.77014 537.080129 1653.09757"></polyline>
            <polyline id="Shape" stroke="#D0021B" stroke-width="3" points="743.649409 1694.42501 784.963266 1653.09757 826.277121 1653.09757 867.590977 1653.09757 867.590977 1611.77014 867.590977 1570.4427 867.590977 1529.11526 826.277121 1529.11526 826.277121 1487.78782 826.277121 1446.46038 784.963266 1405.13294 784.963266 1363.8055 784.963266 1322.47806 743.649409 1322.47806 702.335553 1322.47806 661.021698 1281.15062 619.707841 1281.15062 619.707841 1239.82318 578.393985 1239.82318 578.393985 1198.49574 537.080128 1157.1683 537.080128 1074.51343 619.707841 1157.1683 661.021698 1115.84086 702.335553 1115.84086 743.649409 1115.84086 743.649409 1157.1683 784.963266 1157.1683 784.963266 1115.84086 784.963266 1074.51343 784.963266 1033.18599 743.649409 1033.18599 702.335553 1033.18599 743.649409 991.858546 784.963266 991.858546 784.963266 950.531107 784.963266 909.203668 743.649409 909.203668 826.277121 909.203668 826.277121 867.876228 826.277121 826.548789 784.963266 826.548789 784.963266 743.89391 743.649409 743.89391 743.649409 702.566471 826.277121 661.239032 826.277121 619.911591 826.277121 578.584152 867.590977 578.584152 867.590977 537.256712 867.590977 454.601834 867.590977 413.274394 867.590977 330.619516 826.277121 330.619516 867.590977 289.292075 867.590977 247.964637 826.277121 247.964637 826.277121 206.637198 867.590977 206.637198 908.904834 206.637198 950.21869 206.637198 950.21869 247.964637 950.21869 289.292075 908.904834 289.292075 950.21869 330.619516 991.532545 330.619516 991.532545 289.292075 991.532545 247.964637 991.532545 206.637198 991.532545 165.309757 1032.8464 165.309757 1074.16026 165.309757 1074.16026 123.982318 1074.16026 82.6548789 1074.16026 41.3274394 1032.8464 41.3274394 1115.47411 41.3274394 1115.47411 82.6548789 1115.47411 123.982318 1198.10183 123.982318 1239.41568 123.982318 1198.10183 206.637198 1239.41568 247.964637 1280.72954 247.964637 1322.04339 247.964637 1322.04339 206.637198 1363.35725 206.637198 1363.35725 247.964637 1363.35725 289.292075 1322.04339 289.292075 1322.04339 330.619516 1280.72954 330.619516 1239.41568 330.619516 1239.41568 371.946955 1198.10183 371.946955 1198.10183 413.274394 1156.78797 413.274394 1115.47411 413.274394 1074.16026 413.274394 991.532545 413.274394 950.21869 413.274394 950.21869 495.929273 950.21869 537.256712 991.532545 495.929273 991.532545 578.584152 991.532545 661.239032 991.532545 702.566471 991.532545 743.89391 950.21869 743.89391 908.904834 743.89391 867.590977 743.89391 867.590977 702.566471 867.590977 785.22135 867.590977 826.548789 867.590977 867.876228 908.904834 826.548789 908.904834 785.22135 950.21869 785.22135 950.21869 826.548789 950.21869 867.876228 950.21869 909.203668 908.904834 909.203668 908.904834 950.531107 867.590977 950.531107 826.277121 991.858546 826.277121 1033.18599 867.590977 1033.18599 867.590977 1074.51343 867.590977 1115.84086 826.277121 1115.84086 826.277121 1157.1683 826.277121 1198.49574 784.963266 1239.82318 743.649409 1239.82318 743.649409 1281.15062 784.963266 1281.15062 867.590977 1281.15062 867.590977 1239.82318 908.904834 1239.82318 908.904834 1198.49574 950.21869 1198.49574 950.21869 1239.82318 991.532545 1239.82318 991.532545 1198.49574 991.532545 1115.84086 1032.8464 1115.84086 1032.8464 1074.51343 1032.8464 1033.18599 1032.8464 991.858546 991.532545 991.858546 908.904834 991.858546 908.904834 1033.18599 908.904834 1115.84086 867.590977 1157.1683 908.904834 1281.15062 991.532545 1281.15062 991.532545 1363.8055 950.21869 1363.8055 991.532545 1405.13294 991.532545 1446.46038 950.21869 1446.46038 908.904834 1446.46038 867.590977 1487.78782 908.904834 1529.11526 908.904834 1570.4427 908.904834 1611.77014 950.21869 1570.4427 950.21869 1529.11526 991.532545 1529.11526 991.532545 1570.4427 991.532545 1611.77014 991.532545 1653.09757 950.21869 1653.09757 991.532545 1694.42501 991.532545 1735.75246 950.21869 1735.75246 908.904834 1735.75246 867.590977 1735.75246 826.277121 1735.75246 867.590977 1777.0799 867.590977 1818.40734 867.590977 1859.73478 867.590977 1901.06221 867.590977 1942.38965 950.21869 1942.38965 950.21869 1983.71709 991.532545 1983.71709 1032.8464 2025.04453 1032.8464 2066.37198 1115.47411 2066.37198 1115.47411 2025.04453 1074.16026 1983.71709 1115.47411 1942.38965 1115.47411 1901.06221 1198.10183 1859.73478 1239.41568 1859.73478 1239.41568 1818.40734 1239.41568 1777.0799 1239.41568 1735.75246 1239.41568 1653.09757 1322.04339 1653.09757 1322.04339 1611.77014 1363.35725 1611.77014 1363.35725 1653.09757 1404.67111 1611.77014 1404.67111 1570.4427 1487.29882 1570.4427 1487.29882 1529.11526 1487.29882 1487.78782 1487.29882 1446.46038 1528.61268 1446.46038 1528.61268 1529.11526 1528.61268 1570.4427 1528.61268 1611.77014 1487.29882 1611.77014 1611.24039 1611.77014 1611.24039 1570.4427 1693.8681 1570.4427 1693.8681 1611.77014 1693.8681 1653.09757 1693.8681 1694.42501 1652.55424 1694.42501 1652.55424 1735.75246 1611.24039 1735.75246 1611.24039 1777.0799 1611.24039 1818.40734 1569.92653 1818.40734 1569.92653 1859.73478 1611.24039 1859.73478 1611.24039 1901.06221 1611.24039 1942.38965 1569.92653 1942.38965 1528.61268 1942.38965 1487.29882 1942.38965 1487.29882 1901.06221 1487.29882 1983.71709 1445.98496 1983.71709 1404.67111 2025.04453 1363.35725 2066.37198 1363.35725 2107.69942 1363.35725 2149.02684 1363.35725 2190.35429 1445.98496 2190.35429 1445.98496 2149.02684 1487.29882 2149.02684 1487.29882 2107.69942 1487.29882 2066.37198 1445.98496 2066.37198 1404.67111 2107.69942 1487.29882 2025.04453 1528.61268 2025.04453 1528.61268 1983.71709 1569.92653 1983.71709 1569.92653 2025.04453 1611.24039 2025.04453 1611.24039 1983.71709 1652.55424 1983.71709 1652.55424 2025.04453 1611.24039 2066.37198 1611.24039 2107.69942 1611.24039 2149.02684 1487.29882 2190.35429 1487.29882 2231.68173 1445.98496 2273.00917 1445.98496 2314.33661 1404.67111 2314.33661 1363.35725 2314.33661 1322.04339 2314.33661 1280.72954 2314.33661 1280.72954 2273.00917 1239.41568 2273.00917 1239.41568 2231.68173 1239.41568 2190.35429 1239.41568 2149.02684 1239.41568 2107.69942 1239.41568 2066.37198 1239.41568 1983.71709 1280.72954 1942.38965 1322.04339 1942.38965 1363.35725 1942.38965 1239.41568 1901.06221 1115.47411 1777.0799 1115.47411 1735.75246 1115.47411 1694.42501 1115.47411 1611.77014 1115.47411 1570.4427 1156.78797 1570.4427 1156.78797 1529.11526 1156.78797 1487.78782 1115.47411 1487.78782 1115.47411 1446.46038 1156.78797 1446.46038 1156.78797 1405.13294 1156.78797 1363.8055 1115.47411 1363.8055 1074.16026 1363.8055 1074.16026 1405.13294 1032.8464 1405.13294 1032.8464 1446.46038 1032.8464 1529.11526 1032.8464 1570.4427 1074.16026 1529.11526"></polyline>
            <polyline id="Shape" stroke="#D0021B" stroke-width="3" points="1859.12352 743.89391 1859.12352 702.566471 1983.06509 702.566471 1983.06509 743.89391 1983.06509 826.548789 1983.06509 867.876228 1983.06509 909.203668 1941.75123 909.203668 1983.06509 950.531107 2024.37896 867.876228 2024.37896 826.548789 2189.63437 909.203668 2189.63437 950.531107 2189.63437 991.858546 2189.63437 1033.18599 2230.94823 1033.18599 2230.94823 991.858546 2230.94823 950.531107 2230.94823 909.203668 2230.94823 867.876228 2272.26209 867.876228 2272.26209 950.531107 2272.26209 991.858546 2272.26209 1033.18599 2230.94823 1074.51343 2230.94823 1115.84086 2230.94823 1157.1683 2189.63437 1157.1683 2230.94823 1198.49574 2230.94823 1239.82318 2189.63437 1239.82318 2189.63437 1281.15062 2230.94823 1281.15062 2230.94823 1322.47806 2230.94823 1363.8055 2272.26209 1363.8055 2189.63437 1405.13294 2230.94823 1446.46038 2230.94823 1487.78782 2230.94823 1529.11526 2230.94823 1570.4427 2230.94823 1611.77014 2189.63437 1611.77014 2148.32052 1611.77014 2107.00666 1653.09757 2107.00666 1694.42501 2024.37896 1694.42501 1983.06509 1653.09757 1941.75123 1611.77014 1941.75123 1570.4427 1900.43737 1570.4427 1859.12352 1570.4427 1817.80966 1570.4427 1817.80966 1529.11526 1776.49581 1529.11526 1776.49581 1487.78782 1776.49581 1446.46038 1735.18196 1446.46038 1817.80966 1446.46038 1817.80966 1487.78782 1859.12352 1487.78782 1859.12352 1446.46038 1859.12352 1405.13294 1859.12352 1363.8055 1859.12352 1322.47806 1900.43737 1363.8055 1900.43737 1405.13294 1941.75123 1363.8055 1983.06509 1363.8055 1983.06509 1322.47806 2024.37896 1363.8055 1983.06509 1405.13294 1983.06509 1446.46038 1941.75123 1446.46038 1941.75123 1487.78782 1900.43737 1487.78782 1859.12352 1529.11526 1859.12352 1611.77014 1817.80966 1611.77014 1776.49581 1653.09757 1735.18196 1653.09757 1735.18196 1694.42501 1735.18196 1735.75246 1693.8681 1735.75246 1693.8681 1777.0799 1735.18196 1777.0799 1735.18196 1818.40734 1693.8681 1859.73478 1652.55425 1901.06221 1693.8681 1942.38965 1693.8681 1983.71709 1735.18196 1983.71709 1735.18196 1901.06221 1776.49581 1901.06221 1859.12352 1901.06221 1859.12352 1859.73478 1900.43737 1859.73478 1900.43737 1901.06221 1900.43737 1942.38965 1900.43737 1983.71709 1859.12352 1983.71709 1817.80966 1983.71709 1900.43737 2066.37198 1900.43737 2107.69942 1859.12352 2107.69942 1859.12352 2149.02684 1859.12352 2190.35429 1859.12352 2231.68173 1776.49581 2190.35429 1735.18196 2231.68173 1817.80966 2314.33661 1776.49581 2396.99148 1859.12352 2396.99148 1859.12352 2438.31892 1859.12352 2479.64637 1859.12352 2520.97381 1859.12352 2562.30125 1859.12352 2603.62869 1817.80966 2603.62869 1776.49581 2603.62869 1776.49581 2562.30125 1735.18196 2644.95612 1735.18196 2686.28356 1735.18196 2727.611 1735.18196 2768.93844 1693.8681 2768.93844 1652.55425 2768.93844 1693.8681 2851.59333 1693.8681 2892.92075 1652.55425 2892.92075 1611.24039 2934.2482 1569.92654 2934.2482 1569.92654 2892.92075 1569.92654 2975.57564 1611.24039 2975.57564 1652.55425 3016.90308 1652.55425 3140.88539 1487.29882 3140.88539 1445.98496 3182.21283 1445.98496 3223.54027 1445.98496 3264.86772 1363.35725 3223.54027 1198.10183 3099.55796 1198.10183 3058.23052 1156.78797 3058.23052 1032.8464 3058.23052 991.532545 3099.55796 867.590978 3099.55796 867.590978 3058.23052 826.277121 3058.23052 784.963266 3058.23052 743.64941 3058.23052 743.64941 3016.90308 743.64941 2975.57564 826.277121 2975.57564 826.277121 3016.90308 867.590978 3016.90308 867.590978 2975.57564 867.590978 2934.2482 908.904834 2934.2482 908.904834 2892.92075 908.904834 2851.59333 950.21869 2851.59333 950.21869 2892.92075 950.21869 2934.2482 991.532545 2934.2482 991.532545 2892.92075 991.532545 2851.59333 991.532545 2810.26589 991.532545 2768.93844 991.532545 2727.611 991.532545 2686.28356 950.21869 2686.28356 991.532545 2644.95612 991.532545 2603.62869 991.532545 2562.30125 1032.8464 2562.30125 1032.8464 2520.97381 1074.16026 2520.97381 1115.47411 2520.97381 1115.47411 2479.64637 1074.16026 2438.31892 1115.47411 2396.99148 1156.78797 2396.99148 1198.10183 2355.66405 1198.10183 2314.33661 1239.41568 2355.66405 1239.41568 2396.99148 1239.41568 2438.31892 1239.41568 2479.64637 1280.72954 2479.64637 1280.72954 2438.31892 1280.72954 2520.97381 1322.04339 2520.97381 1363.35725 2520.97381 1363.35725 2479.64637 1363.35725 2438.31892 1363.35725 2396.99148 1404.67111 2396.99148 1404.67111 2355.66405 1445.98496 2355.66405 1487.29882 2396.99148 1569.92654 2314.33661 1569.92654 2273.00917 1611.24039 2355.66405 1611.24039 2396.99148 1611.24039 2438.31892 1611.24039 2479.64637 1611.24039 2520.97381 1652.55425 2562.30125 1611.24039 2603.62869 1611.24039 2644.95612 1528.61268 2727.611 1487.29882 2644.95612 1487.29882 2603.62869 1487.29882 2562.30125 1487.29882 2520.97381 1363.35725 2603.62869 1404.67111 2686.28356 1239.41568 2686.28356 1239.41568 2644.95612 1198.10183 2644.95612 1156.78797 2644.95612 1115.47411 2644.95612 1115.47411 2603.62869 1074.16026 2603.62869 1032.8464 2644.95612 1115.47411 2686.28356 1115.47411 2727.611 1074.16026 2810.26589 1032.8464 2892.92075 991.532545 2975.57564 1156.78797 2892.92075 1322.04339 2892.92075 1404.67111 2934.2482 1445.98496 2892.92075"></polyline>
            <polyline id="Shape" stroke="#D0021B" stroke-width="15" points="1735.18196 2810.26589 1776.49581 2768.93844 1776.49581 2727.611 1776.49581 2686.28356 1817.80966 2686.28356 1817.80966 2727.611 1859.12352 2686.28356 1859.12352 2644.95612 1900.43737 2562.30125 1941.75123 2562.30125 1941.75123 2520.97381 1983.06508 2520.97381 1983.06508 2479.64637 1983.06508 2438.31892 1941.75123 2438.31892 1900.43737 2438.31892 1941.75123 2396.99148 1941.75123 2355.66405 1983.06508 2355.66405 1983.06508 2396.99148 2024.37896 2396.99148 2024.37896 2355.66405 2065.69281 2355.66405 2065.69281 2314.33661 2065.69281 2273.00917 2065.69281 2231.68173 2024.37896 2231.68173 2065.69281 2190.35429 2107.00666 2190.35429 2107.00666 2149.02684 2107.00666 2107.69942 2148.32052 2107.69942 2148.32052 2149.02684 2148.32052 2190.35429 2148.32052 2231.68173 2107.00666 2231.68173 2107.00666 2273.00917 2107.00666 2314.33661 2148.32052 2273.00917 2189.63437 2314.33661 2189.63437 2355.66405 2230.94823 2355.66405 2230.94823 2396.99148 2272.26208 2396.99148 2230.94823 2479.64637 2272.26208 2520.97381 2272.26208 2562.30125 2230.94823 2562.30125 2272.26208 2603.62869 2272.26208 2644.95612 2272.26208 2686.28356 2230.94823 2727.611 2148.32052 2686.28356 2148.32052 2644.95612 2065.69281 2603.62869 2024.37896 2603.62869 1983.06508 2603.62869 1983.06508 2562.30125 2024.37896 2562.30125 2024.37896 2520.97381 2024.37896 2438.31892 2107.00666 2396.99148 2148.32052 2520.97381 2313.57594 2603.62869 2396.20365 2603.62869 2396.20365 2562.30125 2396.20365 2479.64637 2396.20365 2396.99148 2437.5175 2273.00917 2396.20365 2190.35429 2396.20365 2149.02684 2354.8898 2149.02684 2354.8898 2107.69942 2396.20365 2107.69942 2396.20365 2066.37198 2396.20365 2025.04453 2396.20365 1983.71709 2396.20365 1942.38965 2354.8898 1942.38965 2313.57594 1942.38965 2313.57594 1983.71709 2272.26208 1983.71709 2230.94823 1983.71709 2230.94823 1942.38965 2230.94823 1901.06221 2230.94823 1859.73478 2107.00666 1859.73478 2107.00666 1818.40734 2024.37896 1777.0799 1983.06508 1735.75246 1900.43737 1694.42501 1859.12352 1694.42501 1859.12352 1653.09757 1859.12352 1735.75246 1859.12352 1777.0799 1817.80966 1777.0799 1776.49581 1777.0799 1776.49581 1735.75246 1776.49581 1694.42501 1735.18196 1570.4427 1611.24039 1405.13294 1611.24039 1363.8055 1611.24039 1322.47806 1569.92654 1322.47806 1528.61268 1322.47806 1487.29882 1363.8055 1404.67111 1405.13294 1322.04339 1405.13294 1239.41568 1363.8055 1198.10183 1322.47806 1239.41568 1281.15062 1198.10183 1239.82318 1156.78797 1239.82318 1198.10183 1198.49574 1156.78797 1157.1683 1198.10183 1115.84086 1239.41568 1074.51343 1239.41568 1033.18599 1198.10183 1033.18599 1198.10183 991.858546 1239.41568 991.858546 1239.41568 950.531107 1239.41568 909.203668 1280.72954 950.531107 1280.72954 991.858546 1280.72954 1033.18599 1322.04339 1198.49574 1363.35725 1239.82318 1363.35725 1281.15062 1280.72954 1322.47806 1404.67111 1198.49574 1445.98496 1198.49574 1487.29882 1157.1683 1487.29882 1115.84086 1528.61268 1198.49574 1487.29882 1239.82318 1611.24039 1198.49574 1611.24039 1157.1683 1611.24039 1115.84086 1693.8681 1115.84086 1693.8681 1157.1683 1735.18196 1157.1683 1735.18196 1115.84086 1817.80966 1115.84086 1859.12352 1198.49574 1859.12352 1239.82318 1817.80966 1239.82318 1735.18196 1239.82318 1693.8681 1239.82318 1693.8681 1281.15062 1693.8681 1322.47806 1735.18196 1322.47806 1735.18196 1281.15062 1611.24039 1281.15062"></polyline>
            <polyline id="Shape" stroke="#D0021B" stroke-width="3" points="2230.94823 1653.09757 2230.94823 1694.42501 2272.26208 1694.42501 2354.88979 1818.40734 2354.88979 1859.73478 2354.88979 1901.06221 2396.20365 1901.06221 2396.20365 1859.73478 2396.20365 1818.40734 2396.20365 1777.0799 2437.5175 1777.0799 2478.83136 1818.40734 2520.14521 1818.40734 2520.14521 1777.0799 2520.14521 1735.75246 2520.14521 1653.09757 2520.14521 1611.77014 2520.14521 1570.4427 2561.45907 1570.4427 2561.45907 1611.77014 2561.45907 1653.09757 2644.08679 1653.09757 2644.08679 1611.77014 2644.08679 1570.4427 2602.77294 1570.4427 2602.77294 1529.11526 2602.77294 1487.78782 2561.45907 1487.78782 2644.08679 1487.78782 2644.08679 1529.11526 2685.40065 1487.78782 2685.40065 1446.46038 2685.40065 1405.13294 2685.40065 1363.8055 2726.7145 1363.8055 2726.7145 1322.47806 2726.7145 1405.13294 2726.7145 1446.46038 2726.7145 1487.78782 2726.7145 1570.4427 2685.40065 1570.4427 2685.40065 1611.77014 2768.02836 1653.09757 2768.02836 1694.42501 2768.02836 1735.75246 2768.02836 1777.0799 2891.96992 1777.0799 2891.96992 1694.42501 2891.96992 1653.09757 2891.96992 1611.77014 2974.59763 1694.42501 2974.59763 1487.78782 2933.28378 1446.46038 2974.59763 1405.13294 2974.59763 1322.47806 2933.28378 1281.15062 2933.28378 1239.82318 2933.28378 1198.49574 2891.96992 1198.49574 2850.65607 1198.49574 2809.34221 1198.49574 2768.02836 1198.49574 2726.7145 1157.1683 2685.40065 1198.49574 2644.08679 1198.49574 2602.77294 1363.8055 2602.77294 1405.13294 2478.83136 1446.46038 2478.83136 1529.11526"></polyline>
            <polyline id="Shape" stroke="#D0021B" stroke-width="3" points="1363.35725 1777.0799 1404.67111 1818.40734 1487.29882 1777.0799"></polyline>
            <polyline id="Shape" stroke="#D0021B" stroke-width="3" points="1817.80966 1818.40734 1941.75123 1942.38965 1983.06509 1983.71709 1983.06509 2025.04453 1983.06509 2066.37198 2024.37896 2066.37198 2024.37896 2107.69942 2107.00666 2025.04453 2107.00666 1983.71709 2107.00666 1942.38965 2148.32052 1983.71709 2189.63437 2066.37198 2230.94823 2066.37198 2230.94823 2025.04453 2272.26209 2025.04453 2272.26209 2066.37198 2272.26209 2107.69942 2230.94823 2149.02684 2230.94823 2190.35429 2230.94823 2231.68173 2272.26209 2190.35429"></polyline>
            <polyline id="Shape" stroke="#D0021B" stroke-width="3" points="2520.14522 2149.02684 2520.14522 2107.69942 2520.14522 2066.37198 2520.14522 2025.04453 2478.83136 1983.71709 2520.14522 1942.38965 2520.14522 1901.06221 2520.14522 1859.73478"></polyline>
            <polyline id="Shape" stroke="#D0021B" stroke-width="3" points="2644.08679 2066.37198 2644.08679 2107.69942 2644.08679 2149.02684 2644.08679 2190.35429 2644.08679 2231.68173 2561.45907 2273.00917 2561.45907 2314.33661 2561.45907 2355.66405 2644.08679 2396.99148 2644.08679 2479.64637 2644.08679 2520.97381 2644.08679 2603.62869 2561.45907 2603.62869 2520.14522 2603.62869 2520.14522 2562.30125 2520.14522 2520.97381 2396.20365 2686.28356 2396.20365 2768.93844 2396.20365 2810.26589 2437.5175 2768.93844 2520.14522 2810.26589 2561.45907 2768.93844 2644.08679 2768.93844 2644.08679 2686.28356 2726.7145 2686.28356 2768.02836 2686.28356 2768.02836 2644.95612 2768.02836 2603.62869 2768.02836 2520.97381 2768.02836 2479.64637 2685.40065 2314.33661 2768.02836 2231.68173 2768.02836 2190.35429 2726.7145 2190.35429"></polyline>
            <polyline id="Shape" stroke="#D0021B" stroke-width="3" points="1156.78797 2520.97381 1156.78797 2562.30125 1115.47411 2562.30125 1156.78797 2603.62869 1198.10183 2603.62869"></polyline>
            <polyline id="Shape" stroke="#D0021B" stroke-width="3" points="991.532545 2438.31892 950.21869 2314.33661 950.21869 2231.68173 991.532545 2190.35429 1074.16026 2273.00917 1115.47411 2149.02684 1115.47411 2107.69942"></polyline>
            <polyline id="Shape" stroke="#D0021B" stroke-width="3" points="991.532545 1901.06221 1032.8464 1818.40734 1032.8464 1777.0799 908.904834 1818.40734 784.963266 1818.40734"></polyline>
            <polyline id="Shape" stroke="#D0021B" stroke-width="3" points="743.64941 2025.04453 702.335553 2025.04453 661.021698 2025.04453 619.707841 2025.04453 619.707841 1983.71709 619.707841 2066.37198 578.393985 2107.69942 537.080129 2107.69942 537.080129 2066.37198 578.393985 2190.35429 578.393985 2231.68173 537.080129 2231.68173 495.766274 2273.00917 537.080129 2314.33661 578.393985 2314.33661 578.393985 2273.00917 619.707841 2273.00917 619.707841 2231.68173 661.021698 2231.68173 661.021698 2107.69942 702.335553 2107.69942 743.64941 2107.69942 743.64941 2066.37198"></polyline>
            <polyline id="Shape" stroke="#D0021B" stroke-width="3" points="702.335553 2355.66405 661.021698 2355.66405 619.707841 2355.66405 578.393985 2355.66405 619.707841 2396.99148 619.707841 2520.97381 619.707841 2603.62869 619.707841 2644.95612 619.707841 2686.28356 743.649409 2644.95612 743.649409 2562.30125 743.649409 2520.97381 743.649409 2479.64637 908.904834 2562.30125 908.904834 2768.93844"></polyline>
            <polyline id="Shape" stroke="#2D2E1C" stroke-width="3" points="2974.59764 3223.54027 2933.28378 3140.88539 2850.65607 3140.88539 2850.65607 3099.55796 2809.34221 3016.90308 2809.34221 2975.57564 2685.40065 2934.2482 2602.77294 2934.2482 2561.45907 2934.2482 2561.45907 2892.92075 2561.45907 2851.59333 2520.14522 2851.59333 2478.83136 2851.59333 2437.5175 2851.59333 2396.20365 2851.59333 2354.88979 2851.59333 2313.57594 2851.59333 2272.26208 2851.59333 2230.94823 2851.59333 2189.63438 2851.59333 2148.32052 2851.59333 2107.00666 2851.59333 2065.69281 2851.59333 2107.00666 2810.26589 2065.69281 2768.93844 2024.37896 2768.93844 1983.06508 2768.93844 1941.75123 2768.93844 1900.43737 2768.93844 1859.12352 2768.93844 1859.12352 2727.611 1900.43737 2727.611 1941.75123 2686.28356 1941.75123 2644.95612 1900.43737 2644.95612 1941.75123 2603.62869 2024.37896 2644.95612 2065.69281 2644.95612 2065.69281 2686.28356 2065.69281 2727.611 1983.06508 2727.611 1983.06508 2810.26589 1941.75123 2810.26589 1900.43737 2810.26589 1859.12352 2810.26589 1859.12352 2851.59333 1900.43737 2851.59333 1941.75123 2851.59333 1941.75123 2892.92075 1941.75123 2934.2482 1900.43737 2934.2482 1859.12352 2934.2482 1859.12352 2975.57564 1817.80966 2975.57564 1817.80966 3016.90308 1817.80966 3058.23052 1817.80966 3099.55796 1776.49581 3099.55796 1735.18196 3099.55796 1693.8681 3099.55796 1652.55424 3099.55796 1611.24039 3099.55796 1569.92654 3099.55796 1528.61268 3099.55796 1528.61268 3058.23052 1487.29882 3058.23052 1445.98496 3058.23052 1404.67111 3058.23052 1404.67111 3016.90308 1404.67111 2975.57564 1363.35725 2975.57564 1322.04339 2975.57564 1280.72954 2975.57564 1239.41568 2975.57564 1198.10183 2975.57564 1156.78797 2975.57564 1115.47411 2975.57564 1074.16026 2975.57564 1032.8464 2975.57564 1032.8464 2934.2482 1074.16026 2934.2482 1074.16026 2892.92075 1115.47411 2892.92075 1115.47411 2934.2482 1156.78797 2934.2482 1198.10183 2934.2482 1198.10183 2892.92075 1198.10183 2851.59333 1156.78797 2851.59333 1156.78797 2810.26589 1156.78797 2768.93844 1198.10183 2768.93844 1198.10183 2727.611 1239.41568 2727.611 1239.41568 2768.93844 1239.41568 2810.26589 1198.10183 2810.26589 1239.41568 2851.59333 1280.72954 2810.26589 1280.72954 2768.93844 1280.72954 2727.611 1280.72954 2686.28356 1280.72954 2644.95612 1322.04339 2644.95612 1322.04339 2603.62869 1280.72954 2562.30125 1198.10183 2520.97381 1156.78797 2479.64637 1156.78797 2438.31892 1156.78797 2355.66405 1115.47411 2355.66405 1115.47411 2314.33661 1115.47411 2273.00917 1156.78797 2273.00917 1156.78797 2231.68173 1156.78797 2190.35429 1156.78797 2149.02684 1156.78797 2107.69942 1156.78797 2066.37198 1156.78797 2025.04453 1156.78797 1983.71709 1115.47411 1983.71709 1074.16026 1942.38965 1032.8464 1942.38965 991.532545 1942.38965 950.21869 1901.06221 908.904834 1901.06221 908.904834 1859.73478 950.21869 1859.73478 950.21869 1818.40734 908.904834 1777.0799 826.277121 1777.0799 784.963266 1777.0799 784.963266 1735.75246 702.335553 1694.42501 661.021698 1735.75246 661.021698 1777.0799 702.335553 1777.0799 578.393985 1777.0799 578.393985 1735.75246 537.080129 1735.75246 537.080129 1694.42501 495.766274 1653.09757 454.452417 1653.09757 413.13856 1653.09757 413.13856 1694.42501 413.13856 1735.75246 454.452417 1777.0799 537.080129 1859.73478 537.080129 1901.06221 578.393985 1901.06221 578.393985 1859.73478 661.021698 1942.38965 661.021698 1983.71709 702.335553 1983.71709 743.64941 1983.71709 784.963266 1942.38965 784.963266 1901.06221 826.277121 2025.04453 784.963266 2066.37198 784.963266 2107.69942 784.963266 2149.02684 784.963266 2190.35429 784.963266 2231.68173 784.963266 2273.00917 743.64941 2273.00917 743.64941 2314.33661 702.335553 2314.33661 661.021698 2314.33661 619.707841 2314.33661 661.021698 2273.00917 702.335553 2190.35429 661.021698 2149.02684 619.707841 2149.02684 619.707841 2107.69942 578.393985 2066.37198 537.080129 2149.02684 454.452417 2190.35429 413.13856 2231.68173 454.452417 2273.00917 495.766274 2314.33661 537.080129 2273.00917 537.080129 2355.66405 537.080129 2396.99148 537.080129 2438.31892 537.080129 2479.64637 537.080129 2520.97381 578.393985 2520.97381 578.393985 2479.64637 578.393985 2438.31892 619.707841 2479.64637 661.021698 2479.64637 661.021698 2438.31892 661.021698 2396.99148 702.335553 2396.99148 702.335553 2438.31892 702.335553 2479.64637 702.335553 2520.97381 661.021698 2520.97381 661.021698 2562.30125 661.021698 2603.62869 661.021698 2644.95612 661.021698 2686.28356 702.335553 2686.28356 702.335553 2644.95612 702.335553 2603.62869 743.64941 2603.62869 784.963266 2562.30125 784.963266 2520.97381 784.963266 2479.64637 784.963266 2438.31892 784.963266 2396.99148 784.963266 2355.66405 743.64941 2355.66405 784.963266 2314.33661 826.277121 2273.00917 826.277121 2231.68173 826.277121 2190.35429 826.277121 2149.02684 826.277121 2107.69942 867.590978 2066.37198 908.904834 2066.37198 908.904834 2025.04453 908.904834 1983.71709 908.904834 1942.38965 950.21869 2066.37198 950.21869 2107.69942 908.904834 2107.69942 908.904834 2149.02684 908.904834 2190.35429 908.904834 2231.68173 908.904834 2273.00917 867.590978 2273.00917 867.590978 2314.33661 867.590978 2355.66405 908.904834 2355.66405 908.904834 2314.33661 908.904834 2396.99148 908.904834 2438.31892 908.904834 2479.64637 908.904834 2520.97381 950.21869 2520.97381 950.21869 2479.64637 950.21869 2438.31892 950.21869 2396.99148 991.532545 2396.99148 991.532545 2355.66405 991.532545 2314.33661 991.532545 2273.00917 1032.8464 2273.00917 1032.8464 2231.68173 1032.8464 2190.35429 1032.8464 2149.02684 1032.8464 2107.69942 991.532545 2107.69942 950.21869 2149.02684 950.21869 2190.35429 1074.16026 2190.35429 1074.16026 2149.02684 1074.16026 2107.69942 1074.16026 2066.37198 1032.8464 1983.71709 1032.8464 1901.06221 1032.8464 1859.73478 1074.16026 1859.73478 1074.16026 1818.40734 1074.16026 1777.0799 1074.16026 1735.75246 1032.8464 1735.75246 1032.8464 1694.42501 1074.16026 1694.42501 1074.16026 1653.09757 1074.16026 1611.77014 1032.8464 1611.77014 950.21869 1694.42501 908.904834 1694.42501"></polyline>
            <polyline id="Shape" stroke="#2D2E1C" stroke-width="22.5" points="950.21869 1487.78782 991.532545 1487.78782 1074.16026 1487.78782 1074.16026 1446.46038 1115.47411 1405.13294 1198.10183 1405.13294 1198.10183 1363.8055 1156.78797 1322.47806 1074.16026 1322.47806 1032.8464 1322.47806 1032.8464 1363.8055 1074.16026 1239.82318 1074.16026 1157.1683 991.532545 1074.51343 950.21869 1074.51343 908.904834 1074.51343 950.21869 1033.18599 950.21869 991.858546 950.21869 950.531107 991.532545 950.531107 1074.16026 950.531107 1074.16026 991.858546 1115.47411 950.531107 1239.41568 826.548789 1198.10183 743.89391 1198.10183 702.566471 1239.41568 619.911591 1280.72954 578.584152 1322.04339 619.911591 1404.67111 578.584152 1445.98496 619.911591 1528.61268 619.911591 1569.92653 619.911591 1569.92653 702.566471 1528.61268 785.22135 1404.67111 785.22135 1322.04339 785.22135 1404.67111 702.566471 1404.67111 495.929273 1322.04339 371.946955 1363.35725 330.619516 1404.67111 330.619516 1487.29882 371.946955 1528.61268 371.946955 1652.55424 371.946955 1776.49581 371.946955 1817.80966 371.946955 1941.75123 371.946955 2024.37895 371.946955 2024.37895 330.619516 2024.37895 289.292075 2065.69281 371.946955 2024.37895 413.274394 2024.37895 454.601834 2024.37895 537.256712 2024.37895 578.584152 1983.06508 578.584152 1983.06508 619.911591 1941.75123 619.911591 1900.43737 619.911591 1900.43737 578.584152 1900.43737 495.929273 1776.49581 537.256712 1693.8681 578.584152 1652.55424 578.584152 1776.49581 661.239032 1817.80966 702.566471 1817.80966 743.89391 1776.49581 743.89391 1776.49581 785.22135 1817.80966 785.22135 1817.80966 826.548789 1859.12352 785.22135 1900.43737 785.22135 1900.43737 743.89391 1900.43737 702.566471 1900.43737 661.239032 1941.75123 661.239032 1941.75123 702.566471 1941.75123 743.89391 1941.75123 785.22135 1900.43737 826.548789 1941.75123 867.876228 1941.75123 950.531107 1941.75123 991.858546 1900.43737 991.858546 1859.12352 991.858546 1817.80966 991.858546 1817.80966 950.531107 1776.49581 950.531107 1735.18195 950.531107 1693.8681 950.531107 1693.8681 991.858546 1652.55424 1033.18599 1611.24039 1033.18599 1569.92653 1033.18599 1569.92653 1074.51343 1569.92653 1115.84086 1528.61268 1115.84086 1528.61268 1157.1683 1569.92653 1157.1683 1569.92653 1239.82318 1528.61268 1239.82318 1528.61268 1281.15062 1569.92653 1281.15062 1569.92653 1363.8055 1569.92653 1405.13294 1569.92653 1446.46038 1569.92653 1487.78782 1528.61268 1487.78782 1569.92653 1529.11526 1569.92653 1570.4427 1569.92653 1611.77014 1569.92653 1653.09757 1528.61268 1653.09757 1528.61268 1694.42501 1528.61268 1735.75246 1487.29882 1735.75246 1445.98496 1735.75246 1404.67111 1735.75246 1404.67111 1694.42501 1404.67111 1653.09757 1445.98496 1653.09757 1445.98496 1611.77014 1445.98496 1570.4427 1445.98496 1529.11526 1445.98496 1487.78782 1404.67111 1487.78782 1363.35725 1487.78782 1322.04339 1487.78782 1280.72954 1487.78782 1239.41568 1529.11526 1239.41568 1570.4427 1198.10183 1570.4427 1198.10183 1611.77014 1156.78797 1611.77014 1156.78797 1653.09757 1156.78797 1694.42501 1156.78797 1735.75246 1156.78797 1777.0799 1156.78797 1818.40734 1156.78797 1859.73478 1115.47411 1859.73478 1074.16026 1901.06221 1156.78797 1901.06221 1156.78797 1942.38965 1198.10183 1983.71709 1198.10183 2025.04453 1198.10183 2066.37198 1198.10183 2107.69942 1198.10183 2149.02684 1198.10183 2190.35429 1198.10183 2231.68173 1156.78797 2314.33661 1239.41568 2314.33661 1280.72954 2355.66405 1280.72954 2396.99148 1404.67111 2438.31892 1404.67111 2479.64637 1404.67111 2520.97381 1445.98496 2520.97381 1445.98496 2479.64637 1445.98496 2438.31892 1445.98496 2396.99148 1487.29882 2355.66405 1528.61268 2355.66405 1528.61268 2314.33661 1528.61268 2273.00917 1487.29882 2273.00917 1404.67111 2273.00917 1363.35725 2273.00917 1363.35725 2231.68173 1322.04339 2231.68173 1322.04339 2190.35429 1280.72954 2190.35429 1280.72954 2149.02684 1280.72954 2107.69942 1280.72954 2066.37198 1280.72954 2025.04453 1280.72954 1983.71709 1322.04339 1983.71709 1322.04339 2025.04453 1322.04339 2066.37198 1322.04339 2149.02684 1404.67111 2149.02684 1445.98496 2107.69942 1404.67111 2066.37198 1445.98496 2025.04453 1404.67111 1983.71709 1363.35725 1901.06221 1322.04339 1901.06221 1280.72954 1901.06221 1280.72954 1859.73478 1280.72954 1818.40734 1280.72954 1777.0799 1280.72954 1735.75246 1280.72954 1694.42501 1239.41568 1694.42501 1198.10183 1694.42501 1198.10183 1653.09757 1198.10183 1735.75246 1198.10183 1777.0799 1198.10183 1818.40734 1322.04339 1818.40734 1322.04339 1777.0799 1322.04339 1735.75246 1322.04339 1694.42501 1280.72954 1653.09757 1280.72954 1570.4427 1322.04339 1570.4427 1322.04339 1446.46038 1363.35725 1405.13294 1363.35725 1363.8055 1322.04339 1363.8055 1322.04339 1322.47806 1363.35725 1322.47806 1404.67111 1322.47806 1404.67111 1281.15062 1404.67111 1239.82318 1445.98496 1239.82318 1445.98496 1281.15062 1445.98496 1322.47806 1445.98496 1363.8055 1445.98496 1405.13294 1445.98496 1446.46038 1487.29882 1405.13294 1487.29882 1322.47806 1652.55424 1322.47806 1652.55424 1281.15062 1652.55424 1239.82318 1652.55424 1198.49574 1693.8681 1198.49574 1735.18195 1198.49574 1776.49581 1198.49574 1776.49581 1157.1683 1776.49581 1115.84086 1817.80966 1074.51343 1817.80966 1033.18599 1776.49581 1033.18599 1693.8681 1074.51343 1611.24039 1074.51343 1611.24039 950.531107 1569.92653 950.531107 1569.92653 909.203668 1611.24039 909.203668 1693.8681 826.548789 1735.18195 867.876228 1817.80966 909.203668 1859.12352 909.203668 1941.75123 1033.18599 1941.75123 1074.51343 1900.43737 1074.51343 1900.43737 1115.84086 1900.43737 1157.1683 1859.12352 1157.1683 1817.80966 1198.49574 1776.49581 1239.82318 1817.80966 1281.15062 1817.80966 1322.47806 1817.80966 1363.8055 1776.49581 1405.13294 1735.18195 1405.13294 1693.8681 1405.13294 1652.55424 1405.13294 1652.55424 1363.8055 1693.8681 1363.8055 1693.8681 1446.46038 1652.55424 1446.46038 1611.24039 1446.46038 1693.8681 1487.78782 1693.8681 1529.11526 1652.55424 1611.77014 1611.24039 1653.09757 1611.24039 1694.42501 1569.92653 1694.42501 1569.92653 1735.75246 1528.61268 1777.0799 1528.61268 1818.40734 1487.29882 1818.40734 1445.98496 1818.40734 1445.98496 1859.73478 1404.67111 1859.73478 1363.35725 1859.73478 1322.04339 1859.73478 1363.35725 1818.40734 1404.67111 1777.0799 1445.98496 1694.42501 1528.61268 1859.73478 1528.61268 1901.06221 1569.92653 1901.06221 1652.55424 1942.38965 1693.8681 1901.06221 1735.18195 1942.38965 1776.49581 1942.38965 1817.80966 1901.06221 1817.80966 1859.73478 1859.12352 1818.40734 1941.75123 1818.40734 1941.75123 1777.0799 1941.75123 1735.75246 1941.75123 1694.42501 1941.75123 1653.09757 1983.06508 1694.42501 2024.37895 1653.09757 2065.69281 1653.09757 2065.69281 1694.42501 2065.69281 1735.75246 2065.69281 1777.0799 2065.69281 1859.73478 2024.37895 1859.73478 1983.06508 1859.73478 1941.75123 1859.73478 1941.75123 1901.06221 1983.06508 1901.06221 2024.37895 1901.06221 2024.37895 1942.38965 2065.69281 1942.38965 2065.69281 1983.71709 2065.69281 2025.04453 2024.37895 2025.04453 2065.69281 2066.37198 2065.69281 2107.69942 2065.69281 2149.02684 1983.06508 2149.02684 1941.75123 2149.02684 1941.75123 2107.69942 1941.75123 2066.37198 1941.75123 2025.04453 1941.75123 1983.71709 1859.12352 1942.38965 1817.80966 2025.04453 1776.49581 2025.04453 1735.18195 2025.04453 1693.8681 2025.04453 1693.8681 2066.37198 1693.8681 2107.69942 1652.55424 2107.69942 1652.55424 2149.02684 1652.55424 2190.35429 1652.55424 2231.68173 1652.55424 2273.00917 1611.24039 2273.00917 1611.24039 2314.33661 1652.55424 2314.33661 1652.55424 2355.66405 1652.55424 2396.99148 1652.55424 2438.31892 1652.55424 2479.64637 1652.55424 2520.97381 1693.8681 2520.97381 1693.8681 2479.64637 1693.8681 2438.31892 1693.8681 2396.99148 1735.18195 2355.66405 1735.18195 2314.33661 1735.18195 2273.00917 1693.8681 2231.68173 1693.8681 2190.35429 1693.8681 2149.02684 1776.49581 2066.37198 1817.80966 2066.37198 1817.80966 2107.69942 1817.80966 2149.02684 1817.80966 2190.35429 1817.80966 2273.00917 1859.12352 2273.00917 1859.12352 2314.33661 1859.12352 2355.66405 1900.43737 2355.66405 1900.43737 2314.33661 1900.43737 2273.00917 1900.43737 2231.68173 1900.43737 2190.35429 1941.75123 2190.35429 1941.75123 2231.68173 1983.06508 2231.68173 1983.06508 2190.35429 1983.06508 2107.69942 1859.12352 2066.37198"></polyline>
            <polyline id="Shape" stroke="#2D2E1C" stroke-width="37.5" points="1983.06508 2273.00917 1983.06508 2314.33661 2024.37895 2314.33661 2024.37895 2273.00917 2107.00666 2355.66405 2148.32052 2355.66405 2148.32052 2314.33661 2148.32052 2396.99148 2189.63437 2396.99148 2189.63437 2438.31892 2189.63437 2479.64637 2189.63437 2520.97381 2230.94823 2520.97381 2272.26208 2479.64637 2272.26208 2438.31892 2313.57594 2438.31892 2313.57594 2396.99148 2354.88979 2396.99148 2354.88979 2355.66405 2354.88979 2314.33661 2313.57594 2314.33661 2272.26208 2314.33661 2230.94823 2314.33661 2230.94823 2273.00917 2272.26208 2273.00917 2313.57594 2231.68173 2313.57594 2190.35429 2313.57594 2149.02684 2313.57594 2107.69942 2313.57594 2066.37198 2437.5175 2066.37198 2437.5175 2025.04453 2437.5175 1983.71709 2478.83136 2025.04453 2478.83136 2066.37198 2478.83136 2107.69942 2437.5175 2107.69942 2437.5175 2149.02684 2437.5175 2190.35429 2437.5175 2231.68173 2478.83136 2231.68173 2478.83136 2190.35429 2520.14521 2231.68173 2520.14521 2273.00917 2478.83136 2273.00917 2478.83136 2314.33661 2478.83136 2355.66405 2437.5175 2355.66405 2396.20365 2355.66405 2396.20365 2314.33661 2396.20365 2273.00917 2354.88979 2273.00917 2354.88979 2231.68173 2354.88979 2190.35429 2189.63437 2190.35429 2189.63437 2149.02684 2189.63437 2107.69942 2189.63437 2025.04453 2189.63437 1901.06221 2148.32052 1901.06221 2107.00666 1901.06221 2148.32052 1818.40734 2189.63437 1818.40734 2189.63437 1777.0799 2189.63437 1735.75246 2189.63437 1694.42501 2189.63437 1653.09757 2189.63437 1570.4427 2189.63437 1487.78782 2148.32052 1487.78782 2189.63437 1446.46038 2189.63437 1363.8055 2272.26208 1322.47806 2272.26208 1281.15062 2272.26208 1239.82318 2313.57594 1198.49574 2396.20365 1157.1683 2396.20365 1115.84086 2437.5175 1074.51343 2437.5175 1033.18599 2520.14521 1033.18599 2520.14521 1074.51343 2520.14521 1115.84086 2478.83136 1115.84086 2520.14521 1157.1683 2561.45907 1198.49574 2602.77294 1198.49574 2602.77294 1239.82318 2602.77294 1281.15062 2644.08679 1322.47806 2644.08679 1363.8055 2561.45907 1363.8055 2520.14521 1363.8055 2520.14521 1405.13294 2478.83136 1405.13294 2437.5175 1405.13294 2437.5175 1363.8055 2396.20365 1363.8055 2354.88979 1405.13294 2313.57594 1405.13294 2272.26208 1405.13294 2272.26208 1446.46038 2272.26208 1487.78782 2272.26208 1529.11526 2272.26208 1570.4427 2272.26208 1611.77014 2313.57594 1653.09757 2313.57594 1694.42501 2313.57594 1735.75246 2313.57594 1777.0799 2272.26208 1777.0799 2230.94823 1735.75246 2313.57594 1818.40734 2272.26208 1859.73478 2313.57594 1901.06221 2437.5175 1901.06221 2437.5175 1859.73478 2478.83136 1859.73478 2478.83136 1901.06221 2561.45907 1901.06221 2561.45907 1859.73478 2561.45907 1818.40734 2561.45907 1777.0799 2561.45907 1735.75246 2602.77294 1735.75246 2602.77294 1694.42501 2602.77294 1653.09757 2644.08679 1694.42501 2685.40065 1694.42501 2685.40065 1653.09757 2726.7145 1653.09757 2726.7145 1611.77014 2726.7145 1694.42501 2726.7145 1735.75246 2685.40065 1735.75246 2685.40065 1777.0799 2685.40065 1818.40734 2685.40065 1859.73478 2685.40065 1901.06221 2726.7145 1859.73478 2726.7145 1818.40734 2726.7145 1777.0799 2809.34221 1777.0799 2809.34221 1735.75246 2809.34221 1694.42501 2809.34221 1653.09757 2809.34221 1611.77014 2809.34221 1570.4427 2809.34221 1529.11526 2768.02836 1529.11526 2768.02836 1487.78782 2768.02836 1446.46038 2809.34221 1446.46038 2850.65607 1446.46038 2891.96992 1446.46038 2891.96992 1405.13294 2891.96992 1363.8055 2891.96992 1322.47806 2891.96992 1281.15062 2974.59763 1281.15062 2974.59763 1239.82318 2974.59763 1198.49574 2974.59763 1157.1683 2891.96992 1115.84086 2850.65607 1157.1683 2809.34221 1157.1683 2768.02836 1157.1683 2768.02836 1115.84086 2768.02836 1074.51343 2768.02836 1033.18599 2726.7145 1033.18599 2768.02836 991.858546 2768.02836 950.531107 2768.02836 909.203668 2809.34221 867.876228 2768.02836 826.548789 2809.34221 785.22135 2809.34221 743.89391 2768.02836 702.566471 2726.7145 702.566471 2685.40065 702.566471 2685.40065 661.239032 2644.08679 619.911591 2602.77294 619.911591 2726.7145 619.911591 2768.02836 619.911591 2809.34221 619.911591 2809.34221 578.584152 2809.34221 661.239032 2891.96992 619.911591 2891.96992 578.584152 2933.28378 537.256712 2933.28378 619.911591 2974.59763 619.911591 2933.28378 702.566471 2933.28378 743.89391 2933.28378 785.22135 2933.28378 826.548789 2933.28378 867.876228 2933.28378 950.531107 2891.96992 950.531107 2891.96992 991.858546 2891.96992 1033.18599 2809.34221 1074.51343 2685.40065 1115.84086 2644.08679 1115.84086 2602.77294 1115.84086 2561.45907 1074.51343 2561.45907 1033.18599 2602.77294 1033.18599 2602.77294 991.858546 2644.08679 991.858546 2644.08679 950.531107 2644.08679 909.203668 2644.08679 826.548789 2602.77294 826.548789 2685.40065 785.22135 2850.65607 785.22135"></polyline>
            <polyline id="Shape" stroke="#2D2E1C" stroke-width="3" points="1817.80966 1653.09757 1817.80966 1735.75246 1983.06508 1818.40734"></polyline>
            <polyline id="Shape" stroke="#2D2E1C" stroke-width="3" points="2189.63437 1859.73478 2354.88979 1777.0799 2437.5175 1694.42501 2437.5175 1653.09757 2437.5175 1611.77014 2437.5175 1570.4427 2437.5175 1529.11526 2437.5175 1487.78782 2396.20365 1487.78782 2396.20365 1446.46038 2437.5175 1446.46038 2520.14521 1446.46038 2520.14521 1487.78782 2561.45907 1446.46038 2561.45907 1405.13294 2602.77294 1446.46038 2644.08679 1446.46038 2561.45907 1529.11526 2478.83136 1570.4427 2354.88979 1570.4427 2313.57594 1487.78782 2313.57594 1446.46038 2313.57594 1363.8055 2313.57594 1322.47806 2396.20365 1281.15062 2396.20365 1239.82318 2437.5175 1239.82318 2437.5175 1198.49574 2478.83136 1281.15062 2520.14521 1281.15062 2520.14521 1239.82318 2437.5175 1322.47806"></polyline>
            <polyline id="Shape" stroke="#2D2E1C" stroke-width="3" points="2685.40065 1281.15062 2685.40065 1239.82318 2726.7145 1239.82318 2726.7145 1198.49574 2726.7145 1281.15062 2768.02836 1281.15062 2768.02836 1363.8055 2933.28378 1363.8055 2974.59763 1446.46038 2891.96992 1487.78782 2891.96992 1570.4427 2933.28378 1570.4427 2933.28378 1611.77014 2933.28378 1653.09757 2933.28378 1694.42501 2933.28378 1735.75246 2933.28378 1777.0799 2850.65607 1735.75246 2850.65607 1694.42501 2850.65607 1611.77014 2850.65607 1818.40734 2809.34221 1818.40734 2809.34221 1859.73478 2768.02836 1859.73478 2809.34221 1901.06221 2809.34221 1942.38965 2768.02836 1942.38965 2809.34221 1983.71709 2850.65607 2025.04453 2809.34221 2066.37198 2809.34221 2107.69942 2768.02836 2107.69942 2726.7145 2066.37198 2685.40065 2066.37198 2685.40065 2025.04453 2685.40065 1983.71709 2726.7145 2025.04453 2685.40065 2107.69942 2685.40065 2149.02684 2685.40065 2190.35429 2685.40065 2231.68173 2644.08679 2273.00917 2602.77294 2273.00917 2602.77294 2231.68173 2561.45907 2231.68173 2561.45907 2190.35429 2561.45907 2149.02684 2561.45907 2107.69942 2561.45907 2066.37198 2561.45907 2025.04453 2561.45907 1983.71709 2520.14521 1983.71709 2561.45907 1942.38965 2602.77294 1942.38965 2602.77294 1983.71709 2602.77294 2066.37198 2602.77294 2107.69942 2602.77294 2149.02684 2602.77294 2314.33661 2602.77294 2355.66405 2644.08679 2355.66405 2644.08679 2314.33661 2685.40065 2355.66405 2685.40065 2396.99148 2685.40065 2438.31892 2685.40065 2479.64637 2726.7145 2479.64637 2726.7145 2520.97381 2809.34221 2520.97381 2809.34221 2479.64637 2809.34221 2438.31892 2809.34221 2396.99148 2809.34221 2355.66405 2768.02836 2355.66405 2726.7145 2355.66405 2726.7145 2314.33661 2726.7145 2273.00917 2768.02836 2273.00917 2768.02836 2314.33661 2809.34221 2314.33661 2809.34221 2273.00917 2809.34221 2231.68173 2809.34221 2190.35429 2809.34221 2149.02684 2850.65607 2149.02684 2850.65607 2190.35429 2850.65607 2273.00917 2850.65607 2314.33661 2850.65607 2355.66405 2850.65607 2438.31892 2850.65607 2520.97381 2933.28378 2520.97381 2933.28378 2479.64637 2933.28378 2438.31892 2933.28378 2396.99148 2974.59763 2396.99148 2974.59763 2355.66405 2974.59763 2314.33661 2933.28378 2314.33661 2933.28378 2273.00917 2891.96992 2273.00917 2933.28378 2231.68173 2933.28378 2190.35429 2933.28378 2149.02684 2933.28378 2107.69942 2974.59763 2107.69942 2974.59763 2149.02684 2974.59763 2190.35429 2974.59763 2231.68173 2974.59763 2025.04453 2933.28378 2025.04453 2933.28378 1983.71709 2933.28378 1942.38965 2933.28378 1901.06221 2891.96992 1859.73478 2850.65607 1901.06221 2974.59763 1942.38965"></polyline>
            <polyline id="Shape" stroke="#2D2E1C" stroke-width="3" points="2520.14521 2314.33661 2520.14521 2355.66405 2478.83136 2396.99148 2437.5175 2396.99148 2437.5175 2438.31892 2437.5175 2479.64637 2437.5175 2520.97381 2437.5175 2562.30125 2478.83136 2520.97381 2478.83136 2603.62869 2478.83136 2644.95612 2437.5175 2644.95612 2437.5175 2686.28356 2437.5175 2727.611 2396.20365 2727.611 2354.88979 2727.611 2313.57594 2727.611 2313.57594 2686.28356 2313.57594 2644.95612 2354.88979 2686.28356 2354.88979 2768.93844 2313.57594 2768.93844 2272.26208 2768.93844 2230.94823 2768.93844 2189.63437 2768.93844 2189.63437 2727.611 2189.63437 2686.28356 2189.63437 2644.95612 2189.63437 2603.62869 2230.94823 2603.62869 2313.57594 2562.30125 2313.57594 2520.97381 2313.57594 2479.64637 2272.26208 2355.66405 2189.63437 2231.68173 2065.69281 2396.99148 2065.69281 2438.31892 2065.69281 2479.64637 2065.69281 2520.97381 2065.69281 2562.30125 2107.00666 2562.30125 2107.00666 2520.97381 2107.00666 2644.95612 2189.63437 2810.26589 2230.94823 2810.26589 2272.26208 2810.26589 2313.57594 2810.26589 2354.88979 2810.26589 2437.5175 2810.26589 2478.83136 2810.26589 2478.83136 2768.93844 2478.83136 2727.611 2478.83136 2686.28356 2520.14521 2686.28356 2561.45907 2686.28356 2561.45907 2644.95612 2602.77294 2644.95612 2602.77294 2603.62869 2561.45907 2562.30125 2602.77294 2520.97381 2561.45907 2479.64637 2561.45907 2438.31892 2520.14521 2438.31892 2561.45907 2396.99148 2644.08679 2562.30125 2685.40065 2603.62869 2685.40065 2644.95612 2644.08679 2644.95612 2685.40065 2686.28356 2685.40065 2727.611 2685.40065 2768.93844 2685.40065 2810.26589 2644.08679 2810.26589 2602.77294 2810.26589 2561.45907 2810.26589 2520.14521 2768.93844 2561.45907 2727.611 2602.77294 2727.611 2602.77294 2851.59333 2644.08679 2851.59333 2685.40065 2851.59333 2726.7145 2810.26589 2726.7145 2768.93844 2726.7145 2727.611 2726.7145 2644.95612 2809.34221 2644.95612 2809.34221 2686.28356 2809.34221 2727.611 2850.65607 2727.611 2933.28378 2810.26589 2974.59763 2810.26589 2974.59763 2768.93844 2974.59763 2686.28356 2933.28378 2562.30125 2974.59763 2479.64637 2974.59763 2438.31892"></polyline>
            <polyline id="Shape" stroke="#2D2E1C" stroke-width="3" points="1735.18196 3140.88539 1693.8681 3140.88539 1611.24039 3140.88539 1611.24039 3058.23052 1611.24039 3016.90308 1652.55424 2975.57564 1652.55424 2934.2482 1693.8681 2934.2482 1693.8681 2975.57564 1693.8681 3016.90308 1693.8681 3058.23052 1652.55424 3058.23052 1735.18196 3058.23052 1735.18196 3016.90308 1735.18196 2975.57564 1735.18196 2934.2482 1735.18196 2892.92075 1735.18196 2851.59333 1693.8681 2810.26589 1652.55424 2810.26589 1652.55424 2851.59333 1569.92654 2851.59333 1528.61268 2851.59333 1487.29882 2851.59333 1445.98496 2851.59333 1404.67111 2851.59333 1363.35725 2851.59333 1322.04339 2851.59333 1322.04339 2810.26589 1322.04339 2768.93844 1322.04339 2727.611 1322.04339 2686.28356 1363.35725 2686.28356 1363.35725 2727.611 1363.35725 2768.93844 1404.67111 2768.93844 1404.67111 2727.611 1445.98496 2727.611 1445.98496 2686.28356 1445.98496 2644.95612 1404.67111 2644.95612 1445.98496 2562.30125 1528.61268 2562.30125 1528.61268 2520.97381 1528.61268 2479.64637 1487.29882 2479.64637 1528.61268 2438.31892 1528.61268 2396.99148 1569.92654 2396.99148 1569.92654 2355.66405 1569.92654 2438.31892 1569.92654 2479.64637 1569.92654 2520.97381 1569.92654 2562.30125 1569.92654 2603.62869 1569.92654 2644.95612 1528.61268 2644.95612 1528.61268 2686.28356 1569.92654 2686.28356 1569.92654 2727.611 1569.92654 2768.93844 1528.61268 2768.93844 1487.29882 2768.93844 1445.98496 2768.93844 1445.98496 2810.26589 1404.67111 2810.26589 1404.67111 2892.92075 1445.98496 2934.2482 1445.98496 2975.57564 1445.98496 3016.90308 1487.29882 3016.90308 1487.29882 2975.57564 1487.29882 2934.2482 1528.61268 2934.2482 1528.61268 2892.92075 1528.61268 2810.26589 1487.29882 2810.26589 1487.29882 2727.611 1569.92654 2810.26589 1611.24039 2768.93844 1611.24039 2727.611 1652.55424 2727.611 1652.55424 2686.28356 1652.55424 2644.95612 1652.55424 2603.62869 1693.8681 2603.62869 1693.8681 2562.30125 1735.18196 2562.30125 1735.18196 2603.62869 1693.8681 2644.95612 1693.8681 2686.28356 1693.8681 2727.611 1776.49581 2810.26589 1776.49581 2934.2482"></polyline>
            <polyline id="Shape" stroke="#2D2E1C" stroke-width="3" points="1817.80966 2644.95612 1817.80966 2562.30125 1817.80966 2520.97381 1776.49581 2520.97381 1776.49581 2479.64637 1817.80966 2479.64637 1817.80966 2438.31892 1817.80966 2396.99148 1776.49581 2355.66405 1776.49581 2314.33661 1735.18196 2438.31892 1611.24039 2562.30125"></polyline>
            <polyline id="Shape" stroke="#2D2E1C" stroke-width="3" points="1569.92654 2231.68173 1528.61268 2190.35429 1528.61268 2107.69942 1569.92654 2107.69942"></polyline>
            <polyline id="Shape" stroke="#2D2E1C" stroke-width="3" points="1074.16026 2231.68173 1032.8464 2314.33661 1032.8464 2355.66405 1032.8464 2396.99148 1032.8464 2438.31892 1032.8464 2479.64637 991.532545 2479.64637 991.532545 2520.97381 950.21869 2562.30125 908.904834 2603.62869 867.590978 2603.62869 826.277121 2562.30125 826.277121 2479.64637 826.277121 2438.31892 826.277121 2396.99148"></polyline>
            <polyline id="Shape" stroke="#2D2E1C" stroke-width="3" points="826.277121 2644.95612 784.963266 2644.95612 784.963266 2686.28356 784.963266 2727.611 826.277121 2727.611 826.277121 2686.28356 908.904834 2644.95612 908.904834 2727.611 950.218691 2727.611 1032.8464 2727.611 1032.8464 2686.28356 1074.16026 2644.95612 1074.16026 2562.30125 1074.16026 2396.99148"></polyline>
            <polyline id="Shape" stroke="#2D2E1C" stroke-width="3" points="908.904834 2810.26589 784.963266 2851.59333 784.963266 2892.92075 743.64941 2892.92075 702.335553 2892.92075 702.335553 2851.59333 661.021698 2851.59333 661.021698 2810.26589 661.021698 2768.93844 702.335553 2768.93844 743.64941 2768.93844 743.64941 2810.26589 702.335553 2934.2482 661.021698 2934.2482 661.021698 2975.57564 619.707841 2975.57564 578.393985 2975.57564 537.080129 2975.57564 537.080129 2934.2482 578.393985 2934.2482 578.393985 2851.59333 537.080129 2851.59333 495.766274 2851.59333 454.452417 2851.59333 413.13856 2851.59333 371.824704 2851.59333 330.510849 2851.59333 289.196992 2851.59333 247.883136 2851.59333 247.883136 2892.92075 206.569281 2934.2482 165.255425 2934.2482 165.255425 2975.57564 123.941568 2975.57564 82.6277121 3016.90308 82.6277121 3058.23052 41.313856 3058.23052 41.313856 3099.55796 41.313856 3140.88539 0 3140.88539 41.313856 3182.21283 41.313856 3223.54027 0 3223.54027 41.313856 3264.86772 82.6277121 3264.86772 82.6277121 3223.54027 82.6277121 3182.21283 82.6277121 3140.88539 82.6277121 3099.55796 123.941568 3140.88539 165.255425 3182.21283 165.255425 3223.54027 165.255425 3264.86772 206.569281 3264.86772 206.569281 3182.21283 289.196992 3182.21283 289.196992 3140.88539 289.196992 3099.55796 289.196992 3058.23052 289.196992 3016.90308 289.196992 2975.57564 289.196992 2934.2482 330.510849 2934.2482 330.510849 2975.57564 330.510849 3016.90308 330.510849 3058.23052 330.510849 3099.55796 330.510849 3140.88539 330.510849 3182.21283 330.510849 3223.54027 289.196992 3223.54027 289.196992 3264.86772 330.510849 3264.86772 371.824704 3223.54027 413.13856 3223.54027 413.13856 3264.86772 454.452417 3264.86772 454.452417 3223.54027 454.452417 3182.21283 454.452417 3140.88539 454.452417 3099.55796 413.13856 3099.55796 371.824704 3099.55796 413.13856 3058.23052 413.13856 3016.90308 371.824704 2975.57564 413.13856 2934.2482 454.452417 2934.2482 454.452417 2892.92075 454.452417 2810.26589 413.13856 2810.26589 413.13856 2768.93844 371.824704 2768.93844 330.510849 2768.93844 289.196992 2768.93844 289.196992 2810.26589 330.510849 2810.26589 330.510849 2727.611 330.510849 2686.28356 289.196992 2644.95612 289.196992 2520.97381 289.196992 2479.64637 330.510849 2520.97381 413.13856 2520.97381 454.452417 2520.97381 454.452417 2562.30125 413.13856 2603.62869 413.13856 2644.95612 413.13856 2686.28356 413.13856 2727.611 454.452417 2727.611 454.452417 2686.28356 454.452417 2644.95612 495.766274 2603.62869 537.080129 2603.62869 578.393985 2603.62869 578.393985 2562.30125 578.393985 2644.95612 578.393985 2686.28356 537.080129 2686.28356 537.080129 2727.611 537.080129 2768.93844 495.766274 2768.93844 454.452417 2768.93844 537.080129 2810.26589 578.393985 2810.26589 578.393985 2768.93844 578.393985 2727.611"></polyline>
            <polyline id="Shape" stroke="#2D2E1C" stroke-width="3" points="702.335553 2975.57564 702.335553 3016.90308 661.021698 3016.90308 702.335553 3058.23052 702.335553 3099.55796 661.021698 3099.55796 661.021698 3140.88539 619.707841 3140.88539 578.393985 3099.55796 537.080129 3099.55796 537.080129 3058.23052 537.080129 3016.90308 578.393985 3016.90308 578.393985 3058.23052 537.080129 3140.88539 495.766274 3140.88539 495.766274 3182.21283 537.080129 3182.21283 537.080129 3223.54027 537.080129 3264.86772 578.393985 3264.86772 578.393985 3223.54027 578.393985 3182.21283 661.021698 3182.21283 702.335553 3140.88539 784.963266 3140.88539 784.963266 3182.21283 826.277121 3182.21283 826.277121 3140.88539 826.277121 3099.55796 908.904834 3099.55796 908.904834 3058.23052 908.904834 3016.90308 908.904834 2975.57564 950.21869 3016.90308 991.532545 3058.23052 950.21869 3099.55796 950.21869 3140.88539 908.904834 3140.88539 908.904834 3182.21283 908.904834 3223.54027 908.904834 3264.86772 950.21869 3264.86772 950.21869 3223.54027 950.21869 3182.21283 991.532545 3182.21283 1032.8464 3182.21283 1032.8464 3223.54027 1032.8464 3264.86772 1074.16026 3264.86772 1074.16026 3223.54027 1074.16026 3182.21283 1115.47411 3182.21283 1115.47411 3223.54027 1115.47411 3264.86772 1156.78797 3264.86772 1156.78797 3223.54027 1156.78797 3182.21283 1156.78797 3140.88539 1198.10183 3140.88539 1198.10183 3182.21283 1198.10183 3223.54027 1198.10183 3264.86772 1239.41568 3223.54027 1280.72954 3223.54027 1280.72954 3182.21283 1280.72954 3140.88539 1239.41568 3140.88539 1239.41568 3099.55796 1239.41568 3058.23052 1280.72954 3058.23052 1280.72954 3016.90308 1322.04339 3016.90308 1322.04339 3058.23052 1322.04339 3099.55796 1280.72954 3099.55796 1322.04339 3140.88539 1322.04339 3182.21283 1322.04339 3223.54027 1363.35725 3140.88539 1363.35725 3099.55796 1404.67111 3099.55796 1445.98496 3099.55796 1528.61268 3016.90308 1528.61268 2975.57564"></polyline>
            <polyline id="Shape" stroke="#2D2E1C" stroke-width="3" points="1322.04339 2934.2482 1280.72954 2934.2482 1239.41568 2934.2482 1280.72954 2892.92075 1156.78797 3016.90308 1115.47411 3016.90308 1074.16026 3016.90308 1032.8464 3016.90308 1074.16026 3058.23052 1074.16026 3099.55796 1032.8464 3099.55796"></polyline>
            <polyline id="Shape" stroke="#2D2E1C" stroke-width="3" points="41.313856 2520.97381 41.313856 2479.64637 82.6277121 2396.99148 82.6277121 2355.66405 123.941568 2355.66405 165.255424 2355.66405 165.255424 2314.33661 206.569281 2314.33661 206.569281 2355.66405 206.569281 2396.99148 330.510849 2396.99148 330.510849 2314.33661 330.510849 2273.00917 289.196992 2273.00917 247.883136 2273.00917 165.255424 2231.68173 165.255424 2190.35429 165.255424 2149.02684 165.255424 2066.37198 165.255424 2025.04453 206.569281 1901.06221 165.255424 1859.73478 165.255424 1818.40734 165.255424 1777.0799 82.6277121 1777.0799 41.313856 1777.0799 41.313856 1735.75246 41.313856 1694.42501 82.6277121 1694.42501 82.6277121 1653.09757 41.313856 1611.77014 165.255424 1611.77014 165.255424 1570.4427 165.255424 1653.09757 165.255424 1694.42501 82.6277121 1735.75246 41.313856 1818.40734 41.313856 1859.73478 41.313856 1901.06221 0 1901.06221 0 1942.38965"></polyline>
            <polyline id="Shape" stroke="#2D2E1C" stroke-width="3" points="330.510849 2149.02684 289.196992 2066.37198 289.196992 1942.38965 289.196992 1901.06221 330.510849 1859.73478 330.510849 1818.40734 413.13856 1901.06221 413.13856 1942.38965 454.452417 2025.04453 413.13856 2107.69942"></polyline>
            <polyline id="Shape" stroke="#C57C90" stroke-width="3" points="2974.59764 1983.71709 2891.96992 2107.69942 2768.02836 2149.02684 2602.77294 2025.04453 2602.77294 1901.06221 2478.83136 1942.38965 2354.88979 1983.71709 2272.26209 1942.38965 2272.26209 1901.06221 2230.94823 1818.40734 2148.32052 1777.0799 2107.00666 1735.75246 2024.37896 1818.40734 1900.43737 1777.0799 1900.43737 1735.75246 1900.43737 1653.09757 1900.43737 1611.77014 1735.18196 1529.11526 1652.55425 1529.11526 1611.24039 1487.78782 1487.29882 1653.09757 1487.29882 1694.42501 1363.35725 1570.4427 1363.35725 1529.11526 1280.72954 1611.77014 1198.10183 1529.11526 1239.41568 1487.78782 1239.41568 1446.46038 1239.41568 1405.13294 1280.72954 1405.13294 1280.72954 1363.8055 1239.41568 1322.47806 1280.72954 1239.82318 1239.41568 1198.49574 1156.78797 1115.84086 1115.47411 991.858546 1198.10183 909.203668 1198.10183 867.876228 1239.41568 867.876228 1322.04339 826.548789 1404.67111 661.239032 1404.67111 619.911591 1280.72954 454.601834 1363.35725 371.946955 1239.41568 289.292075 1198.10183 330.619516 1115.47411 371.946955 950.218691 454.601834 908.904834 413.274394 826.277121 413.274394 784.963266 330.619516 661.021698 371.946955 661.021698 247.964637 537.080129 289.292075 371.824704 247.964637 371.824704 206.637198 289.196993 165.309757 289.196993 247.964637 289.196993 289.292075 289.196993 330.619516 206.569281 330.619516 247.883136 495.929273 330.510849 661.239032 289.196993 743.89391 330.510849 867.876228 330.510849 950.531107 371.824704 991.858546 330.510849 1033.18599 206.569281 1074.51343 206.569281 1198.49574 371.824704 1239.82318 330.510849 1322.47806 330.510849 1405.13294 495.766274 1363.8055 619.707842 1363.8055 743.64941 1363.8055 826.277121 1363.8055 826.277121 1405.13294 908.904834 1405.13294 908.904834 1363.8055 908.904834 1322.47806 950.218691 1322.47806 991.532546 1322.47806 1032.8464 1281.15062 1032.8464 1198.49574 908.904834 1157.1683 826.277121 1239.82318 826.277121 1281.15062 661.021698 1239.82318 702.335553 1157.1683 537.080129 1115.84086 454.452417 991.858546 537.080129 909.203668 578.393985 867.876228 619.707842 867.876228 454.452417 826.548789"></polyline>
            <polyline id="Shape" stroke="#C57C90" stroke-width="3" points="537.080129 1942.38965 578.393985 2025.04453 702.335553 2149.02684 661.021698 2190.35429 702.335553 2231.68173"></polyline>
            <polyline id="Shape" stroke="#C57C90" stroke-width="3" points="661.021698 3058.23052 743.64941 3140.88539 784.963266 3099.55796 784.963266 3016.90308 950.21869 2975.57564 1115.47411 2851.59333 1115.47411 2768.93844 1074.16026 2768.93844 1032.8464 2768.93844 1074.16026 2727.611 908.904834 2686.28356 826.277121 2768.93844"></polyline>
            <polyline id="Shape" stroke="#C57C90" stroke-width="3" points="1074.16026 2479.64637 1074.16026 2355.66405 1198.10183 2396.99148 1198.10183 2438.31892 1363.35725 2562.30125 1363.35725 2644.95612 1487.29882 2686.28356 1611.24039 2810.26589 1611.24039 2851.59333"></polyline>
            <polyline id="Shape" stroke="#C57C90" stroke-width="3" points="1900.43737 2479.64637 1817.80966 2355.66405 1817.80966 2231.68173 1776.49581 2231.68173 1776.49581 2149.02684 1735.18196 2149.02684 1776.49581 2107.69942 1900.43737 2025.04453 1817.80966 1942.38965 1652.55424 1859.73478"></polyline>
            <polyline id="Shape" stroke="#C57C90" stroke-width="3" points="1528.61268 2149.02684 1569.92653 2190.35429 1611.24039 2231.68173 1693.8681 2314.33661"></polyline>
            <polyline id="Shape" stroke="#C57C90" stroke-width="3" points="1404.67111 2190.35429 1280.72954 2231.68173 1115.47411 2190.35429 991.532545 2025.04453 991.532545 1818.40734 991.532545 1777.0799 950.21869 1777.0799 826.277121 1818.40734 702.335553 1818.40734 784.963266 1694.42501"></polyline>
            <path d="M1115.47411,1818.40734 L1239.41568,1942.38965" id="Shape" stroke="#C57C90" stroke-width="3"></path>
            <polyline id="Shape" stroke="#C57C90" stroke-width="3" points="2024.37896 1322.47806 2065.69281 1322.47806 2230.94823 1405.13294 2189.63437 1529.11526 2107.00666 1529.11526 2107.00666 1611.77014 2272.26209 1735.75246 2437.51751 1818.40734 2478.83136 1777.0799 2478.83136 1735.75246 2478.83136 1653.09757 2478.83136 1611.77014 2644.0868 1735.75246"></polyline>
            <path d="M2024.37896,2190.35429 L2189.63437,2273.00917" id="Shape" stroke="#C57C90" stroke-width="3"></path>
            <polyline id="Shape" stroke="#6B6169" stroke-width="3" points="2974.59763 3099.55796 2933.28378 2975.57564 2933.28378 2934.2482 2974.59763 2892.92075 2933.28378 2851.59333 2933.28378 2768.93844 2974.59763 2727.611 2974.59763 2644.95612 2850.65607 2479.64637 2850.65607 2396.99148 2726.7145 2396.99148 2726.7145 2438.31892 2644.08679 2438.31892 2602.77294 2438.31892 2602.77294 2396.99148 2520.14521 2396.99148 2520.14521 2479.64637 2396.20365 2438.31892 2313.57594 2355.66405 2230.94823 2438.31892 2148.32052 2438.31892 2148.32052 2479.64637 2024.37895 2479.64637 1900.43737 2520.97381 1900.43737 2603.62869 1900.43737 2686.28356 1941.75123 2727.611 2024.37895 2686.28356 2107.00666 2686.28356 2230.94823 2686.28356 2230.94823 2644.95612 2354.88979 2603.62869 2396.20365 2644.95612 2437.5175 2603.62869"></polyline>
            <polyline id="Shape" stroke="#6B6169" stroke-width="3" points="1569.92653 3058.23052 1569.92653 3016.90308 1611.24039 2892.92075 1611.24039 2686.28356 1776.49581 2644.95612 1735.18196 2479.64637 1776.49581 2438.31892 1900.43737 2396.99148 1776.49581 2273.00917 1693.8681 2273.00917 1735.18196 2190.35429 1735.18196 2107.69942 1735.18196 2066.37198 1652.55424 2066.37198 1569.92653 2066.37198 1528.61268 2066.37198 1569.92653 2149.02684 1611.24039 2190.35429 1528.61268 2231.68173 1445.98496 2231.68173 1404.67111 2231.68173 1322.04339 2273.00917 1363.35725 2355.66405 1322.04339 2396.99148 1322.04339 2438.31892 1322.04339 2479.64637 1198.10183 2479.64637 1198.10183 2562.30125 1198.10183 2686.28356 1156.78797 2686.28356 1156.78797 2727.611 1074.16026 2686.28356 1032.8464 2603.62869 950.21869 2603.62869 950.21869 2644.95612 950.21869 2768.93844 950.21869 2810.26589 1032.8464 2810.26589 1032.8464 2851.59333 1074.16026 2851.59333 1115.47411 2810.26589 1239.41568 2892.92075 1280.72954 2851.59333 1363.35725 2810.26589 1363.35725 2934.2482 1363.35725 3016.90308 1363.35725 3058.23052 1404.67111 3140.88539 1363.35725 3182.21283 1363.35725 3264.86772 1322.04339 3264.86772"></polyline>
            <polyline id="Shape" stroke="#6B6169" stroke-width="3" points="1156.78797 3099.55796 991.532545 3016.90308 950.21869 3058.23052"></polyline>
            <polyline id="Shape" stroke="#6B6169" stroke-width="3" points="165.255425 2810.26589 165.255425 2686.28356 82.6277121 2686.28356 165.255425 2603.62869 289.196992 2438.31892 454.452417 2479.64637 578.393985 2396.99148 743.64941 2438.31892 702.335553 2273.00917 743.64941 2231.68173 743.64941 2190.35429 743.64941 2149.02684 702.335553 2066.37198 661.021698 2066.37198 578.393985 2149.02684 537.080129 2190.35429 454.452417 2149.02684 413.13856 2190.35429 413.13856 2066.37198 537.080129 2025.04453 454.452417 1901.06221 537.080129 1818.40734 537.080129 1777.0799 661.021698 1818.40734 784.963266 1983.71709 784.963266 2025.04453 867.590978 2190.35429 950.21869 2273.00917 991.532545 2231.68173 991.532545 2149.02684 1074.16026 2025.04453 1198.10183 1942.38965 1239.41568 2025.04453 1322.04339 2107.69942 1363.35725 2025.04453 1363.35725 1983.71709 1487.29882 1859.73478 1445.98496 1777.0799 1363.35725 1735.75246 1363.35725 1694.42501 1404.67111 1529.11526 1404.67111 1446.46038 1363.35725 1446.46038 1280.72954 1529.11526 1198.10183 1487.78782 1115.47411 1653.09757 1032.8464 1653.09757 908.904834 1653.09757 826.277121 1611.77014 826.277121 1570.4427 702.335553 1611.77014 578.393985 1529.11526 578.393985 1446.46038 619.707842 1446.46038 702.335553 1446.46038 867.590978 1446.46038 950.21869 1405.13294 867.590978 1322.47806 826.277121 1322.47806 950.21869 1281.15062 1032.8464 1239.82318 1156.78797 1198.49574 1198.10183 1157.1683 1198.10183 1074.51343 1115.47411 1033.18599 1074.16026 1074.51343 991.532545 1033.18599"></polyline>
            <polyline id="Shape" stroke="#6B6169" stroke-width="3" points="1652.55425 785.22135 1652.55425 826.548789 1693.8681 867.876228 1569.92654 867.876228 1487.29882 950.531107 1445.98496 867.876228 1322.04339 909.203668 1280.72954 826.548789 1198.10183 785.22135 1198.10183 950.531107 1322.04339 1074.51343 1363.35725 1033.18599 1445.98496 1115.84086 1487.29882 1198.49574 1569.92654 1198.49574 1611.24039 1239.82318 1528.61268 1363.8055 1528.61268 1405.13294 1611.24039 1529.11526 1652.55425 1487.78782 1652.55425 1570.4427 1652.55425 1653.09757 1652.55425 1777.0799 1652.55425 1818.40734 1693.8681 1818.40734 1735.18196 1859.73478 1776.49581 1859.73478 1776.49581 1818.40734 1900.43737 1818.40734 1983.06509 1777.0799 2024.37896 1735.75246 2107.00667 1777.0799 2148.32052 1735.75246 2148.32052 1694.42501 2148.32052 1653.09757 2272.26209 1653.09757 2354.8898 1735.75246 2272.26209 1818.40734 2230.94823 1777.0799 2148.32052 1859.73478 2148.32052 1942.38965 2189.63438 1942.38965 2148.32052 2025.04453 2148.32052 2066.37198 2107.00667 2066.37198 2024.37896 1983.71709 1983.06509 1942.38965 2065.69281 1901.06221"></polyline>
            <path d="M1859.12352,2025.04453 L1776.49581,1983.71709" id="Shape" stroke="#6B6169" stroke-width="3"></path>
            <polyline id="Shape" stroke="#6B6169" stroke-width="3" points="2768.02836 1570.4427 2768.02836 1611.77014 2891.96992 1529.11526 2933.28378 1487.78782 2974.59764 1529.11526 2974.59764 1653.09757 2974.59764 1735.75246 2974.59764 1777.0799 2974.59764 1818.40734 2974.59764 1859.73478 2974.59764 1901.06221 2891.96992 1942.38965 2850.65607 1942.38965 2850.65607 1983.71709 2933.28378 2066.37198 2891.96992 2190.35429 2850.65607 2231.68173 2685.40065 2273.00917 2726.71451 2107.69942 2685.40065 1942.38965 2644.0868 1942.38965 2768.02836 1818.40734 2850.65607 1859.73478 2891.96992 1735.75246"></polyline>
            <polyline id="Shape" stroke="#6B6169" stroke-width="3" points="2313.57594 1859.73478 2313.57594 2025.04453 2354.88979 2025.04453 2230.94823 2107.69942 2272.26208 2149.02684 2272.26208 2231.68173 2396.20365 2231.68173 2437.5175 2314.33661 2478.83136 2149.02684"></polyline>
            <polyline id="Shape" stroke="#6B6169" stroke-width="3" points="1198.10183 2273.00917 1074.16026 2314.33661 950.218691 2355.66405 1115.47411 2438.31892"></polyline>
            <polyline id="Shape" stroke="#6B6169" stroke-width="3" points="784.963266 2603.62869 743.64941 2686.28356 619.707841 2727.611 702.335553 2810.26589 743.64941 2851.59333 743.64941 2934.2482"></polyline>
            <path d="M1239.41568,2562.30125 L1280.72954,2603.62869" id="Shape" stroke="#4C7EC7" stroke-width="3"></path>
            <path d="M950.21869,2025.04453 L991.532545,2066.37198" id="Shape" stroke="#BC2F35" stroke-width="3"></path>
            <polyline id="Shape" stroke="#BC2F35" stroke-width="3" points="1445.98496 2603.62869 1404.67111 2603.62869 1404.67111 2562.30125"></polyline>
            <polyline id="Shape" stroke="#A9DA6D" stroke-width="3" points="2726.7145 1901.06221 2726.7145 1942.38965 2726.7145 2149.02684 2726.7145 2231.68173"></polyline>
            <path d="M1735.18196,2396.99148 L1735.18196,2520.97381" id="Shape" stroke="#A9DA6D" stroke-width="3"></path>
            <path d="M1404.67111,1942.38965 L1404.67111,1901.06221" id="Shape" stroke="#0F357C" stroke-width="3"></path>
            <polyline id="Shape" stroke="#D0021B" stroke-width="3" points="2933.18182 3181.8542 2891.86364 3181.8542 2891.86364 3140.53143 2891.86364 3099.20864 2891.86364 3057.88586 2850.54546 3057.88586 2809.22727 3057.88586 2767.90909 3057.88586 2767.90909 3099.20864 2726.59091 3099.20864 2726.59091 3140.53143 2726.59091 3181.8542 2685.27273 3181.8542 2643.95454 3181.8542 2643.95454 3140.53143 2602.63636 3140.53143 2643.95454 3099.20864 2643.95454 3057.88586 2643.95454 3016.56308 2643.95454 2975.24029 2643.95454 2933.91752 2643.95454 2892.59474 2602.63636 2892.59474 2520 2892.59474 2437.36364 2892.59474 2396.04546 2933.91752 2396.04546 2975.24029 2437.36364 3016.56308 2396.04546 3057.88586 2396.04546 3099.20864 2396.04546 3140.53143 2396.04546 3181.8542 2396.04546 3223.17699 2396.04546 3264.49977 2478.68182 3223.17699 2520 3223.17699 2520 3181.8542 2520 3140.53143 2520 3057.88586 2561.31818 3223.17699 2561.31818 3264.49977 2520 3264.49977 2602.63636 3223.17699 2643.95454 3223.17699 2643.95454 3264.49977 2685.27273 3264.49977 2767.90909 3264.49977 2767.90909 3223.17699 2767.90909 3181.8542 2767.90909 3140.53143 2809.22727 3140.53143 2809.22727 3099.20864 2809.22727 3181.8542 2809.22727 3223.17699 2809.22727 3264.49977 2891.86364 3264.49977 2891.86364 3223.17699 2933.18182 3223.17699 2933.18182 3099.20864 2933.18182 3057.88586 2933.18182 3016.56308 2891.86364 3016.56308 2850.54546 3016.56308 2850.54546 2975.24029 2850.54546 2933.91752 2809.22727 2933.91752 2767.90909 2933.91752 2726.59091 2933.91752 2726.59091 2892.59474 2685.27273 2892.59474 2685.27273 2975.24029 2726.59091 3016.56308 2767.90909 2892.59474 2767.90909 2809.94917 2809.22727 2809.94917 2809.22727 2768.62638 2850.54546 2768.62638 2850.54546 2809.94917 2850.54546 2851.27195 2891.86364 2809.94917 2891.86364 2768.62638 2891.86364 2727.3036 2891.86364 2685.98083 2850.54546 2685.98083 2850.54546 2644.65804 2891.86364 2644.65804 2891.86364 2603.33526 2891.86364 2562.01248 2891.86364 2520.68969 2891.86364 2438.04413 2891.86364 2396.72135 2891.86364 2355.39857 2891.86364 2314.07578 2933.18182 2355.39857 2974.5 2272.75301 2891.86364 2231.43023 2891.86364 2148.78466 2891.86364 2066.1391 2891.86364 2024.81632 2891.86364 1983.49353 2891.86364 1900.84796 2767.90909 1900.84796 2767.90909 1983.49353 2726.59091 1983.49353 2767.90909 2024.81632 2767.90909 2066.1391 2809.22727 2024.81632 2643.95454 2024.81632 2643.95454 1983.49353 2643.95454 1900.84796 2643.95454 1859.52518 2643.95454 1818.20241 2643.95454 1776.87962 2561.31818 1694.23406 2520 1694.23406 2478.68182 1694.23406 2437.36364 1735.55684 2396.04546 1735.55684 2396.04546 1694.23406 2354.72727 1694.23406 2354.72727 1652.91127 2354.72727 1611.5885 2354.72727 1528.94293 2313.40909 1528.94293 2354.72727 1487.62015 2354.72727 1446.29737 2396.04546 1404.97458 2478.68182 1363.6518 2478.68182 1322.32902 2437.36364 1281.00624 2478.68182 1239.68346 2520 1198.36067 2561.31818 1239.68346 2602.63636 1157.03789 2561.31818 1115.71511 2602.63636 1074.39233 2643.95454 1033.06955 2685.27273 1033.06955 2685.27273 950.423983 2685.27273 909.101203 2685.27273 867.77842 2726.59091 867.77842 2726.59091 909.101203 2726.59091 950.423983 2767.90909 867.77842 2809.22727 826.455638 2850.54546 867.77842 2891.86364 867.77842 2891.86364 826.455638 2891.86364 785.132856 2891.86364 743.810074 2850.54546 743.810074 2809.22727 702.487293 2767.90909 661.164511 2767.90909 578.518946 2726.59091 578.518946 2726.59091 537.196164 2767.90909 537.196164 2767.90909 495.873383 2767.90909 454.550601 2726.59091 454.550601 2685.27273 413.227819 2643.95454 413.227819 2602.63636 413.227819 2561.31818 413.227819 2520 413.227819 2478.68182 413.227819 2478.68182 454.550601 2478.68182 495.873383 2437.36364 495.873383 2396.04546 454.550601 2396.04546 413.227819 2354.72727 330.582255 2354.72727 289.259474 2354.72727 247.936692 2396.04546 247.936692 2437.36364 247.936692 2478.68182 247.936692 2478.68182 289.259474 2520 247.936692 2520 206.61391 2520 165.291127 2478.68182 165.291127 2478.68182 123.968346 2520 123.968346 2520 82.6455638 2561.31818 82.6455638 2561.31818 41.3227819 2602.63636 41.3227819 2602.63636 0 2643.95454 0 2643.95454 41.3227819 2643.95454 82.6455638 2643.95454 123.968346 2602.63636 165.291127 2561.31818 165.291127 2561.31818 206.61391 2602.63636 206.61391 2602.63636 247.936692 2561.31818 289.259474 2561.31818 330.582255 2520 330.582255 2602.63636 330.582255 2602.63636 371.905037 2643.95454 330.582255 2643.95454 289.259474 2685.27273 247.936692 2726.59091 247.936692 2726.59091 206.61391 2726.59091 165.291127 2767.90909 165.291127 2767.90909 123.968346 2809.22727 123.968346 2809.22727 165.291127 2809.22727 206.61391 2767.90909 206.61391 2767.90909 247.936692 2767.90909 289.259474 2726.59091 289.259474 2726.59091 330.582255 2726.59091 371.905037 2767.90909 330.582255 2767.90909 413.227819 2809.22727 413.227819 2809.22727 454.550601 2809.22727 495.873383 2850.54546 454.550601 2850.54546 413.227819 2850.54546 371.905037 2891.86364 413.227819 2974.5 413.227819 2974.5 371.905037 2974.5 330.582255 2933.18182 330.582255 2933.18182 289.259474 2891.86364 289.259474 2850.54546 289.259474 2850.54546 247.936692 2850.54546 206.61391 2850.54546 165.291127 2850.54546 123.968346 2850.54546 82.6455638 2850.54546 41.3227819 2850.54546 0 2891.86364 0 2891.86364 41.3227819 2891.86364 82.6455638 2891.86364 123.968346 2891.86364 165.291127 2891.86364 206.61391 2891.86364 247.936692 2933.18182 247.936692 2974.5 247.936692 2974.5 206.61391 2974.5 165.291127 2933.18182 165.291127 2974.5 123.968346 2974.5 82.6455638 2933.18182 82.6455638 2974.5 41.3227819 2974.5 0 2767.90909 0 2767.90909 41.3227819 2726.59091 41.3227819 2726.59091 82.6455638 2685.27273 0 2520 0 2478.68182 0 2437.36364 41.3227819 2437.36364 82.6455638 2354.72727 82.6455638 2354.72727 123.968346 2354.72727 165.291127 2313.40909 165.291127 2230.77273 123.968346 2189.45454 123.968346 2189.45454 82.6455638 2189.45454 41.3227819 2148.13636 41.3227819 2106.81818 41.3227819 2065.5 41.3227819 2065.5 0 2106.81818 0 2148.13636 0 2189.45454 0 2230.77273 0 2230.77273 41.3227819 2272.09091 41.3227819 2354.72727 0"></polyline>
        </g>
    </g>
</svg>