<?xml version="1.0" encoding="UTF-8"?>
<svg width="1920px" height="1080px" viewBox="0 0 1920 1080" version="1.1" xmlns="http://www.w3.org/2000/svg" xmlns:xlink="http://www.w3.org/1999/xlink">
    <!-- Generator: Sketch 51.3 (57544) - http://www.bohemiancoding.com/sketch -->
    <title>Group</title>
    <desc>Created with Sketch.</desc>
    <defs>
        <rect id="path-1" x="0" y="0" width="1920" height="1080"></rect>
    </defs>
    <g id="Page-1" stroke="none" stroke-width="1" fill="none" fill-rule="evenodd">
        <g id="Group">
            <mask id="mask-2" fill="white">
                <use xlink:href="#path-1"></use>
            </mask>
            <use id="Mask" fill="#FFFFFF" xlink:href="#path-1"></use>
            <g mask="url(#mask-2)" id="Shape" stroke-linecap="round" stroke-width="10">
                <g transform="translate(935.375000, 660.281250) rotate(7.000000) translate(-935.375000, -660.281250) translate(-139.625000, -519.718750)">
                    <polyline stroke="#D5D3D8" points="2087 1612 2087 1552.25 2087 1492.5 2087 1462.625 2087 1432.75 2087 1373"></polyline>
                    <polyline stroke="#D5D3D8" points="1999 1373 1999 1433.5 1969 1433.5 1999 1463.75 1999 1494 2029 1463.75"></polyline>
                    <polyline stroke="#D5D3D8" points="1908 1463 1908 1433.16667 1908 1373.5 1908 1343.66667 1908 1313.83333 1908 1284"></polyline>
                    <polyline stroke="#D5D3D8" points="1849.66667 1223 1819.83333 1223 1790 1223 1819.83333 1193.22222 1819.83333 1163.44444 1819.83333 1133.66667 1849.66667 1133.66667 1849.66667 1163.44444 1849.66667 1193.22222 1909.33333 1193.22222 1909.33333 1163.44444 1909.33333 1133.66667 1879.5 1133.66667 1879.5 1103.88889 1879.5 1074.11111 1849.66667 1074.11111 1909.33333 1074.11111 1909.33333 1103.88889 1939.16667 1074.11111 1939.16667 1044.33333 1939.16667 1014.55556 1939.16667 984.777778 1969 984.777778 1969 955 1969 1014.55556 1969 1044.33333 1969 1074.11111 1969 1133.66667 1939.16667 1133.66667 1939.16667 1163.44444"></polyline>
                    <polyline stroke="#D5D3D8" points="1998 1194 1998 1223.66667 1998 1253.33333 1998 1283"></polyline>
                    <polyline stroke="#D5D3D8" points="2146 1075 2116.2 1045.2 2146 1015.4 2146 955.8 2116.2 926 2116.2 896.2 2116.2 866.4 2086.4 866.4 2056.6 866.4 2026.8 866.4 1997 866.4 1967.2 836.6 1937.4 866.4 1907.6 866.4 1877.8 836.6 1848 806.8 1877.8 777 1907.6 747.2 1937.4 747.2 1937.4 687.6 1937.4 657.8 1937.4 628 1967.2 628 1967.2 657.8 1967.2 687.6"></polyline>
                    <polyline stroke="#D5D3D8" points="1998 627 2027.66667 597 2057.33333 627 2087 627 2087 597 2087 567 2087 537 2057.33333 537 2057.33333 507 2027.66667 507 1998 477 1998 537"></polyline>
                    <polyline stroke="#D5D3D8" points="1908 537 1878.125 537 1848.25 537 1818.375 537 1788.5 537 1788.5 507.166667 1788.5 477.333333 1758.625 477.333333 1728.75 477.333333 1728.75 447.5 1698.875 447.5 1728.75 417.666667 1698.875 387.833333 1669 387.833333 1698.875 358 1728.75 328.166667 1728.75 298.333333 1788.5 298.333333 1788.5 328.166667 1788.5 358 1758.625 358 1788.5 387.833333 1788.5 417.666667 1788.5 447.5 1818.375 417.666667 1818.375 387.833333 1818.375 358 1848.25 358 1848.25 328.166667 1848.25 298.333333 1818.375 298.333333 1818.375 238.666667 1848.25 238.666667 1848.25 208.833333 1818.375 179 1788.5 179 1758.625 179 1788.5 208.833333"></polyline>
                    <polyline stroke="#D5D3D8" points="1998 239 1998 298.666667 1998 328.5 1968 328.5 1998 358.333333 1998 388.166667 1968 388.166667 1968 418 1908 418 1878 418 1848 418 1848 388.166667 1878 388.166667 1878 358.333333 1878 328.5 1908 328.5 1908 358.333333 1908 388.166667"></polyline>
                    <polyline stroke="#D5D3D8" points="1848.66667 447 1848.66667 477 1819 477 1819 507 1848.66667 507 1878.33333 507 1878.33333 477 1908 477 1908 507"></polyline>
                    <polyline stroke="#D5D3D8" points="1878 568 1848.23529 568 1818.47059 568 1818.47059 597.833333 1788.70588 597.833333 1758.94118 597.833333 1729.17647 597.833333 1699.41176 597.833333 1699.41176 568 1669.64706 568 1639.88235 568 1639.88235 597.833333 1610.11765 597.833333 1580.35294 597.833333 1550.58824 597.833333 1520.82353 597.833333 1520.82353 627.666667 1550.58824 657.5 1550.58824 687.333333 1550.58824 717.166667 1550.58824 747 1520.82353 747 1491.05882 776.833333 1491.05882 806.666667 1491.05882 836.5 1520.82353 836.5 1520.82353 806.666667 1550.58824 806.666667 1550.58824 836.5 1550.58824 866.333333 1520.82353 866.333333 1520.82353 896.166667 1491.05882 896.166667 1491.05882 926 1461.29412 926 1431.52941 926 1401.76471 926 1401.76471 896.166667 1431.52941 896.166667 1431.52941 866.333333 1431.52941 836.5 1401.76471 836.5 1401.76471 806.666667 1431.52941 806.666667 1431.52941 747 1372 747"></polyline>
                    <polyline stroke="#D5D3D8" points="1343.15789 687 1373 657.1875 1373 627.375 1343.15789 627.375 1313.31579 627.375 1283.47368 627.375 1283.47368 597.5625 1253.63158 597.5625 1253.63158 567.75 1223.78947 567.75 1223.78947 537.9375 1193.94737 537.9375 1164.10526 537.9375 1134.26316 537.9375 1104.42105 537.9375 1074.57895 537.9375 1044.73684 537.9375 1014.89474 537.9375 985.052632 537.9375 955.210526 537.9375 925.368421 537.9375 895.526316 537.9375 895.526316 508.125 895.526316 478.3125 865.684211 478.3125 865.684211 448.5 835.842105 448.5 835.842105 418.6875 806 418.6875 776.157895 418.6875 776.157895 388.875 806 388.875 806 359.0625 835.842105 329.25 835.842105 299.4375 806 299.4375 776.157895 299.4375 716.473684 299.4375 686.631579 299.4375 626.947368 299.4375 626.947368 329.25 597.105263 329.25 567.263158 329.25 537.421053 329.25 507.578947 329.25 477.736842 329.25 447.894737 329.25 418.052632 329.25 388.210526 329.25 358.368421 329.25 328.526316 329.25 328.526316 299.4375 358.368421 299.4375 388.210526 299.4375 388.210526 269.625 388.210526 239.8125 358.368421 239.8125 328.526316 239.8125 298.684211 239.8125 268.842105 239.8125 239 210"></polyline>
                    <polyline stroke="#D5D3D8" points="568 179 568 208.8 538.105263 238.6 538.105263 298.2 508.210526 298.2 478.315789 298.2 448.421053 298.2 448.421053 357.8 418.526316 357.8 388.631579 357.8 358.736842 357.8 328.842105 357.8 328.842105 387.6 298.947368 387.6 269.052632 387.6 239.157895 387.6 209.263158 387.6 179.368421 387.6 179.368421 417.4 149.473684 417.4 149.473684 447.2 149.473684 477 179.368421 477 179.368421 447.2 209.263158 447.2 209.263158 477 179.368421 506.8 179.368421 566.4 179.368421 596.2 149.473684 596.2 149.473684 626 119.578947 626 89.6842105 626 59.7894737 626 29.8947368 626 0 626 0 596.2 0 566.4 29.8947368 596.2 59.7894737 596.2 89.6842105 596.2 89.6842105 566.4 89.6842105 536.6 89.6842105 506.8 89.6842105 477 89.6842105 417.4 59.7894737 387.6 59.7894737 357.8 29.8947368 357.8 0 357.8 0 328 0 298.2 29.8947368 328"></polyline>
                    <polyline stroke="#D5D3D8" points="179 627.076923 179 657 208.75 657 208.75 627.076923 208.75 597.153846 268.25 597.153846 268.25 567.230769 268.25 537.307692 238.5 537.307692 238.5 507.384615 268.25 507.384615 268.25 477.461538 298 477.461538 298 447.538462 298 417.615385 268.25 417.615385 268.25 357.769231 238.5 357.769231 238.5 327.846154 208.75 327.846154 238.5 297.923077 268.25 297.923077 298 268"></polyline>
                    <polyline stroke="#D5D3D8" points="356.8 387.85 356.8 417.7 386.6 417.7 416.4 387.85 446.2 387.85 446.2 417.7 446.2 477.4 416.4 477.4 386.6 477.4 356.8 477.4 327 477.4 327 447.55 327 507.25 327 537.1 356.8 537.1 356.8 507.25 356.8 566.95 386.6 566.95 386.6 596.8 416.4 596.8 446.2 596.8 446.2 566.95 446.2 537.1 416.4 537.1 446.2 507.25 476 477.4 505.8 477.4 535.6 477.4 535.6 447.55 535.6 417.7 535.6 387.85 505.8 387.85 505.8 358 535.6 358 565.4 358 565.4 387.85 595.2 358 625 387.85 595.2 417.7 595.2 447.55 595.2 477.4 625 507.25 625 537.1 625 566.95 625 596.8 595.2 596.8 565.4 596.8 595.2 626.65 595.2 656.5 565.4 656.5 535.6 656.5 565.4 686.35 565.4 716.2 535.6 716.2 535.6 746.05 505.8 746.05 505.8 805.75 476 805.75 446.2 835.6 416.4 865.45 416.4 895.3 446.2 895.3 446.2 925.15 446.2 955 416.4 955 386.6 925.15 356.8 955"></polyline>
                    <polyline stroke="#D5D3D8" points="327 1014.85714 297.272727 1014.85714 297.272727 1044.7619 297.272727 1074.66667 297.272727 1104.57143 267.545455 1104.57143 237.818182 1104.57143 208.090909 1104.57143 178.363636 1134.47619 178.363636 1164.38095 178.363636 1194.28571 178.363636 1224.19048 178.363636 1254.09524 178.363636 1284 148.636364 1284 118.909091 1254.09524 89.1818182 1254.09524 89.1818182 1224.19048 89.1818182 1194.28571 59.4545455 1164.38095 59.4545455 1134.47619 89.1818182 1134.47619 89.1818182 1104.57143 59.4545455 1074.66667 29.7272727 1074.66667 29.7272727 1044.7619 29.7272727 1014.85714 29.7272727 984.952381 0 984.952381 29.7272727 955.047619 29.7272727 925.142857 29.7272727 895.238095 0 895.238095 0 865.333333 29.7272727 865.333333 29.7272727 835.428571 29.7272727 805.52381 29.7272727 775.619048 29.7272727 745.714286 0 745.714286 29.7272727 715.809524 29.7272727 685.904762 59.4545455 685.904762 59.4545455 656 89.1818182 685.904762 59.4545455 715.809524 59.4545455 745.714286 89.1818182 775.619048 89.1818182 805.52381 89.1818182 835.428571 118.909091 835.428571 118.909091 805.52381 148.636364 805.52381 178.363636 805.52381 178.363636 835.428571 178.363636 865.333333 178.363636 895.238095 178.363636 925.142857 148.636364 955.047619 118.909091 955.047619 89.1818182 955.047619 59.4545455 955.047619 59.4545455 925.142857 59.4545455 895.238095 59.4545455 865.333333 118.909091 865.333333 118.909091 895.238095 118.909091 925.142857 118.909091 984.952381 89.1818182 984.952381 89.1818182 1014.85714 59.4545455 1014.85714 59.4545455 1044.7619 118.909091 1044.7619 118.909091 1014.85714 148.636364 984.952381 208.090909 984.952381 208.090909 1014.85714 208.090909 1044.7619"></polyline>
                    <polyline stroke="#D5D3D8" points="208.6875 1164.10714 238.5 1164.10714 238.5 1193.92857 238.5 1223.75 268.3125 1223.75 268.3125 1193.92857 268.3125 1164.10714 268.3125 1134.28571 298.125 1134.28571 298.125 1164.10714 327.9375 1164.10714 327.9375 1134.28571 327.9375 1104.46429 357.75 1104.46429 357.75 1134.28571 357.75 1164.10714 387.5625 1134.28571 387.5625 1104.46429 387.5625 1074.64286 387.5625 1044.82143 357.75 1044.82143 387.5625 1015 417.375 1015 417.375 1074.64286 447.1875 1104.46429 417.375 1134.28571 447.1875 1164.10714 477 1193.92857 477 1223.75 447.1875 1223.75 417.375 1223.75 387.5625 1193.92857 357.75 1223.75 327.9375 1223.75 327.9375 1253.57143 357.75 1253.57143 357.75 1283.39286 298.125 1283.39286 268.3125 1283.39286 268.3125 1253.57143 208.6875 1253.57143 208.6875 1283.39286 208.6875 1313.21429 178.875 1313.21429 178.875 1343.03571 149.0625 1343.03571 119.25 1372.85714 89.4375 1372.85714 59.625 1372.85714 59.625 1402.67857 29.8125 1402.67857 0 1432.5 0 1462.32143 0 1492.14286 0 1521.96429 0 1551.78571 0 1581.60714 29.8125 1551.78571 29.8125 1521.96429 29.8125 1492.14286 29.8125 1462.32143 59.625 1462.32143 59.625 1432.5 89.4375 1432.5 89.4375 1402.67857 119.25 1402.67857 119.25 1432.5 149.0625 1432.5 149.0625 1402.67857 178.875 1402.67857 178.875 1372.85714 208.6875 1343.03571 268.3125 1343.03571 268.3125 1313.21429 298.125 1313.21429 298.125 1343.03571 268.3125 1372.85714 268.3125 1402.67857 238.5 1402.67857 238.5 1432.5 238.5 1462.32143 208.6875 1462.32143 178.875 1462.32143 178.875 1432.5 178.875 1492.14286 178.875 1521.96429 149.0625 1521.96429 178.875 1551.78571 178.875 1581.60714 149.0625 1581.60714 178.875 1611.42857 149.0625 1641.25 178.875 1671.07143 208.6875 1671.07143 208.6875 1700.89286 208.6875 1730.71429 178.875 1730.71429 178.875 1760.53571 178.875 1790.35714 149.0625 1790.35714 119.25 1760.53571 89.4375 1760.53571 59.625 1760.53571 59.625 1790.35714 89.4375 1790.35714 89.4375 1820.17857 89.4375 1850 59.625 1850 29.8125 1850 0 1850 0 1820.17857 0 1790.35714 0 1760.53571"></polyline>
                    <polyline stroke="#D5D3D8" points="210 1581 210 1551.125 210 1521.25 240 1521.25 240 1491.375 270 1491.375 270 1461.5 270 1431.625 300 1431.625 300 1461.5 330 1431.625 360 1431.625 360 1401.75 360 1371.875 360 1342"></polyline>
                    <polyline stroke="#D5D3D8" points="418 1402 418 1431.875 388.166667 1431.875 358.333333 1461.75 358.333333 1491.625 328.5 1491.625 328.5 1521.5 358.333333 1521.5 358.333333 1551.375 358.333333 1581.25 358.333333 1611.125 328.5 1611.125 298.666667 1641 268.833333 1641 268.833333 1611.125 239 1611.125 239 1581.25 268.833333 1581.25 268.833333 1551.375 268.833333 1521.5 298.666667 1551.375"></polyline>
                    <polyline stroke="#D5D3D8" points="389 1520 389 1490.17857 418.857143 1520 448.714286 1490.17857 448.714286 1460.35714 448.714286 1430.53571 448.714286 1400.71429 448.714286 1370.89286 448.714286 1341.07143 448.714286 1311.25 448.714286 1281.42857 448.714286 1251.60714 508.428571 1251.60714 538.285714 1251.60714 538.285714 1221.78571 538.285714 1191.96429 508.428571 1191.96429 538.285714 1162.14286 538.285714 1132.32143 538.285714 1102.5 568.142857 1102.5 568.142857 1072.67857 568.142857 1042.85714 538.285714 1042.85714 508.428571 1013.03571 478.571429 1013.03571 478.571429 983.214286 478.571429 953.392857 478.571429 923.571429 508.428571 953.392857 538.285714 923.571429 538.285714 893.75 568.142857 893.75 568.142857 923.571429 568.142857 953.392857 568.142857 983.214286 568.142857 1013.03571 598 1042.85714 598 1072.67857 598 1102.5 627.857143 1102.5 627.857143 1072.67857 657.714286 1042.85714 687.571429 1042.85714 717.428571 1042.85714 747.285714 1042.85714 747.285714 1013.03571 777.142857 1013.03571 777.142857 983.214286 807 983.214286 807 953.392857 807 923.571429 777.142857 923.571429 807 893.75 807 863.928571 777.142857 863.928571 807 834.107143 807 804.285714 777.142857 804.285714 747.285714 804.285714 717.428571 804.285714 747.285714 774.464286 747.285714 744.642857 747.285714 714.821429 717.428571 714.821429 657.714286 714.821429 657.714286 685 627.857143 685 598 714.821429 598 744.642857 568.142857 744.642857 568.142857 774.464286 568.142857 804.285714 538.285714 804.285714 538.285714 834.107143 568.142857 834.107143 598 834.107143 598 804.285714 627.857143 804.285714 627.857143 774.464286 627.857143 744.642857 657.714286 744.642857 657.714286 804.285714 627.857143 834.107143 598 863.928571 627.857143 893.75 627.857143 923.571429 657.714286 923.571429 657.714286 893.75 657.714286 863.928571 687.571429 863.928571 687.571429 893.75 717.428571 893.75 717.428571 863.928571 717.428571 923.571429 717.428571 983.214286 687.571429 983.214286"></polyline>
                    <polyline stroke="#D5D3D8" points="687 1105 657.25 1105 657.25 1134.66667 627.5 1134.66667 627.5 1164.33333 627.5 1194 597.75 1194 568 1194"></polyline>
                    <polyline stroke="#D5D3D8" points="597 1253 627 1253 627 1283 627 1313 627 1343 597 1343 567 1343 537 1343 507 1343 477 1343 477 1373 507 1373 507 1403 537 1403 537 1373 537 1313 537 1283 567 1313"></polyline>
                    <polyline stroke="#D5D3D8" points="597 1373 597 1403 597 1433 626 1433 626 1403 626 1373"></polyline>
                    <polyline stroke="#D5D3D8" points="656 1315 656 1255 685.666667 1255 715.333333 1255 715.333333 1225 715.333333 1195 685.666667 1195 656 1165 685.666667 1135 715.333333 1135 715.333333 1105 745 1105 745 1135 715.333333 1165"></polyline>
                    <polyline stroke="#D5D3D8" points="776.0625 1105 805.875 1075.13514 835.6875 1075.13514 835.6875 1045.27027 835.6875 1015.40541 835.6875 985.540541 865.5 955.675676 895.3125 925.810811 865.5 895.945946 835.6875 895.945946 865.5 866.081081 835.6875 836.216216 865.5 806.351351 835.6875 776.486486 805.875 776.486486 776.0625 746.621622 835.6875 746.621622 835.6875 716.756757 835.6875 686.891892 835.6875 657.027027 805.875 657.027027 776.0625 657.027027 746.25 657.027027 716.4375 657.027027 686.625 657.027027 656.8125 657.027027 627 627.162162 656.8125 597.297297 656.8125 567.432432 656.8125 537.567568 686.625 537.567568 686.625 567.432432 686.625 597.297297 686.625 627.162162 716.4375 627.162162 716.4375 597.297297 716.4375 567.432432 716.4375 537.567568 716.4375 507.702703 716.4375 477.837838 746.25 477.837838 776.0625 447.972973 805.875 477.837838 805.875 507.702703 776.0625 507.702703 776.0625 537.567568 776.0625 567.432432 746.25 567.432432 776.0625 597.297297 776.0625 627.162162 746.25 627.162162 805.875 627.162162 805.875 597.297297 805.875 567.432432 805.875 537.567568 835.6875 537.567568 835.6875 507.702703 835.6875 567.432432 835.6875 597.297297 835.6875 627.162162 865.5 597.297297 895.3125 567.432432 925.125 567.432432 925.125 507.702703 925.125 477.837838 925.125 447.972973 895.3125 418.108108 865.5 418.108108 895.3125 388.243243 895.3125 358.378378 865.5 358.378378 865.5 328.513514 865.5 298.648649 865.5 268.783784 895.3125 268.783784 895.3125 238.918919 925.125 238.918919 954.9375 238.918919 954.9375 209.054054 954.9375 179.189189 925.125 179.189189 895.3125 179.189189 865.5 149.324324 865.5 89.5945946 895.3125 89.5945946 895.3125 29.8648649 925.125 29.8648649 954.9375 29.8648649 954.9375 0 984.75 0 984.75 59.7297297 984.75 89.5945946 954.9375 89.5945946 954.9375 119.459459 954.9375 149.324324 984.75 149.324324 984.75 119.459459 1014.5625 119.459459 1014.5625 149.324324 1044.375 149.324324 1044.375 119.459459 1044.375 89.5945946 1044.375 59.7297297 1044.375 29.8648649 1044.375 0 1074.1875 0 1104 0 1104 29.8648649 1104 59.7297297 1074.1875 59.7297297 1074.1875 89.5945946 1074.1875 119.459459 1074.1875 149.324324 1074.1875 179.189189 1044.375 179.189189 1044.375 209.054054 1014.5625 209.054054 984.75 209.054054 984.75 179.189189"></polyline>
                    <polyline stroke="#D5D3D8" points="983 568 983 597.666667 983 627.333333 953 627.333333 983 657 1013 657 1013 627.333333 1013 597.666667 1043 597.666667 1043 568 1073 568 1073 597.666667 1073 627.333333 1073 657 1103 657 1103 627.333333 1103 597.666667 1133 597.666667 1133 568 1163 568 1163 597.666667 1163 627.333333"></polyline>
                    <polyline stroke="#D5D3D8" points="1222 656 1252 656 1282 656 1282 716 1252 716"></polyline>
                    <polyline stroke="#D5D3D8" points="1163 715 1103 715 1073 715 1043 715 1013 715 983 715 1013 685 1013 745 1013 775 983 775 983 805 953 805 983 835 1013 835 1013 805 1043 775 1073 775 1073 745 1073 805 1073 835 1103 865 1073 895"></polyline>
                    <polyline stroke="#D5D3D8" points="1013 866 984 896 984 926"></polyline>
                    <path d="M924,955 L895,984" stroke="#D5D3D8"></path>
                    <polyline stroke="#D5D3D8" points="953 1013 1013 1013 1013 983.333333 1073 983.333333 1103 953.666667 1133 953.666667 1163 924 1163 983.333333 1163 1013"></polyline>
                    <polyline stroke="#D5D3D8" points="1103 1045 1074 1045 1074 1075.25 1074 1105.5 1074 1135.75 1074 1166 1103 1166 1103 1135.75 1103 1105.5"></polyline>
                    <polyline stroke="#D5D3D8" points="1163.25 1134 1163.25 1163.8 1223 1163.8 1223 1193.6 1223 1223.4 1193.125 1223.4 1193.125 1253.2 1163.25 1253.2 1163.25 1283 1163.25 1312.8 1133.375 1312.8 1133.375 1342.6 1163.25 1342.6 1163.25 1372.4 1163.25 1402.2 1133.375 1402.2 1103.5 1402.2 1073.625 1402.2 1073.625 1372.4 1073.625 1432 1043.75 1432 1073.625 1461.8 1073.625 1491.6 1043.75 1491.6 1013.875 1521.4 984 1521.4 984 1491.6 984 1551.2 984 1581"></polyline>
                    <polyline stroke="#D5D3D8" points="1044.16667 1550.88889 1074 1550.88889 1074 1521.11111 1074 1580.66667 1074 1610.44444 1044.16667 1640.22222 1044.16667 1670 1014.33333 1670 984.5 1670 954.666667 1670 924.833333 1670 924.833333 1640.22222 895 1640.22222 895 1610.44444 895 1580.66667 895 1550.88889 895 1521.11111 895 1491.33333 895 1431.77778 924.833333 1402 954.666667 1402 984.5 1402"></polyline>
                    <polyline stroke="#D5D3D8" points="894 1373 894 1343.125 864 1343.125 894 1313.25 894 1283.375 894 1253.5 894 1193.75 954 1193.75 954 1163.875 984 1163.875 984 1193.75 1014 1163.875 1014 1134"></polyline>
                    <polyline stroke="#D5D3D8" points="834 1105 834 1135 804.333333 1135 804.333333 1165 804.333333 1225 804.333333 1255 804.333333 1285 745 1285 745 1315"></polyline>
                    <polyline stroke="#D5D3D8" points="805 1373 805 1403 775 1433 745 1463 745 1493 805 1493 805 1463 805 1523"></polyline>
                    <polyline stroke="#D5D3D8" points="687 1613 627 1613 627 1553 627 1523 627 1463"></polyline>
                    <polyline stroke="#D5D3D8" points="685 1431 685 1402 714 1431"></polyline>
                    <polyline stroke="#D5D3D8" points="537 1463 507 1463 477 1463 477 1523 507 1523 537 1523 537 1493"></polyline>
                    <polyline stroke="#D5D3D8" points="478 1611 448 1611 418 1611 388 1611 358 1641.25 388 1671.5 418 1671.5 418 1641.25 448 1641.25 448 1701.75 418 1701.75 448 1732 478 1701.75 508 1701.75"></polyline>
                    <polyline stroke="#D5D3D8" points="1492 1879 1462 1879 1462 1849.16667 1462 1819.33333 1462 1759.66667 1462 1729.83333 1462 1700 1492 1700 1522 1670.16667 1522 1640.33333 1492 1640.33333 1492 1610.5 1462 1610.5 1492 1580.66667 1522 1580.66667 1522 1610.5 1552 1610.5 1552 1580.66667 1552 1550.83333 1552 1521 1522 1521 1462 1521 1462 1491.16667 1432 1491.16667 1432 1461.33333 1432 1431.5 1402 1401.66667 1372 1401.66667 1372 1371.83333 1342 1371.83333 1342 1342 1372 1342"></polyline>
                    <polyline stroke="#D5D3D8" points="1311.4 1313 1311.4 1283.16667 1281.6 1283.16667 1251.8 1283.16667 1222 1283.16667 1222 1253.33333 1251.8 1253.33333 1251.8 1223.5 1251.8 1193.66667 1281.6 1193.66667 1281.6 1223.5 1341.2 1223.5 1341.2 1193.66667 1341.2 1163.83333 1311.4 1163.83333 1311.4 1134 1311.4 1104.16667 1281.6 1104.16667 1281.6 1074.33333 1281.6 1044.5 1251.8 1044.5 1311.4 1044.5 1311.4 1074.33333 1341.2 1074.33333 1341.2 1044.5 1341.2 1014.66667 1341.2 984.833333 1341.2 955 1371 984.833333 1371 1014.66667 1400.8 984.833333 1430.6 984.833333 1430.6 955 1460.4 984.833333 1430.6 1014.66667 1430.6 1044.5 1400.8 1044.5 1400.8 1074.33333 1371 1074.33333 1341.2 1104.16667 1341.2 1134 1371 1134 1400.8 1134 1400.8 1104.16667 1430.6 1104.16667 1430.6 1074.33333 1460.4 1074.33333 1460.4 1044.5 1460.4 1104.16667 1460.4 1134 1430.6 1134 1400.8 1163.83333 1430.6 1193.66667 1460.4 1163.83333 1490.2 1163.83333 1520 1193.66667 1520 1223.5 1460.4 1223.5 1430.6 1253.33333 1460.4 1283.16667"></polyline>
                    <polyline stroke="#D5D3D8" points="1521 1313.125 1521 1342.9375 1521 1402.5625 1521 1432.375 1521 1462.1875 1551 1432.375 1611 1432.375 1611 1462.1875 1611 1492 1581 1492 1641 1492 1641 1462.1875 1641 1432.375 1671 1432.375 1671 1402.5625 1701 1402.5625 1701 1372.75 1701 1342.9375 1701 1313.125 1731 1313.125 1731 1283.3125 1731 1253.5 1701 1223.6875 1701 1193.875 1701 1164.0625 1701 1104.4375 1671 1104.4375 1701 1074.625 1701 1044.8125 1731 1015"></polyline>
                    <polyline stroke="#D5D3D8" points="1790 984 1790 1044.5 1790 1105"></polyline>
                    <path d="M1879,1013 L1879,984" stroke="#D5D3D8"></path>
                    <polyline stroke="#D5D3D8" points="1848 896.2 1818.22222 866.4 1788.44444 896.2 1758.66667 926 1699.11111 926 1699.11111 896.2 1699.11111 866.4 1699.11111 836.6 1669.33333 836.6 1639.55556 836.6 1609.77778 836.6 1580 836.6 1609.77778 806.8 1609.77778 777 1609.77778 747.2 1609.77778 717.4 1580 717.4 1580 687.6 1580 657.8 1609.77778 657.8 1609.77778 628 1639.55556 628 1639.55556 687.6 1609.77778 687.6 1639.55556 717.4 1639.55556 747.2 1699.11111 747.2 1699.11111 717.4 1699.11111 687.6 1669.33333 687.6 1699.11111 657.8 1699.11111 628 1728.88889 628 1728.88889 657.8 1758.66667 657.8 1758.66667 687.6 1788.44444 687.6 1788.44444 717.4 1788.44444 747.2 1788.44444 777 1758.66667 806.8 1699.11111 806.8 1669.33333 806.8 1699.11111 777 1728.88889 747.2 1728.88889 717.4"></polyline>
                    <polyline stroke="#D5D3D8" points="1790 628 1819.66667 628 1879 628 1879 657"></polyline>
                    <polyline stroke="#D5D3D8" points="1731 566 1731 536 1702 536 1702 506 1731 506"></polyline>
                    <polyline stroke="#D5D3D8" points="1642 447 1612 477 1582 447 1522 447 1492 447 1492 477 1522 477 1522 507"></polyline>
                    <polyline stroke="#D5D3D8" points="1430 506 1430 535.833333 1430 595.5 1430 625.333333 1430 655.166667 1401 655.166667 1430 685"></polyline>
                    <path d="M1461,626 L1461,597" stroke="#D5D3D8"></path>
                    <path d="M1342,535 L1342,506" stroke="#D5D3D8"></path>
                    <polyline stroke="#D5D3D8" points="1251.11765 506 1251.11765 476.235294 1221.35294 476.235294 1191.58824 476.235294 1161.82353 476.235294 1161.82353 506 1191.58824 506 1191.58824 446.470588 1221.35294 446.470588 1251.11765 446.470588 1251.11765 416.705882 1251.11765 386.941176 1221.35294 386.941176 1191.58824 386.941176 1191.58824 357.176471 1161.82353 357.176471 1132.05882 357.176471 1102.29412 357.176471 1072.52941 357.176471 1042.76471 357.176471 1042.76471 327.411765 1013 327.411765 1042.76471 297.647059 1072.52941 297.647059 1072.52941 327.411765 1102.29412 327.411765 1132.05882 327.411765 1161.82353 327.411765 1161.82353 297.647059 1161.82353 267.882353 1132.05882 267.882353 1132.05882 238.117647 1102.29412 238.117647 1072.52941 238.117647 1072.52941 208.352941 1102.29412 178.588235 1102.29412 148.823529 1102.29412 119.058824 1102.29412 89.2941176 1132.05882 89.2941176 1132.05882 59.5294118 1132.05882 29.7647059 1132.05882 0 1161.82353 0 1161.82353 29.7647059 1161.82353 59.5294118 1161.82353 89.2941176 1161.82353 119.058824 1132.05882 119.058824 1132.05882 148.823529 1161.82353 178.588235 1161.82353 208.352941 1132.05882 208.352941 1161.82353 238.117647 1191.58824 238.117647 1191.58824 208.352941 1191.58824 178.588235 1191.58824 148.823529 1191.58824 119.058824 1191.58824 89.2941176 1191.58824 59.5294118 1221.35294 59.5294118 1221.35294 29.7647059 1221.35294 0 1251.11765 0 1251.11765 29.7647059 1251.11765 59.5294118 1251.11765 89.2941176 1221.35294 89.2941176 1221.35294 119.058824 1221.35294 148.823529 1221.35294 178.588235 1221.35294 208.352941 1221.35294 238.117647 1221.35294 267.882353 1221.35294 297.647059 1191.58824 297.647059 1221.35294 327.411765 1251.11765 327.411765 1251.11765 297.647059 1251.11765 267.882353 1251.11765 238.117647 1251.11765 208.352941 1251.11765 178.588235 1251.11765 148.823529 1251.11765 119.058824 1280.88235 119.058824 1280.88235 89.2941176 1310.64706 89.2941176 1310.64706 59.5294118 1310.64706 29.7647059 1280.88235 29.7647059 1310.64706 0 1340.41176 0 1340.41176 29.7647059 1340.41176 59.5294118 1340.41176 89.2941176 1340.41176 119.058824 1310.64706 119.058824 1310.64706 148.823529 1280.88235 148.823529 1310.64706 178.588235 1310.64706 208.352941 1280.88235 208.352941 1280.88235 238.117647 1310.64706 238.117647 1340.41176 238.117647 1340.41176 208.352941 1340.41176 178.588235 1340.41176 148.823529 1399.94118 148.823529 1399.94118 119.058824 1399.94118 89.2941176 1399.94118 59.5294118 1399.94118 29.7647059 1370.17647 29.7647059 1370.17647 0 1399.94118 0 1429.70588 0 1429.70588 29.7647059 1429.70588 59.5294118 1429.70588 89.2941176 1429.70588 119.058824 1429.70588 148.823529 1459.47059 119.058824 1459.47059 89.2941176 1489.23529 89.2941176 1489.23529 59.5294118 1489.23529 29.7647059 1489.23529 0 1519 0 1519 29.7647059 1519 59.5294118 1519 89.2941176 1519 119.058824 1489.23529 119.058824 1489.23529 148.823529 1489.23529 178.588235 1459.47059 178.588235 1429.70588 208.352941 1399.94118 208.352941 1370.17647 208.352941 1370.17647 238.117647 1399.94118 238.117647 1429.70588 238.117647 1429.70588 267.882353 1429.70588 297.647059 1399.94118 297.647059 1370.17647 297.647059 1340.41176 297.647059 1310.64706 297.647059 1280.88235 297.647059 1280.88235 327.411765 1280.88235 357.176471 1251.11765 357.176471 1310.64706 357.176471 1310.64706 327.411765 1340.41176 327.411765 1340.41176 357.176471 1340.41176 386.941176 1310.64706 386.941176 1310.64706 416.705882 1280.88235 416.705882 1340.41176 416.705882 1399.94118 416.705882 1429.70588 386.941176 1429.70588 357.176471 1429.70588 327.411765 1399.94118 327.411765 1370.17647 327.411765"></polyline>
                    <polyline stroke="#D5D3D8" points="2028 895 2028 925.25 2028 955.5 2028 985.75 2028 1016 1998 1016 2058 1016 2058 985.75 2058 955.5 2058 925.25"></polyline>
                    <path d="M2056,1074 L2027,1074" stroke="#D5D3D8"></path>
                    <polyline stroke="#D5D3D8" points="1819 1253 1819 1283 1819 1313 1789 1313 1759 1283"></polyline>
                    <polyline stroke="#D5D3D8" points="1731 1342 1731 1371.875 1731 1401.75 1731 1431.625 1731 1461.5 1731 1491.375 1731 1521.25 1702 1521.25 1702 1551.125 1731 1551.125 1731 1581"></polyline>
                    <polyline stroke="#D5D3D8" points="1163 1553 1163 1522.75 1163 1492.5 1163 1462.25 1163 1432 1133 1432 1103 1432 1103 1462.25"></polyline>
                    <polyline stroke="#D5D3D8" points="1192 1463 1192 1433 1221.66667 1433 1221.66667 1403 1192 1373 1221.66667 1343 1251.33333 1313 1251.33333 1373 1281 1373"></polyline>
                    <polyline stroke="#D5D3D8" points="1253 1432 1312.5 1432 1372 1432 1372 1491.66667 1372 1521.5 1342.25 1521.5 1342.25 1551.33333 1342.25 1581.16667 1342.25 1611"></polyline>
                    <path d="M1282,1581 L1253,1610" stroke="#D5D3D8"></path>
                    <polyline stroke="#D5D3D8" points="29.8 1996 0 1996 0 1966.27273 0 1936.54545 0 1906.81818 0 1877.09091 29.8 1877.09091 29.8 1906.81818 29.8 1936.54545 59.6 1966.27273 89.4 1936.54545 89.4 1906.81818 89.4 1877.09091 119.2 1906.81818 149 1906.81818 149 1877.09091 149 1847.36364 178.8 1847.36364 178.8 1817.63636 208.6 1847.36364 238.4 1847.36364 238.4 1877.09091 238.4 1906.81818 268.2 1906.81818 268.2 1877.09091 268.2 1847.36364 268.2 1817.63636 268.2 1787.90909 268.2 1758.18182 268.2 1728.45455 268.2 1698.72727 268.2 1669 298 1669"></polyline>
                    <polyline stroke="#D5D3D8" points="1609 1612 1609 1582.33333 1609 1552.66667 1638 1523 1638 1582.33333"></polyline>
                    <polyline stroke="#D5D3D8" points="1819 1552 1819 1522.16667 1819 1492.33333 1819 1462.5 1790 1432.66667 1819 1402.83333 1819 1373"></polyline>
                    <polyline stroke="#D5D3D8" points="1610.25 1224 1610.25 1194.16667 1610.25 1164.33333 1580.5 1164.33333 1550.75 1164.33333 1550.75 1104.66667 1521 1074.83333 1521 1045 1521 1015.16667 1521 985.333333 1521 955.5 1521 925.666667 1580.5 925.666667 1580.5 895.833333 1610.25 895.833333 1610.25 866 1610.25 925.666667 1610.25 955.5 1610.25 985.333333 1640 985.333333"></polyline>
                    <path d="M1580,1015 L1551,1015" stroke="#D5D3D8"></path>
                    <polyline stroke="#D5D3D8" points="1609 1045 1609 1074.66667 1609 1104.33333 1609 1134"></polyline>
                    <polyline stroke="#D5D3D8" points="1371 1222 1342 1252 1342 1282"></polyline>
                    <polyline stroke="#D5D3D8" points="1251 955 1222 955 1222 925 1222 895 1251 925"></polyline>
                    <polyline stroke="#D5D3D8" points="1313 895 1343 895 1343 866 1373 866"></polyline>
                    <polyline stroke="#D5D3D8" points="1311 807 1251.66667 807 1222 807 1222 836 1251.66667 836"></polyline>
                    <path d="M1163,836 L1163,807" stroke="#D5D3D8"></path>
                    <polyline stroke="#D5D3D8" points="924 686.25 894 686.25 894 656 894 716.5 864 716.5 864 746.75 894 746.75 894 777 924 746.75 924 716.5"></polyline>
                    <polyline stroke="#D5D3D8" points="1043 510 1043 479.75 1073 479.75 1073 449.5 1073 419.25 1043 419.25 1043 389 1013 389 1073 389 1103 389 1103 419.25 1133 419.25 1133 389 1163 419.25"></polyline>
                    <polyline stroke="#D5D3D8" points="208.5 895 208.5 865.125 208.5 835.25 208.5 805.375 238.333333 805.375 268.166667 805.375 268.166667 775.5 268.166667 745.625 298 745.625 298 715.75 298 685.875 268.166667 685.875 268.166667 656 238.333333 656 208.5 685.875 208.5 715.75 178.666667 715.75 148.833333 715.75 119 715.75 119 745.625 148.833333 745.625 208.5 745.625"></polyline>
                    <polyline stroke="#D5D3D8" points="239 864.666667 298.333333 864.666667 298.333333 835 328 864.666667 298.333333 894.333333 268.666667 924"></polyline>
                    <path d="M389,834 L389,774" stroke="#D5D3D8"></path>
                    <polyline stroke="#D5D3D8" points="357 686 327.333333 686 297.666667 656.333333 297.666667 626.666667 268 626.666667 297.666667 597"></polyline>
                    <polyline stroke="#D5D3D8" points="358 628 358 657 418 657"></polyline>
                    <path d="M477,597 L477,568" stroke="#D5D3D8"></path>
                    <path d="M477,866 L506,866" stroke="#D5D3D8"></path>
                    <polyline stroke="#131114" points="866 1819 836.076923 1789.15 836.076923 1759.3 836.076923 1699.6 806.153846 1699.6 806.153846 1669.75 806.153846 1639.9 836.076923 1639.9 836.076923 1610.05 836.076923 1580.2 836.076923 1550.35 836.076923 1520.5 836.076923 1490.65 836.076923 1460.8 836.076923 1430.95 806.153846 1430.95 776.230769 1401.1 746.307692 1401.1 716.384615 1401.1 686.461538 1371.25 656.538462 1371.25 656.538462 1341.4 686.461538 1341.4 686.461538 1311.55 656.538462 1281.7 596.692308 1281.7 566.769231 1281.7 506.923077 1281.7 477 1281.7 477 1251.85 506.923077 1222"></polyline>
                    <polyline stroke="#131114" points="448 1192.66667 418 1192.66667 418 1163 388 1163 358 1192.66667 328 1192.66667 298 1192.66667 298 1252"></polyline>
                    <path d="M210,1373 L210,1402" stroke="#131114"></path>
                    <polyline stroke="#131114" points="148 1373 118.25 1343 118.25 1313 118.25 1283 58.75 1283 29 1283 29 1253 29 1223 58.75 1223 58.75 1193 29 1163"></polyline>
                    <polyline stroke="#131114" points="387.25 1879 417 1879 417 1849.2 417 1819.4 387.25 1819.4 387.25 1789.6 387.25 1759.8 387.25 1730 387.25 1700.2 357.5 1670.4 327.75 1640.6 298 1610.8 327.75 1581"></polyline>
                    <path d="M298,1402 L298,1373" stroke="#131114"></path>
                    <polyline stroke="#131114" points="389 1371 389 1342 418 1342 418 1371"></polyline>
                    <polyline stroke="#131114" points="477 1402 477 1431 507 1431 537 1431"></polyline>
                    <polyline stroke="#131114" points="597 1463 567 1493 567 1523 567 1553 567 1583 567 1613 567 1643 537 1643 537 1673 507 1673 477 1673 447 1673 477 1643"></polyline>
                    <polyline stroke="#131114" points="507 1581 477.333333 1551.33333 447.666667 1551.33333 447.666667 1521.66667 418 1492"></polyline>
                    <polyline stroke="#131114" points="418 1760.2 418 1790 477.75 1790 477.75 1760.2 477.75 1730.4 507.625 1760.2 507.625 1790 507.625 1819.8 477.75 1819.8 477.75 1849.6 477.75 1879.4 477.75 1909.2 477.75 1939 507.625 1939 507.625 1909.2 507.625 1879.4 537.5 1879.4 567.375 1849.6 567.375 1819.8 567.375 1790 567.375 1760.2 567.375 1730.4 567.375 1700.6 537.5 1700.6 567.375 1670.8 597.25 1641 627.125 1641 627.125 1670.8 627.125 1700.6 657 1700.6 657 1670.8 657 1641 657 1611.2 657 1581.4 657 1551.6 657 1521.8 657 1492 627.125 1492 597.25 1521.8 597.25 1581.4"></polyline>
                    <polyline stroke="#131114" points="687 1582.66667 687 1552.83333 687 1523 747 1523 747 1552.83333 747 1582.66667 747 1612.5 747 1642.33333 717 1642.33333 717 1672.16667 717 1702 717 1731.83333 687 1731.83333 657 1731.83333 657 1761.66667 657 1791.5 657 1821.33333 687 1821.33333 687 1791.5 687 1761.66667 717 1791.5 717 1821.33333 687 1851.16667 657 1881 627 1881 597 1851.16667 597 1791.5 597 1761.66667"></polyline>
                    <polyline stroke="#131114" points="774 1613 774 1582.75 774 1552.5 774 1522.25 774 1492"></polyline>
                    <polyline stroke="#131114" points="745 1431 745 1371.44444 745 1341.66667 774 1341.66667 774 1311.88889 774 1282.11111 774 1252.33333 745 1252.33333 745 1222.55556 774 1222.55556 774 1192.77778 774 1163 745 1163"></polyline>
                    <polyline stroke="#131114" points="833.333333 1163 833.333333 1192.8 833.333333 1222.6 833.333333 1252.4 833.333333 1282.2 833.333333 1312 833.333333 1341.8 803.666667 1341.8 774 1371.6 833.333333 1371.6 833.333333 1401.4 863 1431.2 863 1461 863 1490.8 863 1520.6 863 1550.4 863 1580.2 863 1610"></polyline>
                    <polyline stroke="#131114" points="1013.5 1761.15385 1013.5 1791.07692 1013.5 1821 1043.33333 1821 1043.33333 1791.07692 1043.33333 1761.15385 1043.33333 1731.23077 1073.16667 1701.30769 1103 1701.30769 1103 1671.38462 1103 1641.46154 1073.16667 1641.46154 1013.5 1641.46154 983.666667 1641.46154 983.666667 1611.53846 953.833333 1611.53846 953.833333 1581.61538 924 1581.61538 924 1551.69231 924 1521.76923 924 1491.84615 924 1461.92308 924 1432 953.833333 1432 953.833333 1461.92308 953.833333 1491.84615 953.833333 1551.69231 1013.5 1551.69231 1043.33333 1521.76923 1013.5 1491.84615 1043.33333 1461.92308 1013.5 1432"></polyline>
                    <polyline stroke="#131114" points="983.333333 1372 953.5 1372 923.666667 1372 923.666667 1342.1875 923.666667 1312.375 923.666667 1282.5625 923.666667 1252.75 923.666667 1222.9375 893.833333 1222.9375 864 1222.9375 864 1193.125 864 1163.3125 864 1133.5 893.833333 1133.5 893.833333 1103.6875 923.666667 1073.875 953.5 1073.875 953.5 1044.0625 953.5 984.4375 953.5 954.625 983.333333 954.625 983.333333 984.4375 1013.16667 954.625 1013.16667 924.8125 1013.16667 895 1043 895 1043 924.8125 1043 954.625 1043 984.4375 1043 1014.25 1043 1044.0625 1043 1073.875 1013.16667 1073.875"></polyline>
                    <polyline stroke="#131114" points="1042 1134 1042 1163.83333 1042 1193.66667 1012.33333 1193.66667 1012.33333 1223.5 1012.33333 1253.33333 1012.33333 1283.16667 982.666667 1313 953 1313 953 1283.16667 953 1253.33333"></polyline>
                    <polyline stroke="#131114" points="924 1194 924 1134 953 1134"></polyline>
                    <polyline stroke="#131114" points="864 1044 864 1014.33333 864 984.666667 835 955"></polyline>
                    <polyline stroke="#131114" points="804 1015 774.25 1045 774.25 1075 714.75 1075 685 1075"></polyline>
                    <path d="M627,1013 L627,984" stroke="#131114"></path>
                    <polyline stroke="#131114" points="535.75 1016 506 986 506 926 506 896 535.75 866 565.5 866 625 866"></polyline>
                    <polyline stroke="#131114" points="685.75 835 685.75 805 685.75 775 656 775 685.75 745 685.75 715 685.75 685 715.5 685 775 685 775 715"></polyline>
                    <path d="M774,835 L774,895" stroke="#131114"></path>
                    <path d="M745,955 L745,984" stroke="#131114"></path>
                    <polyline stroke="#131114" points="895 835 895 805.166667 925 805.166667 925 775.333333 955 745.5 955 715.666667 955 685.833333 985 685.833333 1045 685.833333 1045 656"></polyline>
                    <polyline stroke="#131114" points="1103 805.615385 1103 835.538462 1132.875 835.538462 1132.875 805.615385 1132.875 775.692308 1132.875 745.769231 1162.75 745.769231 1162.75 775.692308 1192.625 745.769231 1222.5 715.846154 1222.5 685.923077 1252.375 685.923077 1312.125 685.923077 1312.125 656 1342 656 1342 715.846154 1312.125 715.846154 1312.125 745.769231 1282.25 745.769231 1312.125 775.692308 1282.25 805.615385 1282.25 835.538462 1282.25 865.461538 1252.375 865.461538 1222.5 865.461538 1192.625 865.461538 1192.625 895.384615 1192.625 925.307692 1192.625 985.153846 1222.5 985.153846 1222.5 1015.07692 1222.5 1045 1192.625 1045 1162.75 1045 1132.875 1045 1132.875 1015.07692 1132.875 985.153846"></polyline>
                    <polyline stroke="#131114" points="1104.33333 1074 1134 1074 1134 1103.83333 1134 1133.66667 1134 1163.5 1134 1193.33333 1104.33333 1193.33333 1104.33333 1223.16667 1104.33333 1253 1074.66667 1253 1045 1253 1045 1223.16667"></polyline>
                    <polyline stroke="#131114" points="1103 1284 1103 1313.66667 1103 1343.33333 1103 1373 1132 1373"></polyline>
                    <polyline stroke="#131114" points="1192 1403 1221.8125 1373.16667 1251.625 1403 1281.4375 1403 1311.25 1373.16667 1311.25 1343.33333 1341.0625 1313.5 1400.6875 1313.5 1400.6875 1283.66667 1400.6875 1253.83333 1400.6875 1224 1400.6875 1194.16667 1430.5 1224 1490.125 1224 1490.125 1194.16667 1490.125 1134.5 1490.125 1074.83333 1549.75 1074.83333 1579.5625 1074.83333 1579.5625 1045 1639.1875 1045 1639.1875 1015.16667 1669 1015.16667 1669 985.333333 1669 955.5 1639.1875 955.5 1639.1875 925.666667 1639.1875 895.833333 1669 866"></polyline>
                    <polyline stroke="#131114" points="1729.375 834.5 1729.375 804.666667 1759.25 774.833333 1759.25 745 1819 745 1819 774.833333 1819 804.666667 1789.125 804.666667 1819 834.5 1819 894.166667 1819 924 1789.125 924 1759.25 894.166667 1729.375 894.166667 1729.375 924 1759.25 953.833333 1759.25 983.666667 1729.375 983.666667 1699.5 1013.5 1669.625 1043.33333 1669.625 1073.16667 1639.75 1073.16667 1639.75 1103 1639.75 1132.83333 1639.75 1162.66667 1669.625 1192.5 1669.625 1222.33333 1669.625 1252.16667 1669.625 1282 1639.75 1282 1609.875 1252.16667 1580 1252.16667 1580 1222.33333 1580 1192.5 1580 1132.83333"></polyline>
                    <polyline stroke="#131114" points="1702 1134 1762 1134 1762 1104 1762 1074 1732 1074 1732 1044 1762 1014 1792 1014 1822 1014 1822 984 1852 984 1852 1014 1852 1044 1822 1044 1822 1074"></polyline>
                    <polyline stroke="#131114" points="1878.33333 1043 1908 1043 1908 983.333333 1908 953.5 1878.33333 923.666667 1878.33333 893.833333 1878.33333 864 1908 834.166667 1908 804.333333 1878.33333 804.333333 1848.66667 774.5 1848.66667 744.666667 1878.33333 744.666667 1878.33333 714.833333 1908 714.833333 1908 685 1848.66667 685 1819 685"></polyline>
                    <polyline stroke="#131114" points="1879 597 1909 597 1939 567 1939 507 1939 477 1909 447 1879 447"></polyline>
                    <polyline stroke="#131114" points="1969 447.666667 1999 447.666667 2029 447.666667 2029 418 2029 477.333333 1999 507 1969 507"></polyline>
                    <polyline stroke="#131114" points="1282 477 1311.75 506.923077 1311.75 536.846154 1282 536.846154 1282 566.769231 1311.75 566.769231 1311.75 596.692308 1341.5 566.769231 1371.25 566.769231 1371.25 536.846154 1371.25 506.923077 1371.25 477 1401 477 1401 506.923077 1401 536.846154 1401 566.769231 1371.25 596.692308 1401 626.615385 1401 686.461538 1401 716.384615 1371.25 716.384615 1401 746.307692 1401 776.230769 1371.25 776.230769 1371.25 806.153846 1371.25 836.076923 1401 866"></polyline>
                    <polyline stroke="#131114" points="1372 924 1342.25 924 1312.5 924 1312.5 953.666667 1312.5 983.333333 1282.75 1013 1253 1013"></polyline>
                    <path d="M1222,1074 L1222,1103" stroke="#131114"></path>
                    <polyline stroke="#131114" points="1194 1163 1164 1192.66667 1164 1222.33333 1134 1222.33333 1134 1252"></polyline>
                    <polyline stroke="#131114" points="1042 1313 1042 1342 1012.33333 1342 982.666667 1342 953 1342"></polyline>
                    <polyline stroke="#131114" points="864 1313 864 1283 864 1253"></polyline>
                    <polyline stroke="#131114" points="656 1402 656 1432 656 1462"></polyline>
                    <polyline stroke="#131114" points="1045 1850 1104.6 1850 1104.6 1820.16667 1104.6 1790.33333 1074.8 1790.33333 1104.6 1760.5 1134.4 1760.5 1134.4 1730.66667 1134.4 1700.83333 1164.2 1671 1164.2 1641.16667 1194 1641.16667 1194 1611.33333 1194 1581.5 1194 1551.66667 1194 1521.83333 1223.8 1521.83333 1223.8 1492 1223.8 1462.16667 1253.6 1462.16667 1283.4 1462.16667 1283.4 1492 1313.2 1492 1313.2 1462.16667 1343 1492 1313.2 1521.83333 1313.2 1551.66667 1313.2 1581.5 1313.2 1641.16667 1343 1641.16667 1343 1671 1343 1700.83333 1372.8 1700.83333 1372.8 1671 1372.8 1641.16667 1372.8 1611.33333 1372.8 1581.5 1402.6 1581.5 1402.6 1551.66667 1402.6 1521.83333 1402.6 1492 1402.6 1462.16667 1402.6 1432.33333 1402.6 1372.66667 1402.6 1342.83333 1432.4 1342.83333 1432.4 1313 1432.4 1372.66667 1462.2 1402.5 1492 1402.5 1492 1432.33333 1492 1462.16667 1492 1492 1492 1521.83333 1492 1551.66667 1432.4 1551.66667 1432.4 1521.83333 1432.4 1581.5 1432.4 1611.33333 1402.6 1611.33333 1432.4 1641.16667 1432.4 1671 1462.2 1671 1462.2 1641.16667"></polyline>
                    <polyline stroke="#131114" points="1521 1700.09091 1551 1700.09091 1551 1670.36364 1551 1729.81818 1581 1729.81818 1581 1759.54545 1581 1789.27273 1581 1819 1611 1819 1641 1789.27273 1641 1759.54545 1671 1759.54545 1671 1729.81818 1641 1700.09091 1641 1670.36364 1611 1670.36364 1611 1640.63636 1641 1640.63636 1671 1610.90909 1671 1581.18182 1671 1551.45455 1671 1521.72727 1671 1492"></polyline>
                    <polyline stroke="#131114" points="1761.33333 1492.83333 1761.33333 1463 1791 1463 1791 1492.83333 1791 1522.66667 1761.33333 1522.66667 1761.33333 1552.5 1761.33333 1582.33333 1761.33333 1612.16667 1731.66667 1642 1702 1642 1702 1612.16667 1702 1582.33333"></polyline>
                    <polyline stroke="#131114" points="1790 1730 1790 1700.16667 1790 1670.33333 1790 1640.5 1819.83333 1640.5 1819.83333 1610.66667 1849.66667 1610.66667 1849.66667 1580.83333 1849.66667 1551 1849.66667 1521.16667 1849.66667 1491.33333 1849.66667 1461.5 1849.66667 1431.66667 1819.83333 1431.66667 1879.5 1431.66667 1879.5 1401.83333 1849.66667 1372 1849.66667 1342.16667 1849.66667 1312.33333 1849.66667 1282.5 1849.66667 1252.66667 1879.5 1252.66667 1879.5 1222.83333 1879.5 1193 1909.33333 1222.83333 1939.16667 1222.83333 1939.16667 1193 1969 1193 1969 1163.16667 1969 1222.83333 1969 1252.66667 1939.16667 1252.66667 1939.16667 1282.5 1939.16667 1312.33333 1939.16667 1342.16667 1939.16667 1372 1969 1342.16667 1998.83333 1342.16667 2028.66667 1342.16667 2028.66667 1312.33333 2028.66667 1282.5 2028.66667 1252.66667 2028.66667 1222.83333 2028.66667 1193 2028.66667 1163.16667 2028.66667 1133.33333 1998.83333 1103.5 1998.83333 1073.66667 1998.83333 1043.83333 2028.66667 1043.83333 2058.5 1043.83333 2088.33333 1043.83333 2088.33333 1014 2088.33333 984.166667 2088.33333 954.333333 2088.33333 924.5 2148 924.5 2148 894.666667 2148 864.833333 2148 835"></polyline>
                    <polyline stroke="#131114" points="2088 806.125 2058.25 836 1998.75 836 1998.75 806.125 1998.75 776.25 1998.75 746.375 1969 746.375 1998.75 716.5 1998.75 686.625 1998.75 656.75 2028.5 626.875 1998.75 597"></polyline>
                    <polyline stroke="#131114" points="1968 866 1968 896.25 1938 896.25 1938 926.5 1968 926.5 1998 926.5 1998 987"></polyline>
                    <path d="M2058,1251 L2058,1222" stroke="#131114"></path>
                    <polyline stroke="#131114" points="2059 1313 2089 1342.92308 2059 1372.84615 2029 1372.84615 2029 1402.76923 1999 1402.76923 2029 1432.69231 2059 1462.61538 2029 1492.53846 2029 1522.46154 1999 1522.46154 2029 1552.38462 2029 1582.30769 2029 1612.23077 2029 1642.15385 1999 1642.15385 1969 1642.15385 1969 1672.07692 1969 1702 1939 1702 1909 1702 1879 1702 1879 1672.07692 1879 1642.15385 1879 1612.23077 1909 1642.15385 1909 1672.07692"></polyline>
                    <polyline stroke="#131114" points="1938 1611 1938 1581.16667 1938 1551.33333 1938 1521.5 1938 1491.66667 1938 1461.83333 1938 1432 1967 1461.83333"></polyline>
                    <path d="M1879,1492 L1879,1521" stroke="#131114"></path>
                    <polyline stroke="#131114" points="1311 1790.4 1281.25 1790.4 1281.25 1820.2 1311 1820.2 1311 1850 1251.5 1850 1221.75 1850 1221.75 1820.2 1192 1820.2 1192 1790.4 1192 1760.6 1192 1730.8 1192 1701 1192 1671.2 1251.5 1671.2 1251.5 1641.4 1221.75 1611.6 1221.75 1581.8 1221.75 1552"></polyline>
                    <path d="M1313,1254 L1313,1194" stroke="#131114"></path>
                    <polyline stroke="#131114" points="1551.33333 1313.66667 1581 1313.66667 1581 1284 1581 1343.33333 1581 1373 1551.33333 1373 1521.66667 1373 1492 1343.33333"></polyline>
                    <polyline stroke="#131114" points="1580 1463 1580 1523 1580 1553 1580 1583 1580 1613"></polyline>
                    <polyline stroke="#131114" points="1670 1373 1640 1343.33333 1670 1313.66667 1700 1284"></polyline>
                    <polyline stroke="#131114" points="1759 1223 1759 1193 1759 1163"></polyline>
                    <polyline stroke="#131114" points="1759 1342 1759 1371 1788 1371 1788 1342"></polyline>
                    <polyline stroke="#131114" points="329 1761 299.25 1730.75 239.75 1730.75 239.75 1670.25 239.75 1640 210 1640"></polyline>
                    <polyline stroke="#131114" points="240 1134 240 1074 240 1044 270 1044 270 1014 270 984 270 954 300 954 300 924 240 924 210 924 210 954 180 954 180 984 180 1014 180 1044 180 1074 150 1074"></polyline>
                    <polyline stroke="#131114" points="89 924 89 895 149 895 149 924"></polyline>
                    <polyline stroke="#131114" points="118.666667 774 89 744.333333 89 714.666667 118.666667 685 178 685"></polyline>
                    <polyline stroke="#131114" points="179 774 208.666667 774 238.333333 774 238.333333 834.5 268 864.75 238.333333 895"></polyline>
                    <polyline stroke="#131114" points="298 984 328 984 358 1014 328 1044"></polyline>
                    <polyline stroke="#131114" points="417.5 986 417.5 926.3 357.75 926.3 357.75 896.45 357.75 866.6 387.625 866.6 417.5 836.75 417.5 806.9 417.5 777.05 417.5 747.2 387.625 747.2 357.75 747.2 327.875 747.2 327.875 777.05 298 777.05 327.875 806.9 327.875 836.75 357.75 806.9 357.75 777.05 357.75 717.35 387.625 717.35 417.5 717.35 417.5 687.5 447.375 687.5 447.375 657.65 477.25 627.8 507.125 627.8 537 627.8 537 597.95 507.125 568.1 507.125 538.25 507.125 508.4 507.125 448.7 477.25 418.85 477.25 389"></polyline>
                    <polyline stroke="#131114" points="1640 298 1640 357.75 1640 387.625 1640 417.5 1670 417.5 1670 447.375 1670 477.25 1640 477.25 1640 507.125 1640 537 1670 537 1670 507.125 1700 477.25"></polyline>
                    <path d="M1759,506 L1759,566" stroke="#131114"></path>
                    <polyline stroke="#131114" points="1669 628 1669 658 1669 718 1669 778 1640 778"></polyline>
                    <polyline stroke="#131114" points="1519 775 1489.33333 745.2 1489.33333 715.4 1489.33333 685.6 1459.66667 685.6 1489.33333 655.8 1489.33333 626 1489.33333 596.2 1489.33333 566.4 1459.66667 566.4 1459.66667 536.6 1489.33333 536.6 1489.33333 506.8 1459.66667 477 1430 477"></polyline>
                    <polyline stroke="#131114" points="1492 418.833333 1551.5 418.833333 1551.5 389 1581.25 418.833333 1551.5 448.666667 1581.25 478.5 1581.25 508.333333 1551.5 508.333333 1551.5 538.166667 1521.75 538.166667 1521.75 568 1551.5 568 1581.25 538.166667 1611 568"></polyline>
                    <path d="M1580,628 L1551,628" stroke="#131114"></path>
                    <polyline stroke="#131114" points="1461 807 1461 836.666667 1490 866.333333 1461 896"></polyline>
                    <path d="M1401,955 L1401,1015" stroke="#131114"></path>
                    <path d="M1311,866 L1282,895" stroke="#131114"></path>
                    <polyline stroke="#131114" points="1132 895 1103 895 1103 924"></polyline>
                    <polyline stroke="#131114" points="984 864 954 835 924 835 924 864"></polyline>
                    <polyline stroke="#131114" points="1013 506 1013 566 953 566"></polyline>
                    <polyline stroke="#131114" points="1134 656 1134 685 1163 685"></polyline>
                    <path d="M568,568 L568,628" stroke="#131114"></path>
                    <polyline stroke="#131114" points="536 685 506.333333 685 476.666667 714.833333 447 714.833333 447 744.666667 447 774.5 447 804.333333 447 864"></polyline>
                    <path d="M626,714 L597,685" stroke="#131114"></path>
                    <polyline stroke="#131114" points="537 1074 507 1074 507 1103 477 1103"></polyline>
                    <polyline stroke="#131114" points="389 1222 389 1252 418 1252 418 1282"></polyline>
                    <path d="M1969,1521 L1969,1492" stroke="#646464"></path>
                    <path d="M1908,1402 L1848,1402" stroke="#646464"></path>
                    <path d="M1698,1463 L1669,1463" stroke="#646464"></path>
                    <polyline stroke="#646464" points="1490 1371 1461 1371 1461 1342"></polyline>
                    <polyline stroke="#646464" points="1430 1283 1459 1253.33333 1459 1194"></polyline>
                    <path d="M1551,1194 L1551,1254" stroke="#646464"></path>
                    <path d="M1609,1284 L1638,1313" stroke="#646464"></path>
                    <path d="M1819,1105 L1848,1105" stroke="#646464"></path>
                    <path d="M1998,1134 L1998,1163" stroke="#646464"></path>
                    <polyline stroke="#646464" points="685 1702 685 1642 714 1612 714 1552"></polyline>
                    <polyline stroke="#646464" points="624 1582 594.333333 1612 535 1612 535 1582 535 1552"></polyline>
                    <path d="M506,1492 L477,1492" stroke="#646464"></path>
                    <path d="M327,1552 L298,1581" stroke="#646464"></path>
                    <path d="M389,1313 L389,1284" stroke="#646464"></path>
                    <polyline stroke="#646464" points="209 1134 179 1104 209 1074 269 1074 329 1074"></polyline>
                    <polyline stroke="#646464" points="418 1044 447 1044 447 1015"></polyline>
                    <path d="M656,1194 L685,1223" stroke="#646464"></path>
                    <path d="M745,1194 L805,1194" stroke="#646464"></path>
                    <polyline stroke="#646464" points="984 1074.33333 984 1044.66667 984 1015 1014 1044.66667 1014 1104 1044 1104"></polyline>
                    <polyline stroke="#646464" points="1103 1015 1103 985 1074 955"></polyline>
                    <polyline stroke="#646464" points="1133.33333 926 1163 896 1133.33333 866 1074 866"></polyline>
                    <path d="M982,745 L953,774" stroke="#646464"></path>
                    <polyline stroke="#646464" points="864.75 774 864.75 834 835 864 835 924 864.75 924 924.25 924 954 924 954 894"></polyline>
                    <path d="M626,955 L597,955" stroke="#646464"></path>
                    <polyline stroke="#646464" points="774 774 803.666667 744.333333 803.666667 685 863 685"></polyline>
                    <path d="M1134,628 L1163,657" stroke="#646464"></path>
                    <path d="M1192,597 L1192,568" stroke="#646464"></path>
                    <polyline stroke="#646464" points="1222 507 1281.5 507 1311.25 477 1281.5 447 1341 447"></polyline>
                    <path d="M1461,447 L1461,507" stroke="#646464"></path>
                    <polyline stroke="#646464" points="1730 389 1759 389 1759 449"></polyline>
                    <path d="M1580,866 L1551,895" stroke="#646464"></path>
                    <path d="M1580,955 L1580,984" stroke="#646464"></path>
                    <path d="M1490,1044 L1461,1015" stroke="#646464"></path>
                    <polyline stroke="#646464" points="1342 834 1342 774.666667 1342 745"></polyline>
                    <path d="M1251,628 L1222,628" stroke="#646464"></path>
                    <polyline stroke="#646464" points="806 447 836 477.25 866 507.5 866 568"></polyline>
                    <polyline stroke="#646464" points="535 568 506 598 506 658 506 718 506 778 535 778"></polyline>
                    <polyline stroke="#646464" points="387 895 327 895 327 955"></polyline>
                    <polyline stroke="#646464" points="149 1045 89 1045 89 1074"></polyline>
                    <path d="M1103,1610 L1103,1581" stroke="#646464"></path>
                    <polyline stroke="#646464" points="1132 1521 1132 1492 1103 1492"></polyline>
                    <polyline stroke="#646464" points="1192 1492 1252 1492 1252 1521.66667 1252 1581"></polyline>
                    <polyline stroke="#646464" points="1521 1492 1550 1492 1550 1463"></polyline>
                    <polyline stroke="#646464" points="1284 1344 1254 1344 1224 1314 1194 1314 1194 1284 1134 1284"></polyline>
                    <path d="M1074,1313 L1074,1342" stroke="#646464"></path>
                    <polyline stroke="#646464" points="982 1251 982 1222 953 1222"></polyline>
                    <path d="M984,1461 L984,1432" stroke="#646464"></path>
                    <polyline stroke="#646464" points="568 1462 568 1432 568 1402"></polyline>
                    <polyline stroke="#646464" points="1192 1195 1192 1134.5 1163 1104.25 1192 1074"></polyline>
                    <polyline stroke="#646464" points="1669 895 1669 925 1698 955"></polyline>
                    <polyline stroke="#646464" points="1908 895 1908 925 1937 955"></polyline>
                    <path d="M1967,803 L1938,774" stroke="#646464"></path>
                    <polyline stroke="#646464" points="1848 718 1877 687.75 1848 657.5 1848 627.25 1848 597"></polyline>
                    <path d="M297,807 L268,836" stroke="#646464"></path>
                    <polyline stroke="#9A9B9F" points="1253 1733 1283 1733 1313 1703 1313 1673 1313 1613 1283 1613 1283 1553 1253 1553 1283 1523"></polyline>
                    <polyline stroke="#9A9B9F" points="1282 1432 1311.66667 1402 1341.33333 1432 1371 1462"></polyline>
                    <path d="M1609,1523 L1638,1552" stroke="#9A9B9F"></path>
                    <polyline stroke="#9A9B9F" points="1163 1612 1163 1582 1133 1582 1133 1552 1103 1552"></polyline>
                    <polyline stroke="#9A9B9F" points="1042 1581 1013 1581 1042 1610"></polyline>
                    <path d="M953,1640 L924,1611" stroke="#9A9B9F"></path>
                    <path d="M806,1581 L806,1552" stroke="#9A9B9F"></path>
                    <polyline stroke="#9A9B9F" points="714 1373 714 1343.33333 714 1313.66667 714 1284 685 1284"></polyline>
                    <path d="M506,1313 L477,1313" stroke="#9A9B9F"></path>
                    <polyline stroke="#9A9B9F" points="477 1582 506 1552 506 1612"></polyline>
                    <polyline stroke="#9A9B9F" points="595 1013 595 984 535 984"></polyline>
                    <path d="M239,1015 L239,955" stroke="#9A9B9F"></path>
                    <polyline stroke="#9A9B9F" points="239.25 745 269 715.125 239.25 685.25 239.25 625.5 239.25 595.625 239.25 565.75 209.5 535.875 179.75 535.875 150 535.875 150 506 150 565.75"></polyline>
                    <polyline stroke="#9A9B9F" points="389 628 389 658 389 688"></polyline>
                    <path d="M597,895 L597,924" stroke="#9A9B9F"></path>
                    <polyline stroke="#9A9B9F" points="656 956.75 656 987 685.666667 956.75 715.333333 956.75 745 926.5 745 866"></polyline>
                    <polyline stroke="#9A9B9F" points="864 657 864 627 893.666667 627 923.333333 597 953 597"></polyline>
                    <path d="M418,628 L447,628" stroke="#9A9B9F"></path>
                    <polyline stroke="#9A9B9F" points="150 1194 150 1254.5 150 1315"></polyline>
                    <path d="M327,1313 L327,1342" stroke="#9A9B9F"></path>
                    <polyline stroke="#9A9B9F" points="179 1702 239 1702 239 1761.33333 209 1761.33333 239 1791"></polyline>
                    <path d="M1372,1253 L1372,1282" stroke="#9A9B9F"></path>
                    <polyline stroke="#9A9B9F" points="1372 1194 1372 1164.33333 1372 1105"></polyline>
                    <path d="M1313,836 L1342,807" stroke="#9A9B9F"></path>
                    <path d="M1282,774 L1253,745" stroke="#9A9B9F"></path>
                    <path d="M1430,716 L1430,776" stroke="#9A9B9F"></path>
                    <polyline stroke="#9A9B9F" points="1551 774 1580 774 1580 745"></polyline>
                    <path d="M1788,566 L1759,537" stroke="#9A9B9F"></path>
                    <polyline stroke="#9A9B9F" points="2057 418 1997.5 418 1938 418 1938 447"></polyline>
                    <polyline stroke="#9A9B9F" points="1968 716 1968 776 1908 776"></polyline>
                    <polyline stroke="#9A9B9F" points="1790 864 1760 835 1730 864"></polyline>
                    <polyline stroke="#9A9B9F" points="1551 924 1551 954.25 1551 984.5 1551 1045"></polyline>
                    <polyline stroke="#9A9B9F" points="1490 1015 1490 955 1461 955"></polyline>
                    <path d="M1521,1105 L1521,1165" stroke="#9A9B9F"></path>
                    <polyline stroke="#9A9B9F" points="1550 1222 1521 1252 1550 1282"></polyline>
                    <polyline stroke="#9A9B9F" points="1610.33333 1313 1610.33333 1342.66667 1640 1372.33333 1640 1402 1610.33333 1402 1551 1402"></polyline>
                    <path d="M1640,1251 L1640,1222" stroke="#9A9B9F"></path>
                    <polyline stroke="#9A9B9F" points="1730 1222 1760 1251 1790 1251"></polyline>
                    <polyline stroke="#9A9B9F" points="1879 1313 1879 1283 1908 1253"></polyline>
                    <polyline stroke="#9A9B9F" points="1998 955 1998 895 2057.33333 895 2087 895"></polyline>
                    <path d="M2058,1402 L2058,1431" stroke="#9A9B9F"></path>
                    <path d="M1908,1492 L1879,1463" stroke="#9A9B9F"></path>
                    <polyline stroke="#9A9B9F" points="1223 1134 1193 1104 1163 1074"></polyline>
                    <path d="M1253,1074 L1253,1103" stroke="#9A9B9F"></path>
                    <path d="M1074,1194 L1074,1223" stroke="#9A9B9F"></path>
                    <path d="M984,1134 L984,1105" stroke="#9A9B9F"></path>
                    <polyline stroke="#9A9B9F" points="895 1076 895 1045.75 895 1015.5 924 985.25 895 955"></polyline>
                    <polyline stroke="#9A9B9F" points="806 1045 806 1105 866 1105"></polyline>
                    <path d="M506,1134 L477,1134" stroke="#9A9B9F"></path>
                    <path d="M2058,1194 L2058,1134" stroke="#B83152"></path>
                    <path d="M1730,1134 L1730,1163" stroke="#B83152"></path>
                    <path d="M714,1492 L685,1463" stroke="#B83152"></path>
                    <path d="M924,657 L924,628" stroke="#B83152"></path>
                    <polyline stroke="#B83152" points="1461 656 1461 716.5 1461 746.75 1461 777"></polyline>
                    <path d="M1192,774 L1192,834" stroke="#B83152"></path>
                    <path d="M1253,1163 L1282,1134" stroke="#B83152"></path>
                    <polyline stroke="#B83152" points="1938 598 1967 567.75 1967 537.5 1967 477"></polyline>
                    <path d="M476,1163 L447,1134" stroke="#2A68B1"></path>
                    <path d="M745,835 L716,835" stroke="#2A68B1"></path>
                    <path d="M477,774 L477,745" stroke="#2A68B1"></path>
                    <path d="M1819,656 L1819,716" stroke="#2A68B1"></path>
                    <path d="M1282,953 L1282,924" stroke="#2A68B1"></path>
                    <path d="M1669,1134 L1669,1163" stroke="#C7DF6F"></path>
                    <path d="M626,1222 L597,1222" stroke="#C7DF6F"></path>
                    <path d="M568,1163 L568,1134" stroke="#C7DF6F"></path>
                    <path d="M1969,1402 L1969,1373" stroke="#C7DF6F"></path>
                    <path d="M685,1492 L714,1521" stroke="#7C070F"></path>
                    <path d="M1222,745 L1222,774" stroke="#7C070F"></path>
                    <path d="M1192,955 L1192,1015" stroke="#7C070F"></path>
                    <path d="M1492,1284 L1492,1313" stroke="#7C070F"></path>
                    <polyline stroke="#7C070F" points="2027 1105 2056 1105 2056 1165"></polyline>
                    <path d="M1013,1373 L1013,1402" stroke="#00267B"></path>
                    <path d="M1819,955 L1848,955" stroke="#00267B"></path>
                    <path d="M476,1074 L447,1074" stroke="#71A4F5"></path>
                </g>
            </g>
        </g>
    </g>
</svg>