<?xml version="1.0" encoding="UTF-8"?>
<svg width="1920px" height="1080px" viewBox="0 0 1920 1080" version="1.1" xmlns="http://www.w3.org/2000/svg" xmlns:xlink="http://www.w3.org/1999/xlink">
    <!-- Generator: Sketch 51.3 (57544) - http://www.bohemiancoding.com/sketch -->
    <title>artwork7</title>
    <desc>Created with Sketch.</desc>
    <defs>
        <rect id="path-1" x="0" y="0" width="1920" height="1080"></rect>
    </defs>
    <g id="Page-1" stroke="none" stroke-width="1" fill="none" fill-rule="evenodd">
        <g id="artwork7">
            <g id="Shape-Clipped">
                <mask id="mask-2" fill="white">
                    <use xlink:href="#path-1"></use>
                </mask>
                <g id="path-1"></g>
                <g id="Shape" mask="url(#mask-2)">
                    <g transform="translate(-1885.000000, -2169.000000)" id="Group">
                        <g transform="translate(2848.325765, 2700.121320) rotate(-75.000000) translate(-2848.325765, -2700.121320) translate(688.325765, 330.121320)">
                            <polyline id="Shape" stroke="#DAD9D5" stroke-width="20" points="3060 120 3000 120 3000 180 2940 180 2880 180 2820 180 2820 120 2820 60 2760 60 2700 60 2640 60 2580 60 2520 60 2460 60 2460 120 2400 120 2340 120 2280 120 2220 120 2160 120 2100 120 2100 60 2100 0 2160 0 2220 0 2220 60 2280 60 2280 0 2340 0 2340 60 2340 180 2280 180 2220 180 2160 180 2100 180 2100 240 2040 240 1980 240 1920 240 1920 180 1980 180 1980 120 1920 60 1920 0 1980 0 1800 60 1740 0 1620 0 1560 0 1500 0 1440 0 1380 0 1440 60 1440 120 1440 180 1380 180 1380 240 1320 240 1260 240 1200 240 1140 240 1080 240 1020 240 960 240 900 240 840 240 840 300 780 300 720 300 660 300 660 240 720 240 720 180 780 180 840 120 840 60 840 0 900 0 900 60 900 120 900 180 960 180 960 120 1020 120 1020 60 1020 0 960 0 1080 0 1080 60 1080 120 1080 180 1020 180 1020 300 960 300 900 300 900 360 900 420 840 420 840 480 780 480 720 480 660 480 600 480 540 480 480 420 360 480 360 540 360 600 300 600 300 660 180 660 180 600 180 480 120 480 120 420 120 360 0 360 0 300 0 240 0 180 0 120 0 0 120 0 120 60 180 60 180 120 180 180 120 180 120 240 60 240 180 240 240 240 300 240 300 300 360 300 360 240 360 180 360 120 360 60 300 60 360 0 420 60 480 60 480 0 540 0 540 60 600 120 660 60 660 0 720 0 720 60 540 240 480 240 480 180 660 360 660 420 720 420 720 360 780 360 900 480 960 480 1020 480 1020 420 1080 420 1080 360 1080 300 1140 360 1140 420 1080 480 1080 600 1020 600 960 600 900 600 900 660 840 660 840 720 780 720 720 720 660 720 660 660 660 600 720 600 720 660 780 600 780 540 600 540 540 600 480 600 480 660 420 660 480 720 480 780 420 780 360 780 360 840 300 840 300 900 300 960 360 960 360 900 420 900 420 960 360 1020 360 1140 300 1140 240 1140 180 1140 180 1080 180 1020 180 960 180 840 120 780 120 720 60 720 0 720 0 660 0 600 60 660 0 780 0 840 0 900 0 960 0 1020 0 1140 0 1200 0 1260 0 1320 60 1260 60 1200 120 1200 120 1260 120 1320 120 1380 60 1380 60 1440 60 1500 0 1500 60 1560 60 1620 60 1680 60 1740 0 1740 0 1800 60 1800 60 1860 60 1920 60 1980 0 1980 60 2040 60 2100 60 2160 60 2220 0 2280 0 2340 0 2400 60 2400 120 2340 120 2280 180 2280 180 2220 120 2160 120 2100 120 2040 180 2040 180 1980 180 1920 120 1920 120 1860 120 1800 120 1740 180 1680 180 1620 180 1560 120 1500 120 1440 180 1380 240 1440 240 1500 300 1500 300 1440 360 1440 420 1440 420 1380 420 1320 360 1320 360 1260 300 1260 240 1260 180 1260 180 1200 300 1200 360 1200 420 1200 420 1260 480 1320 540 1320 540 1260 540 1200 540 1140 480 1140 480 1080 480 1020 540 1020 540 960 600 960 600 900 600 840 540 840 540 780 540 720 600 780 660 780 720 780 720 840 780 840 840 780 900 780 900 720 960 660 1020 660 1020 720 1020 780 1080 780 1080 720 1080 660 1140 660 1140 600 1200 660 1200 720 1140 720 1140 780 1080 840 1080 900 1080 960 1020 960 960 960 900 960 840 960 780 960 720 960 660 960 660 900 660 1020 660 1080 720 1080 720 1020 720 1140 780 1140 780 1200 780 1260 720 1260 660 1260 600 1260 600 1200 600 1320 600 1380 540 1380 600 1440 600 1500 540 1500 540 1560 540 1620 480 1620 420 1620 360 1620 300 1620 240 1620 240 1680 240 1740 240 1800 240 1860 240 1920 240 1980 240 2040 240 2100 300 1980 300 1920 360 1860 360 1800 360 1740 360 1680 420 1680 420 1740 420 1800 480 1740 600 1740 600 1680 660 1740 600 1800 540 1860 420 1980 420 2040 420 2100 420 2220 480 2220 540 2220 540 2280 540 2340 480 2340 420 2340 360 2340 360 2280 300 2220 360 2400 360 2460 360 2520 360 2580 300 2580 240 2520 180 2520 180 2460 180 2400 180 2580 180 2640 180 2700 120 2700 120 2760 120 2820 60 2820 0 2880 0 2940 0 3000 0 3060 0 3120 0 3180 60 3120 60 3060 60 3000 60 2940 120 2940 120 2880 180 2880 180 2820 180 2760 240 2760 240 2820 240 2880 300 2880 300 2820 360 2820 360 2760 360 2700 300 2700 360 2640 420 2640 420 2580 420 2520 480 2460 480 2400 540 2400 540 2460 540 2520 540 2580 540 2640 540 2700 540 2760 540 2820 480 2820 480 2880 480 2940 420 2940 360 2940 360 2880 360 3000 360 3060 300 3060 360 3120 360 3180 300 3180 360 3240 300 3300 360 3360 360 3420 360 3480 360 3540 300 3540 240 3540 180 3540 120 3540 120 3600 180 3600 180 3660 180 3720 120 3720 60 3720 0 3720 0 3660 0 3600 0 3540 60 3420 60 3360 60 3300 0 3300 60 3240 120 3240 120 3180 120 3120 120 3060 120 3000 180 3000 180 2940 180 3060 180 3120 180 3180 180 3240 180 3300 180 3360 120 3360 300 3600 300 3660 300 3720 300 3780 300 3840 240 3840 180 3840 180 3780 120 3780 60 3780 0 3780 0 3840 0 3900 0 3960 0 4020 0 4080 60 4020 120 3960 60 3900 60 3840 180 3900 240 3960 240 4020 180 4020 180 4080 180 4200 180 4260 120 4260 60 4260 0 4260 0 4200 60 4200 0 4320 0 4380 0 4440 0 4500 0 4620 0 4740 240 4560 180 4440 180 4380 120 4320 60 4380 240 4200 300 4200 300 4140 300 4080 360 4080 360 4020 360 3960 300 3960 300 3900 360 3900 360 3840 360 3780 360 3720 360 3660 360 3600 420 3480 420 3420 420 3360 540 3360 540 3300 540 3240 480 3240 480 3180 420 3180 420 3120 420 3060 480 3060 480 3000 540 3000 540 2940 540 2880 600 2880 600 2940 660 2880 720 2880 720 2820 720 2760 720 2700 600 2700 600 2640 600 2580 660 2520 660 2460 720 2460 720 2520 720 2580 840 2460 900 2460 900 2520 900 2580 900 2640 900 2700 900 2760 900 2820 840 2820 840 2880 780 2880 720 2940 720 3000 660 3000 660 3060 720 3060 720 3120 720 3180 720 3240 660 3240 600 3300 600 3360 600 3420 540 3420 540 3480 540 3540 540 3600 540 3660 540 3720 480 3720 420 3720 480 3780 480 3840 540 3840 540 3780 600 3720 660 3780 720 3720 720 3660 720 3600 720 3540 720 3480 720 3420 660 3420 600 3540 600 3600 780 3720 720 3840 720 3900 540 3900 420 3900 420 3960 420 4200 480 4200 540 4200 600 4200 600 4320 660 4320 660 4380 720 4380 720 4320 720 4260 780 4200 840 4200 900 4200 900 4140 900 4080 900 4020 960 3960 1020 3960 1080 3960 1140 4020 1140 4080 1200 4080 1200 4140 1200 4200 1260 4200 1260 4140 1260 4080 1260 4020 1260 3960 1260 3900 1260 3840 1260 3720 1260 3660 1260 3600 1260 3540 1260 3480 1200 3420 1200 3360 1260 3240 1260 3120 1260 3060 1260 2940 1260 2880 1200 2880 1200 2820 1200 2760 1200 2700 1140 2700 1080 2700 1020 2700 960 2700 960 2760 1020 2760 1020 2820 1080 2820 1080 2760 1080 2640 1080 2580 1080 2520 1020 2520 960 2460 960 2400 1020 2400 1080 2400 1080 2340 1080 2280 1080 2220 1140 2220 1140 2160 1140 2100 1080 2100 1020 2040 960 2040 960 1980 960 1920 900 1920 840 1920 780 1860 720 1920 660 2040 600 2040 600 2100 600 2160 600 2220 600 2280 600 2340 660 2340 660 2280 660 2220 720 2220 720 2280 720 2340 780 2280 780 2220 780 2160 780 2100 720 2100 780 2040 840 2040 840 2160 900 2220 840 2280 900 2340 780 2400"></polyline>
                            <polyline id="Shape" stroke="#DAD9D5" stroke-width="20" points="1080 2460 1140 2400 1200 2400 1260 2400 1260 2340 1260 2280 1260 2220 1200 2220 1200 2160 1200 2100 1140 2040 1140 1980 1140 1920 1080 1920 1020 1920 960 1860 900 1860 900 1800 840 1800 840 1740 780 1680 780 1560 900 1680 960 1620 1020 1620 1080 1620 1080 1680 1140 1680 1140 1620 1140 1560 1140 1500 1080 1500 1020 1500 1080 1440 1140 1440 1140 1380 1140 1320 1080 1320 1200 1320 1200 1260 1200 1200 1140 1200 1140 1080 1080 1080 1080 1020 1200 960 1200 900 1200 840 1260 840 1260 780 1260 660 1260 600 1260 480 1200 480 1260 420 1260 360 1200 360 1200 300 1260 300 1320 300 1380 300 1380 360 1380 420 1320 420 1380 480 1440 480 1440 420 1440 360 1440 300 1440 240 1500 240 1560 240 1560 180 1560 120 1560 60 1500 60 1620 60 1620 120 1620 180 1740 180 1800 180 1740 300 1800 360 1860 360 1920 360 1920 300 1980 300 1980 360 1980 420 1920 420 1920 480 1860 480 1800 480 1800 540 1740 540 1740 600 1680 600 1620 600 1560 600 1440 600 1380 600 1380 720 1380 780 1440 720 1440 840 1440 960 1440 1020 1440 1080 1380 1080 1320 1080 1260 1080 1260 1020 1260 1140 1260 1200 1260 1260 1320 1200 1320 1140 1380 1140 1380 1200 1380 1260 1380 1320 1320 1320 1320 1380 1260 1380 1200 1440 1200 1500 1260 1500 1260 1560 1260 1620 1200 1620 1200 1680 1200 1740 1140 1800 1080 1800 1080 1860 1140 1860 1260 1860 1260 1800 1320 1800 1320 1740 1380 1740 1380 1800 1440 1800 1440 1740 1440 1620 1500 1620 1500 1560 1500 1500 1500 1440 1440 1440 1320 1440 1320 1500 1320 1620 1260 1680 1320 1860 1440 1860 1440 1980 1380 1980 1440 2040 1440 2100 1380 2100 1320 2100 1260 2160 1320 2220 1320 2280 1320 2340 1380 2280 1380 2220 1440 2220 1440 2280 1440 2340 1440 2400 1380 2400 1440 2460 1440 2520 1380 2520 1320 2520 1260 2520 1200 2520 1260 2580 1260 2640 1260 2700 1260 2760 1260 2820 1380 2820 1380 2880 1440 2880 1500 2940 1500 3000 1620 3000 1620 2940 1560 2880 1620 2820 1620 2760 1740 2700 1800 2700 1800 2640 1800 2580 1800 2520 1800 2400 1920 2400 1920 2340 1980 2340 1980 2400 2040 2340 2040 2280 2160 2280 2160 2220 2160 2160 2160 2100 2220 2100 2220 2220 2220 2280 2220 2340 2160 2340 2340 2340 2340 2280 2460 2280 2460 2340 2460 2400 2460 2460 2400 2460 2400 2520 2340 2520 2340 2580 2340 2640 2280 2640 2280 2700 2340 2700 2340 2760 2340 2820 2280 2820 2220 2820 2160 2820 2160 2760 2160 2880 2100 2880 2040 2940 1980 3000 1980 3060 1980 3120 1980 3180 2100 3180 2100 3120 2160 3120 2160 3060 2160 3000 2100 3000 2040 3060 2160 2940 2220 2940 2220 2880 2280 2880 2280 2940 2340 2940 2340 2880 2400 2880 2400 2940 2340 3000 2340 3060 2340 3120 2160 3180 2160 3240 2100 3300 2100 3360 2040 3360 1980 3360 1920 3360 1860 3360 1860 3300 1800 3300 1800 3240 1800 3180 1800 3120 1800 3060 1800 3000 1800 2880 1860 2820 1920 2820 1980 2820 1800 2760 1620 2580 1620 2520 1620 2460 1620 2340 1620 2280 1680 2280 1680 2220 1680 2160 1620 2160 1620 2100 1680 2100 1680 2040 1680 1980 1620 1980 1560 1980 1560 2040 1500 2040 1500 2100 1500 2220 1500 2280 1560 2220"></polyline>
                            <polyline id="Shape" stroke="#DAD9D5" stroke-width="20" points="1620 1920 1620 1860 1560 1860 1620 1800 1620 1740 1560 1740 1620 1680 1620 1620 1560 1620 1620 1560 1680 1560 1680 1500 1680 1440 1680 1380 1680 1320 1620 1320 1560 1320 1500 1320 1440 1320 1440 1260 1440 1200 1440 1140 1500 1140 1560 1140 1560 1080 1560 1020 1620 1020 1620 960 1560 900 1560 840 1560 780 1620 780 1620 720 1680 660 1740 660 1740 720 1800 720 1800 660 1800 600 1860 600 1920 600 1920 660 1920 720 1860 720 1860 780 1800 780 1800 840 1740 840 1680 840 1620 840 1680 900 1740 900 1740 960 1800 960 1800 1020 1800 1080 1800 1140 1860 1140 1860 1080 1860 1020 1860 960 1860 900 1920 840 1920 780 1980 780 1980 720 1980 660 1980 600 2040 540 2100 540 2100 480 2100 420 2040 420 2100 360 2100 300 2040 300 2160 300 2160 240 2220 240 2220 300 2220 360 2160 360 2160 420 2160 480 2220 480 2280 480 2280 420 2340 420 2340 360 2400 360 2400 300 2400 240 2340 240 2280 240 2280 300 2400 180 2460 180 2460 240 2460 300 2460 360 2460 420 2400 420 2400 480 2340 480 2340 540 2280 540 2340 600 2340 660 2280 660 2220 660 2160 660 2100 660 2040 660 2100 600 2160 600 2160 720 2100 720 2100 780 2040 780 1980 840 1980 900 1980 960 1980 1020 1920 1020 1920 1080 1980 1080 1980 1140 1980 1200 1980 1260 1920 1260 1980 1320 2040 1260 2040 1200 2100 1200 2100 1140 2100 1080 2040 1080 2100 1020 2100 960 2160 960 2160 900 2160 840 2100 840 2160 780 2220 780 2220 720 2280 720 2280 780 2280 840 2220 840 2220 960 2220 1020 2160 1020 2160 1080 2160 1140 2160 1200 2160 1260 2160 1320 2220 1320 2220 1260 2220 1200 2280 1200 2280 1140 2280 1080 2220 1080 2340 1080 2340 1020 2340 960 2400 960 2400 900 2460 900 2460 960 2520 960 2520 900 2520 840 2520 780 2460 780 2400 780 2400 720 2340 720 2340 840 2400 1020 2400 1080 2460 1080 2460 1140 2520 1140 2520 1080 2520 1020 2640 900 2640 840 2580 840 2640 780 2640 720 2580 720 2520 720 2520 660 2460 660 2460 600 2400 600 2460 540 2460 480 2520 480 2520 420 2520 360 2520 300 2520 240 2520 180 2520 120 2580 180 2580 240 2580 300 2640 300 2640 240 2640 180 2640 120 2700 120 2700 180 2700 240 2700 300 2700 360 2640 360 2640 420 2580 420 2580 480 2640 480 2700 480 2700 420 2760 420 2760 480 2820 480 2820 420 2880 420 2880 480 2880 540 2880 600 2820 600 2760 600 2700 600 2640 600 2580 600 2520 600 2520 540 2580 660 2640 660 2700 660 2700 720 2700 780 2700 840 2820 840 2880 780 2880 720 2880 660 2820 660 2760 660 2700 540 2820 300 2820 240 2880 240 2880 300 2940 240 3000 240 3000 300 3000 360 2940 360 3000 420 3060 420 3060 360 3060 300 3060 240 3060 180 3180 300 3240 360 3240 420 3180 420 3180 480 3240 480 3240 540 3240 600 3180 600 3120 540 3060 480 3000 600 3060 780 3060 900 3000 900 3000 960 3060 960 3060 1020 3180 900 3240 960 3300 900 3420 900 3480 900 3480 840 3420 780 3360 780 3420 720 3240 660 3180 720 3180 780 3240 780 3240 1080 3300 1140 3300 1200 3240 1200 3180 1200 3120 1200 3060 1200 3060 1260 3120 1320 3120 1380 3120 1440 3120 1500 3060 1500 3000 1560 3000 1620 3000 1680 3060 1680 3060 1620 3120 1620 3120 1680 3120 1740 3060 1740 3060 1800 3000 1800 3000 1860 2940 1860 2880 1860 2820 1860 2820 1800 2880 1800 2880 1740 2880 1680 2820 1680 2820 1620 2880 1620 2880 1500 2760 1500 2700 1380 2760 1320 2760 1260 2700 1260 2640 1260 2580 1260 2580 1200 2520 1200 2520 1320 2460 1320 2580 1320 2580 1440 2520 1440 2340 1440 2220 1440 2160 1440 2100 1440 2040 1440 1980 1440 2040 1380 2040 1500 2040 1560 1980 1560 1980 1620 1920 1620 1980 1680 2040 1680 2040 1620 2100 1560 2160 1560 2160 1500 2220 1500 2220 1380 2340 1260 2340 1200 2340 1140"></polyline>
                            <polyline id="Shape" stroke="#DAD9D5" stroke-width="20" points="2700 1080 2700 1020 2880 1020 2880 1080 2880 1200 2880 1260 2880 1320 2820 1320 2880 1380 2940 1260 2940 1200 3180 1320 3180 1380 3180 1440 3180 1500 3240 1500 3240 1440 3240 1380 3240 1320 3240 1260 3300 1260 3300 1380 3300 1440 3300 1500 3240 1560 3240 1620 3240 1680 3180 1680 3240 1740 3240 1800 3180 1800 3180 1860 3240 1860 3240 1920 3240 1980 3300 1980 3180 2040 3240 2100 3240 2160 3240 2220 3240 2280 3240 2340 3180 2340 3120 2340 3060 2400 3060 2460 2940 2460 2880 2400 2820 2340 2820 2280 2760 2280 2700 2280 2640 2280 2640 2220 2580 2220 2580 2160 2580 2100 2520 2100 2640 2100 2640 2160 2700 2160 2700 2100 2700 2040 2700 1980 2700 1920 2760 1980 2760 2040 2820 1980 2880 1980 2880 1920 2940 1980 2880 2040 2880 2100 2820 2100 2820 2160 2760 2160 2700 2220 2700 2340 2640 2340 2580 2400 2520 2400 2520 2460 2520 2520 2460 2520 2460 2580 2520 2580 2520 2640 2460 2700 2400 2760 2460 2820 2460 2880 2520 2880 2520 2760 2580 2760 2700 2760 2700 2700 2760 2700 2760 2760 2760 2820 2760 2880 2700 2880 2640 2880 2760 3000 2760 3060 2700 3060 2700 3120 2700 3180 2700 3240 2580 3180 2520 3240 2640 3360 2580 3480 2700 3480 2700 3540 2700 3600 2700 3660 2700 3720 2700 3780 2640 3780 2580 3780 2580 3720 2520 3840 2520 3900 2520 3960 2520 4020 2460 4020 2400 4020 2460 4140 2460 4200 2400 4200 2340 4260 2280 4260 2280 4200 2280 4320 2340 4320 2400 4380 2400 4560 2160 4560 2100 4620 2100 4680 2100 4740 1980 4680 1740 4500 1740 4440 1680 4440 1500 4440 1440 4500 1260 4500 1260 4440 1200 4440 1140 4440 1080 4440 1080 4380 1080 4320 1200 4320 1200 4380 1260 4380 1260 4320 1260 4260 1320 4260 1320 4200 1320 4140 1380 4140 1380 4200 1380 4260 1440 4260 1440 4200 1440 4140 1440 4080 1440 4020 1440 3960 1440 3900 1380 3900 1440 3840 1440 3780 1440 3720 1500 3720 1500 3660 1560 3660 1620 3660 1620 3600 1560 3540 1620 3480 1680 3480 1740 3420 1740 3360 1800 3420 1800 3480 1800 3540 1800 3600 1860 3600 1860 3540 1860 3660 1920 3660 1980 3660 1980 3600 1980 3540 1980 3480 2040 3480 2040 3420 2100 3420 2160 3480 2280 3360 2280 3300 2340 3420 2340 3480 2340 3540 2340 3600 2340 3660 2400 3720 2340 3780 2340 3840 2220 3960 2160 3840 2160 3780 2160 3720 2160 3660 1980 3780 2040 3900 1800 3900 1800 3840 1740 3840 1680 3840 1620 3840 1620 3780 1560 3780 1500 3840 1620 3900 1620 3960 1560 4080 1500 4200 1440 4320 1680 4200 1920 4200 2040 4260 2100 4200"></polyline>
                            <polyline id="Shape" stroke="#DAD9D5" stroke-width="20" points="2520 4080 2580 4020 2580 3960 2580 3900 2640 3900 2640 3960 2700 3900 2700 3840 2760 3720 2820 3720 2820 3660 2880 3660 2880 3600 2880 3540 2820 3540 2760 3540 2820 3480 2820 3420 2880 3420 2880 3480 2940 3480 2940 3420 3000 3420 3000 3360 3000 3300 3000 3240 2940 3240 3000 3180 3060 3180 3060 3120 3060 3060 3120 3060 3120 3120 3120 3180 3120 3240 3060 3240 3060 3300 3060 3360 3120 3300 3180 3360 3180 3420 3240 3420 3240 3480 3300 3480 3240 3600 3300 3660 3300 3720 3240 3720 3300 3780 3300 3840 3300 3900 3240 3960 3120 3900 3120 3840 3000 3780 2940 3780 2880 3780 2880 3720 2940 3720 2940 3660 2940 3540 3060 3480 3120 3660 3360 3780 3480 3780 3480 3720 3480 3600 3480 3480 3540 3300 3480 3180 3480 3120 3420 3120 3420 3060 3480 3060 3480 3000 3480 2940 3480 2880 3480 2820 3420 2820 3360 2820 3360 2880 3300 2880 3240 2880 3240 2820 3240 2760 3240 2700 3060 2700 3060 2640 2940 2580 2880 2520 2760 2460 2700 2460 2700 2400 2700 2520 2700 2580 2640 2580 2580 2580 2580 2520 2580 2460 2520 2280 2340 2040 2340 1980 2340 1920 2280 1920 2220 1920 2160 1980 2040 2040 1920 2040 1800 1980 1740 1920 1800 1860 1740 1800 1680 1800 1740 1740 1680 1680 1740 1620 1800 1560 1800 1500 1740 1500 1740 1440 1800 1440 1800 1380 1800 1320 1860 1380 1860 1440 1860 1500 1920 1740 1980 1800 1980 1860 1860 1920 2040 1740 2100 1740 2160 1680 2160 1620 2220 1740 2160 1800 2340 1740 2340 1680 2340 1620 2460 1620 2460 1680 2520 1680 2520 1620 2640 1620 2700 1740 2700 1800 2640 1800 2520 1800 2460 1800 2460 1860 2460 1920 2520 1920 2520 1860 2340 1860"></polyline>
                            <polyline id="Shape" stroke="#DAD9D5" stroke-width="20" points="1560 1500 1560 1260 1500 1260 1560 1200 1620 1200 1620 1140 1620 1080 1680 1080 1680 1020 1680 1140 1680 1200 1680 1260 1620 1260 1740 1200"></polyline>
                            <polyline id="Shape" stroke="#DAD9D5" stroke-width="20" points="1980 2580 2040 2640 2160 2580"></polyline>
                            <polyline id="Shape" stroke="#DAD9D5" stroke-width="20" points="2640 2640 2820 2820 2880 2880 2880 2940 2880 3000 2940 3000 2940 3060 3060 2940 3060 2880 3060 2820 3120 2880 3180 3000 3240 3000 3240 2940 3300 2940 3300 3000 3300 3060 3240 3120 3240 3180 3240 3240 3300 3180"></polyline>
                            <polyline id="Shape" stroke="#2D2E1C" stroke-width="20" points="4320 4680 4260 4560 4140 4560 4140 4500 4080 4380 4080 4320 3900 4260 3780 4260 3720 4260 3720 4200 3720 4140 3660 4140 3600 4140 3540 4140 3480 4140 3420 4140 3360 4140 3300 4140 3240 4140 3180 4140 3120 4140 3060 4140 3000 4140 3060 4080 3000 4020 2940 4020 2880 4020 2820 4020 2760 4020 2700 4020 2700 3960 2760 3960 2820 3900 2820 3840 2760 3840 2820 3780 2940 3840 3000 3840 3000 3900 3000 3960 2880 3960 2880 4080 2820 4080 2760 4080 2700 4080 2700 4140 2760 4140 2820 4140 2820 4200 2820 4260 2760 4260 2700 4260 2700 4320 2640 4320 2640 4380 2640 4440 2640 4500 2580 4500 2520 4500 2460 4500 2400 4500 2340 4500 2280 4500 2220 4500 2220 4440 2160 4440 2100 4440 2040 4440 2040 4380 2040 4320 1980 4320 1920 4320 1860 4320 1800 4320 1740 4320 1680 4320 1620 4320 1560 4320 1500 4320 1500 4260 1560 4260 1560 4200 1620 4200 1620 4260 1680 4260 1740 4260 1740 4200 1740 4140 1680 4140 1680 4080 1680 4020 1740 4020 1740 3960 1800 3960 1800 4020 1800 4080 1740 4080 1800 4140 1860 4080 1860 4020 1860 3960 1860 3900 1860 3840 1920 3840 1920 3780 1860 3720 1740 3660 1680 3600 1680 3540 1680 3420 1620 3420 1620 3360 1620 3300 1680 3300 1680 3240 1680 3180 1680 3120 1680 3060 1680 3000 1680 2940 1680 2880 1620 2880 1560 2820 1500 2820 1440 2820 1380 2760 1320 2760 1320 2700 1380 2700 1380 2640 1320 2580 1200 2580 1140 2580 1140 2520 1020 2460 960 2520 960 2580 1020 2580 840 2580 840 2520 780 2520 780 2460 720 2400 660 2400 600 2400 600 2460 600 2520 660 2580 780 2700 780 2760 840 2760 840 2700 960 2820 960 2880 1020 2880 1080 2880 1140 2820 1140 2760 1200 2940 1140 3000 1140 3060 1140 3120 1140 3180 1140 3240 1140 3300 1080 3300 1080 3360 1020 3360 960 3360 900 3360 960 3300 1020 3180 960 3120 900 3120 900 3060 840 3000 780 3120 660 3180 600 3240 660 3300 720 3360 780 3300 780 3420 780 3480 780 3540 780 3600 780 3660 840 3660 840 3600 840 3540 900 3600 960 3600 960 3540 960 3480 1020 3480 1020 3540 1020 3600 1020 3660 960 3660 960 3720 960 3780 960 3840 960 3900 1020 3900 1020 3840 1020 3780 1080 3780 1140 3720 1140 3660 1140 3600 1140 3540 1140 3480 1140 3420 1080 3420 1140 3360 1200 3300 1200 3240 1200 3180 1200 3120 1200 3060 1260 3000 1320 3000 1320 2940 1320 2880 1320 2820 1380 3000 1380 3060 1320 3060 1320 3120 1320 3180 1320 3240 1320 3300 1260 3300 1260 3360 1260 3420 1320 3420 1320 3360 1320 3480 1320 3540 1320 3600 1320 3660 1380 3660 1380 3600 1380 3540 1380 3480 1440 3480 1440 3420 1440 3360 1440 3300 1500 3300 1500 3240 1500 3180 1500 3120 1500 3060 1440 3060 1380 3120 1380 3180 1560 3180 1560 3120 1560 3060 1560 3000 1500 2880 1500 2760 1500 2700 1560 2700 1560 2640 1560 2580 1560 2520 1500 2520 1500 2460 1560 2460 1560 2400 1560 2340 1500 2340 1380 2460 1320 2460"></polyline>
                            <polyline id="Shape" stroke="#2D2E1C" stroke-width="20" points="1380 2160 1440 2160 1560 2160 1560 2100 1620 2040 1740 2040 1740 1980 1680 1920 1560 1920 1500 1920 1500 1980 1560 1800 1560 1680 1440 1560 1380 1560 1320 1560 1380 1500 1380 1440 1380 1380 1440 1380 1560 1380 1560 1440 1620 1380 1800 1200 1740 1080 1740 1020 1800 900 1860 840 1920 900 2040 840 2100 900 2220 900 2280 900 2280 1020 2220 1140 2040 1140 1920 1140 2040 1020 2040 720 1920 540 1980 480 2040 480 2160 540 2220 540 2400 540 2580 540 2640 540 2820 540 2940 540 2940 480 2940 420 3000 540 2940 600 2940 660 2940 780 2940 840 2880 840 2880 900 2820 900 2760 900 2760 840 2760 720 2580 780 2460 840 2400 840 2580 960 2640 1020 2640 1080 2580 1080 2580 1140 2640 1140 2640 1200 2700 1140 2760 1140 2760 1080 2760 1020 2760 960 2820 960 2820 1020 2820 1080 2820 1140 2760 1200 2820 1260 2820 1380 2820 1440 2760 1440 2700 1440 2640 1440 2640 1380 2580 1380 2520 1380 2460 1380 2460 1440 2400 1500 2340 1500 2280 1500 2280 1560 2280 1620 2220 1620 2220 1680 2280 1680 2280 1800 2220 1800 2220 1860 2280 1860 2280 1980 2280 2040 2280 2100 2280 2160 2220 2160 2280 2220 2280 2280 2280 2340 2280 2400 2220 2400 2220 2460 2220 2520 2160 2520 2100 2520 2040 2520 2040 2460 2040 2400 2100 2400 2100 2340 2100 2280 2100 2220 2100 2160 2040 2160 1980 2160 1920 2160 1860 2160 1800 2220 1800 2280 1740 2280 1740 2340 1680 2340 1680 2400 1680 2460 1680 2520 1680 2580 1680 2640 1680 2700 1620 2700 1560 2760 1680 2760 1680 2820 1740 2880 1740 2940 1740 3000 1740 3060 1740 3120 1740 3180 1740 3240 1680 3360 1800 3360 1860 3420 1860 3480 2040 3540 2040 3600 2040 3660 2100 3660 2100 3600 2100 3540 2100 3480 2160 3420 2220 3420 2220 3360 2220 3300 2160 3300 2040 3300 1980 3300 1980 3240 1920 3240 1920 3180 1860 3180 1860 3120 1860 3060 1860 3000 1860 2940 1860 2880 1920 2880 1920 2940 1920 3000 1920 3120 2040 3120 2100 3060 2040 3000 2100 2940 2040 2880 1980 2760 1920 2760 1860 2760 1860 2700 1860 2640 1860 2580 1860 2520 1860 2460 1800 2460 1740 2460 1740 2400 1740 2520 1740 2580 1740 2640 1920 2640 1920 2580 1920 2520 1920 2460 1860 2400 1860 2280 1920 2280 1920 2100 1980 2040 1980 1980 1920 1980 1920 1920 1980 1920 2040 1920 2040 1860 2040 1800 2100 1800 2100 1860 2100 1920 2100 1980 2100 2040 2100 2100 2160 2040 2160 1920 2400 1920 2400 1860 2400 1800 2400 1740 2460 1740 2520 1740 2580 1740 2580 1680 2580 1620 2640 1560 2640 1500 2580 1500 2460 1560 2340 1560 2340 1380 2280 1380 2280 1320 2340 1320 2460 1200 2520 1260 2640 1320 2700 1320 2820 1500 2820 1560 2760 1560 2760 1620 2760 1680 2700 1680 2640 1740 2580 1800 2640 1860 2640 1920 2640 1980 2580 2040 2520 2040 2460 2040 2400 2040 2400 1980 2460 1980 2460 2100 2400 2100 2340 2100 2460 2160 2460 2220 2400 2340 2340 2400 2340 2460 2280 2460 2280 2520 2220 2580 2220 2640 2160 2640 2100 2640 2100 2700 2040 2700 1980 2700 1920 2700 1980 2640 2040 2580 2100 2460 2220 2700 2220 2760 2280 2760 2400 2820 2460 2760 2520 2820 2580 2820 2640 2760 2640 2700 2700 2640 2820 2640 2820 2580 2820 2520 2820 2460 2820 2400 2880 2460 2940 2400 3000 2400 3000 2460 3000 2520 3000 2580 3000 2700 2940 2700 2880 2700 2820 2700 2820 2760 2880 2760 2940 2760 2940 2820 3000 2820 3000 2880 3000 2940 2940 2940 3000 3000 3000 3060 3000 3120 2880 3120 2820 3120 2820 3060 2820 3000 2820 2940 2820 2880 2700 2820 2640 2940 2580 2940 2520 2940 2460 2940 2460 3000 2460 3060 2400 3060 2400 3120 2400 3180 2400 3240 2400 3300 2340 3300 2340 3360 2400 3360 2400 3420 2400 3480 2400 3540 2400 3600 2400 3660 2460 3660 2460 3600 2460 3540 2460 3480 2520 3420 2520 3360 2520 3300 2460 3240 2460 3180 2460 3120 2580 3000 2640 3000 2640 3060 2640 3120 2640 3180 2640 3300 2700 3300 2700 3360 2700 3420 2760 3420 2760 3360 2760 3300 2760 3240 2760 3180 2820 3180 2820 3240 2880 3240 2880 3180 2880 3060 2700 3000"></polyline>
                            <polyline id="Shape" stroke="#2D2E1C" stroke-width="20" points="2880 3300 2880 3360 2940 3360 2940 3300 3060 3420 3120 3420 3120 3360 3120 3480 3180 3480 3180 3540 3180 3600 3180 3660 3240 3660 3300 3600 3300 3540 3360 3540 3360 3480 3420 3480 3420 3420 3420 3360 3360 3360 3300 3360 3240 3360 3240 3300 3300 3300 3360 3240 3360 3180 3360 3120 3360 3060 3360 3000 3540 3000 3540 2940 3540 2880 3600 2940 3600 3000 3600 3060 3540 3060 3540 3120 3540 3180 3540 3240 3600 3240 3600 3180 3660 3240 3660 3300 3600 3300 3600 3360 3600 3420 3540 3420 3480 3420 3480 3360 3480 3300 3420 3300 3420 3240 3420 3180 3180 3180 3180 3120 3180 3060 3180 2940 3180 2760 3120 2760 3060 2760 3120 2640 3180 2640 3180 2580 3180 2520 3180 2460 3180 2400 3180 2280 3180 2160 3120 2160 3180 2100 3180 1980 3300 1920 3300 1860 3300 1800 3360 1740 3480 1680 3480 1620 3540 1560 3540 1500 3660 1500 3660 1560 3660 1620 3600 1620 3660 1680 3720 1740 3780 1740 3780 1800 3780 1860 3840 1920 3840 1980 3720 1980 3660 1980 3660 2040 3600 2040 3540 2040 3540 1980 3480 1980 3420 2040 3360 2040 3300 2040 3300 2100 3300 2160 3300 2220 3300 2280 3300 2340 3360 2400 3360 2460 3360 2520 3360 2580 3300 2580 3240 2520 3360 2640 3300 2700 3360 2760 3540 2760 3540 2700 3600 2700 3600 2760 3720 2760 3720 2700 3720 2640 3720 2580 3720 2520 3780 2520 3780 2460 3780 2400 3840 2460 3900 2460 3900 2400 3960 2400 3960 2340 3960 2460 3960 2520 3900 2520 3900 2580 3900 2640 3900 2700 3900 2760 3960 2700 3960 2640 3960 2580 4080 2580 4080 2520 4080 2460 4080 2400 4080 2340 4080 2280 4080 2220 4020 2220 4020 2160 4020 2100 4080 2100 4140 2100 4200 2100 4200 2040 4200 1980 4200 1920 4200 1860 4320 1860 4320 1800 4320 1740 4320 1680 4200 1620 4140 1680 4080 1680 4020 1680 4020 1620 4020 1560 4020 1500 3960 1500 4020 1440 4020 1380 4020 1320 4080 1260 4020 1200 4080 1140 4080 1080 4020 1020 3960 1020 3900 1020 3900 960 3840 900 3780 900 3960 900 4020 900 4080 900 4080 840 4080 960 4200 900 4200 840 4260 780 4260 900 4320 900 4260 1020 4260 1080 4260 1140 4260 1200 4260 1260 4260 1380 4200 1380 4200 1440 4200 1500 4080 1560 3900 1620 3840 1620 3780 1620 3720 1560 3720 1500 3780 1500 3780 1440 3840 1440 3840 1380 3840 1320 3840 1200 3780 1200 3900 1140 4140 1140"></polyline>
                            <polyline id="Shape" stroke="#2D2E1C" stroke-width="20" points="2640 2400 2640 2520 2880 2640"></polyline>
                            <polyline id="Shape" stroke="#2D2E1C" stroke-width="20" points="2520 4560 2460 4560 2340 4560 2340 4440 2340 4380 2400 4320 2400 4260 2460 4260 2460 4320 2460 4380 2460 4440 2400 4440 2520 4440 2520 4380 2520 4320 2520 4260 2520 4200 2520 4140 2460 4080 2400 4080 2400 4140 2280 4140 2220 4140 2160 4140 2100 4140 2040 4140 1980 4140 1920 4140 1920 4080 1920 4020 1920 3960 1920 3900 1980 3900 1980 3960 1980 4020 2040 4020 2040 3960 2100 3960 2100 3900 2100 3840 2040 3840 2100 3720 2220 3720 2220 3660 2220 3600 2160 3600 2220 3540 2220 3480 2280 3480 2280 3420 2280 3540 2280 3600 2280 3660 2280 3720 2280 3780 2280 3840 2220 3840 2220 3900 2280 3900 2280 3960 2280 4020 2220 4020 2160 4020 2100 4020 2100 4080 2040 4080 2040 4200 2100 4260 2100 4320 2100 4380 2160 4380 2160 4320 2160 4260 2220 4260 2220 4200 2220 4080 2160 4080 2160 3960 2280 4080 2340 4020 2340 3960 2400 3960 2400 3900 2400 3840 2400 3780 2460 3780 2460 3720 2520 3720 2520 3780 2460 3840 2460 3900 2460 3960 2580 4080 2580 4260"></polyline>
                            <polyline id="Shape" stroke="#2D2E1C" stroke-width="20" points="2280 3240 2220 3180 2220 3060 2280 3060"></polyline>
                            <polyline id="Shape" stroke="#2D2E1C" stroke-width="20" points="1260 2040 1260 1980 1260 1740 1140 1740 1080 1740 1020 1800 1020 1860 900 1740 840 1680 840 1620 840 1560 840 1500 780 1500 720 1500 660 1500 660 1560 600 1560 660 1620 660 1680 720 1620 720 1560 720 1440 780 1440 840 1440 840 1380 900 1380 900 1320 960 1260 1020 1260 1080 1260 1080 1200 1020 1140 1020 1080 960 1080 1020 1020 1020 900 960 840 960 780 900 900 780 900 720 900 780 1020 840 1020 660 1140 600 1140 600 1080 600 1020 480 900 420 840 240 840 240 780 180 780 240 720 240 660 240 600 240 540 180 540 120 540 60 540 60 480 60 420 60 360 60 300 120 300 180 300 240 180 60 180 300 360 300 420 360 420 360 360 420 300 540 180 600 240 600 300 600 360 540 420 540 540 480 540 420 540 420 600 360 660 300 540 240 480 60 600 120 660 60 780 60 900 60 960 60 1020 60 1080 120 1020 120 900 180 900 240 900 240 960 240 1020 240 1080 240 1200 420 1020"></polyline>
                            <polyline id="Shape" stroke="#2D2E1C" stroke-width="20" points="540 660 600 660 660 540 720 540 840 540 900 540 1020 540 1140 540 1200 540 1260 540 1320 540 1320 480 1380 540 1440 540 1500 600 1440 660 1500 720 1500 780 1500 840 1380 840 1320 840 1320 780 1320 720 1320 660 1320 900 1320 960 1260 960 1200 1020 1140 1020 1200 1080 1140 1140 1140 1260 1080 1380 1020 1380 960 1440 900 1440 900 1500 900 1560 900 1620 1020 1560 1200 1560 1260 1440 1200 1380 1380 1620 1380 1680"></polyline>
                            <polyline id="Shape" stroke="#2D2E1C" stroke-width="20" points="1800 1680 1800 1620 1860 1620 1860 1560 1920 1500 1920 1440 1920 1380 1980 1380 2100 1380 2100 1320 2100 1500 2100 1680 1980 1740 1920 1680 1860 1680 1860 1740"></polyline>
                            <polyline id="Shape" stroke="#FF4B46" stroke-width="20" points="4320 2880 4200 3060 4020 3120 3780 2940 3780 2760 3600 2820 3420 2880 3300 2820 3300 2760 3240 2640 3120 2580 3060 2520 2940 2640 2760 2580 2760 2520 2760 2400 2760 2340 2520 2220 2400 2220 2340 2160 2160 2400 2160 2460 1980 2280 1980 2220 1860 2340 1740 2220 1800 2160 1800 2100 1800 2040 1860 2040 1860 1980 1800 1920 1860 1800 1800 1740 1680 1620 1620 1440 1740 1320 1740 1260 1800 1260 1920 1200 2040 960 2040 900 1860 660 1980 540 1800 420 1740 480 1620 540 1380 660 1320 600 1200 600 1140 480 960 540 960 360 780 420 540 360 540 300 420 240 420 360 420 420 420 480 300 480 360 720 480 960 420 1080 480 1260 480 1380 540 1440 480 1500 300 1560 300 1740 540 1800 480 1920 480 2040 720 1980 900 1980 1080 1980 1200 1980 1200 2040 1320 2040 1320 1980 1320 1920 1380 1920 1440 1920 1500 1860 1500 1740 1320 1680 1200 1800 1200 1860 960 1800 1020 1680 780 1620 660 1440 780 1320 840 1260 900 1260 660 1200"></polyline>
                            <polyline id="Shape" stroke="#C57C90" stroke-width="20" points="1560 3600 1560 3420 1740 3480 1740 3540 1980 3720 1980 3840 2160 3900 2340 4080 2340 4140"></polyline>
                            <polyline id="Shape" stroke="#FF4B46" stroke-width="20" points="2760 3600 2640 3420 2640 3240 2580 3240 2580 3120 2520 3120 2580 3060 2760 2940 2640 2820 2400 2700"></polyline>
                            <polyline id="Shape" stroke="#FF4B46" stroke-width="20" points="2220 3120 2280 3180 2340 3240 2460 3360"></polyline>
                            <polyline id="Shape" stroke="#FF4B46" stroke-width="20" points="2040 3180 1860 3240 1620 3180 1440 2940 1440 2640 1440 2580 1380 2580 1200 2640 1020 2640 1140 2460"></polyline>
                            <path d="M1620,2640 L1800,2820" id="Shape" stroke="#C57C90" stroke-width="20"></path>
                            <polyline id="Shape" stroke="#C57C90" stroke-width="20" points="2400 1620 2520 1500 2580 1560 2640 1680 2880 1560 2880 1440 2760 1380"></polyline>
                            <polyline id="Shape" stroke="#C57C90" stroke-width="20" points="2400 1260 2400 1320 2400 1380 2400 1440 2280 1440"></polyline>
                            <polyline id="Shape" stroke="#6B6169" stroke-width="20" points="2280 4440 2280 4380 2340 4200 2340 3900 2580 3840 2520 3600 2580 3540 2760 3480 2580 3300 2460 3300 2520 3180 2520 3060 2520 3000 2400 3000 2280 3000 2220 3000 2280 3120 2340 3180 2220 3240 2100 3240 2040 3240 1920 3300 1980 3420 1920 3480 1920 3540 1920 3600 1740 3600 1740 3720 1740 3900 1680 3900 1680 3960 1560 3900 1500 3780 1380 3780 1380 3840 1380 4020 1380 4080 1500 4080 1500 4140 1560 4140 1620 4080 1800 4200 1860 4140 1980 4080 1980 4260 1980 4380 1980 4440 2040 4560 1980 4620 1980 4740 1920 4740"></polyline>
                            <polyline id="Shape" stroke="#6B6169" stroke-width="20" points="240 4080 240 3900 120 3900 240 3780 420 3540 660 3600 840 3480 1080 3540 1020 3300 1080 3240 1080 3180 1080 3120 1020 3000 960 3000 840 3120 780 3180 660 3120 600 3180 600 3000 780 2940 660 2760 780 2640 780 2580 960 2640 1140 2880 1140 2940 1260 3180 1380 3300 1440 3240 1440 3120 1560 2940 1740 2820 1800 2940 1920 3060 1980 2940 1980 2880 2160 2700 2100 2580 1980 2520 1980 2460 2040 2220 2040 2100 1980 2100 1860 2220 1740 2160 1620 2400 1500 2400 1320 2400 1200 2340 1200 2280 1020 2340 840 2220 840 2100 900 2100 1020 2100 1260 2100 1380 2040 1260 1920 1200 1920 1380 1860 1500 1800 1680 1740 1740 1680 1740 1560 1620 1500 1560 1560 1440 1500"></polyline>
                            <polyline id="Shape" stroke="#6B6169" stroke-width="20" points="2280 960 2460 1020 2580 1020 2640 960 2580 900 2700 900 2940 900 3060 840 3120 960 2880 1140"></polyline>
                            <polyline id="Shape" stroke="#FF4B46" stroke-width="20" points="2400 1140 2400 1200 2460 1260 2280 1260 2160 1380 2100 1260 1920 1320 1860 1200 1740 1140 1740 1380 1920 1560 1980 1500 2100 1620 2160 1740 2280 1740 2340 1800 2220 1980 2220 2040 2340 2220 2400 2160 2400 2280 2400 2400 2400 2580 2400 2640 2460 2640 2520 2700 2580 2700 2580 2640 2760 2640 2880 2580 2940 2520 3060 2580 3120 2520 3120 2460 3120 2400 3300 2400 3420 2520 3300 2640 3240 2580 3120 2700 3120 2820 3180 2820 3120 2940 3120 3000 3060 3000 2940 2880 2880 2820 3000 2760"></polyline>
                            <path d="M2700,2940 L2580,2880" id="Shape" stroke="#6B6169" stroke-width="20"></path>
                            <polyline id="Shape" stroke="#6B6169" stroke-width="20" points="2520 2160 2640 2040 2520 1980 2760 1800 2700 1620 2700 1560 2700 1500 2520 1560"></polyline>
                            <polyline id="Shape" stroke="#6B6169" stroke-width="20" points="960 1680 1080 1560 1020 1440 1020 1320 1020 1200 1080 1140 960 1020 960 900 840 840 960 720 1080 540 960 420 1140 300 1380 120 1500 120 1680 60 1680 0 1800 0"></polyline>
                            <polyline id="Shape" stroke="#6B6169" stroke-width="20" points="1920 1800 1920 1860 1860 1860 1740 1860 1680 1860"></polyline>
                            <path d="M2580,1860 L2580,1920" id="Shape" stroke="#4C7EC7" stroke-width="20"></path>
                            <polyline id="Shape" stroke="#BC2F35" stroke-width="20" points="2580 2340 2520 2340 2580 2280"></polyline>
                            <polyline id="Shape" stroke="#BC2F35" stroke-width="20" points="2400 1680 2400 1560 2460 1500"></polyline>
                            <path d="M2040,2820 L2040,2760" id="Shape" stroke="#0F357C" stroke-width="20"></path>
                            <path d="M1500,1680 L1440,1680" id="Shape" stroke="#0F357C" stroke-width="20"></path>
                        </g>
                    </g>
                </g>
            </g>
        </g>
    </g>
</svg>