<?xml version="1.0" encoding="UTF-8"?>
<svg width="1920px" height="1080px" viewBox="0 0 1920 1080" version="1.1" xmlns="http://www.w3.org/2000/svg" xmlns:xlink="http://www.w3.org/1999/xlink">
    <!-- Generator: Sketch 51.3 (57544) - http://www.bohemiancoding.com/sketch -->
    <title>Group</title>
    <desc>Created with Sketch.</desc>
    <defs>
        <rect id="path-1" x="0" y="0" width="1920" height="1080"></rect>
    </defs>
    <g id="Page-1" stroke="none" stroke-width="1" fill="none" fill-rule="evenodd">
        <g id="Group">
            <mask id="mask-2" fill="white">
                <use xlink:href="#path-1"></use>
            </mask>
            <use id="Mask" fill="#FFFFFF" xlink:href="#path-1"></use>
            <g mask="url(#mask-2)" id="Shape" stroke-linecap="round">
                <g transform="translate(1086.875000, 407.093750) rotate(42.000000) translate(-1086.875000, -407.093750) translate(-57.125000, -848.906250)">
                    <polyline stroke="#D5D3D8" stroke-width="20" points="1968.33333 1302 1936.66667 1302 1905 1302 1936.66667 1270.33333 1936.66667 1238.66667 1936.66667 1207 1968.33333 1207 1968.33333 1238.66667 1968.33333 1270.33333 2031.66667 1270.33333 2031.66667 1238.66667 2031.66667 1207 2000 1207 2000 1175.33333 2000 1143.66667 1968.33333 1143.66667 2031.66667 1143.66667 2031.66667 1175.33333 2063.33333 1143.66667 2063.33333 1112 2063.33333 1080.33333 2063.33333 1048.66667 2095 1048.66667 2095 1017 2095 1080.33333 2095 1112 2095 1143.66667 2095 1207 2063.33333 1207 2063.33333 1238.66667"></polyline>
                    <polyline stroke="#D5D3D8" stroke-width="20" points="2126 1271 2126 1302.66667 2126 1334.33333 2126 1366"></polyline>
                    <polyline stroke="#D5D3D8" stroke-width="20" points="2284 1144 2252.3 1112.26667 2284 1080.53333 2284 1017.06667 2252.3 985.333333 2252.3 953.6 2252.3 921.866667 2220.6 921.866667 2188.9 921.866667 2157.2 921.866667 2125.5 921.866667 2093.8 890.133333 2062.1 921.866667 2030.4 921.866667 1998.7 890.133333 1967 858.4 1998.7 826.666667 2030.4 794.933333 2062.1 794.933333 2062.1 731.466667 2062.1 699.733333 2062.1 668 2093.8 668 2093.8 699.733333 2093.8 731.466667"></polyline>
                    <polyline stroke="#D5D3D8" stroke-width="20" points="1998 605 1966.35294 605 1934.70588 605 1934.70588 636.75 1903.05882 636.75 1871.41176 636.75 1839.76471 636.75 1808.11765 636.75 1808.11765 605 1776.47059 605 1744.82353 605 1744.82353 636.75 1713.17647 636.75 1681.52941 636.75 1649.88235 636.75 1618.23529 636.75 1618.23529 668.5 1649.88235 700.25 1649.88235 732 1649.88235 763.75 1649.88235 795.5 1618.23529 795.5 1586.58824 827.25 1586.58824 859 1586.58824 890.75 1618.23529 890.75 1618.23529 859 1649.88235 859 1649.88235 890.75 1649.88235 922.5 1618.23529 922.5 1618.23529 954.25 1586.58824 954.25 1586.58824 986 1554.94118 986 1523.29412 986 1491.64706 986 1491.64706 954.25 1523.29412 954.25 1523.29412 922.5 1523.29412 890.75 1491.64706 890.75 1491.64706 859 1523.29412 859 1523.29412 795.5 1460 795.5"></polyline>
                    <polyline stroke="#D5D3D8" stroke-width="20" points="1429.23684 732 1461 700.25 1461 668.5 1429.23684 668.5 1397.47368 668.5 1365.71053 668.5 1365.71053 636.75 1333.94737 636.75 1333.94737 605 1302.18421 605 1302.18421 573.25 1270.42105 573.25 1238.65789 573.25 1206.89474 573.25 1175.13158 573.25 1143.36842 573.25 1111.60526 573.25 1079.84211 573.25 1048.07895 573.25 1016.31579 573.25 984.552632 573.25 952.789474 573.25 952.789474 541.5 952.789474 509.75 921.026316 509.75 921.026316 478 889.263158 478 889.263158 446.25 857.5 446.25 825.736842 446.25 825.736842 414.5 857.5 414.5 857.5 382.75 889.263158 351 889.263158 319.25 857.5 319.25 825.736842 319.25 762.210526 319.25 730.447368 319.25 666.921053 319.25 666.921053 351 635.157895 351 603.394737 351 571.631579 351 539.868421 351 508.105263 351 476.342105 351 444.578947 351 412.815789 351 381.052632 351 349.289474 351 349.289474 319.25 381.052632 319.25 412.815789 319.25 412.815789 287.5 412.815789 255.75 381.052632 255.75 349.289474 255.75 317.526316 255.75 285.763158 255.75 254 224"></polyline>
                    <polyline stroke="#D5D3D8" stroke-width="20" points="222.25 1238.75 254 1238.75 254 1270.5 254 1302.25 285.75 1302.25 285.75 1270.5 285.75 1238.75 285.75 1207 317.5 1207 317.5 1238.75 349.25 1238.75 349.25 1207 349.25 1175.25 381 1175.25 381 1207 381 1238.75 412.75 1207 412.75 1175.25 412.75 1143.5 412.75 1111.75 381 1111.75 412.75 1080 444.5 1080 444.5 1143.5 476.25 1175.25 444.5 1207 476.25 1238.75 508 1270.5 508 1302.25 476.25 1302.25 444.5 1302.25 412.75 1270.5 381 1302.25 349.25 1302.25 349.25 1334 381 1334 381 1365.75 317.5 1365.75 285.75 1365.75 285.75 1334 222.25 1334 222.25 1365.75 222.25 1397.5 190.5 1397.5 190.5 1429.25 158.75 1429.25 127 1461 95.25 1461 63.5 1461 63.5 1492.75 31.75 1492.75 0 1524.5 0 1556.25 0 1588 0 1619.75 0 1651.5 0 1683.25 31.75 1651.5 31.75 1619.75 31.75 1588 31.75 1556.25 63.5 1556.25 63.5 1524.5 95.25 1524.5 95.25 1492.75 127 1492.75 127 1524.5 158.75 1524.5 158.75 1492.75 190.5 1492.75 190.5 1461 222.25 1429.25 285.75 1429.25 285.75 1397.5 317.5 1397.5 317.5 1429.25 285.75 1461 285.75 1492.75 254 1492.75 254 1524.5 254 1556.25 222.25 1556.25 190.5 1556.25 190.5 1524.5 190.5 1588 190.5 1619.75 158.75 1619.75 190.5 1651.5 190.5 1683.25 158.75 1683.25 190.5 1715 158.75 1746.75 190.5 1778.5 222.25 1778.5 222.25 1810.25 222.25 1842 190.5 1842 190.5 1873.75 190.5 1905.5 158.75 1905.5 127 1873.75 95.25 1873.75 63.5 1873.75 63.5 1905.5 95.25 1905.5 95.25 1937.25 95.25 1969 63.5 1969 31.75 1969 0 1969 0 1937.25 0 1905.5 0 1873.75"></polyline>
                    <polyline stroke="#D5D3D8" stroke-width="20" points="31.6666667 1811 31.6666667 1779.25 31.6666667 1747.5 0 1747.5 31.6666667 1715.75 63.3333333 1715.75 63.3333333 1684 63.3333333 1652.25 63.3333333 1620.5 63.3333333 1588.75 95 1588.75 95 1557 95 1620.5 95 1652.25 95 1684 95 1715.75 95 1747.5 95 1779.25 63.3333333 1779.25"></polyline>
                    <polyline stroke="#D5D3D8" stroke-width="20" points="223 1682 223 1650.25 223 1618.5 255 1618.5 255 1586.75 287 1586.75 287 1555 287 1523.25 319 1523.25 319 1555 351 1523.25 383 1523.25 383 1491.5 383 1459.75 383 1428"></polyline>
                    <polyline stroke="#D5D3D8" stroke-width="20" points="444 1492 444 1523.75 412.333333 1523.75 380.666667 1555.5 380.666667 1587.25 349 1587.25 349 1619 380.666667 1619 380.666667 1650.75 380.666667 1682.5 380.666667 1714.25 349 1714.25 317.333333 1746 285.666667 1746 285.666667 1714.25 254 1714.25 254 1682.5 285.666667 1682.5 285.666667 1650.75 285.666667 1619 317.333333 1650.75"></polyline>
                    <polyline stroke="#D5D3D8" stroke-width="20" points="414 1618 414 1586.25 445.785714 1618 477.571429 1586.25 477.571429 1554.5 477.571429 1522.75 477.571429 1491 477.571429 1459.25 477.571429 1427.5 477.571429 1395.75 477.571429 1364 477.571429 1332.25 541.142857 1332.25 572.928571 1332.25 572.928571 1300.5 572.928571 1268.75 541.142857 1268.75 572.928571 1237 572.928571 1205.25 572.928571 1173.5 604.714286 1173.5 604.714286 1141.75 604.714286 1110 572.928571 1110 541.142857 1078.25 509.357143 1078.25 509.357143 1046.5 509.357143 1014.75 509.357143 983 541.142857 1014.75 572.928571 983 572.928571 951.25 604.714286 951.25 604.714286 983 604.714286 1014.75 604.714286 1046.5 604.714286 1078.25 636.5 1110 636.5 1141.75 636.5 1173.5 668.285714 1173.5 668.285714 1141.75 700.071429 1110 731.857143 1110 763.642857 1110 795.428571 1110 795.428571 1078.25 827.214286 1078.25 827.214286 1046.5 859 1046.5 859 1014.75 859 983 827.214286 983 859 951.25 859 919.5 827.214286 919.5 859 887.75 859 856 827.214286 856 795.428571 856 763.642857 856 795.428571 824.25 795.428571 792.5 795.428571 760.75 763.642857 760.75 700.071429 760.75 700.071429 729 668.285714 729 636.5 760.75 636.5 792.5 604.714286 792.5 604.714286 824.25 604.714286 856 572.928571 856 572.928571 887.75 604.714286 887.75 636.5 887.75 636.5 856 668.285714 856 668.285714 824.25 668.285714 792.5 700.071429 792.5 700.071429 856 668.285714 887.75 636.5 919.5 668.285714 951.25 668.285714 983 700.071429 983 700.071429 951.25 700.071429 919.5 731.857143 919.5 731.857143 951.25 763.642857 951.25 763.642857 919.5 763.642857 983 763.642857 1046.5 731.857143 1046.5"></polyline>
                    <polyline stroke="#D5D3D8" stroke-width="20" points="731 1176 699.25 1176 699.25 1207.66667 667.5 1207.66667 667.5 1239.33333 667.5 1271 635.75 1271 604 1271"></polyline>
                    <polyline stroke="#D5D3D8" stroke-width="20" points="636 1334 668 1334 668 1366 668 1398 668 1430 636 1430 604 1430 572 1430 540 1430 508 1430 508 1462 540 1462 540 1494 572 1494 572 1462 572 1398 572 1366 604 1398"></polyline>
                    <polyline stroke="#D5D3D8" stroke-width="20" points="635 1461 635 1493 635 1525 666 1525 666 1493 666 1461"></polyline>
                    <polyline stroke="#D5D3D8" stroke-width="20" points="698 1400 698 1336 729.666667 1336 761.333333 1336 761.333333 1304 761.333333 1272 729.666667 1272 698 1240 729.666667 1208 761.333333 1208 761.333333 1176 793 1176 793 1208 761.333333 1240"></polyline>
                    <polyline stroke="#D5D3D8" stroke-width="20" points="825.75 1176 857.5 1144.21622 889.25 1144.21622 889.25 1112.43243 889.25 1080.64865 889.25 1048.86486 921 1017.08108 952.75 985.297297 921 953.513514 889.25 953.513514 921 921.72973 889.25 889.945946 921 858.162162 889.25 826.378378 857.5 826.378378 825.75 794.594595 889.25 794.594595 889.25 762.810811 889.25 731.027027 889.25 699.243243 857.5 699.243243 825.75 699.243243 794 699.243243 762.25 699.243243 730.5 699.243243 698.75 699.243243 667 667.459459 698.75 635.675676 698.75 603.891892 698.75 572.108108 730.5 572.108108 730.5 603.891892 730.5 635.675676 730.5 667.459459 762.25 667.459459 762.25 635.675676 762.25 603.891892 762.25 572.108108 762.25 540.324324 762.25 508.540541 794 508.540541 825.75 476.756757 857.5 508.540541 857.5 540.324324 825.75 540.324324 825.75 572.108108 825.75 603.891892 794 603.891892 825.75 635.675676 825.75 667.459459 794 667.459459 857.5 667.459459 857.5 635.675676 857.5 603.891892 857.5 572.108108 889.25 572.108108 889.25 540.324324 889.25 603.891892 889.25 635.675676 889.25 667.459459 921 635.675676 952.75 603.891892 984.5 603.891892 984.5 540.324324 984.5 508.540541 984.5 476.756757 952.75 444.972973 921 444.972973 952.75 413.189189 952.75 381.405405 921 381.405405 921 349.621622 921 317.837838 921 286.054054 952.75 286.054054 952.75 254.27027 984.5 254.27027 1016.25 254.27027 1016.25 222.486486 1016.25 190.702703 984.5 190.702703 952.75 190.702703 921 158.918919 921 95.3513514 952.75 95.3513514 952.75 31.7837838 984.5 31.7837838 1016.25 31.7837838 1016.25 0 1048 0 1048 63.5675676 1048 95.3513514 1016.25 95.3513514 1016.25 127.135135 1016.25 158.918919 1048 158.918919 1048 127.135135 1079.75 127.135135 1079.75 158.918919 1111.5 158.918919 1111.5 127.135135 1111.5 95.3513514 1111.5 63.5675676 1111.5 31.7837838 1111.5 0 1143.25 0 1175 0 1175 31.7837838 1175 63.5675676 1143.25 63.5675676 1143.25 95.3513514 1143.25 127.135135 1143.25 158.918919 1143.25 190.702703 1111.5 190.702703 1111.5 222.486486 1079.75 222.486486 1048 222.486486 1048 190.702703"></polyline>
                    <polyline stroke="#D5D3D8" stroke-width="20" points="1045.85714 605 1045.85714 636.666667 1045.85714 668.333333 1014 668.333333 1045.85714 700 1077.71429 700 1077.71429 668.333333 1077.71429 636.666667 1109.57143 636.666667 1109.57143 605 1141.42857 605 1141.42857 636.666667 1141.42857 668.333333 1141.42857 700 1173.28571 700 1173.28571 668.333333 1173.28571 636.666667 1205.14286 636.666667 1205.14286 605 1237 605 1237 636.666667 1237 668.333333"></polyline>
                    <polyline stroke="#D5D3D8" stroke-width="20" points="1300 698 1332 698 1364 698 1364 762 1332 762"></polyline>
                    <polyline stroke="#D5D3D8" stroke-width="20" points="1237 761 1173.28571 761 1141.42857 761 1109.57143 761 1077.71429 761 1045.85714 761 1077.71429 729 1077.71429 793 1077.71429 825 1045.85714 825 1045.85714 857 1014 857 1045.85714 889 1077.71429 889 1077.71429 857 1109.57143 825 1141.42857 825 1141.42857 793 1141.42857 857 1141.42857 889 1173.28571 921 1141.42857 953"></polyline>
                    <polyline stroke="#D5D3D8" stroke-width="20" points="1078 922 1047 954 1047 986"></polyline>
                    <path d="M983,1017 L952,1048" stroke="#D5D3D8" stroke-width="20"></path>
                    <polyline stroke="#D5D3D8" stroke-width="20" points="1014 1079 1077.71429 1079 1077.71429 1047.33333 1141.42857 1047.33333 1173.28571 1015.66667 1205.14286 1015.66667 1237 984 1237 1047.33333 1237 1079"></polyline>
                    <polyline stroke="#D5D3D8" stroke-width="20" points="1174 1112 1143 1112 1143 1144.25 1143 1176.5 1143 1208.75 1143 1241 1174 1241 1174 1208.75 1174 1176.5"></polyline>
                    <polyline stroke="#D5D3D8" stroke-width="20" points="1237.5 1207 1237.5 1238.73333 1301 1238.73333 1301 1270.46667 1301 1302.2 1269.25 1302.2 1269.25 1333.93333 1237.5 1333.93333 1237.5 1365.66667 1237.5 1397.4 1205.75 1397.4 1205.75 1429.13333 1237.5 1429.13333 1237.5 1460.86667 1237.5 1492.6 1205.75 1492.6 1174 1492.6 1142.25 1492.6 1142.25 1460.86667 1142.25 1524.33333 1110.5 1524.33333 1142.25 1556.06667 1142.25 1587.8 1110.5 1587.8 1078.75 1619.53333 1047 1619.53333 1047 1587.8 1047 1651.26667 1047 1683"></polyline>
                    <polyline stroke="#D5D3D8" stroke-width="20" points="1110.33333 1650.33333 1142 1650.33333 1142 1618.66667 1142 1682 1142 1713.66667 1110.33333 1745.33333 1110.33333 1777 1078.66667 1777 1047 1777 1015.33333 1777 983.666667 1777 983.666667 1745.33333 952 1745.33333 952 1713.66667 952 1682 952 1650.33333 952 1618.66667 952 1587 952 1523.66667 983.666667 1492 1015.33333 1492 1047 1492"></polyline>
                    <polyline stroke="#D5D3D8" stroke-width="20" points="951 1461 951 1429.25 919 1429.25 951 1397.5 951 1365.75 951 1334 951 1270.5 1015 1270.5 1015 1238.75 1047 1238.75 1047 1270.5 1079 1238.75 1079 1207"></polyline>
                    <polyline stroke="#D5D3D8" stroke-width="20" points="888 1176 888 1208 856.333333 1208 856.333333 1240 856.333333 1304 856.333333 1336 856.333333 1368 793 1368 793 1400"></polyline>
                    <polyline stroke="#D5D3D8" stroke-width="20" points="857 1461 857 1493 825 1525 793 1557 793 1589 857 1589 857 1557 857 1621"></polyline>
                    <polyline stroke="#D5D3D8" stroke-width="20" points="731 1717 667 1717 667 1653 667 1621 667 1557"></polyline>
                    <polyline stroke="#D5D3D8" stroke-width="20" points="729 1523 729 1492 760 1523"></polyline>
                    <polyline stroke="#D5D3D8" stroke-width="20" points="572 1557 540 1557 508 1557 508 1621 540 1621 572 1621 572 1589"></polyline>
                    <polyline stroke="#D5D3D8" stroke-width="20" points="509 1715 477 1715 445 1715 413 1715 381 1747.25 413 1779.5 445 1779.5 445 1747.25 477 1747.25 477 1811.75 445 1811.75 477 1844 509 1811.75 541 1811.75"></polyline>
                    <path d="M635,1807 L635,1776" stroke="#D5D3D8" stroke-width="20"></path>
                    <polyline stroke="#D5D3D8" stroke-width="20" points="668 1842 668 1873.63636 668 1905.27273 668 1968.54545 700 1968.54545 764 1968.54545 764 2000.18182 764 2031.81818 764 2063.45455 732 2063.45455 764 2095.09091 764 2126.72727 764 2158.36364 764 2190 732 2190 700 2190 668 2190 636 2190 636 2158.36364 604 2158.36364 668 2158.36364 668 2126.72727 668 2095.09091 668 2063.45455 668 2031.81818"></polyline>
                    <polyline stroke="#D5D3D8" stroke-width="20" points="569 2034 569 1969.5 569 1937.25 569 1905"></polyline>
                    <polyline stroke="#D5D3D8" stroke-width="20" points="476 1936 476 2000 476 2032 476 2064 507.666667 2096 539.333333 2096 571 2096"></polyline>
                    <polyline stroke="#D5D3D8" stroke-width="20" points="569 2384 569 2352 569 2320 569 2288 632.714286 2288 632.714286 2320 632.714286 2352 600.857143 2352 664.571429 2352 664.571429 2320 664.571429 2288 664.571429 2256 696.428571 2256 696.428571 2224 728.285714 2224 728.285714 2256 760.142857 2256 760.142857 2224 792 2224"></polyline>
                    <path d="M793,2350 L762,2381" stroke="#D5D3D8" stroke-width="20"></path>
                    <polyline stroke="#D5D3D8" stroke-width="20" points="889 2350 920 2350 920 2381"></polyline>
                    <polyline stroke="#D5D3D8" stroke-width="20" points="1333 2097.75 1333 2066 1333 2034.25 1364.7 2002.5 1364.7 1970.75 1396.4 2002.5 1428.1 2002.5 1428.1 1970.75 1428.1 1939 1428.1 1907.25 1428.1 1875.5 1428.1 1843.75 1459.8 1875.5 1491.5 1875.5 1491.5 1843.75 1491.5 1812 1523.2 1812 1523.2 1843.75 1523.2 1875.5 1523.2 1907.25 1523.2 1939 1491.5 1939 1491.5 1970.75 1459.8 1970.75 1523.2 1970.75 1523.2 2002.5 1523.2 2034.25 1523.2 2066 1554.9 2097.75 1554.9 2161.25 1554.9 2193 1586.6 2161.25 1618.3 2129.5 1618.3 2097.75 1650 2066 1650 2034.25"></polyline>
                    <polyline stroke="#D5D3D8" stroke-width="20" points="1587.28571 2000 1555.42857 2000 1555.42857 1968.22222 1555.42857 1936.44444 1555.42857 1872.88889 1555.42857 1841.11111 1555.42857 1809.33333 1587.28571 1809.33333 1619.14286 1777.55556 1619.14286 1745.77778 1587.28571 1745.77778 1587.28571 1714 1555.42857 1714 1587.28571 1682.22222 1619.14286 1682.22222 1619.14286 1714 1651 1714 1651 1682.22222 1651 1650.44444 1651 1618.66667 1619.14286 1618.66667 1555.42857 1618.66667 1555.42857 1586.88889 1523.57143 1586.88889 1523.57143 1555.11111 1523.57143 1523.33333 1491.71429 1491.55556 1459.85714 1491.55556 1459.85714 1459.77778 1428 1459.77778 1428 1428 1459.85714 1428"></polyline>
                    <polyline stroke="#D5D3D8" stroke-width="20" points="1395.1 1398 1395.1 1366.25 1363.4 1366.25 1331.7 1366.25 1300 1366.25 1300 1334.5 1331.7 1334.5 1331.7 1302.75 1331.7 1271 1363.4 1271 1363.4 1302.75 1426.8 1302.75 1426.8 1271 1426.8 1239.25 1395.1 1239.25 1395.1 1207.5 1395.1 1175.75 1363.4 1175.75 1363.4 1144 1363.4 1112.25 1331.7 1112.25 1395.1 1112.25 1395.1 1144 1426.8 1144 1426.8 1112.25 1426.8 1080.5 1426.8 1048.75 1426.8 1017 1458.5 1048.75 1458.5 1080.5 1490.2 1048.75 1521.9 1048.75 1521.9 1017 1553.6 1048.75 1521.9 1080.5 1521.9 1112.25 1490.2 1112.25 1490.2 1144 1458.5 1144 1426.8 1175.75 1426.8 1207.5 1458.5 1207.5 1490.2 1207.5 1490.2 1175.75 1521.9 1175.75 1521.9 1144 1553.6 1144 1553.6 1112.25 1553.6 1175.75 1553.6 1207.5 1521.9 1207.5 1490.2 1239.25 1521.9 1271 1553.6 1239.25 1585.3 1239.25 1617 1271 1617 1302.75 1553.6 1302.75 1521.9 1334.5 1553.6 1366.25"></polyline>
                    <polyline stroke="#D5D3D8" stroke-width="20" points="1619 1397.5 1619 1429.25 1619 1492.75 1619 1524.5 1619 1556.25 1650.85714 1524.5 1714.57143 1524.5 1714.57143 1556.25 1714.57143 1588 1682.71429 1588 1746.42857 1588 1746.42857 1556.25 1746.42857 1524.5 1778.28571 1524.5 1778.28571 1492.75 1810.14286 1492.75 1810.14286 1461 1810.14286 1429.25 1810.14286 1397.5 1842 1397.5 1842 1365.75 1842 1334 1810.14286 1302.25 1810.14286 1270.5 1810.14286 1238.75 1810.14286 1175.25 1778.28571 1175.25 1810.14286 1143.5 1810.14286 1111.75 1842 1080"></polyline>
                    <polyline stroke="#D5D3D8" stroke-width="20" points="1905 1047 1905 1111.5 1905 1176"></polyline>
                    <path d="M2000,1078 L2000,1047" stroke="#D5D3D8" stroke-width="20"></path>
                    <polyline stroke="#D5D3D8" stroke-width="20" points="1966 953.3 1934.33333 921.6 1902.66667 953.3 1871 985 1807.66667 985 1807.66667 953.3 1807.66667 921.6 1807.66667 889.9 1776 889.9 1744.33333 889.9 1712.66667 889.9 1681 889.9 1712.66667 858.2 1712.66667 826.5 1712.66667 794.8 1712.66667 763.1 1681 763.1 1681 731.4 1681 699.7 1712.66667 699.7 1712.66667 668 1744.33333 668 1744.33333 731.4 1712.66667 731.4 1744.33333 763.1 1744.33333 794.8 1807.66667 794.8 1807.66667 763.1 1807.66667 731.4 1776 731.4 1807.66667 699.7 1807.66667 668 1839.33333 668 1839.33333 699.7 1871 699.7 1871 731.4 1902.66667 731.4 1902.66667 763.1 1902.66667 794.8 1902.66667 826.5 1871 858.2 1807.66667 858.2 1776 858.2 1807.66667 826.5 1839.33333 794.8 1839.33333 763.1"></polyline>
                    <polyline stroke="#D5D3D8" stroke-width="20" points="1748 476 1716 508 1684 476 1620 476 1588 476 1588 508 1620 508 1620 540"></polyline>
                    <polyline stroke="#D5D3D8" stroke-width="20" points="1522 539 1522 570.833333 1522 634.5 1522 666.333333 1522 698.166667 1491 698.166667 1522 730"></polyline>
                    <path d="M1555,666 L1555,635" stroke="#D5D3D8" stroke-width="20"></path>
                    <path d="M1428,570 L1428,539" stroke="#D5D3D8" stroke-width="20"></path>
                    <polyline stroke="#D5D3D8" stroke-width="20" points="1331.17647 539 1331.17647 507.294118 1299.52941 507.294118 1267.88235 507.294118 1236.23529 507.294118 1236.23529 539 1267.88235 539 1267.88235 475.588235 1299.52941 475.588235 1331.17647 475.588235 1331.17647 443.882353 1331.17647 412.176471 1299.52941 412.176471 1267.88235 412.176471 1267.88235 380.470588 1236.23529 380.470588 1204.58824 380.470588 1172.94118 380.470588 1141.29412 380.470588 1109.64706 380.470588 1109.64706 348.764706 1078 348.764706 1109.64706 317.058824 1141.29412 317.058824 1141.29412 348.764706 1172.94118 348.764706 1204.58824 348.764706 1236.23529 348.764706 1236.23529 317.058824 1236.23529 285.352941 1204.58824 285.352941 1204.58824 253.647059 1172.94118 253.647059 1141.29412 253.647059 1141.29412 221.941176 1172.94118 190.235294 1172.94118 158.529412 1172.94118 126.823529 1172.94118 95.1176471 1204.58824 95.1176471 1204.58824 63.4117647 1204.58824 31.7058824 1204.58824 0 1236.23529 0 1236.23529 31.7058824 1236.23529 63.4117647 1236.23529 95.1176471 1236.23529 126.823529 1204.58824 126.823529 1204.58824 158.529412 1236.23529 190.235294 1236.23529 221.941176 1204.58824 221.941176 1236.23529 253.647059 1267.88235 253.647059 1267.88235 221.941176 1267.88235 190.235294 1267.88235 158.529412 1267.88235 126.823529 1267.88235 95.1176471 1267.88235 63.4117647 1299.52941 63.4117647 1299.52941 31.7058824 1299.52941 0 1331.17647 0 1331.17647 31.7058824 1331.17647 63.4117647 1331.17647 95.1176471 1299.52941 95.1176471 1299.52941 126.823529 1299.52941 158.529412 1299.52941 190.235294 1299.52941 221.941176 1299.52941 253.647059 1299.52941 285.352941 1299.52941 317.058824 1267.88235 317.058824 1299.52941 348.764706 1331.17647 348.764706 1331.17647 317.058824 1331.17647 285.352941 1331.17647 253.647059 1331.17647 221.941176 1331.17647 190.235294 1331.17647 158.529412 1331.17647 126.823529 1362.82353 126.823529 1362.82353 95.1176471 1394.47059 95.1176471 1394.47059 63.4117647 1394.47059 31.7058824 1362.82353 31.7058824 1394.47059 0 1426.11765 0 1426.11765 31.7058824 1426.11765 63.4117647 1426.11765 95.1176471 1426.11765 126.823529 1394.47059 126.823529 1394.47059 158.529412 1362.82353 158.529412 1394.47059 190.235294 1394.47059 221.941176 1362.82353 221.941176 1362.82353 253.647059 1394.47059 253.647059 1426.11765 253.647059 1426.11765 221.941176 1426.11765 190.235294 1426.11765 158.529412 1489.41176 158.529412 1489.41176 126.823529 1489.41176 95.1176471 1489.41176 63.4117647 1489.41176 31.7058824 1457.76471 31.7058824 1457.76471 0 1489.41176 0 1521.05882 0 1521.05882 31.7058824 1521.05882 63.4117647 1521.05882 95.1176471 1521.05882 126.823529 1521.05882 158.529412 1552.70588 126.823529 1552.70588 95.1176471 1584.35294 95.1176471 1584.35294 63.4117647 1584.35294 31.7058824 1584.35294 0 1616 0 1616 31.7058824 1616 63.4117647 1616 95.1176471 1616 126.823529 1584.35294 126.823529 1584.35294 158.529412 1584.35294 190.235294 1552.70588 190.235294 1521.05882 221.941176 1489.41176 221.941176 1457.76471 221.941176 1457.76471 253.647059 1489.41176 253.647059 1521.05882 253.647059 1521.05882 285.352941 1521.05882 317.058824 1489.41176 317.058824 1457.76471 317.058824 1426.11765 317.058824 1394.47059 317.058824 1362.82353 317.058824 1362.82353 348.764706 1362.82353 380.470588 1331.17647 380.470588 1394.47059 380.470588 1394.47059 348.764706 1426.11765 348.764706 1426.11765 380.470588 1426.11765 412.176471 1394.47059 412.176471 1394.47059 443.882353 1362.82353 443.882353 1426.11765 443.882353 1489.41176 443.882353 1521.05882 412.176471 1521.05882 380.470588 1521.05882 348.764706 1489.41176 348.764706 1457.76471 348.764706"></polyline>
                    <path d="M2188,1143 L2157,1143" stroke="#D5D3D8" stroke-width="20"></path>
                    <polyline stroke="#D5D3D8" stroke-width="20" points="1936 1334 1936 1366 1936 1398 1904 1398 1872 1366"></polyline>
                    <polyline stroke="#D5D3D8" stroke-width="20" points="1842 1428 1842 1459.75 1842 1491.5 1842 1523.25 1842 1555 1842 1586.75 1842 1618.5 1811 1618.5 1811 1650.25 1842 1650.25 1842 1682"></polyline>
                    <polyline stroke="#D5D3D8" stroke-width="20" points="1271 1970 1239 1938 1239 1906 1239 1874 1239 1842 1239 1810 1207 1778 1207 1746"></polyline>
                    <polyline stroke="#D5D3D8" stroke-width="20" points="1238 1653 1238 1620.75 1238 1588.5 1238 1556.25 1238 1524 1206 1524 1174 1524 1174 1556.25"></polyline>
                    <polyline stroke="#D5D3D8" stroke-width="20" points="1269 1558 1269 1526 1300.66667 1526 1300.66667 1494 1269 1462 1300.66667 1430 1332.33333 1398 1332.33333 1462 1364 1462"></polyline>
                    <polyline stroke="#D5D3D8" stroke-width="20" points="1333 1524 1396.5 1524 1460 1524 1460 1587.66667 1460 1619.5 1428.25 1619.5 1428.25 1651.33333 1428.25 1683.16667 1428.25 1715"></polyline>
                    <path d="M1364,1683 L1333,1714" stroke="#D5D3D8" stroke-width="20"></path>
                    <polyline stroke="#D5D3D8" stroke-width="20" points="1142 1840 1110.14286 1808 1078.28571 1808 1046.42857 1840 1046.42857 1872 1046.42857 1904 1046.42857 1936 1014.57143 1936 982.714286 1904 950.857143 1904 950.857143 1872 950.857143 1840 950.857143 1808 919 1808 919 1776"></polyline>
                    <polyline stroke="#D5D3D8" stroke-width="20" points="888 1842 856.333333 1842 824.666667 1873.75 856.333333 1905.5 856.333333 1937.25 824.666667 1937.25 793 1937.25 793 1969 824.666667 2000.75 856.333333 2000.75 856.333333 1969 888 1969 888 1937.25 888 2000.75 888 2032.5 856.333333 2032.5 856.333333 2064.25 856.333333 2096"></polyline>
                    <polyline stroke="#D5D3D8" stroke-width="20" points="1143 2031 1143 1999.33333 1143 1967.66667 1143 1936"></polyline>
                    <polyline stroke="#D5D3D8" stroke-width="20" points="950 2064 919 2032 919 2000 950 2000"></polyline>
                    <polyline stroke="#D5D3D8" stroke-width="20" points="31.7 2124 0 2124 0 2092.36364 0 2060.72727 0 2029.09091 0 1997.45455 31.7 1997.45455 31.7 2029.09091 31.7 2060.72727 63.4 2092.36364 95.1 2060.72727 95.1 2029.09091 95.1 1997.45455 126.8 2029.09091 158.5 2029.09091 158.5 1997.45455 158.5 1965.81818 190.2 1965.81818 190.2 1934.18182 221.9 1965.81818 253.6 1965.81818 253.6 1997.45455 253.6 2029.09091 285.3 2029.09091 285.3 1997.45455 285.3 1965.81818 285.3 1934.18182 285.3 1902.54545 285.3 1870.90909 285.3 1839.27273 285.3 1807.63636 285.3 1776 317 1776"></polyline>
                    <polyline stroke="#D5D3D8" stroke-width="20" points="381 1812 381 1844 381 1876 381 1908 381 1940 381 1972 412 1972"></polyline>
                    <polyline stroke="#D5D3D8" stroke-width="20" points="348 2003 317 1970.75 317 1906.25 317 1874"></polyline>
                    <path d="M381,2031 L381,2062" stroke="#D5D3D8" stroke-width="20"></path>
                    <path d="M1238,2031 L1238,2000" stroke="#D5D3D8" stroke-width="20"></path>
                    <polyline stroke="#D5D3D8" stroke-width="20" points="1712 1716 1712 1684.33333 1712 1652.66667 1743 1621 1743 1684.33333"></polyline>
                    <polyline stroke="#D5D3D8" stroke-width="20" points="1936 1652 1936 1620.16667 1936 1588.33333 1936 1556.5 1905 1524.66667 1936 1492.83333 1936 1461"></polyline>
                    <polyline stroke="#D5D3D8" stroke-width="20" points="1714.25 1303 1714.25 1271.25 1714.25 1239.5 1682.5 1239.5 1650.75 1239.5 1650.75 1176 1619 1144.25 1619 1112.5 1619 1080.75 1619 1049 1619 1017.25 1619 985.5 1682.5 985.5 1682.5 953.75 1714.25 953.75 1714.25 922 1714.25 985.5 1714.25 1017.25 1714.25 1049 1746 1049"></polyline>
                    <path d="M1682,1080 L1651,1080" stroke="#D5D3D8" stroke-width="20"></path>
                    <polyline stroke="#D5D3D8" stroke-width="20" points="1712 1112 1712 1143.66667 1712 1175.33333 1712 1207"></polyline>
                    <polyline stroke="#D5D3D8" stroke-width="20" points="1459 1301 1428 1333 1428 1365"></polyline>
                    <polyline stroke="#D5D3D8" stroke-width="20" points="1331 1017 1300 1017 1300 985 1300 953 1331 985"></polyline>
                    <polyline stroke="#D5D3D8" stroke-width="20" points="1397 953 1429 953 1429 922 1461 922"></polyline>
                    <polyline stroke="#D5D3D8" stroke-width="20" points="1395 859 1331.66667 859 1300 859 1300 890 1331.66667 890"></polyline>
                    <path d="M1238,890 L1238,859" stroke="#D5D3D8" stroke-width="20"></path>
                    <polyline stroke="#131114" stroke-width="20" points="2063 2254.35294 1999.54054 2254.35294 1967.81081 2254.35294 1967.81081 2222.64706 1967.81081 2190.94118 1936.08108 2190.94118 1904.35135 2190.94118 1872.62162 2190.94118 1840.89189 2190.94118 1809.16216 2190.94118 1777.43243 2190.94118 1745.7027 2190.94118 1713.97297 2190.94118 1682.24324 2190.94118 1650.51351 2190.94118 1618.78378 2190.94118 1587.05405 2190.94118 1618.78378 2159.23529 1618.78378 2222.64706 1618.78378 2254.35294 1587.05405 2254.35294 1587.05405 2286.05882 1587.05405 2317.76471 1587.05405 2349.47059 1587.05405 2381.17647 1587.05405 2412.88235 1587.05405 2444.58824 1555.32432 2444.58824 1555.32432 2476.29412 1523.59459 2476.29412 1491.86486 2476.29412 1460.13514 2476.29412 1428.40541 2476.29412 1396.67568 2476.29412 1364.94595 2476.29412 1333.21622 2508 1301.48649 2508 1269.75676 2508 1238.02703 2508 1206.2973 2508 1174.56757 2508 1142.83784 2508 1174.56757 2476.29412 1206.2973 2476.29412 1206.2973 2444.58824 1206.2973 2412.88235 1174.56757 2412.88235 1174.56757 2381.17647 1174.56757 2349.47059 1174.56757 2317.76471 1174.56757 2286.05882 1174.56757 2254.35294 1174.56757 2222.64706 1174.56757 2190.94118 1142.83784 2190.94118 1111.10811 2190.94118 1079.37838 2190.94118 1047.64865 2190.94118 1015.91892 2190.94118 1015.91892 2159.23529 984.189189 2159.23529 952.459459 2159.23529 920.72973 2159.23529 889 2159.23529 889 2127.52941 920.72973 2127.52941 920.72973 2095.82353 952.459459 2095.82353 952.459459 2127.52941 984.189189 2127.52941 984.189189 2095.82353 984.189189 2064.11765 984.189189 2032.41176 1015.91892 2032.41176 1015.91892 2000.70588 984.189189 1969"></polyline>
                    <polyline stroke="#131114" stroke-width="20" points="922 1936 890.153846 1904.25 890.153846 1872.5 890.153846 1809 858.307692 1809 858.307692 1777.25 858.307692 1745.5 890.153846 1745.5 890.153846 1713.75 890.153846 1682 890.153846 1650.25 890.153846 1618.5 890.153846 1586.75 890.153846 1555 890.153846 1523.25 858.307692 1523.25 826.461538 1491.5 794.615385 1491.5 762.769231 1491.5 730.923077 1459.75 699.076923 1459.75 699.076923 1428 730.923077 1428 730.923077 1396.25 699.076923 1364.5 635.384615 1364.5 603.538462 1364.5 539.846154 1364.5 508 1364.5 508 1332.75 539.846154 1301"></polyline>
                    <polyline stroke="#131114" stroke-width="20" points="477 1269.66667 445 1269.66667 445 1238 413 1238 381 1269.66667 349 1269.66667 317 1269.66667 317 1333"></polyline>
                    <polyline stroke="#131114" stroke-width="20" points="128 1557 128 1588.66667 128 1652 128 1683.66667 128 1715.33333 128 1778.66667 128 1810.33333 96 1810.33333 64 1810.33333 64 1842"></polyline>
                    <polyline stroke="#131114" stroke-width="20" points="160 1776 160 1808 160 1840"></polyline>
                    <polyline stroke="#131114" stroke-width="20" points="221.454545 1905 221.454545 1936.84211 253.090909 1936.84211 316.363636 1936.84211 348 1936.84211 348 1968.68421 316.363636 2000.52632 316.363636 2032.36842 316.363636 2064.21053 316.363636 2096.05263 316.363636 2127.89474 284.727273 2127.89474 253.090909 2127.89474 221.454545 2127.89474 221.454545 2159.73684 221.454545 2191.57895 189.818182 2191.57895 189.818182 2223.42105 158.181818 2255.26316 126.545455 2255.26316 126.545455 2287.10526 94.9090909 2287.10526 63.2727273 2318.94737 63.2727273 2350.78947 63.2727273 2382.63158 31.6363636 2382.63158 31.6363636 2414.47368 31.6363636 2446.31579 31.6363636 2478.15789 0 2478.15789 31.6363636 2510 63.2727273 2510 63.2727273 2478.15789 63.2727273 2446.31579 63.2727273 2414.47368 94.9090909 2414.47368 126.545455 2446.31579 126.545455 2478.15789 126.545455 2510 158.181818 2510 158.181818 2446.31579 221.454545 2446.31579 221.454545 2414.47368 221.454545 2382.63158 221.454545 2350.78947 221.454545 2318.94737 221.454545 2287.10526 221.454545 2255.26316 253.090909 2255.26316 253.090909 2287.10526 253.090909 2318.94737 253.090909 2350.78947 253.090909 2382.63158 253.090909 2414.47368 253.090909 2446.31579 253.090909 2478.15789 221.454545 2478.15789 221.454545 2510 253.090909 2510 284.727273 2478.15789 316.363636 2478.15789 316.363636 2510 348 2510 348 2478.15789 348 2446.31579 348 2414.47368 348 2382.63158 316.363636 2382.63158 284.727273 2382.63158 316.363636 2350.78947 316.363636 2318.94737 284.727273 2287.10526 316.363636 2255.26316 348 2255.26316 348 2223.42105 348 2191.57895 316.363636 2191.57895 284.727273 2191.57895 253.090909 2191.57895"></polyline>
                    <polyline stroke="#131114" stroke-width="20" points="412.25 2000 444 2000 444 1968.3 444 1936.6 412.25 1936.6 412.25 1904.9 412.25 1873.2 412.25 1841.5 412.25 1809.8 380.5 1778.1 348.75 1746.4 317 1714.7 348.75 1683"></polyline>
                    <path d="M317,1492 L317,1461" stroke="#131114" stroke-width="20"></path>
                    <polyline stroke="#131114" stroke-width="20" points="414 1459 414 1428 445 1428 445 1459"></polyline>
                    <polyline stroke="#131114" stroke-width="20" points="508 1492 508 1523 540 1523 572 1523"></polyline>
                    <polyline stroke="#131114" stroke-width="20" points="636 1557 604 1589 604 1621 604 1653 604 1685 604 1717 604 1749 572 1749 572 1781 540 1781 508 1781 476 1781 508 1749"></polyline>
                    <polyline stroke="#131114" stroke-width="20" points="540 1683 508.333333 1651.33333 476.666667 1651.33333 476.666667 1619.66667 445 1588"></polyline>
                    <polyline stroke="#FF4B46" stroke-width="10" points="445 1873.6 445 1905.33333 508.5 1905.33333 508.5 1873.6 508.5 1841.86667 540.25 1873.6 540.25 1905.33333 540.25 1937.06667 508.5 1937.06667 508.5 1968.8 508.5 2000.53333 508.5 2032.26667 508.5 2064 540.25 2064 540.25 2032.26667 540.25 2000.53333 572 2000.53333 603.75 1968.8 603.75 1937.06667 603.75 1905.33333 603.75 1873.6 603.75 1841.86667 603.75 1810.13333 572 1810.13333 603.75 1778.4 635.5 1746.66667 667.25 1746.66667 667.25 1778.4 667.25 1810.13333 699 1810.13333 699 1778.4 699 1746.66667 699 1714.93333 699 1683.2 699 1651.46667 699 1619.73333 699 1588 667.25 1588 635.5 1619.73333 635.5 1683.2"></polyline>
                    <polyline stroke="#131114" stroke-width="20" points="731 1684.5 731 1652.75 731 1621 795 1621 795 1652.75 795 1684.5 795 1716.25 795 1748 763 1748 763 1779.75 763 1811.5 763 1843.25 731 1843.25 699 1843.25 699 1875 699 1906.75 699 1938.5 731 1938.5 731 1906.75 731 1875 763 1906.75 763 1938.5 731 1970.25 699 2002 667 2002 635 1970.25 635 1906.75 635 1875"></polyline>
                    <polyline stroke="#131114" stroke-width="20" points="635 2031 604 2031 604 2063 604 2095 635 2095 635 2063"></polyline>
                    <polyline stroke="#131114" stroke-width="20" points="698 2033.5 698 2098 729.75 2098 793.25 2098 793.25 2065.75 825 2033.5 825 1969"></polyline>
                    <polyline stroke="#131114" stroke-width="20" points="793 1905 793 1872.75 793 1840.5 793 1808.25 793 1776"></polyline>
                    <polyline stroke="#131114" stroke-width="20" points="824 1717 824 1684.75 824 1652.5 824 1620.25 824 1588"></polyline>
                    <polyline stroke="#131114" stroke-width="20" points="793 1523 793 1459.66667 793 1428 824 1428 824 1396.33333 824 1364.66667 824 1333 793 1333 793 1301.33333 824 1301.33333 824 1269.66667 824 1238 793 1238"></polyline>
                    <polyline stroke="#131114" stroke-width="20" points="887.333333 1238 887.333333 1269.73333 887.333333 1301.46667 887.333333 1333.2 887.333333 1364.93333 887.333333 1396.66667 887.333333 1428.4 855.666667 1428.4 824 1460.13333 887.333333 1460.13333 887.333333 1491.86667 919 1523.6 919 1555.33333 919 1587.06667 919 1618.8 919 1650.53333 919 1682.26667 919 1714"></polyline>
                    <polyline stroke="#131114" stroke-width="20" points="889 1776 952.333333 1776 984 1808 984 1840"></polyline>
                    <polyline stroke="#131114" stroke-width="20" points="1078 1874.30769 1078 1906.15385 1078 1938 1109.66667 1938 1109.66667 1906.15385 1109.66667 1874.30769 1109.66667 1842.46154 1141.33333 1810.61538 1173 1810.61538 1173 1778.76923 1173 1746.92308 1141.33333 1746.92308 1078 1746.92308 1046.33333 1746.92308 1046.33333 1715.07692 1014.66667 1715.07692 1014.66667 1683.23077 983 1683.23077 983 1651.38462 983 1619.53846 983 1587.69231 983 1555.84615 983 1524 1014.66667 1524 1014.66667 1555.84615 1014.66667 1587.69231 1014.66667 1651.38462 1078 1651.38462 1109.66667 1619.53846 1078 1587.69231 1109.66667 1555.84615 1078 1524"></polyline>
                    <polyline stroke="#FF4B46" stroke-width="10" points="1045.66667 1461 1014 1461 982.333333 1461 982.333333 1429.25 982.333333 1397.5 982.333333 1365.75 982.333333 1334 982.333333 1302.25 950.666667 1302.25 919 1302.25 919 1270.5 919 1238.75 919 1207 950.666667 1207 950.666667 1175.25 982.333333 1143.5 1014 1143.5 1014 1111.75 1014 1048.25 1014 1016.5 1045.66667 1016.5 1045.66667 1048.25 1077.33333 1016.5 1077.33333 984.75 1077.33333 953 1109 953 1109 984.75 1109 1016.5 1109 1048.25 1109 1080 1109 1111.75 1109 1143.5 1077.33333 1143.5"></polyline>
                    <polyline stroke="#131114" stroke-width="20" points="1109 1207 1109 1238.83333 1109 1270.66667 1077.33333 1270.66667 1077.33333 1302.5 1077.33333 1334.33333 1077.33333 1366.16667 1045.66667 1398 1014 1398 1014 1366.16667 1014 1334.33333"></polyline>
                    <polyline stroke="#131114" stroke-width="20" points="983 1271 983 1207 1014 1207"></polyline>
                    <polyline stroke="#131114" stroke-width="20" points="920 1112 920 1080.33333 920 1048.66667 889 1017"></polyline>
                    <polyline stroke="#131114" stroke-width="20" points="856 1080 824.25 1112 824.25 1144 760.75 1144 729 1144"></polyline>
                    <path d="M793,1017 L793,1048" stroke="#131114" stroke-width="20"></path>
                    <polyline stroke="#FF4B46" stroke-width="50" points="952 889 952 857.166667 984 857.166667 984 825.333333 1016 793.5 1016 761.666667 1016 729.833333 1048 729.833333 1112 729.833333 1112 698"></polyline>
                    <polyline stroke="#131114" stroke-width="20" points="1174 857.230769 1174 889.076923 1205.75 889.076923 1205.75 857.230769 1205.75 825.384615 1205.75 793.538462 1237.5 793.538462 1237.5 825.384615 1269.25 793.538462 1301 761.692308 1301 729.846154 1332.75 729.846154 1396.25 729.846154 1396.25 698 1428 698 1428 761.692308 1396.25 761.692308 1396.25 793.538462 1364.5 793.538462 1396.25 825.384615 1364.5 857.230769 1364.5 889.076923 1364.5 920.923077 1332.75 920.923077 1301 920.923077 1269.25 920.923077 1269.25 952.769231 1269.25 984.615385 1269.25 1048.30769 1301 1048.30769 1301 1080.15385 1301 1112 1269.25 1112 1237.5 1112 1205.75 1112 1205.75 1080.15385 1205.75 1048.30769"></polyline>
                    <polyline stroke="#131114" stroke-width="20" points="1175.33333 1143 1207 1143 1207 1174.83333 1207 1206.66667 1207 1238.5 1207 1270.33333 1175.33333 1270.33333 1175.33333 1302.16667 1175.33333 1334 1143.66667 1334 1112 1334 1112 1302.16667"></polyline>
                    <polyline stroke="#131114" stroke-width="20" points="1174 1367 1174 1398.66667 1174 1430.33333 1174 1462 1205 1462"></polyline>
                    <polyline stroke="#131114" stroke-width="20" points="1269 1494 1300.75 1462.22222 1332.5 1494 1364.25 1494 1396 1462.22222 1396 1430.44444 1427.75 1398.66667 1491.25 1398.66667 1491.25 1366.88889 1491.25 1335.11111 1491.25 1303.33333 1491.25 1271.55556 1523 1303.33333 1586.5 1303.33333 1586.5 1271.55556 1586.5 1208 1586.5 1144.44444 1650 1144.44444 1681.75 1144.44444 1681.75 1112.66667 1745.25 1112.66667 1745.25 1080.88889 1777 1080.88889 1777 1049.11111 1777 1017.33333 1745.25 1017.33333 1745.25 985.555556 1745.25 953.777778 1777 922"></polyline>
                    <polyline stroke="#131114" stroke-width="20" points="1839.75 888.333333 1839.75 856.555556 1871.5 824.777778 1871.5 793 1935 793 1935 824.777778 1935 856.555556 1903.25 856.555556 1935 888.333333 1935 951.888889 1935 983.666667 1903.25 983.666667 1871.5 951.888889 1839.75 951.888889 1839.75 983.666667 1871.5 1015.44444 1871.5 1047.22222 1839.75 1047.22222 1808 1079 1776.25 1110.77778 1776.25 1142.55556 1744.5 1142.55556 1744.5 1174.33333 1744.5 1206.11111 1744.5 1237.88889 1776.25 1269.66667 1776.25 1301.44444 1776.25 1333.22222 1776.25 1365 1744.5 1365 1712.75 1333.22222 1681 1333.22222 1681 1301.44444 1681 1269.66667 1681 1206.11111"></polyline>
                    <polyline stroke="#131114" stroke-width="20" points="1811 1207 1875 1207 1875 1175 1875 1143 1843 1143 1843 1111 1875 1079 1907 1079 1939 1079 1939 1047 1971 1047 1971 1079 1971 1111 1939 1111 1939 1143"></polyline>
                    <polyline stroke="#131114" stroke-width="20" points="1999.33333 1110 2031 1110 2031 1046.5 2031 1014.75 1999.33333 983 1999.33333 951.25 1999.33333 919.5 2031 887.75 2031 856 1999.33333 856 1967.66667 824.25 1967.66667 792.5 1999.33333 792.5 1999.33333 760.75 2031 760.75 2031 729 1967.66667 729 1936 729"></polyline>
                    <polyline stroke="#131114" stroke-width="20" points="1555 224 1555 255.75 1555 287.5 1555 319.25 1555 351 1555 414.5 1555 446.25 1523.33333 446.25 1523.33333 478 1491.66667 478 1460 478 1460 446.25 1460 382.75"></polyline>
                    <polyline stroke="#131114" stroke-width="20" points="1364 508 1395.75 539.846154 1395.75 571.692308 1364 571.692308 1364 603.538462 1395.75 603.538462 1395.75 635.384615 1427.5 603.538462 1459.25 603.538462 1459.25 571.692308 1459.25 539.846154 1459.25 508 1491 508 1491 539.846154 1491 571.692308 1491 603.538462 1459.25 635.384615 1491 667.230769 1491 730.923077 1491 762.769231 1459.25 762.769231 1491 794.615385 1491 826.461538 1459.25 826.461538 1459.25 858.307692 1459.25 890.153846 1491 922"></polyline>
                    <polyline stroke="#131114" stroke-width="20" points="1460 984 1428.25 984 1396.5 984 1396.5 1015.66667 1396.5 1047.33333 1364.75 1079 1333 1079"></polyline>
                    <path d="M1300,1143 L1300,1174" stroke="#131114" stroke-width="20"></path>
                    <polyline stroke="#131114" stroke-width="20" points="1271 1238 1239 1269.66667 1239 1301.33333 1207 1301.33333 1207 1333"></polyline>
                    <polyline stroke="#131114" stroke-width="20" points="1109 1398 1109 1429 1077.33333 1429 1045.66667 1429 1014 1429"></polyline>
                    <polyline stroke="#131114" stroke-width="20" points="919 1398 919 1366 919 1334"></polyline>
                    <polyline stroke="#131114" stroke-width="20" points="698 1492 698 1524 698 1556"></polyline>
                    <polyline stroke="#131114" stroke-width="20" points="1014 2063.25 1014 2095.5 1014 2127.75 1045.66667 2127.75 1045.66667 2095.5 1077.33333 2095.5 1077.33333 2127.75 1077.33333 2160 1109 2160 1109 2127.75 1109 2095.5 1109 2063.25 1109 2031 1077.33333 2031"></polyline>
                    <polyline stroke="#FF4B46" stroke-width="10" points="1112 1970 1175.46667 1970 1175.46667 1938.22222 1175.46667 1906.44444 1143.73333 1906.44444 1175.46667 1874.66667 1207.2 1874.66667 1207.2 1842.88889 1207.2 1811.11111 1238.93333 1779.33333 1238.93333 1747.55556 1270.66667 1747.55556 1270.66667 1715.77778 1270.66667 1684 1270.66667 1652.22222 1270.66667 1620.44444 1302.4 1620.44444 1302.4 1588.66667 1302.4 1556.88889 1334.13333 1556.88889 1365.86667 1556.88889 1365.86667 1588.66667 1397.6 1588.66667 1397.6 1556.88889 1429.33333 1588.66667 1397.6 1620.44444 1397.6 1652.22222 1397.6 1684 1397.6 1747.55556 1429.33333 1747.55556 1429.33333 1779.33333 1429.33333 1811.11111 1461.06667 1811.11111 1461.06667 1779.33333 1461.06667 1747.55556 1461.06667 1715.77778 1461.06667 1684 1492.8 1684 1492.8 1652.22222 1492.8 1620.44444 1492.8 1588.66667 1492.8 1556.88889 1492.8 1525.11111 1492.8 1461.55556 1492.8 1429.77778 1524.53333 1429.77778 1524.53333 1398 1524.53333 1461.55556 1556.26667 1493.33333 1588 1493.33333 1588 1525.11111 1588 1556.88889 1588 1588.66667 1588 1620.44444 1588 1652.22222 1524.53333 1652.22222 1524.53333 1620.44444 1524.53333 1684 1524.53333 1715.77778 1492.8 1715.77778 1524.53333 1747.55556 1524.53333 1779.33333 1556.26667 1779.33333 1556.26667 1747.55556 1673.6434 1863.46615"></polyline>
                    <polyline stroke="#131114" stroke-width="20" points="1619 1809.45455 1651 1809.45455 1651 1777.81818 1651 1841.09091 1683 1841.09091 1683 1872.72727 1683 1904.36364 1683 1936 1715 1936 1747 1904.36364 1747 1872.72727 1779 1872.72727 1779 1841.09091 1747 1809.45455 1747 1777.81818 1715 1777.81818 1715 1746.18182 1747 1746.18182 1779 1714.54545 1779 1682.90909 1779 1651.27273 1779 1619.63636 1779 1588"></polyline>
                    <polyline stroke="#131114" stroke-width="20" points="1874.33333 1588.83333 1874.33333 1557 1906 1557 1906 1588.83333 1906 1620.66667 1874.33333 1620.66667 1874.33333 1652.5 1874.33333 1684.33333 1874.33333 1716.16667 1842.66667 1748 1811 1748 1811 1716.16667 1811 1684.33333"></polyline>
                    <polyline stroke="#131114" stroke-width="20" points="1905 1842 1905 1810.23333 1905 1778.46667 1905 1746.7 1936.75 1746.7 1936.75 1714.93333 1968.5 1714.93333 1968.5 1683.16667 1968.5 1651.4 1968.5 1619.63333 1968.5 1587.86667 1968.5 1556.1 1968.5 1524.33333 1936.75 1524.33333 2000.25 1524.33333 2000.25 1492.56667 1968.5 1460.8 1968.5 1429.03333 1968.5 1397.26667 1968.5 1365.5 1968.5 1333.73333 2000.25 1333.73333 2000.25 1301.96667 2000.25 1270.2 2032 1301.96667 2063.75 1301.96667 2063.75 1270.2 2095.5 1270.2 2095.5 1238.43333 2095.5 1301.96667 2095.5 1333.73333 2063.75 1333.73333 2063.75 1365.5 2063.75 1397.26667 2063.75 1429.03333 2063.75 1460.8 2095.5 1429.03333 2127.25 1429.03333 2159 1429.03333 2159 1397.26667 2159 1365.5 2159 1333.73333 2159 1301.96667 2159 1270.2 2159 1238.43333 2159 1206.66667 2127.25 1174.9 2127.25 1143.13333 2127.25 1111.36667 2159 1111.36667 2190.75 1111.36667 2222.5 1111.36667 2222.5 1079.6 2222.5 1047.83333 2222.5 1016.06667 2222.5 984.3 2286 984.3 2286 952.533333 2286 920.766667 2286 889"></polyline>
                    <polyline stroke="#131114" stroke-width="20" points="2094 922 2094 954.25 2062 954.25 2062 986.5 2094 986.5 2126 986.5 2126 1051"></polyline>
                    <polyline stroke="#131114" stroke-width="20" points="2221 1143 2221 1207 2252 1207 2252 1239 2252 1271 2252 1303 2252 1335 2252 1367"></polyline>
                    <polyline stroke="#131114" stroke-width="20" points="1524 2285.75 1492.3 2285.75 1460.6 2285.75 1428.9 2285.75 1397.2 2285.75 1397.2 2317.5 1397.2 2349.25 1397.2 2381 1365.5 2381 1333.8 2381 1302.1 2381 1270.4 2381 1238.7 2381 1207 2381 1238.7 2349.25 1238.7 2317.5 1270.4 2285.75 1270.4 2254 1302.1 2254 1302.1 2285.75 1302.1 2317.5 1302.1 2349.25 1270.4 2349.25 1333.8 2349.25 1333.8 2317.5 1333.8 2285.75 1333.8 2254 1333.8 2222.25 1365.5 2254 1428.9 2254 1460.6 2254 1492.3 2254 1492.3 2222.25 1492.3 2190.5 1460.6 2190.5 1428.9 2190.5 1428.9 2158.75 1428.9 2127 1460.6 2127 1460.6 2095.25 1492.3 2063.5 1492.3 2031.75 1460.6 2031.75 1492.3 2000"></polyline>
                    <polyline stroke="#131114" stroke-width="20" points="1396 1905.6 1364.25 1905.6 1364.25 1937.3 1396 1937.3 1396 1969 1332.5 1969 1300.75 1969 1300.75 1937.3 1269 1937.3 1269 1905.6 1269 1873.9 1269 1842.2 1269 1810.5 1269 1778.8 1332.5 1778.8 1332.5 1747.1 1300.75 1715.4 1300.75 1683.7 1300.75 1652"></polyline>
                    <path d="M1397,1335 L1397,1271" stroke="#131114" stroke-width="20"></path>
                    <polyline stroke="#131114" stroke-width="20" points="1651.33333 1398.66667 1683 1398.66667 1683 1367 1683 1430.33333 1683 1462 1651.33333 1462 1619.66667 1462 1588 1430.33333"></polyline>
                    <polyline stroke="#131114" stroke-width="20" points="1681 1557 1681 1621 1681 1653 1681 1685 1681 1717"></polyline>
                    <polyline stroke="#131114" stroke-width="20" points="1777 1462 1745 1430.33333 1777 1398.66667 1809 1367"></polyline>
                    <polyline stroke="#131114" stroke-width="20" points="1872 1302 1872 1270 1872 1238"></polyline>
                    <polyline stroke="#131114" stroke-width="20" points="1872 1428 1872 1459 1903 1459 1903 1428"></polyline>
                    <polyline stroke="#131114" stroke-width="20" points="1363.33333 1776 1363.33333 1808.25 1331.66667 1808.25 1300 1840.5 1300 1872.75 1300 1905 1331.66667 1872.75 1395 1872.75 1395 1840.5"></polyline>
                    <polyline stroke="#131114" stroke-width="20" points="1334 2000.5 1302 2000.5 1270 2000.5 1270 2032.33333 1270 2064.16667 1270 2096 1238 2096 1206 2096 1206 2064.16667 1174 2064.16667 1174 2032.33333 1206 2032.33333 1206 2000.5 1206 1968.66667 1206 1936.83333 1206 1905"></polyline>
                    <polyline stroke="#131114" stroke-width="20" points="1303 2031 1303 2063 1303 2095 1303 2159 1271 2159 1271 2191 1207 2191 1207 2159 1175 2159 1143 2159 1143 2127 1143 2095 1175 2127 1207 2127 1239 2127"></polyline>
                    <polyline stroke="#131114" stroke-width="20" points="1112 2254.4 1112 2286.1 1080.15385 2286.1 1048.30769 2286.1 1016.46154 2286.1 984.615385 2286.1 952.769231 2286.1 920.923077 2286.1 889.076923 2286.1 857.230769 2286.1 825.384615 2286.1 793.538462 2286.1 793.538462 2254.4 825.384615 2254.4 825.384615 2222.7 857.230769 2222.7 857.230769 2254.4 889.076923 2254.4 920.923077 2254.4 920.923077 2222.7 920.923077 2191 889.076923 2191 952.769231 2191 984.615385 2222.7 984.615385 2254.4 952.769231 2254.4 1016.46154 2254.4 1016.46154 2317.8 984.615385 2317.8 984.615385 2349.5 952.769231 2349.5 952.769231 2381.2 952.769231 2412.9 920.923077 2412.9 889.076923 2412.9 889.076923 2444.6 857.230769 2444.6 825.384615 2444.6 793.538462 2444.6 761.692308 2444.6 729.846154 2444.6 698 2444.6 698 2412.9 698 2381.2 698 2349.5 698 2317.8 698 2286.1 729.846154 2317.8 761.692308 2349.5 729.846154 2381.2 729.846154 2412.9 729.846154 2476.3 698 2476.3 698 2508 729.846154 2508 793.538462 2508 793.538462 2476.3 825.384615 2476.3 825.384615 2508 889.076923 2508 889.076923 2476.3 920.923077 2476.3 920.923077 2444.6 952.769231 2476.3 952.769231 2508 920.923077 2508"></polyline>
                    <polyline stroke="#131114" stroke-width="20" points="888 2319 856.333333 2319 824.666667 2319 793 2319 824.666667 2351 824.666667 2383 793 2383"></polyline>
                    <polyline stroke="#131114" stroke-width="20" points="637 2382 637 2414 605.142857 2414 541.428571 2414 509.571429 2414 477.714286 2414 445.857143 2382 414 2382 414 2350 414 2318 414 2286 414 2254 445.857143 2254 445.857143 2286 445.857143 2318 445.857143 2350"></polyline>
                    <polyline stroke="#131114" stroke-width="20" points="412.75 2412.75 381 2412.75 381 2444.5 412.75 2476.25 412.75 2508 444.5 2508 444.5 2476.25 444.5 2444.5 508 2444.5 508 2381 539.75 2381 539.75 2349.25 539.75 2317.5 508 2317.5 508 2285.75 476.25 2285.75 508 2254 539.75 2254 539.75 2222.25 539.75 2190.5 508 2190.5 508 2158.75 508 2127 539.75 2127 571.5 2127 571.5 2158.75 603.25 2190.5 603.25 2222.25 571.5 2222.25 603.25 2254 603.25 2285.75 635 2254"></polyline>
                    <polyline stroke="#131114" stroke-width="20" points="445 2191 413 2191 381 2191 413 2159 413 2127 381 2127 413 2095 413 2063 445 2063 445 2031 445 2095 445 2127 445 2159"></polyline>
                    <polyline stroke="#131114" stroke-width="20" points="350 1875 318.25 1842.75 254.75 1842.75 254.75 1778.25 254.75 1746 223 1746"></polyline>
                    <polyline stroke="#131114" stroke-width="20" points="1776 668 1776 700 1776 764 1776 828 1745 828"></polyline>
                    <polyline stroke="#131114" stroke-width="20" points="1617 825 1585.33333 793.3 1585.33333 761.6 1585.33333 729.9 1553.66667 729.9 1585.33333 698.2 1585.33333 666.5 1585.33333 634.8 1585.33333 603.1 1553.66667 603.1 1553.66667 571.4 1585.33333 571.4 1585.33333 539.7 1553.66667 508 1522 508"></polyline>
                    <polyline stroke="#131114" stroke-width="20" points="1588 445.833333 1651.5 445.833333 1651.5 414 1683.25 445.833333 1651.5 477.666667 1683.25 509.5 1683.25 541.333333 1651.5 541.333333 1651.5 573.166667 1619.75 573.166667 1619.75 605 1651.5 605 1683.25 573.166667 1715 605"></polyline>
                    <path d="M1682,668 L1651,668" stroke="#131114" stroke-width="20"></path>
                    <polyline stroke="#131114" stroke-width="20" points="1555 859 1555 890.666667 1586 922.333333 1555 954"></polyline>
                    <path d="M1491,1017 L1491,1081" stroke="#131114" stroke-width="20"></path>
                    <path d="M1395,922 L1364,953" stroke="#131114" stroke-width="20"></path>
                    <polyline stroke="#131114" stroke-width="20" points="1205 953 1174 953 1174 984"></polyline>
                    <polyline stroke="#131114" stroke-width="20" points="1047 920 1015 889 983 889 983 920"></polyline>
                    <polyline stroke="#131114" stroke-width="20" points="1207 698 1207 729 1238 729"></polyline>
                    <polyline stroke="#131114" stroke-width="20" points="414 1301 414 1333 445 1333 445 1365"></polyline>
                    <path d="M1807,1557 L1776,1557" stroke="#646464" stroke-width="20"></path>
                    <polyline stroke="#646464" stroke-width="20" points="1586 1459 1555 1459 1555 1428"></polyline>
                    <polyline stroke="#646464" stroke-width="20" points="1522 1366 1553 1334.33333 1553 1271"></polyline>
                    <path d="M1651,1271 L1651,1335" stroke="#646464" stroke-width="20"></path>
                    <path d="M1712,1367 L1743,1398" stroke="#646464" stroke-width="20"></path>
                    <path d="M1936,1176 L1967,1176" stroke="#646464" stroke-width="20"></path>
                    <path d="M2126,1207 L2126,1238" stroke="#646464" stroke-width="20"></path>
                    <path d="M760,2319 L729,2350" stroke="#646464" stroke-width="20"></path>
                    <polyline stroke="#646464" stroke-width="20" points="569 2255 569 2191.66667 538 2160"></polyline>
                    <path d="M538,1842 L569,1873" stroke="#646464" stroke-width="20"></path>
                    <polyline stroke="#646464" stroke-width="20" points="729 1812 729 1748 760 1716 760 1652"></polyline>
                    <polyline stroke="#646464" stroke-width="20" points="664 1684 632.333333 1716 569 1716 569 1684 569 1652"></polyline>
                    <path d="M539,1588 L508,1588" stroke="#646464" stroke-width="20"></path>
                    <path d="M348,1652 L317,1683" stroke="#646464" stroke-width="20"></path>
                    <path d="M414,1398 L414,1367" stroke="#646464" stroke-width="20"></path>
                    <path d="M698,1271 L729,1302" stroke="#646464" stroke-width="20"></path>
                    <path d="M793,1271 L857,1271" stroke="#646464" stroke-width="20"></path>
                    <polyline stroke="#646464" stroke-width="20" points="1047 1143.33333 1047 1111.66667 1047 1080 1079 1111.66667 1079 1175 1111 1175"></polyline>
                    <polyline stroke="#646464" stroke-width="20" points="1174 1081 1174 1049 1143 1017"></polyline>
                    <polyline stroke="#646464" stroke-width="20" points="1206.33333 986 1238 954 1206.33333 922 1143 922"></polyline>
                    <path d="M1045,793 L1014,824" stroke="#646464" stroke-width="20"></path>
                    <polyline stroke="#646464" stroke-width="20" points="920.75 824 920.75 888 889 920 889 984 920.75 984 984.25 984 1016 984 1016 952"></polyline>
                    <path d="M1207,668 L1238,699" stroke="#646464" stroke-width="20"></path>
                    <path d="M1269,636 L1269,605" stroke="#646464" stroke-width="20"></path>
                    <polyline stroke="#646464" stroke-width="20" points="1300 540 1363.5 540 1395.25 508 1363.5 476 1427 476"></polyline>
                    <path d="M1555,476 L1555,540" stroke="#646464" stroke-width="20"></path>
                    <path d="M1682,922 L1651,953" stroke="#646464" stroke-width="20"></path>
                    <path d="M1681,1017 L1681,1048" stroke="#646464" stroke-width="20"></path>
                    <path d="M1586,1111 L1555,1080" stroke="#646464" stroke-width="20"></path>
                    <polyline stroke="#646464" stroke-width="20" points="1428 888 1428 824.666667 1428 793"></polyline>
                    <path d="M1331,668 L1300,668" stroke="#646464" stroke-width="20"></path>
                    <path d="M191,1746 L127,1746" stroke="#646464" stroke-width="20"></path>
                    <polyline stroke="#646464" stroke-width="20" points="824 2065 887.333333 2065 887.333333 2096 919 2065"></polyline>
                    <path d="M919,1969 L919,1905" stroke="#646464" stroke-width="20"></path>
                    <polyline stroke="#646464" stroke-width="20" points="1014 1842 1014 1874 1014 1906"></polyline>
                    <path d="M1174,1714 L1174,1683" stroke="#646464" stroke-width="20"></path>
                    <polyline stroke="#646464" stroke-width="20" points="1205 1619 1205 1588 1174 1588"></polyline>
                    <polyline stroke="#646464" stroke-width="20" points="1269 1588 1333 1588 1333 1619.66667 1333 1683"></polyline>
                    <path d="M1300,1746 L1364,1746" stroke="#646464" stroke-width="20"></path>
                    <path d="M1364,1874 L1333,1905" stroke="#646464" stroke-width="20"></path>
                    <polyline stroke="#646464" stroke-width="20" points="1619 1588 1650 1588 1650 1557"></polyline>
                    <polyline stroke="#646464" stroke-width="20" points="1367 1431 1335 1431 1303 1399 1271 1399 1271 1367 1207 1367"></polyline>
                    <path d="M1143,1398 L1143,1429" stroke="#646464" stroke-width="20"></path>
                    <polyline stroke="#646464" stroke-width="20" points="1045 1332 1045 1301 1014 1301"></polyline>
                    <path d="M1047,1555 L1047,1524" stroke="#646464" stroke-width="20"></path>
                    <polyline stroke="#646464" stroke-width="20" points="604 1556 604 1524 604 1492"></polyline>
                    <path d="M729,2127 L729,2158" stroke="#646464" stroke-width="20"></path>
                    <polyline stroke="#646464" stroke-width="20" points="793 2191 825 2191 857 2160"></polyline>
                    <path d="M952,2222 L983,2191" stroke="#646464" stroke-width="20"></path>
                    <polyline stroke="#646464" stroke-width="20" points="1269 1272 1269 1207.5 1238 1175.25 1269 1143"></polyline>
                    <polyline stroke="#646464" stroke-width="20" points="1776 953 1776 985 1807 1017"></polyline>
                    <polyline stroke="#646464" stroke-width="20" points="2030 953 2030 985 2061 1017"></polyline>
                    <polyline stroke="#9A9B9F" stroke-width="20" points="1333 1845 1365 1845 1397 1813 1397 1781 1397 1717 1365 1717 1365 1653 1333 1653 1365 1621"></polyline>
                    <polyline stroke="#9A9B9F" stroke-width="20" points="1364 1524 1395.66667 1492 1427.33333 1524 1459 1556"></polyline>
                    <path d="M1491,1746 L1491,1777" stroke="#9A9B9F" stroke-width="20"></path>
                    <path d="M1712,1621 L1743,1652" stroke="#9A9B9F" stroke-width="20"></path>
                    <polyline stroke="#9A9B9F" stroke-width="20" points="1238 1716 1238 1684 1206 1684 1206 1652 1174 1652"></polyline>
                    <polyline stroke="#9A9B9F" stroke-width="20" points="1109 1683 1078 1683 1109 1714"></polyline>
                    <path d="M1014,1746 L983,1715" stroke="#9A9B9F" stroke-width="20"></path>
                    <path d="M858,1683 L858,1652" stroke="#9A9B9F" stroke-width="20"></path>
                    <polyline stroke="#9A9B9F" stroke-width="20" points="760 1462 760 1430.33333 760 1398.66667 760 1367 729 1367"></polyline>
                    <path d="M539,1398 L508,1398" stroke="#9A9B9F" stroke-width="20"></path>
                    <polyline stroke="#9A9B9F" stroke-width="20" points="508 1684 539 1652 539 1716"></polyline>
                    <polyline stroke="#9A9B9F" stroke-width="20" points="698 1018.75 698 1051 729.666667 1018.75 761.333333 1018.75 793 986.5 793 922"></polyline>
                    <path d="M348,1398 L348,1429" stroke="#9A9B9F" stroke-width="20"></path>
                    <polyline stroke="#9A9B9F" stroke-width="20" points="190 1812 254 1812 254 1875.33333 222 1875.33333 254 1907"></polyline>
                    <polyline stroke="#9A9B9F" stroke-width="20" points="317 1812 348 1812 348 1843"></polyline>
                    <path d="M635,2127 L604,2127" stroke="#9A9B9F" stroke-width="20"></path>
                    <path d="M698,2062 L729,2031" stroke="#9A9B9F" stroke-width="20"></path>
                    <path d="M919,1842 L919,1873" stroke="#9A9B9F" stroke-width="20"></path>
                    <polyline stroke="#9A9B9F" stroke-width="20" points="983 1936 1015 1967.66667 1047 1967.66667 1047 2031"></polyline>
                    <polyline stroke="#9A9B9F" stroke-width="20" points="857 2127 825 2127 793 2127 793 2158"></polyline>
                    <path d="M1460,1334 L1460,1365" stroke="#9A9B9F" stroke-width="20"></path>
                    <polyline stroke="#9A9B9F" stroke-width="20" points="1460 1271 1460 1239.33333 1460 1176"></polyline>
                    <path d="M1397,890 L1428,859" stroke="#9A9B9F" stroke-width="20"></path>
                    <path d="M1364,824 L1333,793" stroke="#9A9B9F" stroke-width="20"></path>
                    <path d="M1522,762 L1522,826" stroke="#9A9B9F" stroke-width="20"></path>
                    <polyline stroke="#9A9B9F" stroke-width="20" points="1651 824 1682 824 1682 793"></polyline>
                    <path d="M1491,414 L1460,414" stroke="#9A9B9F" stroke-width="20"></path>
                    <path d="M1397,476 L1428,507" stroke="#9A9B9F" stroke-width="20"></path>
                    <polyline stroke="#9A9B9F" stroke-width="20" points="1905 920 1873 889 1841 920"></polyline>
                    <polyline stroke="#9A9B9F" stroke-width="20" points="1651 984 1651 1016.25 1651 1048.5 1651 1113"></polyline>
                    <polyline stroke="#9A9B9F" stroke-width="20" points="1586 1081 1586 1017 1555 1017"></polyline>
                    <path d="M1619,1176 L1619,1240" stroke="#9A9B9F" stroke-width="20"></path>
                    <polyline stroke="#9A9B9F" stroke-width="20" points="1650 1301 1619 1333 1650 1365"></polyline>
                    <polyline stroke="#9A9B9F" stroke-width="20" points="1714.33333 1398 1714.33333 1429.66667 1746 1461.33333 1746 1493 1714.33333 1493 1651 1493"></polyline>
                    <path d="M1745,1332 L1745,1301" stroke="#9A9B9F" stroke-width="20"></path>
                    <polyline stroke="#9A9B9F" stroke-width="20" points="1841 1301 1873 1332 1905 1332"></polyline>
                    <polyline stroke="#9A9B9F" stroke-width="20" points="2000 1398 2000 1366 2031 1334"></polyline>
                    <polyline stroke="#9A9B9F" stroke-width="20" points="1302 1207 1270 1175 1238 1143"></polyline>
                    <path d="M1333,1143 L1333,1174" stroke="#9A9B9F" stroke-width="20"></path>
                    <path d="M1143,1271 L1143,1302" stroke="#9A9B9F" stroke-width="20"></path>
                    <path d="M1047,1207 L1047,1176" stroke="#9A9B9F" stroke-width="20"></path>
                    <polyline stroke="#9A9B9F" stroke-width="20" points="952 1146 952 1113.75 952 1081.5 983 1049.25 952 1017"></polyline>
                    <polyline stroke="#9A9B9F" stroke-width="20" points="858 1112 858 1176 922 1176"></polyline>
                    <path d="M2190,1271 L2190,1207" stroke="#B83152" stroke-width="20"></path>
                    <path d="M1841,1207 L1841,1238" stroke="#B83152" stroke-width="20"></path>
                    <path d="M858,2381 L858,2412" stroke="#B83152" stroke-width="20"></path>
                    <path d="M760,1588 L729,1557" stroke="#B83152" stroke-width="20"></path>
                    <polyline stroke="#B83152" stroke-width="20" points="1555 698 1555 762.5 1555 794.75 1555 827"></polyline>
                    <path d="M1269,824 L1269,888" stroke="#B83152" stroke-width="20"></path>
                    <path d="M1333,1238 L1364,1207" stroke="#B83152" stroke-width="20"></path>
                    <polyline stroke="#B83152" stroke-width="20" points="160 1557 160 1589 160 1653 160 1717"></polyline>
                    <path d="M1364,1015 L1364,984" stroke="#2A68B1" stroke-width="20"></path>
                    <path d="M1776,1207 L1776,1238" stroke="#C7DF6F" stroke-width="20"></path>
                    <path d="M666,1301 L635,1301" stroke="#C7DF6F" stroke-width="20"></path>
                    <path d="M604,1238 L604,1207" stroke="#C7DF6F" stroke-width="20"></path>
                    <path d="M762,2414 L762,2478" stroke="#C7DF6F" stroke-width="20"></path>
                    <path d="M1109,2000 L1078,2000" stroke="#7C070F" stroke-width="20"></path>
                    <path d="M824,2414 L793,2414" stroke="#7C070F" stroke-width="20"></path>
                    <path d="M729,1588 L760,1619" stroke="#7C070F" stroke-width="20"></path>
                    <path d="M1300,793 L1300,824" stroke="#7C070F" stroke-width="20"></path>
                    <path d="M1269,1017 L1269,1081" stroke="#7C070F" stroke-width="20"></path>
                    <path d="M1588,1367 L1588,1398" stroke="#7C070F" stroke-width="20"></path>
                    <polyline stroke="#7C070F" stroke-width="20" points="2157 1176 2188 1176 2188 1240"></polyline>
                    <path d="M1078,1461 L1078,1492" stroke="#00267B" stroke-width="20"></path>
                    <path d="M1936,1017 L1967,1017" stroke="#00267B" stroke-width="20"></path>
                </g>
            </g>
        </g>
    </g>
</svg>